<?xml version="1.0" encoding="utf-8"?>
<svg xmlns="http://www.w3.org/2000/svg" xmlns:xlink="http://www.w3.org/1999/xlink" width="600" height="400" viewBox="0 0 2400 1600">
<defs>
  <clipPath id="clip140">
    <rect x="0" y="0" width="2400" height="1600"/>
  </clipPath>
</defs>
<path clip-path="url(#clip140)" d="M0 1600 L2400 1600 L2400 0 L0 0  Z" fill="#ffffff" fill-rule="evenodd" fill-opacity="1"/>
<defs>
  <clipPath id="clip141">
    <rect x="480" y="0" width="1681" height="1600"/>
  </clipPath>
</defs>
<path clip-path="url(#clip140)" d="M219.866 1423.18 L2127.7 1423.18 L2127.7 123.472 L219.866 123.472  Z" fill="#ffffff" fill-rule="evenodd" fill-opacity="1"/>
<defs>
  <clipPath id="clip142">
    <rect x="219" y="123" width="1909" height="1301"/>
  </clipPath>
</defs>
<polyline clip-path="url(#clip142)" style="stroke:#000000; stroke-linecap:round; stroke-linejoin:round; stroke-width:2; stroke-opacity:0.1; fill:none" points="423.925,1423.18 423.925,123.472 "/>
<polyline clip-path="url(#clip142)" style="stroke:#000000; stroke-linecap:round; stroke-linejoin:round; stroke-width:2; stroke-opacity:0.1; fill:none" points="674.03,1423.18 674.03,123.472 "/>
<polyline clip-path="url(#clip142)" style="stroke:#000000; stroke-linecap:round; stroke-linejoin:round; stroke-width:2; stroke-opacity:0.1; fill:none" points="924.136,1423.18 924.136,123.472 "/>
<polyline clip-path="url(#clip142)" style="stroke:#000000; stroke-linecap:round; stroke-linejoin:round; stroke-width:2; stroke-opacity:0.1; fill:none" points="1174.24,1423.18 1174.24,123.472 "/>
<polyline clip-path="url(#clip142)" style="stroke:#000000; stroke-linecap:round; stroke-linejoin:round; stroke-width:2; stroke-opacity:0.1; fill:none" points="1424.35,1423.18 1424.35,123.472 "/>
<polyline clip-path="url(#clip142)" style="stroke:#000000; stroke-linecap:round; stroke-linejoin:round; stroke-width:2; stroke-opacity:0.1; fill:none" points="1674.45,1423.18 1674.45,123.472 "/>
<polyline clip-path="url(#clip142)" style="stroke:#000000; stroke-linecap:round; stroke-linejoin:round; stroke-width:2; stroke-opacity:0.1; fill:none" points="1924.56,1423.18 1924.56,123.472 "/>
<polyline clip-path="url(#clip140)" style="stroke:#000000; stroke-linecap:round; stroke-linejoin:round; stroke-width:4; stroke-opacity:1; fill:none" points="219.866,1423.18 2127.7,1423.18 "/>
<polyline clip-path="url(#clip140)" style="stroke:#000000; stroke-linecap:round; stroke-linejoin:round; stroke-width:4; stroke-opacity:1; fill:none" points="423.925,1423.18 423.925,1404.28 "/>
<polyline clip-path="url(#clip140)" style="stroke:#000000; stroke-linecap:round; stroke-linejoin:round; stroke-width:4; stroke-opacity:1; fill:none" points="674.03,1423.18 674.03,1404.28 "/>
<polyline clip-path="url(#clip140)" style="stroke:#000000; stroke-linecap:round; stroke-linejoin:round; stroke-width:4; stroke-opacity:1; fill:none" points="924.136,1423.18 924.136,1404.28 "/>
<polyline clip-path="url(#clip140)" style="stroke:#000000; stroke-linecap:round; stroke-linejoin:round; stroke-width:4; stroke-opacity:1; fill:none" points="1174.24,1423.18 1174.24,1404.28 "/>
<polyline clip-path="url(#clip140)" style="stroke:#000000; stroke-linecap:round; stroke-linejoin:round; stroke-width:4; stroke-opacity:1; fill:none" points="1424.35,1423.18 1424.35,1404.28 "/>
<polyline clip-path="url(#clip140)" style="stroke:#000000; stroke-linecap:round; stroke-linejoin:round; stroke-width:4; stroke-opacity:1; fill:none" points="1674.45,1423.18 1674.45,1404.28 "/>
<polyline clip-path="url(#clip140)" style="stroke:#000000; stroke-linecap:round; stroke-linejoin:round; stroke-width:4; stroke-opacity:1; fill:none" points="1924.56,1423.18 1924.56,1404.28 "/>
<path clip-path="url(#clip140)" d="M362.907 1468.75 L392.583 1468.75 L392.583 1472.69 L362.907 1472.69 L362.907 1468.75 Z" fill="#000000" fill-rule="nonzero" fill-opacity="1" /><path clip-path="url(#clip140)" d="M403.485 1481.64 L411.124 1481.64 L411.124 1455.28 L402.814 1456.95 L402.814 1452.69 L411.078 1451.02 L415.754 1451.02 L415.754 1481.64 L423.393 1481.64 L423.393 1485.58 L403.485 1485.58 L403.485 1481.64 Z" fill="#000000" fill-rule="nonzero" fill-opacity="1" /><path clip-path="url(#clip140)" d="M432.883 1451.02 L451.24 1451.02 L451.24 1454.96 L437.166 1454.96 L437.166 1463.43 Q438.184 1463.08 439.203 1462.92 Q440.221 1462.73 441.24 1462.73 Q447.027 1462.73 450.406 1465.9 Q453.786 1469.08 453.786 1474.49 Q453.786 1480.07 450.314 1483.17 Q446.841 1486.25 440.522 1486.25 Q438.346 1486.25 436.078 1485.88 Q433.832 1485.51 431.425 1484.77 L431.425 1480.07 Q433.508 1481.2 435.73 1481.76 Q437.953 1482.32 440.429 1482.32 Q444.434 1482.32 446.772 1480.21 Q449.11 1478.1 449.11 1474.49 Q449.11 1470.88 446.772 1468.77 Q444.434 1466.67 440.429 1466.67 Q438.554 1466.67 436.679 1467.08 Q434.828 1467.5 432.883 1468.38 L432.883 1451.02 Z" fill="#000000" fill-rule="nonzero" fill-opacity="1" /><path clip-path="url(#clip140)" d="M472.999 1454.1 Q469.388 1454.1 467.559 1457.66 Q465.753 1461.2 465.753 1468.33 Q465.753 1475.44 467.559 1479.01 Q469.388 1482.55 472.999 1482.55 Q476.633 1482.55 478.439 1479.01 Q480.267 1475.44 480.267 1468.33 Q480.267 1461.2 478.439 1457.66 Q476.633 1454.1 472.999 1454.1 M472.999 1450.39 Q478.809 1450.39 481.864 1455 Q484.943 1459.58 484.943 1468.33 Q484.943 1477.06 481.864 1481.67 Q478.809 1486.25 472.999 1486.25 Q467.189 1486.25 464.11 1481.67 Q461.054 1477.06 461.054 1468.33 Q461.054 1459.58 464.11 1455 Q467.189 1450.39 472.999 1450.39 Z" fill="#000000" fill-rule="nonzero" fill-opacity="1" /><path clip-path="url(#clip140)" d="M613.012 1468.75 L642.688 1468.75 L642.688 1472.69 L613.012 1472.69 L613.012 1468.75 Z" fill="#000000" fill-rule="nonzero" fill-opacity="1" /><path clip-path="url(#clip140)" d="M653.591 1481.64 L661.23 1481.64 L661.23 1455.28 L652.919 1456.95 L652.919 1452.69 L661.183 1451.02 L665.859 1451.02 L665.859 1481.64 L673.498 1481.64 L673.498 1485.58 L653.591 1485.58 L653.591 1481.64 Z" fill="#000000" fill-rule="nonzero" fill-opacity="1" /><path clip-path="url(#clip140)" d="M692.942 1454.1 Q689.331 1454.1 687.503 1457.66 Q685.697 1461.2 685.697 1468.33 Q685.697 1475.44 687.503 1479.01 Q689.331 1482.55 692.942 1482.55 Q696.577 1482.55 698.382 1479.01 Q700.211 1475.44 700.211 1468.33 Q700.211 1461.2 698.382 1457.66 Q696.577 1454.1 692.942 1454.1 M692.942 1450.39 Q698.752 1450.39 701.808 1455 Q704.887 1459.58 704.887 1468.33 Q704.887 1477.06 701.808 1481.67 Q698.752 1486.25 692.942 1486.25 Q687.132 1486.25 684.053 1481.67 Q680.998 1477.06 680.998 1468.33 Q680.998 1459.58 684.053 1455 Q687.132 1450.39 692.942 1450.39 Z" fill="#000000" fill-rule="nonzero" fill-opacity="1" /><path clip-path="url(#clip140)" d="M723.104 1454.1 Q719.493 1454.1 717.664 1457.66 Q715.859 1461.2 715.859 1468.33 Q715.859 1475.44 717.664 1479.01 Q719.493 1482.55 723.104 1482.55 Q726.738 1482.55 728.544 1479.01 Q730.373 1475.44 730.373 1468.33 Q730.373 1461.2 728.544 1457.66 Q726.738 1454.1 723.104 1454.1 M723.104 1450.39 Q728.914 1450.39 731.97 1455 Q735.049 1459.58 735.049 1468.33 Q735.049 1477.06 731.97 1481.67 Q728.914 1486.25 723.104 1486.25 Q717.294 1486.25 714.215 1481.67 Q711.16 1477.06 711.16 1468.33 Q711.16 1459.58 714.215 1455 Q717.294 1450.39 723.104 1450.39 Z" fill="#000000" fill-rule="nonzero" fill-opacity="1" /><path clip-path="url(#clip140)" d="M878.199 1468.75 L907.874 1468.75 L907.874 1472.69 L878.199 1472.69 L878.199 1468.75 Z" fill="#000000" fill-rule="nonzero" fill-opacity="1" /><path clip-path="url(#clip140)" d="M918.013 1451.02 L936.37 1451.02 L936.37 1454.96 L922.296 1454.96 L922.296 1463.43 Q923.314 1463.08 924.333 1462.92 Q925.351 1462.73 926.37 1462.73 Q932.157 1462.73 935.536 1465.9 Q938.916 1469.08 938.916 1474.49 Q938.916 1480.07 935.444 1483.17 Q931.971 1486.25 925.652 1486.25 Q923.476 1486.25 921.208 1485.88 Q918.962 1485.51 916.555 1484.77 L916.555 1480.07 Q918.638 1481.2 920.86 1481.76 Q923.083 1482.32 925.559 1482.32 Q929.564 1482.32 931.902 1480.21 Q934.24 1478.1 934.24 1474.49 Q934.24 1470.88 931.902 1468.77 Q929.564 1466.67 925.559 1466.67 Q923.684 1466.67 921.809 1467.08 Q919.958 1467.5 918.013 1468.38 L918.013 1451.02 Z" fill="#000000" fill-rule="nonzero" fill-opacity="1" /><path clip-path="url(#clip140)" d="M958.129 1454.1 Q954.518 1454.1 952.689 1457.66 Q950.883 1461.2 950.883 1468.33 Q950.883 1475.44 952.689 1479.01 Q954.518 1482.55 958.129 1482.55 Q961.763 1482.55 963.569 1479.01 Q965.397 1475.44 965.397 1468.33 Q965.397 1461.2 963.569 1457.66 Q961.763 1454.1 958.129 1454.1 M958.129 1450.39 Q963.939 1450.39 966.994 1455 Q970.073 1459.58 970.073 1468.33 Q970.073 1477.06 966.994 1481.67 Q963.939 1486.25 958.129 1486.25 Q952.319 1486.25 949.24 1481.67 Q946.184 1477.06 946.184 1468.33 Q946.184 1459.58 949.24 1455 Q952.319 1450.39 958.129 1450.39 Z" fill="#000000" fill-rule="nonzero" fill-opacity="1" /><path clip-path="url(#clip140)" d="M1174.24 1454.1 Q1170.63 1454.1 1168.8 1457.66 Q1167 1461.2 1167 1468.33 Q1167 1475.44 1168.8 1479.01 Q1170.63 1482.55 1174.24 1482.55 Q1177.88 1482.55 1179.68 1479.01 Q1181.51 1475.44 1181.51 1468.33 Q1181.51 1461.2 1179.68 1457.66 Q1177.88 1454.1 1174.24 1454.1 M1174.24 1450.39 Q1180.05 1450.39 1183.11 1455 Q1186.19 1459.58 1186.19 1468.33 Q1186.19 1477.06 1183.11 1481.67 Q1180.05 1486.25 1174.24 1486.25 Q1168.43 1486.25 1165.35 1481.67 Q1162.3 1477.06 1162.3 1468.33 Q1162.3 1459.58 1165.35 1455 Q1168.43 1450.39 1174.24 1450.39 Z" fill="#000000" fill-rule="nonzero" fill-opacity="1" /><path clip-path="url(#clip140)" d="M1399.05 1451.02 L1417.4 1451.02 L1417.4 1454.96 L1403.33 1454.96 L1403.33 1463.43 Q1404.35 1463.08 1405.37 1462.92 Q1406.38 1462.73 1407.4 1462.73 Q1413.19 1462.73 1416.57 1465.9 Q1419.95 1469.08 1419.95 1474.49 Q1419.95 1480.07 1416.48 1483.17 Q1413 1486.25 1406.68 1486.25 Q1404.51 1486.25 1402.24 1485.88 Q1400 1485.51 1397.59 1484.77 L1397.59 1480.07 Q1399.67 1481.2 1401.89 1481.76 Q1404.12 1482.32 1406.59 1482.32 Q1410.6 1482.32 1412.93 1480.21 Q1415.27 1478.1 1415.27 1474.49 Q1415.27 1470.88 1412.93 1468.77 Q1410.6 1466.67 1406.59 1466.67 Q1404.72 1466.67 1402.84 1467.08 Q1400.99 1467.5 1399.05 1468.38 L1399.05 1451.02 Z" fill="#000000" fill-rule="nonzero" fill-opacity="1" /><path clip-path="url(#clip140)" d="M1439.16 1454.1 Q1435.55 1454.1 1433.72 1457.66 Q1431.92 1461.2 1431.92 1468.33 Q1431.92 1475.44 1433.72 1479.01 Q1435.55 1482.55 1439.16 1482.55 Q1442.8 1482.55 1444.6 1479.01 Q1446.43 1475.44 1446.43 1468.33 Q1446.43 1461.2 1444.6 1457.66 Q1442.8 1454.1 1439.16 1454.1 M1439.16 1450.39 Q1444.97 1450.39 1448.03 1455 Q1451.11 1459.58 1451.11 1468.33 Q1451.11 1477.06 1448.03 1481.67 Q1444.97 1486.25 1439.16 1486.25 Q1433.35 1486.25 1430.27 1481.67 Q1427.22 1477.06 1427.22 1468.33 Q1427.22 1459.58 1430.27 1455 Q1433.35 1450.39 1439.16 1450.39 Z" fill="#000000" fill-rule="nonzero" fill-opacity="1" /><path clip-path="url(#clip140)" d="M1634.06 1481.64 L1641.7 1481.64 L1641.7 1455.28 L1633.39 1456.95 L1633.39 1452.69 L1641.65 1451.02 L1646.33 1451.02 L1646.33 1481.64 L1653.97 1481.64 L1653.97 1485.58 L1634.06 1485.58 L1634.06 1481.64 Z" fill="#000000" fill-rule="nonzero" fill-opacity="1" /><path clip-path="url(#clip140)" d="M1673.41 1454.1 Q1669.8 1454.1 1667.97 1457.66 Q1666.17 1461.2 1666.17 1468.33 Q1666.17 1475.44 1667.97 1479.01 Q1669.8 1482.55 1673.41 1482.55 Q1677.04 1482.55 1678.85 1479.01 Q1680.68 1475.44 1680.68 1468.33 Q1680.68 1461.2 1678.85 1457.66 Q1677.04 1454.1 1673.41 1454.1 M1673.41 1450.39 Q1679.22 1450.39 1682.28 1455 Q1685.35 1459.58 1685.35 1468.33 Q1685.35 1477.06 1682.28 1481.67 Q1679.22 1486.25 1673.41 1486.25 Q1667.6 1486.25 1664.52 1481.67 Q1661.47 1477.06 1661.47 1468.33 Q1661.47 1459.58 1664.52 1455 Q1667.6 1450.39 1673.41 1450.39 Z" fill="#000000" fill-rule="nonzero" fill-opacity="1" /><path clip-path="url(#clip140)" d="M1703.57 1454.1 Q1699.96 1454.1 1698.13 1457.66 Q1696.33 1461.2 1696.33 1468.33 Q1696.33 1475.44 1698.13 1479.01 Q1699.96 1482.55 1703.57 1482.55 Q1707.21 1482.55 1709.01 1479.01 Q1710.84 1475.44 1710.84 1468.33 Q1710.84 1461.2 1709.01 1457.66 Q1707.21 1454.1 1703.57 1454.1 M1703.57 1450.39 Q1709.38 1450.39 1712.44 1455 Q1715.52 1459.58 1715.52 1468.33 Q1715.52 1477.06 1712.44 1481.67 Q1709.38 1486.25 1703.57 1486.25 Q1697.76 1486.25 1694.68 1481.67 Q1691.63 1477.06 1691.63 1468.33 Q1691.63 1459.58 1694.68 1455 Q1697.76 1450.39 1703.57 1450.39 Z" fill="#000000" fill-rule="nonzero" fill-opacity="1" /><path clip-path="url(#clip140)" d="M1884.16 1481.64 L1891.8 1481.64 L1891.8 1455.28 L1883.49 1456.95 L1883.49 1452.69 L1891.76 1451.02 L1896.43 1451.02 L1896.43 1481.64 L1904.07 1481.64 L1904.07 1485.58 L1884.16 1485.58 L1884.16 1481.64 Z" fill="#000000" fill-rule="nonzero" fill-opacity="1" /><path clip-path="url(#clip140)" d="M1913.56 1451.02 L1931.92 1451.02 L1931.92 1454.96 L1917.84 1454.96 L1917.84 1463.43 Q1918.86 1463.08 1919.88 1462.92 Q1920.9 1462.73 1921.92 1462.73 Q1927.71 1462.73 1931.09 1465.9 Q1934.47 1469.08 1934.47 1474.49 Q1934.47 1480.07 1930.99 1483.17 Q1927.52 1486.25 1921.2 1486.25 Q1919.03 1486.25 1916.76 1485.88 Q1914.51 1485.51 1912.1 1484.77 L1912.1 1480.07 Q1914.19 1481.2 1916.41 1481.76 Q1918.63 1482.32 1921.11 1482.32 Q1925.11 1482.32 1927.45 1480.21 Q1929.79 1478.1 1929.79 1474.49 Q1929.79 1470.88 1927.45 1468.77 Q1925.11 1466.67 1921.11 1466.67 Q1919.23 1466.67 1917.36 1467.08 Q1915.51 1467.5 1913.56 1468.38 L1913.56 1451.02 Z" fill="#000000" fill-rule="nonzero" fill-opacity="1" /><path clip-path="url(#clip140)" d="M1953.68 1454.1 Q1950.07 1454.1 1948.24 1457.66 Q1946.43 1461.2 1946.43 1468.33 Q1946.43 1475.44 1948.24 1479.01 Q1950.07 1482.55 1953.68 1482.55 Q1957.31 1482.55 1959.12 1479.01 Q1960.95 1475.44 1960.95 1468.33 Q1960.95 1461.2 1959.12 1457.66 Q1957.31 1454.1 1953.68 1454.1 M1953.68 1450.39 Q1959.49 1450.39 1962.54 1455 Q1965.62 1459.58 1965.62 1468.33 Q1965.62 1477.06 1962.54 1481.67 Q1959.49 1486.25 1953.68 1486.25 Q1947.87 1486.25 1944.79 1481.67 Q1941.73 1477.06 1941.73 1468.33 Q1941.73 1459.58 1944.79 1455 Q1947.87 1450.39 1953.68 1450.39 Z" fill="#000000" fill-rule="nonzero" fill-opacity="1" /><path clip-path="url(#clip140)" d="M1012.89 1526.86 L1004.17 1550.51 L1021.64 1550.51 L1012.89 1526.86 M1009.26 1520.52 L1016.55 1520.52 L1034.66 1568.04 L1027.98 1568.04 L1023.65 1555.85 L1002.23 1555.85 L997.9 1568.04 L991.121 1568.04 L1009.26 1520.52 Z" fill="#000000" fill-rule="nonzero" fill-opacity="1" /><path clip-path="url(#clip140)" d="M1070.98 1546.53 L1070.98 1568.04 L1065.12 1568.04 L1065.12 1546.72 Q1065.12 1541.66 1063.15 1539.14 Q1061.18 1536.63 1057.23 1536.63 Q1052.49 1536.63 1049.75 1539.65 Q1047.01 1542.68 1047.01 1547.9 L1047.01 1568.04 L1041.12 1568.04 L1041.12 1532.4 L1047.01 1532.4 L1047.01 1537.93 Q1049.11 1534.72 1051.95 1533.13 Q1054.81 1531.54 1058.53 1531.54 Q1064.68 1531.54 1067.83 1535.36 Q1070.98 1539.14 1070.98 1546.53 Z" fill="#000000" fill-rule="nonzero" fill-opacity="1" /><path clip-path="url(#clip140)" d="M1106.12 1549.81 Q1106.12 1543.44 1103.48 1539.94 Q1100.87 1536.44 1096.12 1536.44 Q1091.41 1536.44 1088.77 1539.94 Q1086.16 1543.44 1086.16 1549.81 Q1086.16 1556.14 1088.77 1559.64 Q1091.41 1563.14 1096.12 1563.14 Q1100.87 1563.14 1103.48 1559.64 Q1106.12 1556.14 1106.12 1549.81 M1111.97 1563.62 Q1111.97 1572.72 1107.93 1577.15 Q1103.89 1581.6 1095.55 1581.6 Q1092.46 1581.6 1089.73 1581.13 Q1086.99 1580.68 1084.41 1579.72 L1084.41 1574.03 Q1086.99 1575.43 1089.5 1576.1 Q1092.02 1576.76 1094.63 1576.76 Q1100.39 1576.76 1103.25 1573.74 Q1106.12 1570.75 1106.12 1564.67 L1106.12 1561.77 Q1104.3 1564.92 1101.47 1566.48 Q1098.64 1568.04 1094.69 1568.04 Q1088.13 1568.04 1084.12 1563.05 Q1080.11 1558.05 1080.11 1549.81 Q1080.11 1541.53 1084.12 1536.53 Q1088.13 1531.54 1094.69 1531.54 Q1098.64 1531.54 1101.47 1533.1 Q1104.3 1534.66 1106.12 1537.81 L1106.12 1532.4 L1111.97 1532.4 L1111.97 1563.62 Z" fill="#000000" fill-rule="nonzero" fill-opacity="1" /><path clip-path="url(#clip140)" d="M1124.04 1518.52 L1129.89 1518.52 L1129.89 1568.04 L1124.04 1568.04 L1124.04 1518.52 Z" fill="#000000" fill-rule="nonzero" fill-opacity="1" /><path clip-path="url(#clip140)" d="M1172.64 1548.76 L1172.64 1551.62 L1145.71 1551.62 Q1146.09 1557.67 1149.34 1560.85 Q1152.62 1564 1158.44 1564 Q1161.82 1564 1164.97 1563.17 Q1168.15 1562.35 1171.27 1560.69 L1171.27 1566.23 Q1168.12 1567.57 1164.81 1568.27 Q1161.5 1568.97 1158.09 1568.97 Q1149.56 1568.97 1144.57 1564 Q1139.6 1559.04 1139.6 1550.57 Q1139.6 1541.82 1144.31 1536.69 Q1149.05 1531.54 1157.07 1531.54 Q1164.27 1531.54 1168.44 1536.18 Q1172.64 1540.8 1172.64 1548.76 M1166.78 1547.04 Q1166.72 1542.23 1164.08 1539.37 Q1161.47 1536.5 1157.14 1536.5 Q1152.24 1536.5 1149.28 1539.27 Q1146.35 1542.04 1145.9 1547.07 L1166.78 1547.04 Z" fill="#000000" fill-rule="nonzero" fill-opacity="1" /><path clip-path="url(#clip140)" d="M1213.38 1520.52 L1218.79 1520.52 L1202.24 1574.09 L1196.83 1574.09 L1213.38 1520.52 Z" fill="#000000" fill-rule="nonzero" fill-opacity="1" /><path clip-path="url(#clip140)" d="M1269.11 1537.81 L1269.11 1518.52 L1274.97 1518.52 L1274.97 1568.04 L1269.11 1568.04 L1269.11 1562.7 Q1267.27 1565.88 1264.43 1567.44 Q1261.63 1568.97 1257.68 1568.97 Q1251.22 1568.97 1247.15 1563.81 Q1243.11 1558.65 1243.11 1550.25 Q1243.11 1541.85 1247.15 1536.69 Q1251.22 1531.54 1257.68 1531.54 Q1261.63 1531.54 1264.43 1533.1 Q1267.27 1534.62 1269.11 1537.81 M1249.15 1550.25 Q1249.15 1556.71 1251.8 1560.4 Q1254.47 1564.07 1259.12 1564.07 Q1263.76 1564.07 1266.44 1560.4 Q1269.11 1556.71 1269.11 1550.25 Q1269.11 1543.79 1266.44 1540.13 Q1263.76 1536.44 1259.12 1536.44 Q1254.47 1536.44 1251.8 1540.13 Q1249.15 1543.79 1249.15 1550.25 Z" fill="#000000" fill-rule="nonzero" fill-opacity="1" /><path clip-path="url(#clip140)" d="M1317.52 1548.76 L1317.52 1551.62 L1290.6 1551.62 Q1290.98 1557.67 1294.22 1560.85 Q1297.5 1564 1303.33 1564 Q1306.7 1564 1309.85 1563.17 Q1313.03 1562.35 1316.15 1560.69 L1316.15 1566.23 Q1313 1567.57 1309.69 1568.27 Q1306.38 1568.97 1302.98 1568.97 Q1294.45 1568.97 1289.45 1564 Q1284.48 1559.04 1284.48 1550.57 Q1284.48 1541.82 1289.2 1536.69 Q1293.94 1531.54 1301.96 1531.54 Q1309.15 1531.54 1313.32 1536.18 Q1317.52 1540.8 1317.52 1548.76 M1311.67 1547.04 Q1311.6 1542.23 1308.96 1539.37 Q1306.35 1536.5 1302.02 1536.5 Q1297.12 1536.5 1294.16 1539.27 Q1291.23 1542.04 1290.79 1547.07 L1311.67 1547.04 Z" fill="#000000" fill-rule="nonzero" fill-opacity="1" /><path clip-path="url(#clip140)" d="M1350.59 1549.81 Q1350.59 1543.44 1347.95 1539.94 Q1345.34 1536.44 1340.6 1536.44 Q1335.89 1536.44 1333.25 1539.94 Q1330.64 1543.44 1330.64 1549.81 Q1330.64 1556.14 1333.25 1559.64 Q1335.89 1563.14 1340.6 1563.14 Q1345.34 1563.14 1347.95 1559.64 Q1350.59 1556.14 1350.59 1549.81 M1356.45 1563.62 Q1356.45 1572.72 1352.41 1577.15 Q1348.36 1581.6 1340.03 1581.6 Q1336.94 1581.6 1334.2 1581.13 Q1331.46 1580.68 1328.89 1579.72 L1328.89 1574.03 Q1331.46 1575.43 1333.98 1576.1 Q1336.49 1576.76 1339.1 1576.76 Q1344.86 1576.76 1347.73 1573.74 Q1350.59 1570.75 1350.59 1564.67 L1350.59 1561.77 Q1348.78 1564.92 1345.95 1566.48 Q1343.11 1568.04 1339.17 1568.04 Q1332.61 1568.04 1328.6 1563.05 Q1324.59 1558.05 1324.59 1549.81 Q1324.59 1541.53 1328.6 1536.53 Q1332.61 1531.54 1339.17 1531.54 Q1343.11 1531.54 1345.95 1533.1 Q1348.78 1534.66 1350.59 1537.81 L1350.59 1532.4 L1356.45 1532.4 L1356.45 1563.62 Z" fill="#000000" fill-rule="nonzero" fill-opacity="1" /><polyline clip-path="url(#clip140)" style="stroke:#000000; stroke-linecap:round; stroke-linejoin:round; stroke-width:4; stroke-opacity:1; fill:none" points="219.866,1423.18 219.866,123.472 "/>
<polyline clip-path="url(#clip140)" style="stroke:#000000; stroke-linecap:round; stroke-linejoin:round; stroke-width:4; stroke-opacity:1; fill:none" points="219.866,1423.18 238.764,1423.18 "/>
<polyline clip-path="url(#clip140)" style="stroke:#000000; stroke-linecap:round; stroke-linejoin:round; stroke-width:4; stroke-opacity:1; fill:none" points="219.866,1098.25 238.764,1098.25 "/>
<polyline clip-path="url(#clip140)" style="stroke:#000000; stroke-linecap:round; stroke-linejoin:round; stroke-width:4; stroke-opacity:1; fill:none" points="219.866,773.326 238.764,773.326 "/>
<polyline clip-path="url(#clip140)" style="stroke:#000000; stroke-linecap:round; stroke-linejoin:round; stroke-width:4; stroke-opacity:1; fill:none" points="219.866,448.399 238.764,448.399 "/>
<polyline clip-path="url(#clip140)" style="stroke:#000000; stroke-linecap:round; stroke-linejoin:round; stroke-width:4; stroke-opacity:1; fill:none" points="219.866,123.472 238.764,123.472 "/>
<path clip-path="url(#clip140)" d="M126.691 1408.98 Q123.08 1408.98 121.251 1412.54 Q119.445 1416.08 119.445 1423.21 Q119.445 1430.32 121.251 1433.89 Q123.08 1437.43 126.691 1437.43 Q130.325 1437.43 132.13 1433.89 Q133.959 1430.32 133.959 1423.21 Q133.959 1416.08 132.13 1412.54 Q130.325 1408.98 126.691 1408.98 M126.691 1405.27 Q132.501 1405.27 135.556 1409.88 Q138.635 1414.46 138.635 1423.21 Q138.635 1431.94 135.556 1436.55 Q132.501 1441.13 126.691 1441.13 Q120.88 1441.13 117.802 1436.55 Q114.746 1431.94 114.746 1423.21 Q114.746 1414.46 117.802 1409.88 Q120.88 1405.27 126.691 1405.27 Z" fill="#000000" fill-rule="nonzero" fill-opacity="1" /><path clip-path="url(#clip140)" d="M146.853 1434.58 L151.737 1434.58 L151.737 1440.46 L146.853 1440.46 L146.853 1434.58 Z" fill="#000000" fill-rule="nonzero" fill-opacity="1" /><path clip-path="url(#clip140)" d="M171.922 1408.98 Q168.311 1408.98 166.482 1412.54 Q164.677 1416.08 164.677 1423.21 Q164.677 1430.32 166.482 1433.89 Q168.311 1437.43 171.922 1437.43 Q175.556 1437.43 177.362 1433.89 Q179.19 1430.32 179.19 1423.21 Q179.19 1416.08 177.362 1412.54 Q175.556 1408.98 171.922 1408.98 M171.922 1405.27 Q177.732 1405.27 180.788 1409.88 Q183.866 1414.46 183.866 1423.21 Q183.866 1431.94 180.788 1436.55 Q177.732 1441.13 171.922 1441.13 Q166.112 1441.13 163.033 1436.55 Q159.978 1431.94 159.978 1423.21 Q159.978 1414.46 163.033 1409.88 Q166.112 1405.27 171.922 1405.27 Z" fill="#000000" fill-rule="nonzero" fill-opacity="1" /><path clip-path="url(#clip140)" d="M127.917 1084.05 Q124.306 1084.05 122.478 1087.62 Q120.672 1091.16 120.672 1098.29 Q120.672 1105.39 122.478 1108.96 Q124.306 1112.5 127.917 1112.5 Q131.552 1112.5 133.357 1108.96 Q135.186 1105.39 135.186 1098.29 Q135.186 1091.16 133.357 1087.62 Q131.552 1084.05 127.917 1084.05 M127.917 1080.35 Q133.728 1080.35 136.783 1084.95 Q139.862 1089.54 139.862 1098.29 Q139.862 1107.01 136.783 1111.62 Q133.728 1116.2 127.917 1116.2 Q122.107 1116.2 119.029 1111.62 Q115.973 1107.01 115.973 1098.29 Q115.973 1089.54 119.029 1084.95 Q122.107 1080.35 127.917 1080.35 Z" fill="#000000" fill-rule="nonzero" fill-opacity="1" /><path clip-path="url(#clip140)" d="M148.079 1109.65 L152.964 1109.65 L152.964 1115.53 L148.079 1115.53 L148.079 1109.65 Z" fill="#000000" fill-rule="nonzero" fill-opacity="1" /><path clip-path="url(#clip140)" d="M163.959 1111.6 L171.598 1111.6 L171.598 1085.23 L163.288 1086.9 L163.288 1082.64 L171.552 1080.97 L176.227 1080.97 L176.227 1111.6 L183.866 1111.6 L183.866 1115.53 L163.959 1115.53 L163.959 1111.6 Z" fill="#000000" fill-rule="nonzero" fill-opacity="1" /><path clip-path="url(#clip140)" d="M128.288 759.125 Q124.677 759.125 122.848 762.689 Q121.043 766.231 121.043 773.361 Q121.043 780.467 122.848 784.032 Q124.677 787.574 128.288 787.574 Q131.922 787.574 133.728 784.032 Q135.556 780.467 135.556 773.361 Q135.556 766.231 133.728 762.689 Q131.922 759.125 128.288 759.125 M128.288 755.421 Q134.098 755.421 137.154 760.027 Q140.232 764.611 140.232 773.361 Q140.232 782.088 137.154 786.694 Q134.098 791.277 128.288 791.277 Q122.478 791.277 119.399 786.694 Q116.343 782.088 116.343 773.361 Q116.343 764.611 119.399 760.027 Q122.478 755.421 128.288 755.421 Z" fill="#000000" fill-rule="nonzero" fill-opacity="1" /><path clip-path="url(#clip140)" d="M148.45 784.726 L153.334 784.726 L153.334 790.606 L148.45 790.606 L148.45 784.726 Z" fill="#000000" fill-rule="nonzero" fill-opacity="1" /><path clip-path="url(#clip140)" d="M167.547 786.671 L183.866 786.671 L183.866 790.606 L161.922 790.606 L161.922 786.671 Q164.584 783.916 169.167 779.287 Q173.774 774.634 174.954 773.291 Q177.2 770.768 178.079 769.032 Q178.982 767.273 178.982 765.583 Q178.982 762.828 177.038 761.092 Q175.116 759.356 172.014 759.356 Q169.815 759.356 167.362 760.12 Q164.931 760.884 162.153 762.435 L162.153 757.713 Q164.977 756.578 167.431 756 Q169.885 755.421 171.922 755.421 Q177.292 755.421 180.487 758.106 Q183.681 760.791 183.681 765.282 Q183.681 767.412 182.871 769.333 Q182.084 771.231 179.977 773.824 Q179.399 774.495 176.297 777.713 Q173.195 780.907 167.547 786.671 Z" fill="#000000" fill-rule="nonzero" fill-opacity="1" /><path clip-path="url(#clip140)" d="M127.339 434.198 Q123.728 434.198 121.899 437.763 Q120.093 441.304 120.093 448.434 Q120.093 455.54 121.899 459.105 Q123.728 462.647 127.339 462.647 Q130.973 462.647 132.779 459.105 Q134.607 455.54 134.607 448.434 Q134.607 441.304 132.779 437.763 Q130.973 434.198 127.339 434.198 M127.339 430.494 Q133.149 430.494 136.204 435.101 Q139.283 439.684 139.283 448.434 Q139.283 457.161 136.204 461.767 Q133.149 466.35 127.339 466.35 Q121.529 466.35 118.45 461.767 Q115.394 457.161 115.394 448.434 Q115.394 439.684 118.45 435.101 Q121.529 430.494 127.339 430.494 Z" fill="#000000" fill-rule="nonzero" fill-opacity="1" /><path clip-path="url(#clip140)" d="M147.501 459.799 L152.385 459.799 L152.385 465.679 L147.501 465.679 L147.501 459.799 Z" fill="#000000" fill-rule="nonzero" fill-opacity="1" /><path clip-path="url(#clip140)" d="M176.737 447.045 Q180.093 447.762 181.968 450.031 Q183.866 452.299 183.866 455.633 Q183.866 460.749 180.348 463.549 Q176.829 466.35 170.348 466.35 Q168.172 466.35 165.857 465.911 Q163.565 465.494 161.112 464.637 L161.112 460.124 Q163.056 461.258 165.371 461.836 Q167.686 462.415 170.209 462.415 Q174.607 462.415 176.899 460.679 Q179.214 458.943 179.214 455.633 Q179.214 452.577 177.061 450.864 Q174.931 449.128 171.112 449.128 L167.084 449.128 L167.084 445.286 L171.297 445.286 Q174.746 445.286 176.575 443.92 Q178.403 442.531 178.403 439.938 Q178.403 437.276 176.505 435.864 Q174.63 434.429 171.112 434.429 Q169.19 434.429 166.991 434.846 Q164.792 435.263 162.153 436.142 L162.153 431.976 Q164.815 431.235 167.13 430.864 Q169.468 430.494 171.528 430.494 Q176.852 430.494 179.954 432.925 Q183.056 435.332 183.056 439.452 Q183.056 442.323 181.413 444.313 Q179.769 446.281 176.737 447.045 Z" fill="#000000" fill-rule="nonzero" fill-opacity="1" /><path clip-path="url(#clip140)" d="M126.205 109.271 Q122.593 109.271 120.765 112.836 Q118.959 116.377 118.959 123.507 Q118.959 130.613 120.765 134.178 Q122.593 137.72 126.205 137.72 Q129.839 137.72 131.644 134.178 Q133.473 130.613 133.473 123.507 Q133.473 116.377 131.644 112.836 Q129.839 109.271 126.205 109.271 M126.205 105.567 Q132.015 105.567 135.07 110.174 Q138.149 114.757 138.149 123.507 Q138.149 132.234 135.07 136.84 Q132.015 141.423 126.205 141.423 Q120.394 141.423 117.316 136.84 Q114.26 132.234 114.26 123.507 Q114.26 114.757 117.316 110.174 Q120.394 105.567 126.205 105.567 Z" fill="#000000" fill-rule="nonzero" fill-opacity="1" /><path clip-path="url(#clip140)" d="M146.366 134.873 L151.251 134.873 L151.251 140.752 L146.366 140.752 L146.366 134.873 Z" fill="#000000" fill-rule="nonzero" fill-opacity="1" /><path clip-path="url(#clip140)" d="M174.283 110.266 L162.477 128.715 L174.283 128.715 L174.283 110.266 M173.056 106.192 L178.936 106.192 L178.936 128.715 L183.866 128.715 L183.866 132.604 L178.936 132.604 L178.936 140.752 L174.283 140.752 L174.283 132.604 L158.681 132.604 L158.681 128.09 L173.056 106.192 Z" fill="#000000" fill-rule="nonzero" fill-opacity="1" /><path clip-path="url(#clip140)" d="M16.4842 911.016 L16.4842 904.587 L64.0042 904.587 L64.0042 911.016 L16.4842 911.016 Z" fill="#000000" fill-rule="nonzero" fill-opacity="1" /><path clip-path="url(#clip140)" d="M42.4881 862.414 L64.0042 862.414 L64.0042 868.27 L42.679 868.27 Q37.6183 868.27 35.1038 870.244 Q32.5894 872.217 32.5894 876.164 Q32.5894 880.906 35.6131 883.644 Q38.6368 886.381 43.8567 886.381 L64.0042 886.381 L64.0042 892.269 L28.3562 892.269 L28.3562 886.381 L33.8944 886.381 Q30.6797 884.28 29.0883 881.448 Q27.4968 878.583 27.4968 874.859 Q27.4968 868.716 31.3163 865.565 Q35.1038 862.414 42.4881 862.414 Z" fill="#000000" fill-rule="nonzero" fill-opacity="1" /><path clip-path="url(#clip140)" d="M18.2347 844.94 L28.3562 844.94 L28.3562 832.877 L32.9077 832.877 L32.9077 844.94 L52.2594 844.94 Q56.6199 844.94 57.8613 843.763 Q59.1026 842.553 59.1026 838.893 L59.1026 832.877 L64.0042 832.877 L64.0042 838.893 Q64.0042 845.672 61.4897 848.25 Q58.9434 850.828 52.2594 850.828 L32.9077 850.828 L32.9077 855.125 L28.3562 855.125 L28.3562 850.828 L18.2347 850.828 L18.2347 844.94 Z" fill="#000000" fill-rule="nonzero" fill-opacity="1" /><path clip-path="url(#clip140)" d="M44.7161 794.683 L47.5806 794.683 L47.5806 821.61 Q53.6281 821.228 56.8109 817.981 Q59.9619 814.703 59.9619 808.878 Q59.9619 805.505 59.1344 802.354 Q58.3069 799.171 56.6518 796.052 L62.1899 796.052 Q63.5267 799.203 64.227 802.513 Q64.9272 805.823 64.9272 809.229 Q64.9272 817.759 59.9619 822.756 Q54.9967 827.721 46.5303 827.721 Q37.7774 827.721 32.6531 823.01 Q27.4968 818.268 27.4968 810.247 Q27.4968 803.054 32.1438 798.884 Q36.7589 794.683 44.7161 794.683 M42.9973 800.539 Q38.1912 800.603 35.3266 803.245 Q32.4621 805.855 32.4621 810.183 Q32.4621 815.085 35.2312 818.045 Q38.0002 820.973 43.0292 821.419 L42.9973 800.539 Z" fill="#000000" fill-rule="nonzero" fill-opacity="1" /><path clip-path="url(#clip140)" d="M42.4881 755.438 L64.0042 755.438 L64.0042 761.295 L42.679 761.295 Q37.6183 761.295 35.1038 763.268 Q32.5894 765.242 32.5894 769.188 Q32.5894 773.931 35.6131 776.668 Q38.6368 779.405 43.8567 779.405 L64.0042 779.405 L64.0042 785.294 L28.3562 785.294 L28.3562 779.405 L33.8944 779.405 Q30.6797 777.305 29.0883 774.472 Q27.4968 771.607 27.4968 767.883 Q27.4968 761.74 31.3163 758.589 Q35.1038 755.438 42.4881 755.438 Z" fill="#000000" fill-rule="nonzero" fill-opacity="1" /><path clip-path="url(#clip140)" d="M29.4065 721.032 L34.9447 721.032 Q33.6716 723.514 33.035 726.188 Q32.3984 728.862 32.3984 731.726 Q32.3984 736.087 33.7352 738.283 Q35.072 740.447 37.7456 740.447 Q39.7826 740.447 40.9603 738.888 Q42.1061 737.328 43.1565 732.617 L43.6021 730.612 Q44.9389 724.374 47.3897 721.764 Q49.8086 719.122 54.1691 719.122 Q59.1344 719.122 62.0308 723.069 Q64.9272 726.984 64.9272 733.859 Q64.9272 736.723 64.3543 739.842 Q63.8132 742.93 62.6992 746.367 L56.6518 746.367 Q58.3387 743.121 59.198 739.97 Q60.0256 736.819 60.0256 733.731 Q60.0256 729.594 58.6251 727.366 Q57.1929 725.138 54.6147 725.138 Q52.2276 725.138 50.9545 726.761 Q49.6813 728.352 48.5037 733.795 L48.0262 735.832 Q46.8804 741.275 44.5251 743.694 Q42.138 746.113 38.0002 746.113 Q32.9713 746.113 30.2341 742.548 Q27.4968 738.983 27.4968 732.426 Q27.4968 729.18 27.9743 726.315 Q28.4517 723.451 29.4065 721.032 Z" fill="#000000" fill-rule="nonzero" fill-opacity="1" /><path clip-path="url(#clip140)" d="M28.3562 709.796 L28.3562 703.94 L64.0042 703.94 L64.0042 709.796 L28.3562 709.796 M14.479 709.796 L14.479 703.94 L21.895 703.94 L21.895 709.796 L14.479 709.796 Z" fill="#000000" fill-rule="nonzero" fill-opacity="1" /><path clip-path="url(#clip140)" d="M18.2347 685.893 L28.3562 685.893 L28.3562 673.83 L32.9077 673.83 L32.9077 685.893 L52.2594 685.893 Q56.6199 685.893 57.8613 684.715 Q59.1026 683.506 59.1026 679.846 L59.1026 673.83 L64.0042 673.83 L64.0042 679.846 Q64.0042 686.625 61.4897 689.203 Q58.9434 691.781 52.2594 691.781 L32.9077 691.781 L32.9077 696.078 L28.3562 696.078 L28.3562 691.781 L18.2347 691.781 L18.2347 685.893 Z" fill="#000000" fill-rule="nonzero" fill-opacity="1" /><path clip-path="url(#clip140)" d="M67.3143 651.295 Q73.68 653.778 75.6216 656.133 Q77.5631 658.489 77.5631 662.435 L77.5631 667.114 L72.6615 667.114 L72.6615 663.677 Q72.6615 661.258 71.5157 659.921 Q70.3699 658.584 66.1048 656.961 L63.4312 655.911 L28.3562 670.329 L28.3562 664.122 L56.238 652.982 L28.3562 641.842 L28.3562 635.636 L67.3143 651.295 Z" fill="#000000" fill-rule="nonzero" fill-opacity="1" /><path clip-path="url(#clip140)" d="M653.851 12.096 L692.092 12.096 L692.092 18.9825 L662.034 18.9825 L662.034 36.8875 L690.836 36.8875 L690.836 43.7741 L662.034 43.7741 L662.034 65.6895 L692.821 65.6895 L692.821 72.576 L653.851 72.576 L653.851 12.096 Z" fill="#000000" fill-rule="nonzero" fill-opacity="1" /><path clip-path="url(#clip140)" d="M705.946 9.54393 L713.4 9.54393 L713.4 72.576 L705.946 72.576 L705.946 9.54393 Z" fill="#000000" fill-rule="nonzero" fill-opacity="1" /><path clip-path="url(#clip140)" d="M728.996 9.54393 L736.449 9.54393 L736.449 72.576 L728.996 72.576 L728.996 9.54393 Z" fill="#000000" fill-rule="nonzero" fill-opacity="1" /><path clip-path="url(#clip140)" d="M752.045 27.2059 L759.499 27.2059 L759.499 72.576 L752.045 72.576 L752.045 27.2059 M752.045 9.54393 L759.499 9.54393 L759.499 18.9825 L752.045 18.9825 L752.045 9.54393 Z" fill="#000000" fill-rule="nonzero" fill-opacity="1" /><path clip-path="url(#clip140)" d="M782.305 65.7705 L782.305 89.8329 L774.811 89.8329 L774.811 27.2059 L782.305 27.2059 L782.305 34.0924 Q784.655 30.0415 788.22 28.0971 Q791.825 26.1121 796.808 26.1121 Q805.072 26.1121 810.216 32.6746 Q815.401 39.2371 815.401 49.9314 Q815.401 60.6258 810.216 67.1883 Q805.072 73.7508 796.808 73.7508 Q791.825 73.7508 788.22 71.8063 Q784.655 69.8214 782.305 65.7705 M807.664 49.9314 Q807.664 41.7081 804.261 37.0496 Q800.899 32.3505 794.985 32.3505 Q789.07 32.3505 785.668 37.0496 Q782.305 41.7081 782.305 49.9314 Q782.305 58.1548 785.668 62.8538 Q789.07 67.5124 794.985 67.5124 Q800.899 67.5124 804.261 62.8538 Q807.664 58.1548 807.664 49.9314 Z" fill="#000000" fill-rule="nonzero" fill-opacity="1" /><path clip-path="url(#clip140)" d="M835.129 14.324 L835.129 27.2059 L850.482 27.2059 L850.482 32.9987 L835.129 32.9987 L835.129 57.6282 Q835.129 63.1779 836.628 64.7578 Q838.167 66.3376 842.826 66.3376 L850.482 66.3376 L850.482 72.576 L842.826 72.576 Q834.198 72.576 830.916 69.3758 Q827.635 66.1351 827.635 57.6282 L827.635 32.9987 L822.166 32.9987 L822.166 27.2059 L827.635 27.2059 L827.635 14.324 L835.129 14.324 Z" fill="#000000" fill-rule="nonzero" fill-opacity="1" /><path clip-path="url(#clip140)" d="M860.285 27.2059 L867.739 27.2059 L867.739 72.576 L860.285 72.576 L860.285 27.2059 M860.285 9.54393 L867.739 9.54393 L867.739 18.9825 L860.285 18.9825 L860.285 9.54393 Z" fill="#000000" fill-rule="nonzero" fill-opacity="1" /><path clip-path="url(#clip140)" d="M915.985 28.9478 L915.985 35.9153 Q912.826 34.1734 909.625 33.3227 Q906.466 32.4315 903.225 32.4315 Q895.974 32.4315 891.963 37.0496 Q887.953 41.6271 887.953 49.9314 Q887.953 58.2358 891.963 62.8538 Q895.974 67.4314 903.225 67.4314 Q906.466 67.4314 909.625 66.5807 Q912.826 65.6895 915.985 63.9476 L915.985 70.8341 Q912.866 72.2924 909.504 73.0216 Q906.182 73.7508 902.415 73.7508 Q892.166 73.7508 886.13 67.3098 Q880.094 60.8689 880.094 49.9314 Q880.094 38.832 886.171 32.472 Q892.288 26.1121 902.901 26.1121 Q906.344 26.1121 909.625 26.8413 Q912.907 27.5299 915.985 28.9478 Z" fill="#000000" fill-rule="nonzero" fill-opacity="1" /><path clip-path="url(#clip140)" d="M963.826 18.8205 L963.826 41.5461 L974.116 41.5461 Q979.828 41.5461 982.947 38.5889 Q986.066 35.6318 986.066 30.163 Q986.066 24.7348 982.947 21.7777 Q979.828 18.8205 974.116 18.8205 L963.826 18.8205 M955.644 12.096 L974.116 12.096 Q984.284 12.096 989.469 16.714 Q994.694 21.2916 994.694 30.163 Q994.694 39.1155 989.469 43.6931 Q984.284 48.2706 974.116 48.2706 L963.826 48.2706 L963.826 72.576 L955.644 72.576 L955.644 12.096 Z" fill="#000000" fill-rule="nonzero" fill-opacity="1" /><path clip-path="url(#clip140)" d="M1019.97 32.4315 Q1013.98 32.4315 1010.49 37.1306 Q1007.01 41.7891 1007.01 49.9314 Q1007.01 58.0738 1010.45 62.7728 Q1013.94 67.4314 1019.97 67.4314 Q1025.93 67.4314 1029.41 62.7323 Q1032.89 58.0333 1032.89 49.9314 Q1032.89 41.8701 1029.41 37.1711 Q1025.93 32.4315 1019.97 32.4315 M1019.97 26.1121 Q1029.69 26.1121 1035.24 32.4315 Q1040.79 38.7509 1040.79 49.9314 Q1040.79 61.0714 1035.24 67.4314 Q1029.69 73.7508 1019.97 73.7508 Q1010.21 73.7508 1004.66 67.4314 Q999.15 61.0714 999.15 49.9314 Q999.15 38.7509 1004.66 32.4315 Q1010.21 26.1121 1019.97 26.1121 Z" fill="#000000" fill-rule="nonzero" fill-opacity="1" /><path clip-path="url(#clip140)" d="M1053.15 9.54393 L1060.6 9.54393 L1060.6 72.576 L1053.15 72.576 L1053.15 9.54393 Z" fill="#000000" fill-rule="nonzero" fill-opacity="1" /><path clip-path="url(#clip140)" d="M1096.82 49.7694 Q1087.78 49.7694 1084.3 51.8354 Q1080.82 53.9013 1080.82 58.8839 Q1080.82 62.8538 1083.41 65.2034 Q1086.04 67.5124 1090.54 67.5124 Q1096.74 67.5124 1100.46 63.1374 Q1104.23 58.7219 1104.23 51.4303 L1104.23 49.7694 L1096.82 49.7694 M1111.68 46.6907 L1111.68 72.576 L1104.23 72.576 L1104.23 65.6895 Q1101.68 69.8214 1097.87 71.8063 Q1094.06 73.7508 1088.55 73.7508 Q1081.59 73.7508 1077.45 69.8619 Q1073.36 65.9325 1073.36 59.3701 Q1073.36 51.7138 1078.47 47.825 Q1083.61 43.9361 1093.78 43.9361 L1104.23 43.9361 L1104.23 43.2069 Q1104.23 38.0623 1100.83 35.2672 Q1097.47 32.4315 1091.35 32.4315 Q1087.46 32.4315 1083.77 33.3632 Q1080.09 34.295 1076.68 36.1584 L1076.68 29.2718 Q1080.78 27.692 1084.62 26.9223 Q1088.47 26.1121 1092.12 26.1121 Q1101.96 26.1121 1106.82 31.2163 Q1111.68 36.3204 1111.68 46.6907 Z" fill="#000000" fill-rule="nonzero" fill-opacity="1" /><path clip-path="url(#clip140)" d="M1153.33 34.1734 Q1152.07 33.4443 1150.57 33.1202 Q1149.11 32.7556 1147.33 32.7556 Q1141.01 32.7556 1137.61 36.8875 Q1134.25 40.9789 1134.25 48.6757 L1134.25 72.576 L1126.75 72.576 L1126.75 27.2059 L1134.25 27.2059 L1134.25 34.2544 Q1136.6 30.1225 1140.36 28.1376 Q1144.13 26.1121 1149.52 26.1121 Q1150.29 26.1121 1151.22 26.2337 Q1152.15 26.3147 1153.29 26.5172 L1153.33 34.1734 Z" fill="#000000" fill-rule="nonzero" fill-opacity="1" /><path clip-path="url(#clip140)" d="M1161.15 27.2059 L1168.6 27.2059 L1168.6 72.576 L1161.15 72.576 L1161.15 27.2059 M1161.15 9.54393 L1168.6 9.54393 L1168.6 18.9825 L1161.15 18.9825 L1161.15 9.54393 Z" fill="#000000" fill-rule="nonzero" fill-opacity="1" /><path clip-path="url(#clip140)" d="M1180.95 27.2059 L1216.36 27.2059 L1216.36 34.0114 L1188.33 66.6212 L1216.36 66.6212 L1216.36 72.576 L1179.94 72.576 L1179.94 65.7705 L1207.97 33.1607 L1180.95 33.1607 L1180.95 27.2059 Z" fill="#000000" fill-rule="nonzero" fill-opacity="1" /><path clip-path="url(#clip140)" d="M1266.55 48.0275 L1266.55 51.6733 L1232.28 51.6733 Q1232.77 59.3701 1236.9 63.421 Q1241.07 67.4314 1248.48 67.4314 Q1252.78 67.4314 1256.79 66.3781 Q1260.84 65.3249 1264.81 63.2184 L1264.81 70.267 Q1260.8 71.9684 1256.59 72.8596 Q1252.37 73.7508 1248.04 73.7508 Q1237.18 73.7508 1230.82 67.4314 Q1224.5 61.1119 1224.5 50.3365 Q1224.5 39.1965 1230.5 32.6746 Q1236.53 26.1121 1246.74 26.1121 Q1255.9 26.1121 1261.2 32.0264 Q1266.55 37.9003 1266.55 48.0275 M1259.1 45.84 Q1259.02 39.7232 1255.65 36.0774 Q1252.33 32.4315 1246.82 32.4315 Q1240.58 32.4315 1236.82 35.9558 Q1233.09 39.4801 1232.52 45.8805 L1259.1 45.84 Z" fill="#000000" fill-rule="nonzero" fill-opacity="1" /><path clip-path="url(#clip140)" d="M1305.07 34.1734 Q1303.82 33.4443 1302.32 33.1202 Q1300.86 32.7556 1299.08 32.7556 Q1292.76 32.7556 1289.36 36.8875 Q1285.99 40.9789 1285.99 48.6757 L1285.99 72.576 L1278.5 72.576 L1278.5 27.2059 L1285.99 27.2059 L1285.99 34.2544 Q1288.34 30.1225 1292.11 28.1376 Q1295.88 26.1121 1301.27 26.1121 Q1302.04 26.1121 1302.97 26.2337 Q1303.9 26.3147 1305.03 26.5172 L1305.07 34.1734 Z" fill="#000000" fill-rule="nonzero" fill-opacity="1" /><path clip-path="url(#clip140)" d="M1326.14 12.096 L1333.03 12.096 L1311.96 80.2727 L1305.07 80.2727 L1326.14 12.096 Z" fill="#000000" fill-rule="nonzero" fill-opacity="1" /><path clip-path="url(#clip140)" d="M1361.38 20.1573 L1350.28 50.2555 L1372.52 50.2555 L1361.38 20.1573 M1356.76 12.096 L1366.04 12.096 L1389.09 72.576 L1380.58 72.576 L1375.07 57.061 L1347.81 57.061 L1342.3 72.576 L1333.67 72.576 L1356.76 12.096 Z" fill="#000000" fill-rule="nonzero" fill-opacity="1" /><path clip-path="url(#clip140)" d="M1435.31 45.1919 L1435.31 72.576 L1427.86 72.576 L1427.86 45.4349 Q1427.86 38.994 1425.35 35.7938 Q1422.83 32.5936 1417.81 32.5936 Q1411.78 32.5936 1408.29 36.4419 Q1404.81 40.2903 1404.81 46.9338 L1404.81 72.576 L1397.31 72.576 L1397.31 27.2059 L1404.81 27.2059 L1404.81 34.2544 Q1407.48 30.163 1411.09 28.1376 Q1414.73 26.1121 1419.47 26.1121 Q1427.29 26.1121 1431.3 30.9732 Q1435.31 35.7938 1435.31 45.1919 Z" fill="#000000" fill-rule="nonzero" fill-opacity="1" /><path clip-path="url(#clip140)" d="M1470.8 49.7694 Q1461.76 49.7694 1458.28 51.8354 Q1454.8 53.9013 1454.8 58.8839 Q1454.8 62.8538 1457.39 65.2034 Q1460.02 67.5124 1464.52 67.5124 Q1470.72 67.5124 1474.44 63.1374 Q1478.21 58.7219 1478.21 51.4303 L1478.21 49.7694 L1470.8 49.7694 M1485.66 46.6907 L1485.66 72.576 L1478.21 72.576 L1478.21 65.6895 Q1475.66 69.8214 1471.85 71.8063 Q1468.04 73.7508 1462.53 73.7508 Q1455.57 73.7508 1451.43 69.8619 Q1447.34 65.9325 1447.34 59.3701 Q1447.34 51.7138 1452.45 47.825 Q1457.59 43.9361 1467.76 43.9361 L1478.21 43.9361 L1478.21 43.2069 Q1478.21 38.0623 1474.81 35.2672 Q1471.45 32.4315 1465.33 32.4315 Q1461.44 32.4315 1457.75 33.3632 Q1454.07 34.295 1450.66 36.1584 L1450.66 29.2718 Q1454.76 27.692 1458.6 26.9223 Q1462.45 26.1121 1466.1 26.1121 Q1475.94 26.1121 1480.8 31.2163 Q1485.66 36.3204 1485.66 46.6907 Z" fill="#000000" fill-rule="nonzero" fill-opacity="1" /><path clip-path="url(#clip140)" d="M1501.02 9.54393 L1508.47 9.54393 L1508.47 72.576 L1501.02 72.576 L1501.02 9.54393 Z" fill="#000000" fill-rule="nonzero" fill-opacity="1" /><path clip-path="url(#clip140)" d="M1542.94 76.7889 Q1539.78 84.8907 1536.79 87.3618 Q1533.79 89.8329 1528.77 89.8329 L1522.81 89.8329 L1522.81 83.5945 L1527.19 83.5945 Q1530.26 83.5945 1531.97 82.1361 Q1533.67 80.6778 1535.73 75.2496 L1537.07 71.8468 L1518.72 27.2059 L1526.62 27.2059 L1540.8 62.6918 L1554.97 27.2059 L1562.87 27.2059 L1542.94 76.7889 Z" fill="#000000" fill-rule="nonzero" fill-opacity="1" /><path clip-path="url(#clip140)" d="M1602.09 28.5427 L1602.09 35.5912 Q1598.93 33.9709 1595.52 33.1607 Q1592.12 32.3505 1588.48 32.3505 Q1582.93 32.3505 1580.13 34.0519 Q1577.38 35.7533 1577.38 39.156 Q1577.38 41.7486 1579.36 43.2475 Q1581.35 44.7058 1587.34 46.0426 L1589.89 46.6097 Q1597.83 48.3111 1601.16 51.4303 Q1604.52 54.509 1604.52 60.0587 Q1604.52 66.3781 1599.49 70.0644 Q1594.51 73.7508 1585.76 73.7508 Q1582.12 73.7508 1578.15 73.0216 Q1574.22 72.3329 1569.84 70.9151 L1569.84 63.2184 Q1573.97 65.3654 1577.98 66.4591 Q1581.99 67.5124 1585.92 67.5124 Q1591.19 67.5124 1594.03 65.73 Q1596.86 63.9071 1596.86 60.6258 Q1596.86 57.5877 1594.8 55.9673 Q1592.77 54.3469 1585.84 52.8481 L1583.25 52.2405 Q1576.32 50.7821 1573.24 47.7845 Q1570.17 44.7463 1570.17 39.4801 Q1570.17 33.0797 1574.7 29.5959 Q1579.24 26.1121 1587.58 26.1121 Q1591.72 26.1121 1595.36 26.7198 Q1599.01 27.3274 1602.09 28.5427 Z" fill="#000000" fill-rule="nonzero" fill-opacity="1" /><path clip-path="url(#clip140)" d="M1655.19 48.0275 L1655.19 51.6733 L1620.92 51.6733 Q1621.41 59.3701 1625.54 63.421 Q1629.71 67.4314 1637.13 67.4314 Q1641.42 67.4314 1645.43 66.3781 Q1649.48 65.3249 1653.45 63.2184 L1653.45 70.267 Q1649.44 71.9684 1645.23 72.8596 Q1641.02 73.7508 1636.68 73.7508 Q1625.83 73.7508 1619.47 67.4314 Q1613.15 61.1119 1613.15 50.3365 Q1613.15 39.1965 1619.14 32.6746 Q1625.18 26.1121 1635.39 26.1121 Q1644.54 26.1121 1649.85 32.0264 Q1655.19 37.9003 1655.19 48.0275 M1647.74 45.84 Q1647.66 39.7232 1644.3 36.0774 Q1640.98 32.4315 1635.47 32.4315 Q1629.23 32.4315 1625.46 35.9558 Q1621.73 39.4801 1621.17 45.8805 L1647.74 45.84 Z" fill="#000000" fill-rule="nonzero" fill-opacity="1" /><path clip-path="url(#clip140)" d="M1693.72 34.1734 Q1692.46 33.4443 1690.96 33.1202 Q1689.51 32.7556 1687.72 32.7556 Q1681.4 32.7556 1678 36.8875 Q1674.64 40.9789 1674.64 48.6757 L1674.64 72.576 L1667.14 72.576 L1667.14 27.2059 L1674.64 27.2059 L1674.64 34.2544 Q1676.99 30.1225 1680.76 28.1376 Q1684.52 26.1121 1689.91 26.1121 Q1690.68 26.1121 1691.61 26.2337 Q1692.54 26.3147 1693.68 26.5172 L1693.72 34.1734 Z" fill="#000000" fill-rule="nonzero" fill-opacity="1" /><polyline clip-path="url(#clip142)" style="stroke:#009af9; stroke-linecap:round; stroke-linejoin:round; stroke-width:4; stroke-opacity:1; fill:none" points="273.862,1082.05 276.728,1081.59 279.594,1080.22 282.46,1077.94 285.326,1074.75 288.192,1070.66 291.058,1065.68 293.924,1059.82 296.79,1053.1 299.656,1045.52 302.522,1037.12 305.388,1027.9 308.254,1017.88 311.12,1007.1 313.986,995.565 316.852,983.313 319.718,970.368 322.584,956.758 325.45,942.515 328.316,927.67 331.182,912.256 334.048,896.306 336.914,879.858 339.78,862.945 342.646,845.607 345.512,827.881 348.378,809.805 351.244,791.42 354.11,772.764 356.976,753.879 359.842,734.805 362.708,715.583 365.574,696.254 368.44,676.859 371.306,657.44 374.172,638.037 377.038,618.69 379.904,599.441 382.77,580.329 385.636,561.393 388.502,542.671 391.368,524.203 394.234,506.025 397.1,488.172 399.966,470.682 402.832,453.587 405.698,436.921 408.564,420.716 411.43,405.003 414.296,389.811 417.162,375.168 420.028,361.1 422.894,347.634 425.76,334.791 428.626,322.596 431.492,311.067 434.358,300.224 437.224,290.084 440.09,280.663 442.956,271.975 445.822,264.031 448.688,256.842 451.554,250.417 454.419,244.763 457.285,239.885 460.151,235.787 463.017,232.471 465.883,229.937 468.749,228.184 471.615,227.209 474.481,227.006 477.347,227.572 480.213,228.897 483.079,230.972 485.945,233.788 488.811,237.332 491.677,241.592 494.543,246.553 497.409,252.198 500.275,258.513 503.141,265.478 506.007,273.076 508.873,281.285 511.739,290.086 514.605,299.457 517.471,309.375 520.337,319.818 523.203,330.762 526.069,342.182 528.935,354.055 531.801,366.354 534.667,379.056 537.533,392.132 540.399,405.559 543.265,419.31 546.131,433.358 548.997,447.677 551.863,462.242 554.729,477.026 557.595,492.002 560.461,507.146 563.327,522.432 566.193,537.835 569.059,553.329 571.925,568.891 574.791,584.497 577.657,600.122 580.523,615.745 583.389,631.342 586.255,646.892 589.121,662.373 591.987,677.766 594.853,693.05 597.719,708.206 600.585,723.216 603.451,738.061 606.317,752.726 609.183,767.192 612.049,781.446 614.915,795.471 617.781,809.255 620.647,822.783 623.513,836.043 626.379,849.023 629.245,861.711 632.111,874.099 634.977,886.174 637.843,897.93 640.709,909.356 643.575,920.445 646.441,931.19 649.307,941.584 652.173,951.621 655.039,961.296 657.905,970.603 660.771,979.538 663.637,988.097 666.503,996.275 669.369,1004.07 672.235,1011.48 675.101,1018.5 677.967,1025.13 680.833,1031.37 683.699,1037.21 686.565,1042.65 689.431,1047.7 692.297,1052.35 695.163,1056.6 698.029,1060.45 700.895,1063.9 703.761,1066.95 706.627,1069.6 709.493,1071.84 712.359,1073.68 715.225,1075.12 718.091,1076.16 720.957,1076.8 723.823,1077.03 726.689,1076.86 729.555,1076.29 732.421,1075.32 735.287,1073.94 738.153,1072.16 741.019,1069.98 743.885,1067.4 746.751,1064.41 749.617,1061.03 752.483,1057.24 755.349,1053.05 758.215,1048.47 761.081,1043.48 763.947,1038.1 766.813,1032.32 769.679,1026.15 772.545,1019.58 775.411,1012.62 778.277,1005.28 781.143,997.543 784.009,989.425 786.875,980.927 789.741,972.051 792.607,962.803 795.473,953.187 798.339,943.207 801.205,932.869 804.071,922.18 806.937,911.145 809.803,899.772 812.669,888.068 815.535,876.043 818.401,863.705 821.267,851.063 824.133,838.129 826.999,824.913 829.865,811.427 832.731,797.683 835.597,783.695 838.463,769.477 841.329,755.043 844.195,740.41 847.061,725.592 849.927,710.607 852.793,695.473 855.659,680.208 858.525,664.831 861.391,649.363 864.257,633.822 867.123,618.231 869.989,602.611 872.855,586.985 875.721,571.374 878.587,555.804 881.453,540.297 884.319,524.878 887.185,509.572 890.051,494.404 892.917,479.399 895.783,464.583 898.649,449.981 901.515,435.621 904.381,421.528 907.247,407.728 910.113,394.248 912.979,381.114 915.845,368.351 918.711,355.986 921.577,344.043 924.443,332.549 927.309,321.528 930.175,311.004 933.041,301 935.907,291.541 938.773,282.648 941.639,274.343 944.505,266.647 947.371,259.579 950.237,253.16 953.103,247.406 955.969,242.335 958.835,237.963 961.701,234.304 964.567,231.371 967.433,229.177 970.299,227.732 973.165,227.045 976.031,227.125 978.897,227.977 981.763,229.606 984.629,232.015 987.495,235.207 990.361,239.18 993.227,243.934 996.093,249.465 998.959,255.768 1001.83,262.835 1004.69,270.66 1007.56,279.23 1010.42,288.536 1013.29,298.562 1016.16,309.294 1019.02,320.714 1021.89,332.805 1024.75,345.546 1027.62,358.915 1030.48,372.888 1033.35,387.441 1036.22,402.548 1039.08,418.18 1041.95,434.309 1044.81,450.903 1047.68,467.932 1050.55,485.362 1053.41,503.159 1056.28,521.287 1059.14,539.712 1062.01,558.396 1064.88,577.3 1067.74,596.387 1070.61,615.617 1073.47,634.951 1076.34,654.348 1079.21,673.767 1082.07,693.169 1084.94,712.511 1087.8,731.752 1090.67,750.853 1093.54,769.771 1096.4,788.465 1099.27,806.897 1102.13,825.024 1105,842.809 1107.87,860.212 1110.73,877.194 1113.6,893.719 1116.46,909.75 1119.33,925.252 1122.2,940.19 1125.06,954.532 1127.93,968.244 1130.79,981.297 1133.66,993.661 1136.53,1005.31 1139.39,1016.21 1142.26,1026.35 1145.12,1035.7 1147.99,1044.24 1150.86,1051.95 1153.72,1058.81 1156.59,1064.8 1159.45,1069.92 1162.32,1074.16 1165.19,1077.49 1168.05,1079.92 1170.92,1081.44 1173.78,1082.04 1176.65,1081.73 1179.52,1080.5 1182.38,1078.36 1185.25,1075.32 1188.11,1071.37 1190.98,1066.53 1193.85,1060.81 1196.71,1054.22 1199.58,1046.79 1202.44,1038.51 1205.31,1029.42 1208.18,1019.53 1211.04,1008.86 1213.91,997.45 1216.77,985.311 1219.64,972.475 1222.51,958.969 1225.37,944.825 1228.24,930.073 1231.1,914.747 1233.97,898.881 1236.84,882.509 1239.7,865.668 1242.57,848.396 1245.43,830.728 1248.3,812.706 1251.17,794.367 1254.03,775.752 1256.9,756.9 1259.76,737.854 1262.63,718.653 1265.5,699.338 1268.36,679.951 1271.23,660.533 1274.09,641.124 1276.96,621.766 1279.83,602.499 1282.69,583.362 1285.56,564.395 1288.42,545.637 1291.29,527.126 1294.16,508.899 1297.02,490.992 1299.89,473.442 1302.75,456.282 1305.62,439.546 1308.49,423.265 1311.35,407.472 1314.22,392.194 1317.08,377.462 1319.95,363.301 1322.82,349.737 1325.68,336.794 1328.55,324.494 1331.41,312.858 1334.28,301.904 1337.15,291.652 1340.01,282.115 1342.88,273.309 1345.74,265.246 1348.61,257.936 1351.48,251.389 1354.34,245.612 1357.21,240.61 1360.07,236.388 1362.94,232.947 1365.81,230.288 1368.67,228.411 1371.54,227.312 1374.4,226.987 1377.27,227.431 1380.14,228.635 1383,230.592 1385.87,233.29 1388.73,236.72 1391.6,240.866 1394.47,245.716 1397.33,251.254 1400.2,257.463 1403.06,264.326 1405.93,271.824 1408.8,279.938 1411.66,288.646 1414.53,297.927 1417.39,307.76 1420.26,318.12 1423.13,328.986 1425.99,340.332 1428.86,352.135 1431.72,364.368 1434.59,377.007 1437.46,390.026 1440.32,403.399 1443.19,417.099 1446.05,431.102 1448.92,445.38 1451.79,459.907 1454.65,474.658 1457.52,489.605 1460.38,504.724 1463.25,519.989 1466.12,535.375 1468.98,550.856 1471.85,566.409 1474.71,582.009 1477.58,597.633 1480.45,613.258 1483.31,628.86 1486.18,644.419 1489.04,659.913 1491.91,675.321 1494.78,690.624 1497.64,705.802 1500.51,720.836 1503.37,735.709 1506.24,750.403 1509.11,764.902 1511.97,779.191 1514.84,793.253 1517.7,807.076 1520.57,820.646 1523.44,833.949 1526.3,846.975 1529.17,859.711 1532.03,872.146 1534.9,884.272 1537.77,896.079 1540.63,907.558 1543.5,918.702 1546.36,929.502 1549.23,939.953 1552.1,950.047 1554.96,959.78 1557.83,969.146 1560.69,978.14 1563.56,986.759 1566.43,994.998 1569.29,1002.85 1572.16,1010.33 1575.02,1017.41 1577.89,1024.1 1580.76,1030.4 1583.62,1036.3 1586.49,1041.81 1589.35,1046.92 1592.22,1051.64 1595.09,1055.95 1597.95,1059.86 1600.82,1063.38 1603.68,1066.49 1606.55,1069.2 1609.42,1071.51 1612.28,1073.42 1615.15,1074.92 1618.01,1076.02 1620.88,1076.72 1623.75,1077.02 1626.61,1076.92 1629.48,1076.41 1632.34,1075.5 1635.21,1074.19 1638.08,1072.47 1640.94,1070.35 1643.81,1067.84 1646.67,1064.91 1649.54,1061.59 1652.41,1057.87 1655.27,1053.75 1658.14,1049.23 1661,1044.3 1663.87,1038.98 1666.74,1033.27 1669.6,1027.16 1672.47,1020.65 1675.33,1013.76 1678.2,1006.47 1681.07,998.8 1683.93,990.743 1686.8,982.305 1689.66,973.49 1692.53,964.301 1695.4,954.743 1698.26,944.82 1701.13,934.539 1703.99,923.905 1706.86,912.925 1709.73,901.605 1712.59,889.954 1715.46,877.979 1718.32,865.69 1721.19,853.097 1724.06,840.208 1726.92,827.036 1729.79,813.592 1732.65,799.889 1735.52,785.939 1738.39,771.756 1741.25,757.356 1744.12,742.753 1746.98,727.963 1749.85,713.004 1752.72,697.893 1755.58,682.647 1758.45,667.287 1761.31,651.832 1764.18,636.301 1767.05,620.717 1769.91,605.1 1772.78,589.473 1775.64,573.858 1778.51,558.28 1781.38,542.762 1784.24,527.327 1787.11,512.001 1789.97,496.809 1792.84,481.776 1795.71,466.929 1798.57,452.291 1801.44,437.891 1804.3,423.754 1807.17,409.905 1810.04,396.373 1812.9,383.181 1815.77,370.358 1818.63,357.927 1821.5,345.916 1824.37,334.349 1827.23,323.25 1830.1,312.645 1832.96,302.558 1835.83,293.01 1838.7,284.025 1841.56,275.625 1844.43,267.831 1847.29,260.662 1850.16,254.138 1853.03,248.277 1855.89,243.097 1858.76,238.612 1861.62,234.838 1864.49,231.789 1867.36,229.477 1870.22,227.912 1873.09,227.104 1875.95,227.06 1878.82,227.789 1881.69,229.294 1884.55,231.579 1887.42,234.646 1890.28,238.495 1893.15,243.125 1896.02,248.532 1898.88,254.712 1901.75,261.659 1904.61,269.363 1907.48,277.816 1910.35,287.005 1913.21,296.917 1916.08,307.538 1918.94,318.85 1921.81,330.835 1924.68,343.474 1927.54,356.744 1930.41,370.623 1933.27,385.086 1936.14,400.106 1939.01,415.656 1941.87,431.708 1944.74,448.23 1947.6,465.192 1950.47,482.56 1953.34,500.301 1956.2,518.379 1959.07,536.759 1961.93,555.404 1964.8,574.276 1967.67,593.337 1970.53,612.547 1973.4,631.866 1976.26,651.256 1979.13,670.674 1982,690.081 1984.86,709.436 1987.73,728.696 1990.59,747.822 1993.46,766.772 1996.33,785.505 1999.19,803.981 2002.06,822.159 2004.92,840.001 2007.79,857.467 2010.66,874.519 2013.52,891.12 2016.39,907.232 2019.25,922.82 2022.12,937.85 2024.99,952.289 2027.85,966.103 2030.72,979.263 2033.58,991.739 2036.45,1003.5 2039.32,1014.53 2042.18,1024.79 2045.05,1034.27 2047.91,1042.93 2050.78,1050.78 2053.65,1057.77 2056.51,1063.91 2059.38,1069.17 2062.24,1073.54 2065.11,1077.02 2067.98,1079.59 2070.84,1081.26 2073.71,1082.01 "/>
<path clip-path="url(#clip140)" d="M1673.21 270.476 L2064.11 270.476 L2064.11 166.796 L1673.21 166.796  Z" fill="#ffffff" fill-rule="evenodd" fill-opacity="1"/>
<polyline clip-path="url(#clip140)" style="stroke:#000000; stroke-linecap:round; stroke-linejoin:round; stroke-width:4; stroke-opacity:1; fill:none" points="1673.21,270.476 2064.11,270.476 2064.11,166.796 1673.21,166.796 1673.21,270.476 "/>
<polyline clip-path="url(#clip140)" style="stroke:#009af9; stroke-linecap:round; stroke-linejoin:round; stroke-width:4; stroke-opacity:1; fill:none" points="1694.41,218.636 1821.6,218.636 "/>
<path clip-path="url(#clip140)" d="M1870.67 204.018 L1870.67 208.948 Q1868.31 206.749 1865.62 205.661 Q1862.96 204.573 1859.95 204.573 Q1854.02 204.573 1850.87 208.208 Q1847.73 211.819 1847.73 218.67 Q1847.73 225.499 1850.87 229.133 Q1854.02 232.744 1859.95 232.744 Q1862.96 232.744 1865.62 231.656 Q1868.31 230.569 1870.67 228.369 L1870.67 233.254 Q1868.21 234.92 1865.46 235.754 Q1862.73 236.587 1859.67 236.587 Q1851.82 236.587 1847.31 231.795 Q1842.8 226.981 1842.8 218.67 Q1842.8 210.337 1847.31 205.546 Q1851.82 200.731 1859.67 200.731 Q1862.77 200.731 1865.5 201.564 Q1868.26 202.374 1870.67 204.018 Z" fill="#000000" fill-rule="nonzero" fill-opacity="1" /><path clip-path="url(#clip140)" d="M1887.75 212.976 Q1884.32 212.976 1882.33 215.661 Q1880.34 218.323 1880.34 222.976 Q1880.34 227.629 1882.31 230.314 Q1884.3 232.976 1887.75 232.976 Q1891.15 232.976 1893.14 230.291 Q1895.13 227.606 1895.13 222.976 Q1895.13 218.37 1893.14 215.684 Q1891.15 212.976 1887.75 212.976 M1887.75 209.365 Q1893.31 209.365 1896.48 212.976 Q1899.65 216.587 1899.65 222.976 Q1899.65 229.342 1896.48 232.976 Q1893.31 236.587 1887.75 236.587 Q1882.17 236.587 1879 232.976 Q1875.85 229.342 1875.85 222.976 Q1875.85 216.587 1879 212.976 Q1882.17 209.365 1887.75 209.365 Z" fill="#000000" fill-rule="nonzero" fill-opacity="1" /><path clip-path="url(#clip140)" d="M1906.71 199.897 L1910.97 199.897 L1910.97 235.916 L1906.71 235.916 L1906.71 199.897 Z" fill="#000000" fill-rule="nonzero" fill-opacity="1" /><path clip-path="url(#clip140)" d="M1919.88 199.897 L1924.14 199.897 L1924.14 235.916 L1919.88 235.916 L1919.88 199.897 Z" fill="#000000" fill-rule="nonzero" fill-opacity="1" /><path clip-path="url(#clip140)" d="M1944.83 222.883 Q1939.67 222.883 1937.68 224.064 Q1935.69 225.244 1935.69 228.092 Q1935.69 230.36 1937.17 231.703 Q1938.68 233.022 1941.24 233.022 Q1944.79 233.022 1946.92 230.522 Q1949.07 227.999 1949.07 223.832 L1949.07 222.883 L1944.83 222.883 M1953.33 221.124 L1953.33 235.916 L1949.07 235.916 L1949.07 231.981 Q1947.61 234.342 1945.43 235.476 Q1943.26 236.587 1940.11 236.587 Q1936.13 236.587 1933.77 234.365 Q1931.43 232.119 1931.43 228.369 Q1931.43 223.994 1934.35 221.772 Q1937.29 219.55 1943.1 219.55 L1949.07 219.55 L1949.07 219.133 Q1949.07 216.194 1947.12 214.596 Q1945.2 212.976 1941.71 212.976 Q1939.49 212.976 1937.38 213.508 Q1935.27 214.041 1933.33 215.106 L1933.33 211.17 Q1935.67 210.268 1937.86 209.828 Q1940.06 209.365 1942.15 209.365 Q1947.77 209.365 1950.55 212.282 Q1953.33 215.198 1953.33 221.124 Z" fill="#000000" fill-rule="nonzero" fill-opacity="1" /><path clip-path="url(#clip140)" d="M1979.16 222.652 Q1979.16 218.022 1977.24 215.476 Q1975.34 212.93 1971.89 212.93 Q1968.47 212.93 1966.55 215.476 Q1964.65 218.022 1964.65 222.652 Q1964.65 227.258 1966.55 229.805 Q1968.47 232.351 1971.89 232.351 Q1975.34 232.351 1977.24 229.805 Q1979.16 227.258 1979.16 222.652 M1983.42 232.698 Q1983.42 239.318 1980.48 242.536 Q1977.54 245.777 1971.48 245.777 Q1969.23 245.777 1967.24 245.43 Q1965.25 245.105 1963.37 244.411 L1963.37 240.268 Q1965.25 241.286 1967.08 241.772 Q1968.91 242.258 1970.8 242.258 Q1974.99 242.258 1977.08 240.059 Q1979.16 237.883 1979.16 233.462 L1979.16 231.356 Q1977.84 233.647 1975.78 234.781 Q1973.72 235.916 1970.85 235.916 Q1966.08 235.916 1963.17 232.281 Q1960.25 228.647 1960.25 222.652 Q1960.25 216.633 1963.17 212.999 Q1966.08 209.365 1970.85 209.365 Q1973.72 209.365 1975.78 210.499 Q1977.84 211.633 1979.16 213.925 L1979.16 209.99 L1983.42 209.99 L1983.42 232.698 Z" fill="#000000" fill-rule="nonzero" fill-opacity="1" /><path clip-path="url(#clip140)" d="M2014.37 221.888 L2014.37 223.971 L1994.79 223.971 Q1995.06 228.369 1997.42 230.684 Q1999.81 232.976 2004.05 232.976 Q2006.5 232.976 2008.79 232.374 Q2011.11 231.772 2013.37 230.569 L2013.37 234.596 Q2011.08 235.568 2008.67 236.078 Q2006.27 236.587 2003.79 236.587 Q1997.59 236.587 1993.95 232.976 Q1990.34 229.365 1990.34 223.207 Q1990.34 216.842 1993.77 213.115 Q1997.22 209.365 2003.05 209.365 Q2008.28 209.365 2011.31 212.745 Q2014.37 216.101 2014.37 221.888 M2010.11 220.638 Q2010.06 217.143 2008.14 215.059 Q2006.24 212.976 2003.1 212.976 Q1999.53 212.976 1997.38 214.99 Q1995.25 217.004 1994.92 220.661 L2010.11 220.638 Z" fill="#000000" fill-rule="nonzero" fill-opacity="1" /><path clip-path="url(#clip140)" d="M2042.91 220.268 L2042.91 235.916 L2038.65 235.916 L2038.65 220.407 Q2038.65 216.726 2037.22 214.897 Q2035.78 213.069 2032.91 213.069 Q2029.46 213.069 2027.47 215.268 Q2025.48 217.467 2025.48 221.263 L2025.48 235.916 L2021.2 235.916 L2021.2 209.99 L2025.48 209.99 L2025.48 214.018 Q2027.01 211.68 2029.07 210.522 Q2031.15 209.365 2033.86 209.365 Q2038.33 209.365 2040.62 212.143 Q2042.91 214.897 2042.91 220.268 Z" fill="#000000" fill-rule="nonzero" fill-opacity="1" /><polyline clip-path="url(#clip140)" style="stroke:#000000; stroke-linecap:round; stroke-linejoin:round; stroke-width:4; stroke-opacity:1; fill:none" points="2127.7,1423.18 2127.7,123.472 "/>
<polyline clip-path="url(#clip140)" style="stroke:#000000; stroke-linecap:round; stroke-linejoin:round; stroke-width:4; stroke-opacity:1; fill:none" points="2127.7,1286.37 2108.81,1286.37 "/>
<polyline clip-path="url(#clip140)" style="stroke:#000000; stroke-linecap:round; stroke-linejoin:round; stroke-width:4; stroke-opacity:1; fill:none" points="2127.7,1115.35 2108.81,1115.35 "/>
<polyline clip-path="url(#clip140)" style="stroke:#000000; stroke-linecap:round; stroke-linejoin:round; stroke-width:4; stroke-opacity:1; fill:none" points="2127.7,944.34 2108.81,944.34 "/>
<polyline clip-path="url(#clip140)" style="stroke:#000000; stroke-linecap:round; stroke-linejoin:round; stroke-width:4; stroke-opacity:1; fill:none" points="2127.7,773.326 2108.81,773.326 "/>
<polyline clip-path="url(#clip140)" style="stroke:#000000; stroke-linecap:round; stroke-linejoin:round; stroke-width:4; stroke-opacity:1; fill:none" points="2127.7,602.312 2108.81,602.312 "/>
<polyline clip-path="url(#clip140)" style="stroke:#000000; stroke-linecap:round; stroke-linejoin:round; stroke-width:4; stroke-opacity:1; fill:none" points="2127.7,431.298 2108.81,431.298 "/>
<polyline clip-path="url(#clip140)" style="stroke:#000000; stroke-linecap:round; stroke-linejoin:round; stroke-width:4; stroke-opacity:1; fill:none" points="2127.7,260.283 2108.81,260.283 "/>
<path clip-path="url(#clip140)" d="M2163.7 1286.82 L2193.38 1286.82 L2193.38 1290.76 L2163.7 1290.76 L2163.7 1286.82 Z" fill="#000000" fill-rule="nonzero" fill-opacity="1" /><path clip-path="url(#clip140)" d="M2204.28 1299.71 L2211.92 1299.71 L2211.92 1273.35 L2203.61 1275.01 L2203.61 1270.76 L2211.87 1269.09 L2216.55 1269.09 L2216.55 1299.71 L2224.19 1299.71 L2224.19 1303.65 L2204.28 1303.65 L2204.28 1299.71 Z" fill="#000000" fill-rule="nonzero" fill-opacity="1" /><path clip-path="url(#clip140)" d="M2233.68 1269.09 L2252.04 1269.09 L2252.04 1273.02 L2237.96 1273.02 L2237.96 1281.5 Q2238.98 1281.15 2240 1280.99 Q2241.02 1280.8 2242.04 1280.8 Q2247.82 1280.8 2251.2 1283.97 Q2254.58 1287.14 2254.58 1292.56 Q2254.58 1298.14 2251.11 1301.24 Q2247.64 1304.32 2241.32 1304.32 Q2239.14 1304.32 2236.87 1303.95 Q2234.63 1303.58 2232.22 1302.84 L2232.22 1298.14 Q2234.3 1299.27 2236.53 1299.83 Q2238.75 1300.38 2241.23 1300.38 Q2245.23 1300.38 2247.57 1298.28 Q2249.91 1296.17 2249.91 1292.56 Q2249.91 1288.95 2247.57 1286.84 Q2245.23 1284.74 2241.23 1284.74 Q2239.35 1284.74 2237.48 1285.15 Q2235.62 1285.57 2233.68 1286.45 L2233.68 1269.09 Z" fill="#000000" fill-rule="nonzero" fill-opacity="1" /><path clip-path="url(#clip140)" d="M2273.8 1272.17 Q2270.18 1272.17 2268.36 1275.73 Q2266.55 1279.27 2266.55 1286.4 Q2266.55 1293.51 2268.36 1297.07 Q2270.18 1300.62 2273.8 1300.62 Q2277.43 1300.62 2279.24 1297.07 Q2281.06 1293.51 2281.06 1286.4 Q2281.06 1279.27 2279.24 1275.73 Q2277.43 1272.17 2273.8 1272.17 M2273.8 1268.46 Q2279.61 1268.46 2282.66 1273.07 Q2285.74 1277.65 2285.74 1286.4 Q2285.74 1295.13 2282.66 1299.74 Q2279.61 1304.32 2273.8 1304.32 Q2267.99 1304.32 2264.91 1299.74 Q2261.85 1295.13 2261.85 1286.4 Q2261.85 1277.65 2264.91 1273.07 Q2267.99 1268.46 2273.8 1268.46 Z" fill="#000000" fill-rule="nonzero" fill-opacity="1" /><path clip-path="url(#clip140)" d="M2163.7 1115.81 L2193.38 1115.81 L2193.38 1119.74 L2163.7 1119.74 L2163.7 1115.81 Z" fill="#000000" fill-rule="nonzero" fill-opacity="1" /><path clip-path="url(#clip140)" d="M2204.28 1128.7 L2211.92 1128.7 L2211.92 1102.33 L2203.61 1104 L2203.61 1099.74 L2211.87 1098.07 L2216.55 1098.07 L2216.55 1128.7 L2224.19 1128.7 L2224.19 1132.63 L2204.28 1132.63 L2204.28 1128.7 Z" fill="#000000" fill-rule="nonzero" fill-opacity="1" /><path clip-path="url(#clip140)" d="M2243.63 1101.15 Q2240.02 1101.15 2238.19 1104.72 Q2236.39 1108.26 2236.39 1115.39 Q2236.39 1122.5 2238.19 1126.06 Q2240.02 1129.6 2243.63 1129.6 Q2247.27 1129.6 2249.07 1126.06 Q2250.9 1122.5 2250.9 1115.39 Q2250.9 1108.26 2249.07 1104.72 Q2247.27 1101.15 2243.63 1101.15 M2243.63 1097.45 Q2249.44 1097.45 2252.5 1102.06 Q2255.58 1106.64 2255.58 1115.39 Q2255.58 1124.12 2252.5 1128.72 Q2249.44 1133.31 2243.63 1133.31 Q2237.82 1133.31 2234.74 1128.72 Q2231.69 1124.12 2231.69 1115.39 Q2231.69 1106.64 2234.74 1102.06 Q2237.82 1097.45 2243.63 1097.45 Z" fill="#000000" fill-rule="nonzero" fill-opacity="1" /><path clip-path="url(#clip140)" d="M2273.8 1101.15 Q2270.18 1101.15 2268.36 1104.72 Q2266.55 1108.26 2266.55 1115.39 Q2266.55 1122.5 2268.36 1126.06 Q2270.18 1129.6 2273.8 1129.6 Q2277.43 1129.6 2279.24 1126.06 Q2281.06 1122.5 2281.06 1115.39 Q2281.06 1108.26 2279.24 1104.72 Q2277.43 1101.15 2273.8 1101.15 M2273.8 1097.45 Q2279.61 1097.45 2282.66 1102.06 Q2285.74 1106.64 2285.74 1115.39 Q2285.74 1124.12 2282.66 1128.72 Q2279.61 1133.31 2273.8 1133.31 Q2267.99 1133.31 2264.91 1128.72 Q2261.85 1124.12 2261.85 1115.39 Q2261.85 1106.64 2264.91 1102.06 Q2267.99 1097.45 2273.8 1097.45 Z" fill="#000000" fill-rule="nonzero" fill-opacity="1" /><path clip-path="url(#clip140)" d="M2163.7 944.792 L2193.38 944.792 L2193.38 948.727 L2163.7 948.727 L2163.7 944.792 Z" fill="#000000" fill-rule="nonzero" fill-opacity="1" /><path clip-path="url(#clip140)" d="M2203.52 927.06 L2221.87 927.06 L2221.87 930.995 L2207.8 930.995 L2207.8 939.467 Q2208.82 939.12 2209.84 938.958 Q2210.86 938.773 2211.87 938.773 Q2217.66 938.773 2221.04 941.944 Q2224.42 945.116 2224.42 950.532 Q2224.42 956.111 2220.95 959.213 Q2217.48 962.291 2211.16 962.291 Q2208.98 962.291 2206.71 961.921 Q2204.47 961.551 2202.06 960.81 L2202.06 956.111 Q2204.14 957.245 2206.37 957.801 Q2208.59 958.356 2211.06 958.356 Q2215.07 958.356 2217.41 956.25 Q2219.74 954.143 2219.74 950.532 Q2219.74 946.921 2217.41 944.815 Q2215.07 942.708 2211.06 942.708 Q2209.19 942.708 2207.31 943.125 Q2205.46 943.542 2203.52 944.421 L2203.52 927.06 Z" fill="#000000" fill-rule="nonzero" fill-opacity="1" /><path clip-path="url(#clip140)" d="M2243.63 930.139 Q2240.02 930.139 2238.19 933.704 Q2236.39 937.245 2236.39 944.375 Q2236.39 951.481 2238.19 955.046 Q2240.02 958.588 2243.63 958.588 Q2247.27 958.588 2249.07 955.046 Q2250.9 951.481 2250.9 944.375 Q2250.9 937.245 2249.07 933.704 Q2247.27 930.139 2243.63 930.139 M2243.63 926.435 Q2249.44 926.435 2252.5 931.042 Q2255.58 935.625 2255.58 944.375 Q2255.58 953.102 2252.5 957.708 Q2249.44 962.291 2243.63 962.291 Q2237.82 962.291 2234.74 957.708 Q2231.69 953.102 2231.69 944.375 Q2231.69 935.625 2234.74 931.042 Q2237.82 926.435 2243.63 926.435 Z" fill="#000000" fill-rule="nonzero" fill-opacity="1" /><path clip-path="url(#clip140)" d="M2175.65 759.125 Q2172.04 759.125 2170.21 762.689 Q2168.4 766.231 2168.4 773.361 Q2168.4 780.467 2170.21 784.032 Q2172.04 787.574 2175.65 787.574 Q2179.28 787.574 2181.09 784.032 Q2182.92 780.467 2182.92 773.361 Q2182.92 766.231 2181.09 762.689 Q2179.28 759.125 2175.65 759.125 M2175.65 755.421 Q2181.46 755.421 2184.51 760.027 Q2187.59 764.611 2187.59 773.361 Q2187.59 782.088 2184.51 786.694 Q2181.46 791.277 2175.65 791.277 Q2169.84 791.277 2166.76 786.694 Q2163.7 782.088 2163.7 773.361 Q2163.7 764.611 2166.76 760.027 Q2169.84 755.421 2175.65 755.421 Z" fill="#000000" fill-rule="nonzero" fill-opacity="1" /><path clip-path="url(#clip140)" d="M2165.16 585.032 L2183.52 585.032 L2183.52 588.967 L2169.44 588.967 L2169.44 597.439 Q2170.46 597.092 2171.48 596.93 Q2172.5 596.745 2173.52 596.745 Q2179.31 596.745 2182.68 599.916 Q2186.06 603.087 2186.06 608.504 Q2186.06 614.083 2182.59 617.184 Q2179.12 620.263 2172.8 620.263 Q2170.62 620.263 2168.36 619.893 Q2166.11 619.522 2163.7 618.782 L2163.7 614.083 Q2165.79 615.217 2168.01 615.772 Q2170.23 616.328 2172.71 616.328 Q2176.71 616.328 2179.05 614.221 Q2181.39 612.115 2181.39 608.504 Q2181.39 604.893 2179.05 602.786 Q2176.71 600.68 2172.71 600.68 Q2170.83 600.68 2168.96 601.097 Q2167.11 601.513 2165.16 602.393 L2165.16 585.032 Z" fill="#000000" fill-rule="nonzero" fill-opacity="1" /><path clip-path="url(#clip140)" d="M2205.28 588.11 Q2201.67 588.11 2199.84 591.675 Q2198.03 595.217 2198.03 602.347 Q2198.03 609.453 2199.84 613.018 Q2201.67 616.559 2205.28 616.559 Q2208.91 616.559 2210.72 613.018 Q2212.55 609.453 2212.55 602.347 Q2212.55 595.217 2210.72 591.675 Q2208.91 588.11 2205.28 588.11 M2205.28 584.407 Q2211.09 584.407 2214.14 589.013 Q2217.22 593.597 2217.22 602.347 Q2217.22 611.073 2214.14 615.68 Q2211.09 620.263 2205.28 620.263 Q2199.47 620.263 2196.39 615.68 Q2193.33 611.073 2193.33 602.347 Q2193.33 593.597 2196.39 589.013 Q2199.47 584.407 2205.28 584.407 Z" fill="#000000" fill-rule="nonzero" fill-opacity="1" /><path clip-path="url(#clip140)" d="M2164.37 444.642 L2172.01 444.642 L2172.01 418.277 L2163.7 419.944 L2163.7 415.684 L2171.97 414.018 L2176.64 414.018 L2176.64 444.642 L2184.28 444.642 L2184.28 448.578 L2164.37 448.578 L2164.37 444.642 Z" fill="#000000" fill-rule="nonzero" fill-opacity="1" /><path clip-path="url(#clip140)" d="M2203.73 417.096 Q2200.12 417.096 2198.29 420.661 Q2196.48 424.203 2196.48 431.332 Q2196.48 438.439 2198.29 442.004 Q2200.12 445.545 2203.73 445.545 Q2207.36 445.545 2209.17 442.004 Q2210.99 438.439 2210.99 431.332 Q2210.99 424.203 2209.17 420.661 Q2207.36 417.096 2203.73 417.096 M2203.73 413.393 Q2209.54 413.393 2212.59 417.999 Q2215.67 422.582 2215.67 431.332 Q2215.67 440.059 2212.59 444.666 Q2209.54 449.249 2203.73 449.249 Q2197.92 449.249 2194.84 444.666 Q2191.78 440.059 2191.78 431.332 Q2191.78 422.582 2194.84 417.999 Q2197.92 413.393 2203.73 413.393 Z" fill="#000000" fill-rule="nonzero" fill-opacity="1" /><path clip-path="url(#clip140)" d="M2233.89 417.096 Q2230.28 417.096 2228.45 420.661 Q2226.64 424.203 2226.64 431.332 Q2226.64 438.439 2228.45 442.004 Q2230.28 445.545 2233.89 445.545 Q2237.52 445.545 2239.33 442.004 Q2241.16 438.439 2241.16 431.332 Q2241.16 424.203 2239.33 420.661 Q2237.52 417.096 2233.89 417.096 M2233.89 413.393 Q2239.7 413.393 2242.75 417.999 Q2245.83 422.582 2245.83 431.332 Q2245.83 440.059 2242.75 444.666 Q2239.7 449.249 2233.89 449.249 Q2228.08 449.249 2225 444.666 Q2221.94 440.059 2221.94 431.332 Q2221.94 422.582 2225 417.999 Q2228.08 413.393 2233.89 413.393 Z" fill="#000000" fill-rule="nonzero" fill-opacity="1" /><path clip-path="url(#clip140)" d="M2164.37 273.628 L2172.01 273.628 L2172.01 247.263 L2163.7 248.929 L2163.7 244.67 L2171.97 243.003 L2176.64 243.003 L2176.64 273.628 L2184.28 273.628 L2184.28 277.563 L2164.37 277.563 L2164.37 273.628 Z" fill="#000000" fill-rule="nonzero" fill-opacity="1" /><path clip-path="url(#clip140)" d="M2193.77 243.003 L2212.13 243.003 L2212.13 246.939 L2198.06 246.939 L2198.06 255.411 Q2199.07 255.064 2200.09 254.902 Q2201.11 254.716 2202.13 254.716 Q2207.92 254.716 2211.3 257.888 Q2214.68 261.059 2214.68 266.476 Q2214.68 272.054 2211.2 275.156 Q2207.73 278.235 2201.41 278.235 Q2199.24 278.235 2196.97 277.864 Q2194.72 277.494 2192.31 276.753 L2192.31 272.054 Q2194.4 273.188 2196.62 273.744 Q2198.84 274.3 2201.32 274.3 Q2205.32 274.3 2207.66 272.193 Q2210 270.087 2210 266.476 Q2210 262.864 2207.66 260.758 Q2205.32 258.652 2201.32 258.652 Q2199.44 258.652 2197.57 259.068 Q2195.72 259.485 2193.77 260.364 L2193.77 243.003 Z" fill="#000000" fill-rule="nonzero" fill-opacity="1" /><path clip-path="url(#clip140)" d="M2233.89 246.082 Q2230.28 246.082 2228.45 249.647 Q2226.64 253.189 2226.64 260.318 Q2226.64 267.425 2228.45 270.989 Q2230.28 274.531 2233.89 274.531 Q2237.52 274.531 2239.33 270.989 Q2241.16 267.425 2241.16 260.318 Q2241.16 253.189 2239.33 249.647 Q2237.52 246.082 2233.89 246.082 M2233.89 242.378 Q2239.7 242.378 2242.75 246.985 Q2245.83 251.568 2245.83 260.318 Q2245.83 269.045 2242.75 273.651 Q2239.7 278.235 2233.89 278.235 Q2228.08 278.235 2225 273.651 Q2221.94 269.045 2221.94 260.318 Q2221.94 251.568 2225 246.985 Q2228.08 242.378 2233.89 242.378 Z" fill="#000000" fill-rule="nonzero" fill-opacity="1" /><path clip-path="url(#clip140)" d="M2336.53 1054.29 L2354.38 1054.29 L2354.38 1046.21 Q2354.38 1041.72 2352.06 1039.27 Q2349.74 1036.82 2345.44 1036.82 Q2341.17 1036.82 2338.85 1039.27 Q2336.53 1041.72 2336.53 1046.21 L2336.53 1054.29 M2331.24 1060.72 L2331.24 1046.21 Q2331.24 1038.22 2334.87 1034.14 Q2338.47 1030.04 2345.44 1030.04 Q2352.47 1030.04 2356.07 1034.14 Q2359.67 1038.22 2359.67 1046.21 L2359.67 1054.29 L2378.76 1054.29 L2378.76 1060.72 L2331.24 1060.72 Z" fill="#000000" fill-rule="nonzero" fill-opacity="1" /><path clip-path="url(#clip140)" d="M2357.25 992.036 L2378.76 992.036 L2378.76 997.892 L2357.44 997.892 Q2352.38 997.892 2349.86 999.866 Q2347.35 1001.84 2347.35 1005.79 Q2347.35 1010.53 2350.37 1013.27 Q2353.4 1016 2358.62 1016 L2378.76 1016 L2378.76 1021.89 L2329.24 1021.89 L2329.24 1016 L2348.65 1016 Q2345.44 1013.9 2343.85 1011.07 Q2342.26 1008.2 2342.26 1004.48 Q2342.26 998.338 2346.08 995.187 Q2349.86 992.036 2357.25 992.036 Z" fill="#000000" fill-rule="nonzero" fill-opacity="1" /><path clip-path="url(#clip140)" d="M2360.84 964.154 Q2360.84 971.252 2362.47 973.989 Q2364.09 976.726 2368.01 976.726 Q2371.12 976.726 2372.97 974.689 Q2374.79 972.62 2374.79 969.087 Q2374.79 964.218 2371.35 961.289 Q2367.88 958.329 2362.15 958.329 L2360.84 958.329 L2360.84 964.154 M2358.43 952.473 L2378.76 952.473 L2378.76 958.329 L2373.35 958.329 Q2376.6 960.335 2378.16 963.326 Q2379.69 966.318 2379.69 970.647 Q2379.69 976.121 2376.63 979.368 Q2373.54 982.583 2368.39 982.583 Q2362.37 982.583 2359.32 978.572 Q2356.26 974.53 2356.26 966.541 L2356.26 958.329 L2355.69 958.329 Q2351.65 958.329 2349.45 961.003 Q2347.22 963.645 2347.22 968.451 Q2347.22 971.506 2347.95 974.403 Q2348.69 977.299 2350.15 979.973 L2344.74 979.973 Q2343.5 976.758 2342.89 973.734 Q2342.26 970.711 2342.26 967.846 Q2342.26 960.112 2346.27 956.292 Q2350.28 952.473 2358.43 952.473 Z" fill="#000000" fill-rule="nonzero" fill-opacity="1" /><path clip-path="url(#clip140)" d="M2344.17 917.684 L2349.7 917.684 Q2348.43 920.167 2347.79 922.841 Q2347.16 925.514 2347.16 928.379 Q2347.16 932.739 2348.49 934.935 Q2349.83 937.1 2352.51 937.1 Q2354.54 937.1 2355.72 935.54 Q2356.87 933.981 2357.92 929.27 L2358.36 927.265 Q2359.7 921.026 2362.15 918.416 Q2364.57 915.775 2368.93 915.775 Q2373.89 915.775 2376.79 919.721 Q2379.69 923.636 2379.69 930.511 Q2379.69 933.376 2379.11 936.495 Q2378.57 939.582 2377.46 943.02 L2371.41 943.02 Q2373.1 939.773 2373.96 936.622 Q2374.79 933.471 2374.79 930.384 Q2374.79 926.246 2373.38 924.018 Q2371.95 921.79 2369.37 921.79 Q2366.99 921.79 2365.71 923.413 Q2364.44 925.005 2363.26 930.448 L2362.79 932.485 Q2361.64 937.927 2359.28 940.346 Q2356.9 942.765 2352.76 942.765 Q2347.73 942.765 2344.99 939.2 Q2342.26 935.636 2342.26 929.079 Q2342.26 925.832 2342.73 922.968 Q2343.21 920.103 2344.17 917.684 Z" fill="#000000" fill-rule="nonzero" fill-opacity="1" /><path clip-path="url(#clip140)" d="M2359.48 875.957 L2362.34 875.957 L2362.34 902.884 Q2368.39 902.502 2371.57 899.256 Q2374.72 895.977 2374.72 890.153 Q2374.72 886.779 2373.89 883.628 Q2373.07 880.445 2371.41 877.326 L2376.95 877.326 Q2378.29 880.477 2378.99 883.787 Q2379.69 887.097 2379.69 890.503 Q2379.69 899.033 2374.72 904.03 Q2369.76 908.995 2361.29 908.995 Q2352.54 908.995 2347.41 904.284 Q2342.26 899.542 2342.26 891.521 Q2342.26 884.328 2346.9 880.158 Q2351.52 875.957 2359.48 875.957 M2357.76 881.814 Q2352.95 881.877 2350.09 884.519 Q2347.22 887.129 2347.22 891.458 Q2347.22 896.359 2349.99 899.319 Q2352.76 902.247 2357.79 902.693 L2357.76 881.814 Z" fill="#000000" fill-rule="nonzero" fill-opacity="1" /><path clip-path="url(#clip140)" d="M2337.58 829.487 L2361.23 838.208 L2361.23 820.735 L2337.58 829.487 M2331.24 833.116 L2331.24 825.827 L2378.76 807.717 L2378.76 814.401 L2366.57 818.729 L2366.57 840.15 L2378.76 844.479 L2378.76 851.258 L2331.24 833.116 Z" fill="#000000" fill-rule="nonzero" fill-opacity="1" /><path clip-path="url(#clip140)" d="M2357.25 771.4 L2378.76 771.4 L2378.76 777.257 L2357.44 777.257 Q2352.38 777.257 2349.86 779.23 Q2347.35 781.204 2347.35 785.15 Q2347.35 789.893 2350.37 792.63 Q2353.4 795.367 2358.62 795.367 L2378.76 795.367 L2378.76 801.256 L2343.12 801.256 L2343.12 795.367 L2348.65 795.367 Q2345.44 793.267 2343.85 790.434 Q2342.26 787.569 2342.26 783.845 Q2342.26 777.702 2346.08 774.551 Q2349.86 771.4 2357.25 771.4 Z" fill="#000000" fill-rule="nonzero" fill-opacity="1" /><path clip-path="url(#clip140)" d="M2360.53 736.262 Q2354.16 736.262 2350.66 738.903 Q2347.16 741.513 2347.16 746.256 Q2347.16 750.966 2350.66 753.608 Q2354.16 756.218 2360.53 756.218 Q2366.86 756.218 2370.36 753.608 Q2373.86 750.966 2373.86 746.256 Q2373.86 741.513 2370.36 738.903 Q2366.86 736.262 2360.53 736.262 M2374.34 730.405 Q2383.44 730.405 2387.87 734.447 Q2392.32 738.49 2392.32 746.829 Q2392.32 749.916 2391.85 752.653 Q2391.4 755.391 2390.44 757.969 L2384.75 757.969 Q2386.15 755.391 2386.82 752.876 Q2387.48 750.362 2387.48 747.752 Q2387.48 741.991 2384.46 739.126 Q2381.47 736.262 2375.39 736.262 L2372.49 736.262 Q2375.64 738.076 2377.2 740.909 Q2378.76 743.741 2378.76 747.688 Q2378.76 754.245 2373.77 758.255 Q2368.77 762.266 2360.53 762.266 Q2352.25 762.266 2347.25 758.255 Q2342.26 754.245 2342.26 747.688 Q2342.26 743.741 2343.82 740.909 Q2345.38 738.076 2348.53 736.262 L2343.12 736.262 L2343.12 730.405 L2374.34 730.405 Z" fill="#000000" fill-rule="nonzero" fill-opacity="1" /><path clip-path="url(#clip140)" d="M2329.24 718.342 L2329.24 712.486 L2378.76 712.486 L2378.76 718.342 L2329.24 718.342 Z" fill="#000000" fill-rule="nonzero" fill-opacity="1" /><path clip-path="url(#clip140)" d="M2359.48 669.74 L2362.34 669.74 L2362.34 696.667 Q2368.39 696.285 2371.57 693.039 Q2374.72 689.76 2374.72 683.936 Q2374.72 680.562 2373.89 677.411 Q2373.07 674.228 2371.41 671.109 L2376.95 671.109 Q2378.29 674.26 2378.99 677.57 Q2379.69 680.88 2379.69 684.286 Q2379.69 692.816 2374.72 697.813 Q2369.76 702.778 2361.29 702.778 Q2352.54 702.778 2347.41 698.067 Q2342.26 693.325 2342.26 685.304 Q2342.26 678.111 2346.9 673.941 Q2351.52 669.74 2359.48 669.74 M2357.76 675.596 Q2352.95 675.66 2350.09 678.302 Q2347.22 680.912 2347.22 685.241 Q2347.22 690.142 2349.99 693.102 Q2352.76 696.03 2357.79 696.476 L2357.76 675.596 Z" fill="#000000" fill-rule="nonzero" fill-opacity="1" /><path clip-path="url(#clip140)" d="M2331.24 629 L2331.24 623.589 L2384.81 640.139 L2384.81 645.55 L2331.24 629 Z" fill="#000000" fill-rule="nonzero" fill-opacity="1" /><path clip-path="url(#clip140)" d="M2348.53 573.268 L2329.24 573.268 L2329.24 567.411 L2378.76 567.411 L2378.76 573.268 L2373.42 573.268 Q2376.6 575.114 2378.16 577.947 Q2379.69 580.747 2379.69 584.694 Q2379.69 591.155 2374.53 595.229 Q2369.37 599.272 2360.97 599.272 Q2352.57 599.272 2347.41 595.229 Q2342.26 591.155 2342.26 584.694 Q2342.26 580.747 2343.82 577.947 Q2345.34 575.114 2348.53 573.268 M2360.97 593.224 Q2367.43 593.224 2371.12 590.582 Q2374.79 587.909 2374.79 583.262 Q2374.79 578.615 2371.12 575.941 Q2367.43 573.268 2360.97 573.268 Q2354.51 573.268 2350.85 575.941 Q2347.16 578.615 2347.16 583.262 Q2347.16 587.909 2350.85 590.582 Q2354.51 593.224 2360.97 593.224 Z" fill="#000000" fill-rule="nonzero" fill-opacity="1" /><path clip-path="url(#clip140)" d="M2359.48 524.857 L2362.34 524.857 L2362.34 551.783 Q2368.39 551.402 2371.57 548.155 Q2374.72 544.877 2374.72 539.052 Q2374.72 535.678 2373.89 532.527 Q2373.07 529.344 2371.41 526.225 L2376.95 526.225 Q2378.29 529.376 2378.99 532.686 Q2379.69 535.997 2379.69 539.402 Q2379.69 547.932 2374.72 552.929 Q2369.76 557.895 2361.29 557.895 Q2352.54 557.895 2347.41 553.184 Q2342.26 548.441 2342.26 540.421 Q2342.26 533.227 2346.9 529.058 Q2351.52 524.857 2359.48 524.857 M2357.76 530.713 Q2352.95 530.777 2350.09 533.418 Q2347.22 536.028 2347.22 540.357 Q2347.22 545.259 2349.99 548.219 Q2352.76 551.147 2357.79 551.593 L2357.76 530.713 Z" fill="#000000" fill-rule="nonzero" fill-opacity="1" /><path clip-path="url(#clip140)" d="M2360.53 491.787 Q2354.16 491.787 2350.66 494.428 Q2347.16 497.038 2347.16 501.781 Q2347.16 506.491 2350.66 509.133 Q2354.16 511.743 2360.53 511.743 Q2366.86 511.743 2370.36 509.133 Q2373.86 506.491 2373.86 501.781 Q2373.86 497.038 2370.36 494.428 Q2366.86 491.787 2360.53 491.787 M2374.34 485.93 Q2383.44 485.93 2387.87 489.972 Q2392.32 494.015 2392.32 502.354 Q2392.32 505.441 2391.85 508.178 Q2391.4 510.916 2390.44 513.494 L2384.75 513.494 Q2386.15 510.916 2386.82 508.401 Q2387.48 505.887 2387.48 503.277 Q2387.48 497.516 2384.46 494.651 Q2381.47 491.787 2375.39 491.787 L2372.49 491.787 Q2375.64 493.601 2377.2 496.434 Q2378.76 499.266 2378.76 503.213 Q2378.76 509.77 2373.77 513.78 Q2368.77 517.791 2360.53 517.791 Q2352.25 517.791 2347.25 513.78 Q2342.26 509.77 2342.26 503.213 Q2342.26 499.266 2343.82 496.434 Q2345.38 493.601 2348.53 491.787 L2343.12 491.787 L2343.12 485.93 L2374.34 485.93 Z" fill="#000000" fill-rule="nonzero" fill-opacity="1" /><polyline clip-path="url(#clip142)" style="stroke:#ff0000; stroke-linecap:round; stroke-linejoin:round; stroke-width:4; stroke-opacity:1; fill:none" points="273.862,773.326 276.728,765.98 279.594,758.656 282.46,751.379 285.326,744.169 288.192,737.047 291.058,730.034 293.924,723.145 296.79,716.397 299.656,709.803 302.522,703.375 305.388,697.121 308.254,691.05 311.12,685.166 313.986,679.473 316.852,673.973 319.718,668.667 322.584,663.553 325.45,658.629 328.316,653.894 331.182,649.342 334.048,644.97 336.914,640.773 339.78,636.746 342.646,632.883 345.512,629.178 348.378,625.627 351.244,622.222 354.11,618.959 356.976,615.831 359.842,612.833 362.708,609.96 365.574,607.205 368.44,604.565 371.306,602.033 374.172,599.605 377.038,597.277 379.904,595.043 382.77,592.901 385.636,590.844 388.502,588.87 391.368,586.975 394.234,585.156 397.1,583.408 399.966,581.729 402.832,580.115 405.698,578.564 408.564,577.074 411.43,575.64 414.296,574.261 417.162,572.934 420.028,571.657 422.894,570.428 425.76,569.245 428.626,568.105 431.492,567.008 434.358,565.95 437.224,564.93 440.09,563.947 442.956,562.999 445.822,562.084 448.688,561.202 451.554,560.35 454.419,559.527 457.285,558.732 460.151,557.964 463.017,557.221 465.883,556.503 468.749,555.807 471.615,555.134 474.481,554.482 477.347,553.85 480.213,553.236 483.079,552.641 485.945,552.063 488.811,551.5 491.677,550.953 494.543,550.42 497.409,549.9 500.275,549.393 503.141,548.897 506.007,548.412 508.873,547.937 511.739,547.47 514.605,547.012 517.471,546.561 520.337,546.116 523.203,545.676 526.069,545.241 528.935,544.81 531.801,544.381 534.667,543.955 537.533,543.529 540.399,543.103 543.265,542.677 546.131,542.248 548.997,541.817 551.863,541.382 554.729,540.942 557.595,540.496 560.461,540.043 563.327,539.582 566.193,539.112 569.059,538.631 571.925,538.139 574.791,537.635 577.657,537.116 580.523,536.582 583.389,536.032 586.255,535.465 589.121,534.878 591.987,534.271 594.853,533.642 597.719,532.99 600.585,532.313 603.451,531.61 606.317,530.88 609.183,530.121 612.049,529.332 614.915,528.51 617.781,527.655 620.647,526.766 623.513,525.839 626.379,524.875 629.245,523.872 632.111,522.828 634.977,521.743 637.843,520.613 640.709,519.44 643.575,518.22 646.441,516.954 649.307,515.64 652.173,514.278 655.039,512.866 657.905,511.404 660.771,509.891 663.637,508.329 666.503,506.715 669.369,505.05 672.235,503.336 675.101,501.571 677.967,499.758 680.833,497.897 683.699,495.988 686.565,494.035 689.431,492.039 692.297,490.001 695.163,487.924 698.029,485.811 700.895,483.664 703.761,481.486 706.627,479.281 709.493,477.052 712.359,474.804 715.225,472.538 718.091,470.26 720.957,467.974 723.823,465.683 726.689,463.392 729.555,461.104 732.421,458.825 735.287,456.557 738.153,454.305 741.019,452.073 743.885,449.864 746.751,447.682 749.617,445.53 752.483,443.411 755.349,441.328 758.215,439.284 761.081,437.281 763.947,435.321 766.813,433.405 769.679,431.536 772.545,429.715 775.411,427.943 778.277,426.22 781.143,424.548 784.009,422.926 786.875,421.355 789.741,419.835 792.607,418.365 795.473,416.945 798.339,415.575 801.205,414.253 804.071,412.979 806.937,411.752 809.803,410.571 812.669,409.435 815.535,408.343 818.401,407.292 821.267,406.283 824.133,405.312 826.999,404.38 829.865,403.485 832.731,402.625 835.597,401.798 838.463,401.004 841.329,400.24 844.195,399.505 847.061,398.798 849.927,398.117 852.793,397.461 855.659,396.829 858.525,396.218 861.391,395.628 864.257,395.058 867.123,394.505 869.989,393.969 872.855,393.448 875.721,392.941 878.587,392.447 881.453,391.965 884.319,391.493 887.185,391.031 890.051,390.577 892.917,390.13 895.783,389.689 898.649,389.253 901.515,388.821 904.381,388.392 907.247,387.965 910.113,387.54 912.979,387.114 915.845,386.688 918.711,386.259 921.577,385.829 924.443,385.394 927.309,384.956 930.175,384.512 933.041,384.061 935.907,383.604 938.773,383.139 941.639,382.665 944.505,382.182 947.371,381.688 950.237,381.182 953.103,380.665 955.969,380.134 958.835,379.589 961.701,379.029 964.567,378.453 967.433,377.861 970.299,377.25 973.165,376.621 976.031,375.972 978.897,375.302 981.763,374.61 984.629,373.896 987.495,373.157 990.361,372.393 993.227,371.602 996.093,370.784 998.959,369.937 1001.83,369.059 1004.69,368.15 1007.56,367.207 1010.42,366.23 1013.29,365.216 1016.16,364.165 1019.02,363.073 1021.89,361.94 1024.75,360.764 1027.62,359.543 1030.48,358.274 1033.35,356.955 1036.22,355.584 1039.08,354.16 1041.95,352.678 1044.81,351.137 1047.68,349.533 1050.55,347.865 1053.41,346.128 1056.28,344.32 1059.14,342.438 1062.01,340.477 1064.88,338.434 1067.74,336.305 1070.61,334.086 1073.47,331.773 1076.34,329.361 1079.21,326.846 1082.07,324.224 1084.94,321.488 1087.8,318.633 1090.67,315.656 1093.54,312.549 1096.4,309.308 1099.27,305.926 1102.13,302.398 1105,298.719 1107.87,294.881 1110.73,290.88 1113.6,286.711 1116.46,282.367 1119.33,277.844 1122.2,273.138 1125.06,268.245 1127.93,263.162 1130.79,257.886 1133.66,252.417 1136.53,246.755 1139.39,240.901 1142.26,234.859 1145.12,228.634 1147.99,222.233 1150.86,215.665 1153.72,208.941 1156.59,202.073 1159.45,195.078 1162.32,187.973 1165.19,180.776 1168.05,173.507 1170.92,166.19 1173.78,158.846 1176.65,1382.8 1179.52,1375.47 1182.38,1368.18 1185.25,1360.96 1188.11,1353.83 1190.98,1346.79 1193.85,1339.88 1196.71,1333.11 1199.58,1326.49 1202.44,1320.04 1205.31,1313.76 1208.18,1307.66 1211.04,1301.74 1213.91,1296.02 1216.77,1290.49 1219.64,1285.15 1222.51,1280.01 1225.37,1275.05 1228.24,1270.29 1231.1,1265.71 1233.97,1261.31 1236.84,1257.08 1239.7,1253.03 1242.57,1249.14 1245.43,1245.41 1248.3,1241.83 1251.17,1238.41 1254.03,1235.12 1256.9,1231.97 1259.76,1228.95 1262.63,1226.06 1265.5,1223.29 1268.36,1220.63 1271.23,1218.08 1274.09,1215.64 1276.96,1213.29 1279.83,1211.04 1282.69,1208.89 1285.56,1206.82 1288.42,1204.83 1291.29,1202.92 1294.16,1201.09 1297.02,1199.33 1299.89,1197.64 1302.75,1196.02 1305.62,1194.46 1308.49,1192.96 1311.35,1191.52 1314.22,1190.13 1317.08,1188.79 1319.95,1187.51 1322.82,1186.27 1325.68,1185.08 1328.55,1183.94 1331.41,1182.83 1334.28,1181.77 1337.15,1180.74 1340.01,1179.75 1342.88,1178.8 1345.74,1177.88 1348.61,1176.99 1351.48,1176.13 1354.34,1175.31 1357.21,1174.51 1360.07,1173.74 1362.94,1172.99 1365.81,1172.27 1368.67,1171.57 1371.54,1170.89 1374.4,1170.24 1377.27,1169.6 1380.14,1168.98 1383,1168.39 1385.87,1167.8 1388.73,1167.24 1391.6,1166.69 1394.47,1166.16 1397.33,1165.63 1400.2,1165.12 1403.06,1164.63 1405.93,1164.14 1408.8,1163.66 1411.66,1163.19 1414.53,1162.74 1417.39,1162.28 1420.26,1161.84 1423.13,1161.4 1425.99,1160.96 1428.86,1160.53 1431.72,1160.1 1434.59,1159.67 1437.46,1159.25 1440.32,1158.82 1443.19,1158.4 1446.05,1157.97 1448.92,1157.54 1451.79,1157.1 1454.65,1156.66 1457.52,1156.22 1460.38,1155.77 1463.25,1155.31 1466.12,1154.84 1468.98,1154.36 1471.85,1153.87 1474.71,1153.37 1477.58,1152.85 1480.45,1152.32 1483.31,1151.77 1486.18,1151.21 1489.04,1150.62 1491.91,1150.02 1494.78,1149.39 1497.64,1148.75 1500.51,1148.07 1503.37,1147.38 1506.24,1146.65 1509.11,1145.9 1511.97,1145.11 1514.84,1144.29 1517.7,1143.44 1520.57,1142.56 1523.44,1141.64 1526.3,1140.68 1529.17,1139.69 1532.03,1138.65 1534.9,1137.57 1537.77,1136.45 1540.63,1135.28 1543.5,1134.07 1546.36,1132.81 1549.23,1131.5 1552.1,1130.15 1554.96,1128.74 1557.83,1127.29 1560.69,1125.79 1563.56,1124.23 1566.43,1122.63 1569.29,1120.97 1572.16,1119.26 1575.02,1117.51 1577.89,1115.7 1580.76,1113.85 1583.62,1111.95 1586.49,1110 1589.35,1108.01 1592.22,1105.98 1595.09,1103.91 1597.95,1101.8 1600.82,1099.66 1603.68,1097.49 1606.55,1095.29 1609.42,1093.06 1612.28,1090.81 1615.15,1088.55 1618.01,1086.27 1620.88,1083.99 1623.75,1081.7 1626.61,1079.41 1629.48,1077.12 1632.34,1074.84 1635.21,1072.57 1638.08,1070.31 1640.94,1068.08 1643.81,1065.87 1646.67,1063.68 1649.54,1061.52 1652.41,1059.4 1655.27,1057.31 1658.14,1055.26 1661,1053.25 1663.87,1051.28 1666.74,1049.36 1669.6,1047.48 1672.47,1045.65 1675.33,1043.87 1678.2,1042.14 1681.07,1040.46 1683.93,1038.83 1686.8,1037.25 1689.66,1035.72 1692.53,1034.25 1695.4,1032.82 1698.26,1031.44 1701.13,1030.11 1703.99,1028.83 1706.86,1027.6 1709.73,1026.41 1712.59,1025.26 1715.46,1024.16 1718.32,1023.11 1721.19,1022.09 1724.06,1021.12 1726.92,1020.18 1729.79,1019.28 1732.65,1018.41 1735.52,1017.58 1738.39,1016.78 1741.25,1016.01 1744.12,1015.27 1746.98,1014.56 1749.85,1013.88 1752.72,1013.22 1755.58,1012.58 1758.45,1011.97 1761.31,1011.37 1764.18,1010.8 1767.05,1010.24 1769.91,1009.7 1772.78,1009.18 1775.64,1008.67 1778.51,1008.18 1781.38,1007.69 1784.24,1007.22 1787.11,1006.75 1789.97,1006.3 1792.84,1005.85 1795.71,1005.41 1798.57,1004.97 1801.44,1004.54 1804.3,1004.11 1807.17,1003.68 1810.04,1003.26 1812.9,1002.83 1815.77,1002.41 1818.63,1001.98 1821.5,1001.55 1824.37,1001.11 1827.23,1000.68 1830.1,1000.23 1832.96,999.785 1835.83,999.329 1838.7,998.865 1841.56,998.392 1844.43,997.91 1847.29,997.418 1850.16,996.915 1853.03,996.399 1855.89,995.87 1858.76,995.328 1861.62,994.77 1864.49,994.197 1867.36,993.607 1870.22,993 1873.09,992.373 1875.95,991.728 1878.82,991.061 1881.69,990.373 1884.55,989.662 1887.42,988.927 1890.28,988.167 1893.15,987.381 1896.02,986.567 1898.88,985.725 1901.75,984.852 1904.61,983.948 1907.48,983.011 1910.35,982.039 1913.21,981.031 1916.08,979.986 1918.94,978.901 1921.81,977.775 1924.68,976.605 1927.54,975.391 1930.41,974.13 1933.27,972.819 1936.14,971.457 1939.01,970.041 1941.87,968.569 1944.74,967.037 1947.6,965.444 1950.47,963.786 1953.34,962.061 1956.2,960.264 1959.07,958.394 1961.93,956.445 1964.8,954.416 1967.67,952.301 1970.53,950.097 1973.4,947.799 1976.26,945.403 1979.13,942.905 1982,940.3 1984.86,937.582 1987.73,934.747 1990.59,931.789 1993.46,928.704 1996.33,925.484 1999.19,922.125 2002.06,918.621 2004.92,914.966 2007.79,911.154 2010.66,907.18 2013.52,903.037 2016.39,898.722 2019.25,894.228 2022.12,889.551 2024.99,884.688 2027.85,879.635 2030.72,874.39 2033.58,868.952 2036.45,863.32 2039.32,857.497 2042.18,851.485 2045.05,845.289 2047.91,838.915 2050.78,832.373 2053.65,825.672 2056.51,818.827 2059.38,811.851 2062.24,804.762 2065.11,797.578 2067.98,790.32 2070.84,783.009 2073.71,775.667 "/>
</svg>
