<?xml version="1.0" encoding="utf-8"?>
<svg xmlns="http://www.w3.org/2000/svg" xmlns:xlink="http://www.w3.org/1999/xlink" width="600" height="400" viewBox="0 0 2400 1600">
<defs>
  <clipPath id="clip090">
    <rect x="0" y="0" width="2400" height="1600"/>
  </clipPath>
</defs>
<path clip-path="url(#clip090)" d="M0 1600 L2400 1600 L2400 0 L0 0  Z" fill="#ffffff" fill-rule="evenodd" fill-opacity="1"/>
<defs>
  <clipPath id="clip091">
    <rect x="480" y="0" width="1681" height="1600"/>
  </clipPath>
</defs>
<path clip-path="url(#clip090)" d="M219.866 1423.18 L2127.7 1423.18 L2127.7 123.472 L219.866 123.472  Z" fill="#ffffff" fill-rule="evenodd" fill-opacity="1"/>
<defs>
  <clipPath id="clip092">
    <rect x="219" y="123" width="1909" height="1301"/>
  </clipPath>
</defs>
<polyline clip-path="url(#clip092)" style="stroke:#000000; stroke-linecap:round; stroke-linejoin:round; stroke-width:2; stroke-opacity:0.1; fill:none" points="423.925,1423.18 423.925,123.472 "/>
<polyline clip-path="url(#clip092)" style="stroke:#000000; stroke-linecap:round; stroke-linejoin:round; stroke-width:2; stroke-opacity:0.1; fill:none" points="674.03,1423.18 674.03,123.472 "/>
<polyline clip-path="url(#clip092)" style="stroke:#000000; stroke-linecap:round; stroke-linejoin:round; stroke-width:2; stroke-opacity:0.1; fill:none" points="924.136,1423.18 924.136,123.472 "/>
<polyline clip-path="url(#clip092)" style="stroke:#000000; stroke-linecap:round; stroke-linejoin:round; stroke-width:2; stroke-opacity:0.1; fill:none" points="1174.24,1423.18 1174.24,123.472 "/>
<polyline clip-path="url(#clip092)" style="stroke:#000000; stroke-linecap:round; stroke-linejoin:round; stroke-width:2; stroke-opacity:0.1; fill:none" points="1424.35,1423.18 1424.35,123.472 "/>
<polyline clip-path="url(#clip092)" style="stroke:#000000; stroke-linecap:round; stroke-linejoin:round; stroke-width:2; stroke-opacity:0.1; fill:none" points="1674.45,1423.18 1674.45,123.472 "/>
<polyline clip-path="url(#clip092)" style="stroke:#000000; stroke-linecap:round; stroke-linejoin:round; stroke-width:2; stroke-opacity:0.1; fill:none" points="1924.56,1423.18 1924.56,123.472 "/>
<polyline clip-path="url(#clip090)" style="stroke:#000000; stroke-linecap:round; stroke-linejoin:round; stroke-width:4; stroke-opacity:1; fill:none" points="219.866,1423.18 2127.7,1423.18 "/>
<polyline clip-path="url(#clip090)" style="stroke:#000000; stroke-linecap:round; stroke-linejoin:round; stroke-width:4; stroke-opacity:1; fill:none" points="423.925,1423.18 423.925,1404.28 "/>
<polyline clip-path="url(#clip090)" style="stroke:#000000; stroke-linecap:round; stroke-linejoin:round; stroke-width:4; stroke-opacity:1; fill:none" points="674.03,1423.18 674.03,1404.28 "/>
<polyline clip-path="url(#clip090)" style="stroke:#000000; stroke-linecap:round; stroke-linejoin:round; stroke-width:4; stroke-opacity:1; fill:none" points="924.136,1423.18 924.136,1404.28 "/>
<polyline clip-path="url(#clip090)" style="stroke:#000000; stroke-linecap:round; stroke-linejoin:round; stroke-width:4; stroke-opacity:1; fill:none" points="1174.24,1423.18 1174.24,1404.28 "/>
<polyline clip-path="url(#clip090)" style="stroke:#000000; stroke-linecap:round; stroke-linejoin:round; stroke-width:4; stroke-opacity:1; fill:none" points="1424.35,1423.18 1424.35,1404.28 "/>
<polyline clip-path="url(#clip090)" style="stroke:#000000; stroke-linecap:round; stroke-linejoin:round; stroke-width:4; stroke-opacity:1; fill:none" points="1674.45,1423.18 1674.45,1404.28 "/>
<polyline clip-path="url(#clip090)" style="stroke:#000000; stroke-linecap:round; stroke-linejoin:round; stroke-width:4; stroke-opacity:1; fill:none" points="1924.56,1423.18 1924.56,1404.28 "/>
<path clip-path="url(#clip090)" d="M362.907 1468.75 L392.583 1468.75 L392.583 1472.69 L362.907 1472.69 L362.907 1468.75 Z" fill="#000000" fill-rule="nonzero" fill-opacity="1" /><path clip-path="url(#clip090)" d="M403.485 1481.64 L411.124 1481.64 L411.124 1455.28 L402.814 1456.95 L402.814 1452.69 L411.078 1451.02 L415.754 1451.02 L415.754 1481.64 L423.393 1481.64 L423.393 1485.58 L403.485 1485.58 L403.485 1481.64 Z" fill="#000000" fill-rule="nonzero" fill-opacity="1" /><path clip-path="url(#clip090)" d="M432.883 1451.02 L451.24 1451.02 L451.24 1454.96 L437.166 1454.96 L437.166 1463.43 Q438.184 1463.08 439.203 1462.92 Q440.221 1462.73 441.24 1462.73 Q447.027 1462.73 450.406 1465.9 Q453.786 1469.08 453.786 1474.49 Q453.786 1480.07 450.314 1483.17 Q446.841 1486.25 440.522 1486.25 Q438.346 1486.25 436.078 1485.88 Q433.832 1485.51 431.425 1484.77 L431.425 1480.07 Q433.508 1481.2 435.73 1481.76 Q437.953 1482.32 440.429 1482.32 Q444.434 1482.32 446.772 1480.21 Q449.11 1478.1 449.11 1474.49 Q449.11 1470.88 446.772 1468.77 Q444.434 1466.67 440.429 1466.67 Q438.554 1466.67 436.679 1467.08 Q434.828 1467.5 432.883 1468.38 L432.883 1451.02 Z" fill="#000000" fill-rule="nonzero" fill-opacity="1" /><path clip-path="url(#clip090)" d="M472.999 1454.1 Q469.388 1454.1 467.559 1457.66 Q465.753 1461.2 465.753 1468.33 Q465.753 1475.44 467.559 1479.01 Q469.388 1482.55 472.999 1482.55 Q476.633 1482.55 478.439 1479.01 Q480.267 1475.44 480.267 1468.33 Q480.267 1461.2 478.439 1457.66 Q476.633 1454.1 472.999 1454.1 M472.999 1450.39 Q478.809 1450.39 481.864 1455 Q484.943 1459.58 484.943 1468.33 Q484.943 1477.06 481.864 1481.67 Q478.809 1486.25 472.999 1486.25 Q467.189 1486.25 464.11 1481.67 Q461.054 1477.06 461.054 1468.33 Q461.054 1459.58 464.11 1455 Q467.189 1450.39 472.999 1450.39 Z" fill="#000000" fill-rule="nonzero" fill-opacity="1" /><path clip-path="url(#clip090)" d="M613.012 1468.75 L642.688 1468.75 L642.688 1472.69 L613.012 1472.69 L613.012 1468.75 Z" fill="#000000" fill-rule="nonzero" fill-opacity="1" /><path clip-path="url(#clip090)" d="M653.591 1481.64 L661.23 1481.64 L661.23 1455.28 L652.919 1456.95 L652.919 1452.69 L661.183 1451.02 L665.859 1451.02 L665.859 1481.64 L673.498 1481.64 L673.498 1485.58 L653.591 1485.58 L653.591 1481.64 Z" fill="#000000" fill-rule="nonzero" fill-opacity="1" /><path clip-path="url(#clip090)" d="M692.942 1454.1 Q689.331 1454.1 687.503 1457.66 Q685.697 1461.2 685.697 1468.33 Q685.697 1475.44 687.503 1479.01 Q689.331 1482.55 692.942 1482.55 Q696.577 1482.55 698.382 1479.01 Q700.211 1475.44 700.211 1468.33 Q700.211 1461.2 698.382 1457.66 Q696.577 1454.1 692.942 1454.1 M692.942 1450.39 Q698.752 1450.39 701.808 1455 Q704.887 1459.58 704.887 1468.33 Q704.887 1477.06 701.808 1481.67 Q698.752 1486.25 692.942 1486.25 Q687.132 1486.25 684.053 1481.67 Q680.998 1477.06 680.998 1468.33 Q680.998 1459.58 684.053 1455 Q687.132 1450.39 692.942 1450.39 Z" fill="#000000" fill-rule="nonzero" fill-opacity="1" /><path clip-path="url(#clip090)" d="M723.104 1454.1 Q719.493 1454.1 717.664 1457.66 Q715.859 1461.2 715.859 1468.33 Q715.859 1475.44 717.664 1479.01 Q719.493 1482.55 723.104 1482.55 Q726.738 1482.55 728.544 1479.01 Q730.373 1475.44 730.373 1468.33 Q730.373 1461.2 728.544 1457.66 Q726.738 1454.1 723.104 1454.1 M723.104 1450.39 Q728.914 1450.39 731.97 1455 Q735.049 1459.58 735.049 1468.33 Q735.049 1477.06 731.97 1481.67 Q728.914 1486.25 723.104 1486.25 Q717.294 1486.25 714.215 1481.67 Q711.16 1477.06 711.16 1468.33 Q711.16 1459.58 714.215 1455 Q717.294 1450.39 723.104 1450.39 Z" fill="#000000" fill-rule="nonzero" fill-opacity="1" /><path clip-path="url(#clip090)" d="M878.199 1468.75 L907.874 1468.75 L907.874 1472.69 L878.199 1472.69 L878.199 1468.75 Z" fill="#000000" fill-rule="nonzero" fill-opacity="1" /><path clip-path="url(#clip090)" d="M918.013 1451.02 L936.37 1451.02 L936.37 1454.96 L922.296 1454.96 L922.296 1463.43 Q923.314 1463.08 924.333 1462.92 Q925.351 1462.73 926.37 1462.73 Q932.157 1462.73 935.536 1465.9 Q938.916 1469.08 938.916 1474.49 Q938.916 1480.07 935.444 1483.17 Q931.971 1486.25 925.652 1486.25 Q923.476 1486.25 921.208 1485.88 Q918.962 1485.51 916.555 1484.77 L916.555 1480.07 Q918.638 1481.2 920.86 1481.76 Q923.083 1482.32 925.559 1482.32 Q929.564 1482.32 931.902 1480.21 Q934.24 1478.1 934.24 1474.49 Q934.24 1470.88 931.902 1468.77 Q929.564 1466.67 925.559 1466.67 Q923.684 1466.67 921.809 1467.08 Q919.958 1467.5 918.013 1468.38 L918.013 1451.02 Z" fill="#000000" fill-rule="nonzero" fill-opacity="1" /><path clip-path="url(#clip090)" d="M958.129 1454.1 Q954.518 1454.1 952.689 1457.66 Q950.883 1461.2 950.883 1468.33 Q950.883 1475.44 952.689 1479.01 Q954.518 1482.55 958.129 1482.55 Q961.763 1482.55 963.569 1479.01 Q965.397 1475.44 965.397 1468.33 Q965.397 1461.2 963.569 1457.66 Q961.763 1454.1 958.129 1454.1 M958.129 1450.39 Q963.939 1450.39 966.994 1455 Q970.073 1459.58 970.073 1468.33 Q970.073 1477.06 966.994 1481.67 Q963.939 1486.25 958.129 1486.25 Q952.319 1486.25 949.24 1481.67 Q946.184 1477.06 946.184 1468.33 Q946.184 1459.58 949.24 1455 Q952.319 1450.39 958.129 1450.39 Z" fill="#000000" fill-rule="nonzero" fill-opacity="1" /><path clip-path="url(#clip090)" d="M1174.24 1454.1 Q1170.63 1454.1 1168.8 1457.66 Q1167 1461.2 1167 1468.33 Q1167 1475.44 1168.8 1479.01 Q1170.63 1482.55 1174.24 1482.55 Q1177.88 1482.55 1179.68 1479.01 Q1181.51 1475.44 1181.51 1468.33 Q1181.51 1461.2 1179.68 1457.66 Q1177.88 1454.1 1174.24 1454.1 M1174.24 1450.39 Q1180.05 1450.39 1183.11 1455 Q1186.19 1459.58 1186.19 1468.33 Q1186.19 1477.06 1183.11 1481.67 Q1180.05 1486.25 1174.24 1486.25 Q1168.43 1486.25 1165.35 1481.67 Q1162.3 1477.06 1162.3 1468.33 Q1162.3 1459.58 1165.35 1455 Q1168.43 1450.39 1174.24 1450.39 Z" fill="#000000" fill-rule="nonzero" fill-opacity="1" /><path clip-path="url(#clip090)" d="M1399.05 1451.02 L1417.4 1451.02 L1417.4 1454.96 L1403.33 1454.96 L1403.33 1463.43 Q1404.35 1463.08 1405.37 1462.92 Q1406.38 1462.73 1407.4 1462.73 Q1413.19 1462.73 1416.57 1465.9 Q1419.95 1469.08 1419.95 1474.49 Q1419.95 1480.07 1416.48 1483.17 Q1413 1486.25 1406.68 1486.25 Q1404.51 1486.25 1402.24 1485.88 Q1400 1485.51 1397.59 1484.77 L1397.59 1480.07 Q1399.67 1481.2 1401.89 1481.76 Q1404.12 1482.32 1406.59 1482.32 Q1410.6 1482.32 1412.93 1480.21 Q1415.27 1478.1 1415.27 1474.49 Q1415.27 1470.88 1412.93 1468.77 Q1410.6 1466.67 1406.59 1466.67 Q1404.72 1466.67 1402.84 1467.08 Q1400.99 1467.5 1399.05 1468.38 L1399.05 1451.02 Z" fill="#000000" fill-rule="nonzero" fill-opacity="1" /><path clip-path="url(#clip090)" d="M1439.16 1454.1 Q1435.55 1454.1 1433.72 1457.66 Q1431.92 1461.2 1431.92 1468.33 Q1431.92 1475.44 1433.72 1479.01 Q1435.55 1482.55 1439.16 1482.55 Q1442.8 1482.55 1444.6 1479.01 Q1446.43 1475.44 1446.43 1468.33 Q1446.43 1461.2 1444.6 1457.66 Q1442.8 1454.1 1439.16 1454.1 M1439.16 1450.39 Q1444.97 1450.39 1448.03 1455 Q1451.11 1459.58 1451.11 1468.33 Q1451.11 1477.06 1448.03 1481.67 Q1444.97 1486.25 1439.16 1486.25 Q1433.35 1486.25 1430.27 1481.67 Q1427.22 1477.06 1427.22 1468.33 Q1427.22 1459.58 1430.27 1455 Q1433.35 1450.39 1439.16 1450.39 Z" fill="#000000" fill-rule="nonzero" fill-opacity="1" /><path clip-path="url(#clip090)" d="M1634.06 1481.64 L1641.7 1481.64 L1641.7 1455.28 L1633.39 1456.95 L1633.39 1452.69 L1641.65 1451.02 L1646.33 1451.02 L1646.33 1481.64 L1653.97 1481.64 L1653.97 1485.58 L1634.06 1485.58 L1634.06 1481.64 Z" fill="#000000" fill-rule="nonzero" fill-opacity="1" /><path clip-path="url(#clip090)" d="M1673.41 1454.1 Q1669.8 1454.1 1667.97 1457.66 Q1666.17 1461.2 1666.17 1468.33 Q1666.17 1475.44 1667.97 1479.01 Q1669.8 1482.55 1673.41 1482.55 Q1677.04 1482.55 1678.85 1479.01 Q1680.68 1475.44 1680.68 1468.33 Q1680.68 1461.2 1678.85 1457.66 Q1677.04 1454.1 1673.41 1454.1 M1673.41 1450.39 Q1679.22 1450.39 1682.28 1455 Q1685.35 1459.58 1685.35 1468.33 Q1685.35 1477.06 1682.28 1481.67 Q1679.22 1486.25 1673.41 1486.25 Q1667.6 1486.25 1664.52 1481.67 Q1661.47 1477.06 1661.47 1468.33 Q1661.47 1459.58 1664.52 1455 Q1667.6 1450.39 1673.41 1450.39 Z" fill="#000000" fill-rule="nonzero" fill-opacity="1" /><path clip-path="url(#clip090)" d="M1703.57 1454.1 Q1699.96 1454.1 1698.13 1457.66 Q1696.33 1461.2 1696.33 1468.33 Q1696.33 1475.44 1698.13 1479.01 Q1699.96 1482.55 1703.57 1482.55 Q1707.21 1482.55 1709.01 1479.01 Q1710.84 1475.44 1710.84 1468.33 Q1710.84 1461.2 1709.01 1457.66 Q1707.21 1454.1 1703.57 1454.1 M1703.57 1450.39 Q1709.38 1450.39 1712.44 1455 Q1715.52 1459.58 1715.52 1468.33 Q1715.52 1477.06 1712.44 1481.67 Q1709.38 1486.25 1703.57 1486.25 Q1697.76 1486.25 1694.68 1481.67 Q1691.63 1477.06 1691.63 1468.33 Q1691.63 1459.58 1694.68 1455 Q1697.76 1450.39 1703.57 1450.39 Z" fill="#000000" fill-rule="nonzero" fill-opacity="1" /><path clip-path="url(#clip090)" d="M1884.16 1481.64 L1891.8 1481.64 L1891.8 1455.28 L1883.49 1456.95 L1883.49 1452.69 L1891.76 1451.02 L1896.43 1451.02 L1896.43 1481.64 L1904.07 1481.64 L1904.07 1485.58 L1884.16 1485.58 L1884.16 1481.64 Z" fill="#000000" fill-rule="nonzero" fill-opacity="1" /><path clip-path="url(#clip090)" d="M1913.56 1451.02 L1931.92 1451.02 L1931.92 1454.96 L1917.84 1454.96 L1917.84 1463.43 Q1918.86 1463.08 1919.88 1462.92 Q1920.9 1462.73 1921.92 1462.73 Q1927.71 1462.73 1931.09 1465.9 Q1934.47 1469.08 1934.47 1474.49 Q1934.47 1480.07 1930.99 1483.17 Q1927.52 1486.25 1921.2 1486.25 Q1919.03 1486.25 1916.76 1485.88 Q1914.51 1485.51 1912.1 1484.77 L1912.1 1480.07 Q1914.19 1481.2 1916.41 1481.76 Q1918.63 1482.32 1921.11 1482.32 Q1925.11 1482.32 1927.45 1480.21 Q1929.79 1478.1 1929.79 1474.49 Q1929.79 1470.88 1927.45 1468.77 Q1925.11 1466.67 1921.11 1466.67 Q1919.23 1466.67 1917.36 1467.08 Q1915.51 1467.5 1913.56 1468.38 L1913.56 1451.02 Z" fill="#000000" fill-rule="nonzero" fill-opacity="1" /><path clip-path="url(#clip090)" d="M1953.68 1454.1 Q1950.07 1454.1 1948.24 1457.66 Q1946.43 1461.2 1946.43 1468.33 Q1946.43 1475.44 1948.24 1479.01 Q1950.07 1482.55 1953.68 1482.55 Q1957.31 1482.55 1959.12 1479.01 Q1960.95 1475.44 1960.95 1468.33 Q1960.95 1461.2 1959.12 1457.66 Q1957.31 1454.1 1953.68 1454.1 M1953.68 1450.39 Q1959.49 1450.39 1962.54 1455 Q1965.62 1459.58 1965.62 1468.33 Q1965.62 1477.06 1962.54 1481.67 Q1959.49 1486.25 1953.68 1486.25 Q1947.87 1486.25 1944.79 1481.67 Q1941.73 1477.06 1941.73 1468.33 Q1941.73 1459.58 1944.79 1455 Q1947.87 1450.39 1953.68 1450.39 Z" fill="#000000" fill-rule="nonzero" fill-opacity="1" /><path clip-path="url(#clip090)" d="M1012.89 1526.86 L1004.17 1550.51 L1021.64 1550.51 L1012.89 1526.86 M1009.26 1520.52 L1016.55 1520.52 L1034.66 1568.04 L1027.98 1568.04 L1023.65 1555.85 L1002.23 1555.85 L997.9 1568.04 L991.121 1568.04 L1009.26 1520.52 Z" fill="#000000" fill-rule="nonzero" fill-opacity="1" /><path clip-path="url(#clip090)" d="M1070.98 1546.53 L1070.98 1568.04 L1065.12 1568.04 L1065.12 1546.72 Q1065.12 1541.66 1063.15 1539.14 Q1061.18 1536.63 1057.23 1536.63 Q1052.49 1536.63 1049.75 1539.65 Q1047.01 1542.68 1047.01 1547.9 L1047.01 1568.04 L1041.12 1568.04 L1041.12 1532.4 L1047.01 1532.4 L1047.01 1537.93 Q1049.11 1534.72 1051.95 1533.13 Q1054.81 1531.54 1058.53 1531.54 Q1064.68 1531.54 1067.83 1535.36 Q1070.98 1539.14 1070.98 1546.53 Z" fill="#000000" fill-rule="nonzero" fill-opacity="1" /><path clip-path="url(#clip090)" d="M1106.12 1549.81 Q1106.12 1543.44 1103.48 1539.94 Q1100.87 1536.44 1096.12 1536.44 Q1091.41 1536.44 1088.77 1539.94 Q1086.16 1543.44 1086.16 1549.81 Q1086.16 1556.14 1088.77 1559.64 Q1091.41 1563.14 1096.12 1563.14 Q1100.87 1563.14 1103.48 1559.64 Q1106.12 1556.14 1106.12 1549.81 M1111.97 1563.62 Q1111.97 1572.72 1107.93 1577.15 Q1103.89 1581.6 1095.55 1581.6 Q1092.46 1581.6 1089.73 1581.13 Q1086.99 1580.68 1084.41 1579.72 L1084.41 1574.03 Q1086.99 1575.43 1089.5 1576.1 Q1092.02 1576.76 1094.63 1576.76 Q1100.39 1576.76 1103.25 1573.74 Q1106.12 1570.75 1106.12 1564.67 L1106.12 1561.77 Q1104.3 1564.92 1101.47 1566.48 Q1098.64 1568.04 1094.69 1568.04 Q1088.13 1568.04 1084.12 1563.05 Q1080.11 1558.05 1080.11 1549.81 Q1080.11 1541.53 1084.12 1536.53 Q1088.13 1531.54 1094.69 1531.54 Q1098.64 1531.54 1101.47 1533.1 Q1104.3 1534.66 1106.12 1537.81 L1106.12 1532.4 L1111.97 1532.4 L1111.97 1563.62 Z" fill="#000000" fill-rule="nonzero" fill-opacity="1" /><path clip-path="url(#clip090)" d="M1124.04 1518.52 L1129.89 1518.52 L1129.89 1568.04 L1124.04 1568.04 L1124.04 1518.52 Z" fill="#000000" fill-rule="nonzero" fill-opacity="1" /><path clip-path="url(#clip090)" d="M1172.64 1548.76 L1172.64 1551.62 L1145.71 1551.62 Q1146.09 1557.67 1149.34 1560.85 Q1152.62 1564 1158.44 1564 Q1161.82 1564 1164.97 1563.17 Q1168.15 1562.35 1171.27 1560.69 L1171.27 1566.23 Q1168.12 1567.57 1164.81 1568.27 Q1161.5 1568.97 1158.09 1568.97 Q1149.56 1568.97 1144.57 1564 Q1139.6 1559.04 1139.6 1550.57 Q1139.6 1541.82 1144.31 1536.69 Q1149.05 1531.54 1157.07 1531.54 Q1164.27 1531.54 1168.44 1536.18 Q1172.64 1540.8 1172.64 1548.76 M1166.78 1547.04 Q1166.72 1542.23 1164.08 1539.37 Q1161.47 1536.5 1157.14 1536.5 Q1152.24 1536.5 1149.28 1539.27 Q1146.35 1542.04 1145.9 1547.07 L1166.78 1547.04 Z" fill="#000000" fill-rule="nonzero" fill-opacity="1" /><path clip-path="url(#clip090)" d="M1213.38 1520.52 L1218.79 1520.52 L1202.24 1574.09 L1196.83 1574.09 L1213.38 1520.52 Z" fill="#000000" fill-rule="nonzero" fill-opacity="1" /><path clip-path="url(#clip090)" d="M1269.11 1537.81 L1269.11 1518.52 L1274.97 1518.52 L1274.97 1568.04 L1269.11 1568.04 L1269.11 1562.7 Q1267.27 1565.88 1264.43 1567.44 Q1261.63 1568.97 1257.68 1568.97 Q1251.22 1568.97 1247.15 1563.81 Q1243.11 1558.65 1243.11 1550.25 Q1243.11 1541.85 1247.15 1536.69 Q1251.22 1531.54 1257.68 1531.54 Q1261.63 1531.54 1264.43 1533.1 Q1267.27 1534.62 1269.11 1537.81 M1249.15 1550.25 Q1249.15 1556.71 1251.8 1560.4 Q1254.47 1564.07 1259.12 1564.07 Q1263.76 1564.07 1266.44 1560.4 Q1269.11 1556.71 1269.11 1550.25 Q1269.11 1543.79 1266.44 1540.13 Q1263.76 1536.44 1259.12 1536.44 Q1254.47 1536.44 1251.8 1540.13 Q1249.15 1543.79 1249.15 1550.25 Z" fill="#000000" fill-rule="nonzero" fill-opacity="1" /><path clip-path="url(#clip090)" d="M1317.52 1548.76 L1317.52 1551.62 L1290.6 1551.62 Q1290.98 1557.67 1294.22 1560.85 Q1297.5 1564 1303.33 1564 Q1306.7 1564 1309.85 1563.17 Q1313.03 1562.35 1316.15 1560.69 L1316.15 1566.23 Q1313 1567.57 1309.69 1568.27 Q1306.38 1568.97 1302.98 1568.97 Q1294.45 1568.97 1289.45 1564 Q1284.48 1559.04 1284.48 1550.57 Q1284.48 1541.82 1289.2 1536.69 Q1293.94 1531.54 1301.96 1531.54 Q1309.15 1531.54 1313.32 1536.18 Q1317.52 1540.8 1317.52 1548.76 M1311.67 1547.04 Q1311.6 1542.23 1308.96 1539.37 Q1306.35 1536.5 1302.02 1536.5 Q1297.12 1536.5 1294.16 1539.27 Q1291.23 1542.04 1290.79 1547.07 L1311.67 1547.04 Z" fill="#000000" fill-rule="nonzero" fill-opacity="1" /><path clip-path="url(#clip090)" d="M1350.59 1549.81 Q1350.59 1543.44 1347.95 1539.94 Q1345.34 1536.44 1340.6 1536.44 Q1335.89 1536.44 1333.25 1539.94 Q1330.64 1543.44 1330.64 1549.81 Q1330.64 1556.14 1333.25 1559.64 Q1335.89 1563.14 1340.6 1563.14 Q1345.34 1563.14 1347.95 1559.64 Q1350.59 1556.14 1350.59 1549.81 M1356.45 1563.62 Q1356.45 1572.72 1352.41 1577.15 Q1348.36 1581.6 1340.03 1581.6 Q1336.94 1581.6 1334.2 1581.13 Q1331.46 1580.68 1328.89 1579.72 L1328.89 1574.03 Q1331.46 1575.43 1333.98 1576.1 Q1336.49 1576.76 1339.1 1576.76 Q1344.86 1576.76 1347.73 1573.74 Q1350.59 1570.75 1350.59 1564.67 L1350.59 1561.77 Q1348.78 1564.92 1345.95 1566.48 Q1343.11 1568.04 1339.17 1568.04 Q1332.61 1568.04 1328.6 1563.05 Q1324.59 1558.05 1324.59 1549.81 Q1324.59 1541.53 1328.6 1536.53 Q1332.61 1531.54 1339.17 1531.54 Q1343.11 1531.54 1345.95 1533.1 Q1348.78 1534.66 1350.59 1537.81 L1350.59 1532.4 L1356.45 1532.4 L1356.45 1563.62 Z" fill="#000000" fill-rule="nonzero" fill-opacity="1" /><polyline clip-path="url(#clip090)" style="stroke:#000000; stroke-linecap:round; stroke-linejoin:round; stroke-width:4; stroke-opacity:1; fill:none" points="219.866,1423.18 219.866,123.472 "/>
<polyline clip-path="url(#clip090)" style="stroke:#000000; stroke-linecap:round; stroke-linejoin:round; stroke-width:4; stroke-opacity:1; fill:none" points="219.866,1423.18 238.764,1423.18 "/>
<polyline clip-path="url(#clip090)" style="stroke:#000000; stroke-linecap:round; stroke-linejoin:round; stroke-width:4; stroke-opacity:1; fill:none" points="219.866,1098.25 238.764,1098.25 "/>
<polyline clip-path="url(#clip090)" style="stroke:#000000; stroke-linecap:round; stroke-linejoin:round; stroke-width:4; stroke-opacity:1; fill:none" points="219.866,773.326 238.764,773.326 "/>
<polyline clip-path="url(#clip090)" style="stroke:#000000; stroke-linecap:round; stroke-linejoin:round; stroke-width:4; stroke-opacity:1; fill:none" points="219.866,448.399 238.764,448.399 "/>
<polyline clip-path="url(#clip090)" style="stroke:#000000; stroke-linecap:round; stroke-linejoin:round; stroke-width:4; stroke-opacity:1; fill:none" points="219.866,123.472 238.764,123.472 "/>
<path clip-path="url(#clip090)" d="M126.691 1408.98 Q123.08 1408.98 121.251 1412.54 Q119.445 1416.08 119.445 1423.21 Q119.445 1430.32 121.251 1433.89 Q123.08 1437.43 126.691 1437.43 Q130.325 1437.43 132.13 1433.89 Q133.959 1430.32 133.959 1423.21 Q133.959 1416.08 132.13 1412.54 Q130.325 1408.98 126.691 1408.98 M126.691 1405.27 Q132.501 1405.27 135.556 1409.88 Q138.635 1414.46 138.635 1423.21 Q138.635 1431.94 135.556 1436.55 Q132.501 1441.13 126.691 1441.13 Q120.88 1441.13 117.802 1436.55 Q114.746 1431.94 114.746 1423.21 Q114.746 1414.46 117.802 1409.88 Q120.88 1405.27 126.691 1405.27 Z" fill="#000000" fill-rule="nonzero" fill-opacity="1" /><path clip-path="url(#clip090)" d="M146.853 1434.58 L151.737 1434.58 L151.737 1440.46 L146.853 1440.46 L146.853 1434.58 Z" fill="#000000" fill-rule="nonzero" fill-opacity="1" /><path clip-path="url(#clip090)" d="M171.922 1408.98 Q168.311 1408.98 166.482 1412.54 Q164.677 1416.08 164.677 1423.21 Q164.677 1430.32 166.482 1433.89 Q168.311 1437.43 171.922 1437.43 Q175.556 1437.43 177.362 1433.89 Q179.19 1430.32 179.19 1423.21 Q179.19 1416.08 177.362 1412.54 Q175.556 1408.98 171.922 1408.98 M171.922 1405.27 Q177.732 1405.27 180.788 1409.88 Q183.866 1414.46 183.866 1423.21 Q183.866 1431.94 180.788 1436.55 Q177.732 1441.13 171.922 1441.13 Q166.112 1441.13 163.033 1436.55 Q159.978 1431.94 159.978 1423.21 Q159.978 1414.46 163.033 1409.88 Q166.112 1405.27 171.922 1405.27 Z" fill="#000000" fill-rule="nonzero" fill-opacity="1" /><path clip-path="url(#clip090)" d="M127.917 1084.05 Q124.306 1084.05 122.478 1087.62 Q120.672 1091.16 120.672 1098.29 Q120.672 1105.39 122.478 1108.96 Q124.306 1112.5 127.917 1112.5 Q131.552 1112.5 133.357 1108.96 Q135.186 1105.39 135.186 1098.29 Q135.186 1091.16 133.357 1087.62 Q131.552 1084.05 127.917 1084.05 M127.917 1080.35 Q133.728 1080.35 136.783 1084.95 Q139.862 1089.54 139.862 1098.29 Q139.862 1107.01 136.783 1111.62 Q133.728 1116.2 127.917 1116.2 Q122.107 1116.2 119.029 1111.62 Q115.973 1107.01 115.973 1098.29 Q115.973 1089.54 119.029 1084.95 Q122.107 1080.35 127.917 1080.35 Z" fill="#000000" fill-rule="nonzero" fill-opacity="1" /><path clip-path="url(#clip090)" d="M148.079 1109.65 L152.964 1109.65 L152.964 1115.53 L148.079 1115.53 L148.079 1109.65 Z" fill="#000000" fill-rule="nonzero" fill-opacity="1" /><path clip-path="url(#clip090)" d="M163.959 1111.6 L171.598 1111.6 L171.598 1085.23 L163.288 1086.9 L163.288 1082.64 L171.552 1080.97 L176.227 1080.97 L176.227 1111.6 L183.866 1111.6 L183.866 1115.53 L163.959 1115.53 L163.959 1111.6 Z" fill="#000000" fill-rule="nonzero" fill-opacity="1" /><path clip-path="url(#clip090)" d="M128.288 759.125 Q124.677 759.125 122.848 762.689 Q121.043 766.231 121.043 773.361 Q121.043 780.467 122.848 784.032 Q124.677 787.574 128.288 787.574 Q131.922 787.574 133.728 784.032 Q135.556 780.467 135.556 773.361 Q135.556 766.231 133.728 762.689 Q131.922 759.125 128.288 759.125 M128.288 755.421 Q134.098 755.421 137.154 760.027 Q140.232 764.611 140.232 773.361 Q140.232 782.088 137.154 786.694 Q134.098 791.277 128.288 791.277 Q122.478 791.277 119.399 786.694 Q116.343 782.088 116.343 773.361 Q116.343 764.611 119.399 760.027 Q122.478 755.421 128.288 755.421 Z" fill="#000000" fill-rule="nonzero" fill-opacity="1" /><path clip-path="url(#clip090)" d="M148.45 784.726 L153.334 784.726 L153.334 790.606 L148.45 790.606 L148.45 784.726 Z" fill="#000000" fill-rule="nonzero" fill-opacity="1" /><path clip-path="url(#clip090)" d="M167.547 786.671 L183.866 786.671 L183.866 790.606 L161.922 790.606 L161.922 786.671 Q164.584 783.916 169.167 779.287 Q173.774 774.634 174.954 773.291 Q177.2 770.768 178.079 769.032 Q178.982 767.273 178.982 765.583 Q178.982 762.828 177.038 761.092 Q175.116 759.356 172.014 759.356 Q169.815 759.356 167.362 760.12 Q164.931 760.884 162.153 762.435 L162.153 757.713 Q164.977 756.578 167.431 756 Q169.885 755.421 171.922 755.421 Q177.292 755.421 180.487 758.106 Q183.681 760.791 183.681 765.282 Q183.681 767.412 182.871 769.333 Q182.084 771.231 179.977 773.824 Q179.399 774.495 176.297 777.713 Q173.195 780.907 167.547 786.671 Z" fill="#000000" fill-rule="nonzero" fill-opacity="1" /><path clip-path="url(#clip090)" d="M127.339 434.198 Q123.728 434.198 121.899 437.763 Q120.093 441.304 120.093 448.434 Q120.093 455.54 121.899 459.105 Q123.728 462.647 127.339 462.647 Q130.973 462.647 132.779 459.105 Q134.607 455.54 134.607 448.434 Q134.607 441.304 132.779 437.763 Q130.973 434.198 127.339 434.198 M127.339 430.494 Q133.149 430.494 136.204 435.101 Q139.283 439.684 139.283 448.434 Q139.283 457.161 136.204 461.767 Q133.149 466.35 127.339 466.35 Q121.529 466.35 118.45 461.767 Q115.394 457.161 115.394 448.434 Q115.394 439.684 118.45 435.101 Q121.529 430.494 127.339 430.494 Z" fill="#000000" fill-rule="nonzero" fill-opacity="1" /><path clip-path="url(#clip090)" d="M147.501 459.799 L152.385 459.799 L152.385 465.679 L147.501 465.679 L147.501 459.799 Z" fill="#000000" fill-rule="nonzero" fill-opacity="1" /><path clip-path="url(#clip090)" d="M176.737 447.045 Q180.093 447.762 181.968 450.031 Q183.866 452.299 183.866 455.633 Q183.866 460.749 180.348 463.549 Q176.829 466.35 170.348 466.35 Q168.172 466.35 165.857 465.911 Q163.565 465.494 161.112 464.637 L161.112 460.124 Q163.056 461.258 165.371 461.836 Q167.686 462.415 170.209 462.415 Q174.607 462.415 176.899 460.679 Q179.214 458.943 179.214 455.633 Q179.214 452.577 177.061 450.864 Q174.931 449.128 171.112 449.128 L167.084 449.128 L167.084 445.286 L171.297 445.286 Q174.746 445.286 176.575 443.92 Q178.403 442.531 178.403 439.938 Q178.403 437.276 176.505 435.864 Q174.63 434.429 171.112 434.429 Q169.19 434.429 166.991 434.846 Q164.792 435.263 162.153 436.142 L162.153 431.976 Q164.815 431.235 167.13 430.864 Q169.468 430.494 171.528 430.494 Q176.852 430.494 179.954 432.925 Q183.056 435.332 183.056 439.452 Q183.056 442.323 181.413 444.313 Q179.769 446.281 176.737 447.045 Z" fill="#000000" fill-rule="nonzero" fill-opacity="1" /><path clip-path="url(#clip090)" d="M126.205 109.271 Q122.593 109.271 120.765 112.836 Q118.959 116.377 118.959 123.507 Q118.959 130.613 120.765 134.178 Q122.593 137.72 126.205 137.72 Q129.839 137.72 131.644 134.178 Q133.473 130.613 133.473 123.507 Q133.473 116.377 131.644 112.836 Q129.839 109.271 126.205 109.271 M126.205 105.567 Q132.015 105.567 135.07 110.174 Q138.149 114.757 138.149 123.507 Q138.149 132.234 135.07 136.84 Q132.015 141.423 126.205 141.423 Q120.394 141.423 117.316 136.84 Q114.26 132.234 114.26 123.507 Q114.26 114.757 117.316 110.174 Q120.394 105.567 126.205 105.567 Z" fill="#000000" fill-rule="nonzero" fill-opacity="1" /><path clip-path="url(#clip090)" d="M146.366 134.873 L151.251 134.873 L151.251 140.752 L146.366 140.752 L146.366 134.873 Z" fill="#000000" fill-rule="nonzero" fill-opacity="1" /><path clip-path="url(#clip090)" d="M174.283 110.266 L162.477 128.715 L174.283 128.715 L174.283 110.266 M173.056 106.192 L178.936 106.192 L178.936 128.715 L183.866 128.715 L183.866 132.604 L178.936 132.604 L178.936 140.752 L174.283 140.752 L174.283 132.604 L158.681 132.604 L158.681 128.09 L173.056 106.192 Z" fill="#000000" fill-rule="nonzero" fill-opacity="1" /><path clip-path="url(#clip090)" d="M16.4842 911.016 L16.4842 904.587 L64.0042 904.587 L64.0042 911.016 L16.4842 911.016 Z" fill="#000000" fill-rule="nonzero" fill-opacity="1" /><path clip-path="url(#clip090)" d="M42.4881 862.414 L64.0042 862.414 L64.0042 868.27 L42.679 868.27 Q37.6183 868.27 35.1038 870.244 Q32.5894 872.217 32.5894 876.164 Q32.5894 880.906 35.6131 883.644 Q38.6368 886.381 43.8567 886.381 L64.0042 886.381 L64.0042 892.269 L28.3562 892.269 L28.3562 886.381 L33.8944 886.381 Q30.6797 884.28 29.0883 881.448 Q27.4968 878.583 27.4968 874.859 Q27.4968 868.716 31.3163 865.565 Q35.1038 862.414 42.4881 862.414 Z" fill="#000000" fill-rule="nonzero" fill-opacity="1" /><path clip-path="url(#clip090)" d="M18.2347 844.94 L28.3562 844.94 L28.3562 832.877 L32.9077 832.877 L32.9077 844.94 L52.2594 844.94 Q56.6199 844.94 57.8613 843.763 Q59.1026 842.553 59.1026 838.893 L59.1026 832.877 L64.0042 832.877 L64.0042 838.893 Q64.0042 845.672 61.4897 848.25 Q58.9434 850.828 52.2594 850.828 L32.9077 850.828 L32.9077 855.125 L28.3562 855.125 L28.3562 850.828 L18.2347 850.828 L18.2347 844.94 Z" fill="#000000" fill-rule="nonzero" fill-opacity="1" /><path clip-path="url(#clip090)" d="M44.7161 794.683 L47.5806 794.683 L47.5806 821.61 Q53.6281 821.228 56.8109 817.981 Q59.9619 814.703 59.9619 808.878 Q59.9619 805.505 59.1344 802.354 Q58.3069 799.171 56.6518 796.052 L62.1899 796.052 Q63.5267 799.203 64.227 802.513 Q64.9272 805.823 64.9272 809.229 Q64.9272 817.759 59.9619 822.756 Q54.9967 827.721 46.5303 827.721 Q37.7774 827.721 32.6531 823.01 Q27.4968 818.268 27.4968 810.247 Q27.4968 803.054 32.1438 798.884 Q36.7589 794.683 44.7161 794.683 M42.9973 800.539 Q38.1912 800.603 35.3266 803.245 Q32.4621 805.855 32.4621 810.183 Q32.4621 815.085 35.2312 818.045 Q38.0002 820.973 43.0292 821.419 L42.9973 800.539 Z" fill="#000000" fill-rule="nonzero" fill-opacity="1" /><path clip-path="url(#clip090)" d="M42.4881 755.438 L64.0042 755.438 L64.0042 761.295 L42.679 761.295 Q37.6183 761.295 35.1038 763.268 Q32.5894 765.242 32.5894 769.188 Q32.5894 773.931 35.6131 776.668 Q38.6368 779.405 43.8567 779.405 L64.0042 779.405 L64.0042 785.294 L28.3562 785.294 L28.3562 779.405 L33.8944 779.405 Q30.6797 777.305 29.0883 774.472 Q27.4968 771.607 27.4968 767.883 Q27.4968 761.74 31.3163 758.589 Q35.1038 755.438 42.4881 755.438 Z" fill="#000000" fill-rule="nonzero" fill-opacity="1" /><path clip-path="url(#clip090)" d="M29.4065 721.032 L34.9447 721.032 Q33.6716 723.514 33.035 726.188 Q32.3984 728.862 32.3984 731.726 Q32.3984 736.087 33.7352 738.283 Q35.072 740.447 37.7456 740.447 Q39.7826 740.447 40.9603 738.888 Q42.1061 737.328 43.1565 732.617 L43.6021 730.612 Q44.9389 724.374 47.3897 721.764 Q49.8086 719.122 54.1691 719.122 Q59.1344 719.122 62.0308 723.069 Q64.9272 726.984 64.9272 733.859 Q64.9272 736.723 64.3543 739.842 Q63.8132 742.93 62.6992 746.367 L56.6518 746.367 Q58.3387 743.121 59.198 739.97 Q60.0256 736.819 60.0256 733.731 Q60.0256 729.594 58.6251 727.366 Q57.1929 725.138 54.6147 725.138 Q52.2276 725.138 50.9545 726.761 Q49.6813 728.352 48.5037 733.795 L48.0262 735.832 Q46.8804 741.275 44.5251 743.694 Q42.138 746.113 38.0002 746.113 Q32.9713 746.113 30.2341 742.548 Q27.4968 738.983 27.4968 732.426 Q27.4968 729.18 27.9743 726.315 Q28.4517 723.451 29.4065 721.032 Z" fill="#000000" fill-rule="nonzero" fill-opacity="1" /><path clip-path="url(#clip090)" d="M28.3562 709.796 L28.3562 703.94 L64.0042 703.94 L64.0042 709.796 L28.3562 709.796 M14.479 709.796 L14.479 703.94 L21.895 703.94 L21.895 709.796 L14.479 709.796 Z" fill="#000000" fill-rule="nonzero" fill-opacity="1" /><path clip-path="url(#clip090)" d="M18.2347 685.893 L28.3562 685.893 L28.3562 673.83 L32.9077 673.83 L32.9077 685.893 L52.2594 685.893 Q56.6199 685.893 57.8613 684.715 Q59.1026 683.506 59.1026 679.846 L59.1026 673.83 L64.0042 673.83 L64.0042 679.846 Q64.0042 686.625 61.4897 689.203 Q58.9434 691.781 52.2594 691.781 L32.9077 691.781 L32.9077 696.078 L28.3562 696.078 L28.3562 691.781 L18.2347 691.781 L18.2347 685.893 Z" fill="#000000" fill-rule="nonzero" fill-opacity="1" /><path clip-path="url(#clip090)" d="M67.3143 651.295 Q73.68 653.778 75.6216 656.133 Q77.5631 658.489 77.5631 662.435 L77.5631 667.114 L72.6615 667.114 L72.6615 663.677 Q72.6615 661.258 71.5157 659.921 Q70.3699 658.584 66.1048 656.961 L63.4312 655.911 L28.3562 670.329 L28.3562 664.122 L56.238 652.982 L28.3562 641.842 L28.3562 635.636 L67.3143 651.295 Z" fill="#000000" fill-rule="nonzero" fill-opacity="1" /><path clip-path="url(#clip090)" d="M678.866 16.7545 L678.866 25.383 Q674.734 21.5346 670.035 19.6307 Q665.376 17.7268 660.11 17.7268 Q649.74 17.7268 644.23 24.0867 Q638.721 30.4061 638.721 42.3968 Q638.721 54.3469 644.23 60.7069 Q649.74 67.0263 660.11 67.0263 Q665.376 67.0263 670.035 65.1223 Q674.734 63.2184 678.866 59.3701 L678.866 67.9175 Q674.572 70.8341 669.751 72.2924 Q664.971 73.7508 659.624 73.7508 Q645.891 73.7508 637.992 65.3654 Q630.093 56.9395 630.093 42.3968 Q630.093 27.8135 637.992 19.4281 Q645.891 11.0023 659.624 11.0023 Q665.052 11.0023 669.832 12.4606 Q674.653 13.8784 678.866 16.7545 Z" fill="#000000" fill-rule="nonzero" fill-opacity="1" /><path clip-path="url(#clip090)" d="M691.18 27.2059 L698.634 27.2059 L698.634 72.576 L691.18 72.576 L691.18 27.2059 M691.18 9.54393 L698.634 9.54393 L698.634 18.9825 L691.18 18.9825 L691.18 9.54393 Z" fill="#000000" fill-rule="nonzero" fill-opacity="1" /><path clip-path="url(#clip090)" d="M740.52 34.1734 Q739.265 33.4443 737.766 33.1202 Q736.307 32.7556 734.525 32.7556 Q728.206 32.7556 724.803 36.8875 Q721.441 40.9789 721.441 48.6757 L721.441 72.576 L713.946 72.576 L713.946 27.2059 L721.441 27.2059 L721.441 34.2544 Q723.79 30.1225 727.558 28.1376 Q731.325 26.1121 736.713 26.1121 Q737.482 26.1121 738.414 26.2337 Q739.346 26.3147 740.48 26.5172 L740.52 34.1734 Z" fill="#000000" fill-rule="nonzero" fill-opacity="1" /><path clip-path="url(#clip090)" d="M779.166 28.9478 L779.166 35.9153 Q776.006 34.1734 772.806 33.3227 Q769.646 32.4315 766.406 32.4315 Q759.155 32.4315 755.144 37.0496 Q751.134 41.6271 751.134 49.9314 Q751.134 58.2358 755.144 62.8538 Q759.155 67.4314 766.406 67.4314 Q769.646 67.4314 772.806 66.5807 Q776.006 65.6895 779.166 63.9476 L779.166 70.8341 Q776.047 72.2924 772.685 73.0216 Q769.363 73.7508 765.595 73.7508 Q755.347 73.7508 749.311 67.3098 Q743.275 60.8689 743.275 49.9314 Q743.275 38.832 749.351 32.472 Q755.468 26.1121 766.082 26.1121 Q769.525 26.1121 772.806 26.8413 Q776.087 27.5299 779.166 28.9478 Z" fill="#000000" fill-rule="nonzero" fill-opacity="1" /><path clip-path="url(#clip090)" d="M791.359 54.671 L791.359 27.2059 L798.813 27.2059 L798.813 54.3874 Q798.813 60.8284 801.324 64.0691 Q803.836 67.2693 808.859 67.2693 Q814.895 67.2693 818.379 63.421 Q821.903 59.5726 821.903 52.9291 L821.903 27.2059 L829.357 27.2059 L829.357 72.576 L821.903 72.576 L821.903 65.6084 Q819.189 69.7404 815.584 71.7658 Q812.019 73.7508 807.279 73.7508 Q799.461 73.7508 795.41 68.8897 Q791.359 64.0286 791.359 54.671 M810.115 26.1121 L810.115 26.1121 Z" fill="#000000" fill-rule="nonzero" fill-opacity="1" /><path clip-path="url(#clip090)" d="M844.71 9.54393 L852.163 9.54393 L852.163 72.576 L844.71 72.576 L844.71 9.54393 Z" fill="#000000" fill-rule="nonzero" fill-opacity="1" /><path clip-path="url(#clip090)" d="M888.378 49.7694 Q879.345 49.7694 875.861 51.8354 Q872.377 53.9013 872.377 58.8839 Q872.377 62.8538 874.97 65.2034 Q877.603 67.5124 882.1 67.5124 Q888.297 67.5124 892.024 63.1374 Q895.792 58.7219 895.792 51.4303 L895.792 49.7694 L888.378 49.7694 M903.245 46.6907 L903.245 72.576 L895.792 72.576 L895.792 65.6895 Q893.239 69.8214 889.432 71.8063 Q885.624 73.7508 880.115 73.7508 Q873.147 73.7508 869.015 69.8619 Q864.924 65.9325 864.924 59.3701 Q864.924 51.7138 870.028 47.825 Q875.172 43.9361 885.34 43.9361 L895.792 43.9361 L895.792 43.2069 Q895.792 38.0623 892.389 35.2672 Q889.027 32.4315 882.91 32.4315 Q879.021 32.4315 875.334 33.3632 Q871.648 34.295 868.245 36.1584 L868.245 29.2718 Q872.337 27.692 876.185 26.9223 Q880.034 26.1121 883.679 26.1121 Q893.523 26.1121 898.384 31.2163 Q903.245 36.3204 903.245 46.6907 Z" fill="#000000" fill-rule="nonzero" fill-opacity="1" /><path clip-path="url(#clip090)" d="M944.889 34.1734 Q943.633 33.4443 942.134 33.1202 Q940.676 32.7556 938.893 32.7556 Q932.574 32.7556 929.171 36.8875 Q925.809 40.9789 925.809 48.6757 L925.809 72.576 L918.315 72.576 L918.315 27.2059 L925.809 27.2059 L925.809 34.2544 Q928.158 30.1225 931.926 28.1376 Q935.693 26.1121 941.081 26.1121 Q941.85 26.1121 942.782 26.2337 Q943.714 26.3147 944.848 26.5172 L944.889 34.1734 Z" fill="#000000" fill-rule="nonzero" fill-opacity="1" /><path clip-path="url(#clip090)" d="M987.585 18.8205 L987.585 41.5461 L997.874 41.5461 Q1003.59 41.5461 1006.71 38.5889 Q1009.82 35.6318 1009.82 30.163 Q1009.82 24.7348 1006.71 21.7777 Q1003.59 18.8205 997.874 18.8205 L987.585 18.8205 M979.402 12.096 L997.874 12.096 Q1008.04 12.096 1013.23 16.714 Q1018.45 21.2916 1018.45 30.163 Q1018.45 39.1155 1013.23 43.6931 Q1008.04 48.2706 997.874 48.2706 L987.585 48.2706 L987.585 72.576 L979.402 72.576 L979.402 12.096 Z" fill="#000000" fill-rule="nonzero" fill-opacity="1" /><path clip-path="url(#clip090)" d="M1043.73 32.4315 Q1037.74 32.4315 1034.25 37.1306 Q1030.77 41.7891 1030.77 49.9314 Q1030.77 58.0738 1034.21 62.7728 Q1037.69 67.4314 1043.73 67.4314 Q1049.69 67.4314 1053.17 62.7323 Q1056.65 58.0333 1056.65 49.9314 Q1056.65 41.8701 1053.17 37.1711 Q1049.69 32.4315 1043.73 32.4315 M1043.73 26.1121 Q1053.45 26.1121 1059 32.4315 Q1064.55 38.7509 1064.55 49.9314 Q1064.55 61.0714 1059 67.4314 Q1053.45 73.7508 1043.73 73.7508 Q1033.97 73.7508 1028.42 67.4314 Q1022.91 61.0714 1022.91 49.9314 Q1022.91 38.7509 1028.42 32.4315 Q1033.97 26.1121 1043.73 26.1121 Z" fill="#000000" fill-rule="nonzero" fill-opacity="1" /><path clip-path="url(#clip090)" d="M1076.91 9.54393 L1084.36 9.54393 L1084.36 72.576 L1076.91 72.576 L1076.91 9.54393 Z" fill="#000000" fill-rule="nonzero" fill-opacity="1" /><path clip-path="url(#clip090)" d="M1120.58 49.7694 Q1111.54 49.7694 1108.06 51.8354 Q1104.58 53.9013 1104.58 58.8839 Q1104.58 62.8538 1107.17 65.2034 Q1109.8 67.5124 1114.3 67.5124 Q1120.5 67.5124 1124.22 63.1374 Q1127.99 58.7219 1127.99 51.4303 L1127.99 49.7694 L1120.58 49.7694 M1135.44 46.6907 L1135.44 72.576 L1127.99 72.576 L1127.99 65.6895 Q1125.44 69.8214 1121.63 71.8063 Q1117.82 73.7508 1112.31 73.7508 Q1105.34 73.7508 1101.21 69.8619 Q1097.12 65.9325 1097.12 59.3701 Q1097.12 51.7138 1102.23 47.825 Q1107.37 43.9361 1117.54 43.9361 L1127.99 43.9361 L1127.99 43.2069 Q1127.99 38.0623 1124.59 35.2672 Q1121.22 32.4315 1115.11 32.4315 Q1111.22 32.4315 1107.53 33.3632 Q1103.85 34.295 1100.44 36.1584 L1100.44 29.2718 Q1104.53 27.692 1108.38 26.9223 Q1112.23 26.1121 1115.88 26.1121 Q1125.72 26.1121 1130.58 31.2163 Q1135.44 36.3204 1135.44 46.6907 Z" fill="#000000" fill-rule="nonzero" fill-opacity="1" /><path clip-path="url(#clip090)" d="M1177.09 34.1734 Q1175.83 33.4443 1174.33 33.1202 Q1172.87 32.7556 1171.09 32.7556 Q1164.77 32.7556 1161.37 36.8875 Q1158.01 40.9789 1158.01 48.6757 L1158.01 72.576 L1150.51 72.576 L1150.51 27.2059 L1158.01 27.2059 L1158.01 34.2544 Q1160.36 30.1225 1164.12 28.1376 Q1167.89 26.1121 1173.28 26.1121 Q1174.05 26.1121 1174.98 26.2337 Q1175.91 26.3147 1177.05 26.5172 L1177.09 34.1734 Z" fill="#000000" fill-rule="nonzero" fill-opacity="1" /><path clip-path="url(#clip090)" d="M1184.9 27.2059 L1192.36 27.2059 L1192.36 72.576 L1184.9 72.576 L1184.9 27.2059 M1184.9 9.54393 L1192.36 9.54393 L1192.36 18.9825 L1184.9 18.9825 L1184.9 9.54393 Z" fill="#000000" fill-rule="nonzero" fill-opacity="1" /><path clip-path="url(#clip090)" d="M1204.71 27.2059 L1240.12 27.2059 L1240.12 34.0114 L1212.09 66.6212 L1240.12 66.6212 L1240.12 72.576 L1203.7 72.576 L1203.7 65.7705 L1231.73 33.1607 L1204.71 33.1607 L1204.71 27.2059 Z" fill="#000000" fill-rule="nonzero" fill-opacity="1" /><path clip-path="url(#clip090)" d="M1290.31 48.0275 L1290.31 51.6733 L1256.04 51.6733 Q1256.52 59.3701 1260.66 63.421 Q1264.83 67.4314 1272.24 67.4314 Q1276.54 67.4314 1280.55 66.3781 Q1284.6 65.3249 1288.57 63.2184 L1288.57 70.267 Q1284.56 71.9684 1280.34 72.8596 Q1276.13 73.7508 1271.8 73.7508 Q1260.94 73.7508 1254.58 67.4314 Q1248.26 61.1119 1248.26 50.3365 Q1248.26 39.1965 1254.26 32.6746 Q1260.29 26.1121 1270.5 26.1121 Q1279.66 26.1121 1284.96 32.0264 Q1290.31 37.9003 1290.31 48.0275 M1282.86 45.84 Q1282.77 39.7232 1279.41 36.0774 Q1276.09 32.4315 1270.58 32.4315 Q1264.34 32.4315 1260.58 35.9558 Q1256.85 39.4801 1256.28 45.8805 L1282.86 45.84 Z" fill="#000000" fill-rule="nonzero" fill-opacity="1" /><path clip-path="url(#clip090)" d="M1328.83 34.1734 Q1327.58 33.4443 1326.08 33.1202 Q1324.62 32.7556 1322.84 32.7556 Q1316.52 32.7556 1313.12 36.8875 Q1309.75 40.9789 1309.75 48.6757 L1309.75 72.576 L1302.26 72.576 L1302.26 27.2059 L1309.75 27.2059 L1309.75 34.2544 Q1312.1 30.1225 1315.87 28.1376 Q1319.64 26.1121 1325.03 26.1121 Q1325.8 26.1121 1326.73 26.2337 Q1327.66 26.3147 1328.79 26.5172 L1328.83 34.1734 Z" fill="#000000" fill-rule="nonzero" fill-opacity="1" /><path clip-path="url(#clip090)" d="M1349.9 12.096 L1356.78 12.096 L1335.72 80.2727 L1328.83 80.2727 L1349.9 12.096 Z" fill="#000000" fill-rule="nonzero" fill-opacity="1" /><path clip-path="url(#clip090)" d="M1385.14 20.1573 L1374.04 50.2555 L1396.28 50.2555 L1385.14 20.1573 M1380.52 12.096 L1389.8 12.096 L1412.85 72.576 L1404.34 72.576 L1398.83 57.061 L1371.57 57.061 L1366.06 72.576 L1357.43 72.576 L1380.52 12.096 Z" fill="#000000" fill-rule="nonzero" fill-opacity="1" /><path clip-path="url(#clip090)" d="M1459.07 45.1919 L1459.07 72.576 L1451.62 72.576 L1451.62 45.4349 Q1451.62 38.994 1449.1 35.7938 Q1446.59 32.5936 1441.57 32.5936 Q1435.53 32.5936 1432.05 36.4419 Q1428.57 40.2903 1428.57 46.9338 L1428.57 72.576 L1421.07 72.576 L1421.07 27.2059 L1428.57 27.2059 L1428.57 34.2544 Q1431.24 30.163 1434.85 28.1376 Q1438.49 26.1121 1443.23 26.1121 Q1451.05 26.1121 1455.06 30.9732 Q1459.07 35.7938 1459.07 45.1919 Z" fill="#000000" fill-rule="nonzero" fill-opacity="1" /><path clip-path="url(#clip090)" d="M1494.56 49.7694 Q1485.52 49.7694 1482.04 51.8354 Q1478.55 53.9013 1478.55 58.8839 Q1478.55 62.8538 1481.15 65.2034 Q1483.78 67.5124 1488.28 67.5124 Q1494.47 67.5124 1498.2 63.1374 Q1501.97 58.7219 1501.97 51.4303 L1501.97 49.7694 L1494.56 49.7694 M1509.42 46.6907 L1509.42 72.576 L1501.97 72.576 L1501.97 65.6895 Q1499.42 69.8214 1495.61 71.8063 Q1491.8 73.7508 1486.29 73.7508 Q1479.32 73.7508 1475.19 69.8619 Q1471.1 65.9325 1471.1 59.3701 Q1471.1 51.7138 1476.21 47.825 Q1481.35 43.9361 1491.52 43.9361 L1501.97 43.9361 L1501.97 43.2069 Q1501.97 38.0623 1498.57 35.2672 Q1495.2 32.4315 1489.09 32.4315 Q1485.2 32.4315 1481.51 33.3632 Q1477.83 34.295 1474.42 36.1584 L1474.42 29.2718 Q1478.51 27.692 1482.36 26.9223 Q1486.21 26.1121 1489.86 26.1121 Q1499.7 26.1121 1504.56 31.2163 Q1509.42 36.3204 1509.42 46.6907 Z" fill="#000000" fill-rule="nonzero" fill-opacity="1" /><path clip-path="url(#clip090)" d="M1524.78 9.54393 L1532.23 9.54393 L1532.23 72.576 L1524.78 72.576 L1524.78 9.54393 Z" fill="#000000" fill-rule="nonzero" fill-opacity="1" /><path clip-path="url(#clip090)" d="M1566.7 76.7889 Q1563.54 84.8907 1560.54 87.3618 Q1557.55 89.8329 1552.52 89.8329 L1546.57 89.8329 L1546.57 83.5945 L1550.94 83.5945 Q1554.02 83.5945 1555.72 82.1361 Q1557.43 80.6778 1559.49 75.2496 L1560.83 71.8468 L1542.48 27.2059 L1550.38 27.2059 L1564.56 62.6918 L1578.73 27.2059 L1586.63 27.2059 L1566.7 76.7889 Z" fill="#000000" fill-rule="nonzero" fill-opacity="1" /><path clip-path="url(#clip090)" d="M1625.85 28.5427 L1625.85 35.5912 Q1622.69 33.9709 1619.28 33.1607 Q1615.88 32.3505 1612.23 32.3505 Q1606.68 32.3505 1603.89 34.0519 Q1601.14 35.7533 1601.14 39.156 Q1601.14 41.7486 1603.12 43.2475 Q1605.1 44.7058 1611.1 46.0426 L1613.65 46.6097 Q1621.59 48.3111 1624.91 51.4303 Q1628.28 54.509 1628.28 60.0587 Q1628.28 66.3781 1623.25 70.0644 Q1618.27 73.7508 1609.52 73.7508 Q1605.87 73.7508 1601.9 73.0216 Q1597.98 72.3329 1593.6 70.9151 L1593.6 63.2184 Q1597.73 65.3654 1601.74 66.4591 Q1605.75 67.5124 1609.68 67.5124 Q1614.95 67.5124 1617.78 65.73 Q1620.62 63.9071 1620.62 60.6258 Q1620.62 57.5877 1618.55 55.9673 Q1616.53 54.3469 1609.6 52.8481 L1607.01 52.2405 Q1600.08 50.7821 1597 47.7845 Q1593.92 44.7463 1593.92 39.4801 Q1593.92 33.0797 1598.46 29.5959 Q1603 26.1121 1611.34 26.1121 Q1615.48 26.1121 1619.12 26.7198 Q1622.77 27.3274 1625.85 28.5427 Z" fill="#000000" fill-rule="nonzero" fill-opacity="1" /><path clip-path="url(#clip090)" d="M1678.95 48.0275 L1678.95 51.6733 L1644.68 51.6733 Q1645.17 59.3701 1649.3 63.421 Q1653.47 67.4314 1660.89 67.4314 Q1665.18 67.4314 1669.19 66.3781 Q1673.24 65.3249 1677.21 63.2184 L1677.21 70.267 Q1673.2 71.9684 1668.99 72.8596 Q1664.77 73.7508 1660.44 73.7508 Q1649.58 73.7508 1643.22 67.4314 Q1636.9 61.1119 1636.9 50.3365 Q1636.9 39.1965 1642.9 32.6746 Q1648.94 26.1121 1659.14 26.1121 Q1668.3 26.1121 1673.61 32.0264 Q1678.95 37.9003 1678.95 48.0275 M1671.5 45.84 Q1671.42 39.7232 1668.06 36.0774 Q1664.73 32.4315 1659.22 32.4315 Q1652.99 32.4315 1649.22 35.9558 Q1645.49 39.4801 1644.93 45.8805 L1671.5 45.84 Z" fill="#000000" fill-rule="nonzero" fill-opacity="1" /><path clip-path="url(#clip090)" d="M1717.48 34.1734 Q1716.22 33.4443 1714.72 33.1202 Q1713.26 32.7556 1711.48 32.7556 Q1705.16 32.7556 1701.76 36.8875 Q1698.4 40.9789 1698.4 48.6757 L1698.4 72.576 L1690.9 72.576 L1690.9 27.2059 L1698.4 27.2059 L1698.4 34.2544 Q1700.75 30.1225 1704.51 28.1376 Q1708.28 26.1121 1713.67 26.1121 Q1714.44 26.1121 1715.37 26.2337 Q1716.3 26.3147 1717.44 26.5172 L1717.48 34.1734 Z" fill="#000000" fill-rule="nonzero" fill-opacity="1" /><polyline clip-path="url(#clip092)" style="stroke:#009af9; stroke-linecap:round; stroke-linejoin:round; stroke-width:4; stroke-opacity:1; fill:none" points="273.862,1309.15 276.728,1308.73 279.594,1307.47 282.46,1305.36 285.326,1302.42 288.192,1298.65 291.058,1294.05 293.924,1288.63 296.79,1282.41 299.656,1275.38 302.522,1267.56 305.388,1258.97 308.254,1249.62 311.12,1239.52 313.986,1228.68 316.852,1217.14 319.718,1204.89 322.584,1191.97 325.45,1178.4 328.316,1164.19 331.182,1149.37 334.048,1133.97 336.914,1118 339.78,1101.49 342.646,1084.48 345.512,1066.98 348.378,1049.02 351.244,1030.64 354.11,1011.86 356.976,992.715 359.842,973.233 362.708,953.445 365.574,933.383 368.44,913.08 371.306,892.568 374.172,871.879 377.038,851.047 379.904,830.105 382.77,809.087 385.636,788.026 388.502,766.955 391.368,745.91 394.234,724.923 397.1,704.027 399.966,683.257 402.832,662.645 405.698,642.225 408.564,622.029 411.43,602.089 414.296,582.438 417.162,563.107 420.028,544.126 422.894,525.526 425.76,507.338 428.626,489.589 431.492,472.308 434.358,455.524 437.224,439.262 440.09,423.549 442.956,408.41 445.822,393.87 448.688,379.95 451.554,366.675 454.419,354.065 457.285,342.139 460.151,330.918 463.017,320.419 465.883,310.659 468.749,301.654 471.615,293.417 474.481,285.963 477.347,279.303 480.213,273.448 483.079,268.407 485.945,264.187 488.811,260.797 491.677,258.242 494.543,256.524 497.409,255.648 500.275,255.615 503.141,256.424 506.007,258.074 508.873,260.563 511.739,263.887 514.605,268.04 517.471,273.016 520.337,278.807 523.203,285.404 526.069,292.795 528.935,300.97 531.801,309.914 534.667,319.615 537.533,330.055 540.399,341.22 543.265,353.09 546.131,365.646 548.997,378.869 551.863,392.738 554.729,407.23 557.595,422.322 560.461,437.99 563.327,454.209 566.193,470.953 569.059,488.195 571.925,505.908 574.791,524.062 577.657,542.63 580.523,561.582 583.389,580.887 586.255,600.513 589.121,620.431 591.987,640.608 594.853,661.012 597.719,681.609 600.585,702.368 603.451,723.255 606.317,744.236 609.183,765.278 612.049,786.348 614.915,807.411 617.781,828.434 620.647,849.383 623.513,870.225 626.379,890.926 629.245,911.454 632.111,931.775 634.977,951.857 637.843,971.668 640.709,991.176 643.575,1010.35 646.441,1029.16 649.307,1047.57 652.173,1065.56 655.039,1083.1 657.905,1100.16 660.771,1116.7 663.637,1132.71 666.503,1148.17 669.369,1163.03 672.235,1177.29 675.101,1190.92 677.967,1203.89 680.833,1216.19 683.699,1227.79 686.565,1238.68 689.431,1248.84 692.297,1258.26 695.163,1266.91 698.029,1274.79 700.895,1281.88 703.761,1288.17 706.627,1293.65 709.493,1298.31 712.359,1302.15 715.225,1305.16 718.091,1307.33 720.957,1308.66 723.823,1309.15 726.689,1308.79 729.555,1307.6 732.421,1305.56 735.287,1302.69 738.153,1298.98 741.019,1294.45 743.885,1289.1 746.751,1282.93 749.617,1275.97 752.483,1268.22 755.349,1259.69 758.215,1250.39 761.081,1240.35 763.947,1229.57 766.813,1218.08 769.679,1205.89 772.545,1193.03 775.411,1179.5 778.277,1165.35 781.143,1150.57 784.009,1135.21 786.875,1119.29 789.741,1102.83 792.607,1085.85 795.473,1068.39 798.339,1050.47 801.205,1032.12 804.071,1013.37 806.937,994.253 809.803,974.796 812.669,955.031 815.535,934.99 818.401,914.705 821.267,894.208 824.133,873.532 826.999,852.71 829.865,831.776 832.731,810.763 835.597,789.704 838.463,768.633 841.329,747.584 844.195,726.591 847.061,705.687 849.927,684.905 852.793,664.28 855.659,643.843 858.525,623.628 861.391,603.667 864.257,583.992 867.123,564.634 869.989,545.624 872.855,526.993 875.721,508.77 878.587,490.985 881.453,473.666 884.319,456.841 887.185,440.537 890.051,424.78 892.917,409.594 895.783,395.005 898.649,381.036 901.515,367.708 904.381,355.044 907.247,343.063 910.113,331.785 912.979,321.228 915.845,311.409 918.711,302.343 921.577,294.045 924.443,286.528 927.309,279.804 930.175,273.884 933.041,268.778 935.907,264.493 938.773,261.037 941.639,258.414 944.505,256.63 947.371,255.687 950.237,255.586 953.103,256.328 955.969,257.912 958.835,260.334 961.701,263.592 964.567,267.679 967.433,272.59 970.299,278.316 973.165,284.849 976.031,292.178 978.897,300.29 981.763,309.174 984.629,318.815 987.495,329.197 990.361,340.304 993.227,352.119 996.093,364.622 998.959,377.792 1001.83,391.611 1004.69,406.054 1007.56,421.099 1010.42,436.722 1013.29,452.898 1016.16,469.601 1019.02,486.804 1021.89,504.481 1024.75,522.601 1027.62,541.137 1030.48,560.059 1033.35,579.337 1036.22,598.939 1039.08,618.835 1041.95,638.993 1044.81,659.379 1047.68,679.963 1050.55,700.71 1053.41,721.588 1056.28,742.563 1059.14,763.601 1062.01,784.67 1064.88,805.735 1067.74,826.762 1070.61,847.718 1073.47,868.57 1076.34,889.284 1079.21,909.826 1082.07,930.165 1084.94,950.267 1087.8,970.101 1090.67,989.634 1093.54,1008.84 1096.4,1027.68 1099.27,1046.12 1102.13,1064.15 1105,1081.72 1107.87,1098.82 1110.73,1115.4 1113.6,1131.46 1116.46,1146.96 1119.33,1161.87 1122.2,1176.18 1125.06,1189.85 1127.93,1202.88 1130.79,1215.23 1133.66,1226.89 1136.53,1237.84 1139.39,1248.06 1142.26,1257.53 1145.12,1266.25 1147.99,1274.19 1150.86,1281.34 1153.72,1287.7 1156.59,1293.24 1159.45,1297.97 1162.32,1301.88 1165.19,1304.95 1168.05,1307.19 1170.92,1308.58 1173.78,1309.14 1176.65,1308.85 1179.52,1307.72 1182.38,1305.75 1185.25,1302.95 1188.11,1299.31 1190.98,1294.84 1193.85,1289.55 1196.71,1283.45 1199.58,1276.55 1202.44,1268.86 1205.31,1260.39 1208.18,1251.16 1211.04,1241.17 1213.91,1230.46 1216.77,1219.02 1219.64,1206.89 1222.51,1194.08 1225.37,1180.6 1228.24,1166.5 1231.1,1151.77 1233.97,1136.46 1236.84,1120.58 1239.7,1104.16 1242.57,1087.22 1245.43,1069.79 1248.3,1051.91 1251.17,1033.59 1254.03,1014.88 1256.9,995.788 1259.76,976.357 1262.63,956.616 1265.5,936.596 1268.36,916.329 1271.23,895.847 1274.09,875.185 1276.96,854.373 1279.83,833.446 1282.69,812.438 1285.56,791.381 1288.42,770.31 1291.29,749.259 1294.16,728.26 1297.02,707.347 1299.89,686.555 1302.75,665.916 1305.62,645.463 1308.49,625.229 1311.35,605.247 1314.22,585.547 1317.08,566.163 1319.95,547.124 1322.82,528.462 1325.68,510.206 1328.55,492.385 1331.41,475.028 1334.28,458.163 1337.15,441.816 1340.01,426.014 1342.88,410.782 1345.74,396.144 1348.61,382.125 1351.48,368.745 1354.34,356.028 1357.21,343.992 1360.07,332.657 1362.94,322.042 1365.81,312.164 1368.67,303.037 1371.54,294.677 1374.4,287.098 1377.27,280.31 1380.14,274.326 1383,269.155 1385.87,264.804 1388.73,261.282 1391.6,258.593 1394.47,256.741 1397.33,255.731 1400.2,255.563 1403.06,256.238 1405.93,257.755 1408.8,260.111 1411.66,263.302 1414.53,267.324 1417.39,272.169 1420.26,277.831 1423.13,284.3 1425.99,291.565 1428.86,299.616 1431.72,308.439 1434.59,318.02 1437.46,328.344 1440.32,339.394 1443.19,351.153 1446.05,363.601 1448.92,376.72 1451.79,390.487 1454.65,404.881 1457.52,419.879 1460.38,435.457 1463.25,451.59 1466.12,468.252 1468.98,485.417 1471.85,503.056 1474.71,521.143 1477.58,539.647 1480.45,558.539 1483.31,577.79 1486.18,597.367 1489.04,617.241 1491.91,637.379 1494.78,657.748 1497.64,678.317 1500.51,699.052 1503.37,719.921 1506.24,740.889 1509.11,761.924 1511.97,782.992 1514.84,804.058 1517.7,825.09 1520.57,846.053 1523.44,866.914 1526.3,887.64 1529.17,908.198 1532.03,928.554 1534.9,948.676 1537.77,968.532 1540.63,988.09 1543.5,1007.32 1546.36,1026.19 1549.23,1044.67 1552.1,1062.73 1554.96,1080.34 1557.83,1097.47 1560.69,1114.1 1563.56,1130.2 1566.43,1145.74 1569.29,1160.71 1572.16,1175.06 1575.02,1188.79 1577.89,1201.87 1580.76,1214.27 1583.62,1225.99 1586.49,1236.99 1589.35,1247.27 1592.22,1256.81 1595.09,1265.58 1597.95,1273.58 1600.82,1280.8 1603.68,1287.22 1606.55,1292.83 1609.42,1297.63 1612.28,1301.6 1615.15,1304.74 1618.01,1307.04 1620.88,1308.5 1623.75,1309.13 1626.61,1308.91 1629.48,1307.84 1632.34,1305.94 1635.21,1303.2 1638.08,1299.63 1640.94,1295.22 1643.81,1290 1646.67,1283.97 1649.54,1277.13 1652.41,1269.5 1655.27,1261.1 1658.14,1251.92 1661,1242 1663.87,1231.34 1666.74,1219.96 1669.6,1207.88 1672.47,1195.12 1675.33,1181.7 1678.2,1167.64 1681.07,1152.97 1683.93,1137.7 1686.8,1121.86 1689.66,1105.48 1692.53,1088.59 1695.4,1071.2 1698.26,1053.35 1701.13,1035.07 1703.99,1016.38 1706.86,997.321 1709.73,977.916 1712.59,958.198 1715.46,938.199 1718.32,917.951 1721.19,897.485 1724.06,876.836 1726.92,856.035 1729.79,835.116 1732.65,814.113 1735.52,793.059 1738.39,771.988 1741.25,750.934 1744.12,729.929 1746.98,709.009 1749.85,688.206 1752.72,667.553 1755.58,647.084 1758.45,626.832 1761.31,606.828 1764.18,587.105 1767.05,567.694 1769.91,548.627 1772.78,529.933 1775.64,511.644 1778.51,493.787 1781.38,476.392 1784.24,459.487 1787.11,443.098 1789.97,427.252 1792.84,411.973 1795.71,397.288 1798.57,383.218 1801.44,369.787 1804.3,357.016 1807.17,344.925 1810.04,333.534 1812.9,322.861 1815.77,312.923 1818.63,303.736 1821.5,295.315 1824.37,287.672 1827.23,280.821 1830.1,274.773 1832.96,269.536 1835.83,265.12 1838.7,261.532 1841.56,258.776 1844.43,256.858 1847.29,255.781 1850.16,255.546 1853.03,256.154 1855.89,257.603 1858.76,259.892 1861.62,263.017 1864.49,266.973 1867.36,271.753 1870.22,277.35 1873.09,283.755 1875.95,290.958 1878.82,298.946 1881.69,307.708 1884.55,317.229 1887.42,327.495 1890.28,338.488 1893.15,350.191 1896.02,362.585 1898.88,375.651 1901.75,389.367 1904.61,403.713 1907.48,418.663 1910.35,434.196 1913.21,450.286 1916.08,466.907 1918.94,484.032 1921.81,501.635 1924.68,519.687 1927.54,538.159 1930.41,557.021 1933.27,576.244 1936.14,595.797 1939.01,615.648 1941.87,635.766 1944.74,656.118 1947.6,676.673 1950.47,697.396 1953.34,718.255 1956.2,739.217 1959.07,760.248 1961.93,781.314 1964.8,802.381 1967.67,823.417 1970.53,844.387 1973.4,865.257 1976.26,885.995 1979.13,906.568 1982,926.941 1984.86,947.083 1987.73,966.962 1990.59,986.545 1993.46,1005.8 1996.33,1024.7 1999.19,1043.21 2002.06,1061.31 2004.92,1078.95 2007.79,1096.13 2010.66,1112.8 2013.52,1128.94 2016.39,1144.53 2019.25,1159.54 2022.12,1173.94 2024.99,1187.72 2027.85,1200.85 2030.72,1213.31 2033.58,1225.08 2036.45,1236.14 2039.32,1246.48 2042.18,1256.08 2045.05,1264.91 2047.91,1272.98 2050.78,1280.26 2053.65,1286.74 2056.51,1292.41 2059.38,1297.27 2062.24,1301.31 2065.11,1304.52 2067.98,1306.89 2070.84,1308.42 2073.71,1309.11 "/>
<path clip-path="url(#clip090)" d="M1673.21 270.476 L2064.11 270.476 L2064.11 166.796 L1673.21 166.796  Z" fill="#ffffff" fill-rule="evenodd" fill-opacity="1"/>
<polyline clip-path="url(#clip090)" style="stroke:#000000; stroke-linecap:round; stroke-linejoin:round; stroke-width:4; stroke-opacity:1; fill:none" points="1673.21,270.476 2064.11,270.476 2064.11,166.796 1673.21,166.796 1673.21,270.476 "/>
<polyline clip-path="url(#clip090)" style="stroke:#009af9; stroke-linecap:round; stroke-linejoin:round; stroke-width:4; stroke-opacity:1; fill:none" points="1694.41,218.636 1821.6,218.636 "/>
<path clip-path="url(#clip090)" d="M1870.67 204.018 L1870.67 208.948 Q1868.31 206.749 1865.62 205.661 Q1862.96 204.573 1859.95 204.573 Q1854.02 204.573 1850.87 208.208 Q1847.73 211.819 1847.73 218.67 Q1847.73 225.499 1850.87 229.133 Q1854.02 232.744 1859.95 232.744 Q1862.96 232.744 1865.62 231.656 Q1868.31 230.569 1870.67 228.369 L1870.67 233.254 Q1868.21 234.92 1865.46 235.754 Q1862.73 236.587 1859.67 236.587 Q1851.82 236.587 1847.31 231.795 Q1842.8 226.981 1842.8 218.67 Q1842.8 210.337 1847.31 205.546 Q1851.82 200.731 1859.67 200.731 Q1862.77 200.731 1865.5 201.564 Q1868.26 202.374 1870.67 204.018 Z" fill="#000000" fill-rule="nonzero" fill-opacity="1" /><path clip-path="url(#clip090)" d="M1887.75 212.976 Q1884.32 212.976 1882.33 215.661 Q1880.34 218.323 1880.34 222.976 Q1880.34 227.629 1882.31 230.314 Q1884.3 232.976 1887.75 232.976 Q1891.15 232.976 1893.14 230.291 Q1895.13 227.606 1895.13 222.976 Q1895.13 218.37 1893.14 215.684 Q1891.15 212.976 1887.75 212.976 M1887.75 209.365 Q1893.31 209.365 1896.48 212.976 Q1899.65 216.587 1899.65 222.976 Q1899.65 229.342 1896.48 232.976 Q1893.31 236.587 1887.75 236.587 Q1882.17 236.587 1879 232.976 Q1875.85 229.342 1875.85 222.976 Q1875.85 216.587 1879 212.976 Q1882.17 209.365 1887.75 209.365 Z" fill="#000000" fill-rule="nonzero" fill-opacity="1" /><path clip-path="url(#clip090)" d="M1906.71 199.897 L1910.97 199.897 L1910.97 235.916 L1906.71 235.916 L1906.71 199.897 Z" fill="#000000" fill-rule="nonzero" fill-opacity="1" /><path clip-path="url(#clip090)" d="M1919.88 199.897 L1924.14 199.897 L1924.14 235.916 L1919.88 235.916 L1919.88 199.897 Z" fill="#000000" fill-rule="nonzero" fill-opacity="1" /><path clip-path="url(#clip090)" d="M1944.83 222.883 Q1939.67 222.883 1937.68 224.064 Q1935.69 225.244 1935.69 228.092 Q1935.69 230.36 1937.17 231.703 Q1938.68 233.022 1941.24 233.022 Q1944.79 233.022 1946.92 230.522 Q1949.07 227.999 1949.07 223.832 L1949.07 222.883 L1944.83 222.883 M1953.33 221.124 L1953.33 235.916 L1949.07 235.916 L1949.07 231.981 Q1947.61 234.342 1945.43 235.476 Q1943.26 236.587 1940.11 236.587 Q1936.13 236.587 1933.77 234.365 Q1931.43 232.119 1931.43 228.369 Q1931.43 223.994 1934.35 221.772 Q1937.29 219.55 1943.1 219.55 L1949.07 219.55 L1949.07 219.133 Q1949.07 216.194 1947.12 214.596 Q1945.2 212.976 1941.71 212.976 Q1939.49 212.976 1937.38 213.508 Q1935.27 214.041 1933.33 215.106 L1933.33 211.17 Q1935.67 210.268 1937.86 209.828 Q1940.06 209.365 1942.15 209.365 Q1947.77 209.365 1950.55 212.282 Q1953.33 215.198 1953.33 221.124 Z" fill="#000000" fill-rule="nonzero" fill-opacity="1" /><path clip-path="url(#clip090)" d="M1979.16 222.652 Q1979.16 218.022 1977.24 215.476 Q1975.34 212.93 1971.89 212.93 Q1968.47 212.93 1966.55 215.476 Q1964.65 218.022 1964.65 222.652 Q1964.65 227.258 1966.55 229.805 Q1968.47 232.351 1971.89 232.351 Q1975.34 232.351 1977.24 229.805 Q1979.16 227.258 1979.16 222.652 M1983.42 232.698 Q1983.42 239.318 1980.48 242.536 Q1977.54 245.777 1971.48 245.777 Q1969.23 245.777 1967.24 245.43 Q1965.25 245.105 1963.37 244.411 L1963.37 240.268 Q1965.25 241.286 1967.08 241.772 Q1968.91 242.258 1970.8 242.258 Q1974.99 242.258 1977.08 240.059 Q1979.16 237.883 1979.16 233.462 L1979.16 231.356 Q1977.84 233.647 1975.78 234.781 Q1973.72 235.916 1970.85 235.916 Q1966.08 235.916 1963.17 232.281 Q1960.25 228.647 1960.25 222.652 Q1960.25 216.633 1963.17 212.999 Q1966.08 209.365 1970.85 209.365 Q1973.72 209.365 1975.78 210.499 Q1977.84 211.633 1979.16 213.925 L1979.16 209.99 L1983.42 209.99 L1983.42 232.698 Z" fill="#000000" fill-rule="nonzero" fill-opacity="1" /><path clip-path="url(#clip090)" d="M2014.37 221.888 L2014.37 223.971 L1994.79 223.971 Q1995.06 228.369 1997.42 230.684 Q1999.81 232.976 2004.05 232.976 Q2006.5 232.976 2008.79 232.374 Q2011.11 231.772 2013.37 230.569 L2013.37 234.596 Q2011.08 235.568 2008.67 236.078 Q2006.27 236.587 2003.79 236.587 Q1997.59 236.587 1993.95 232.976 Q1990.34 229.365 1990.34 223.207 Q1990.34 216.842 1993.77 213.115 Q1997.22 209.365 2003.05 209.365 Q2008.28 209.365 2011.31 212.745 Q2014.37 216.101 2014.37 221.888 M2010.11 220.638 Q2010.06 217.143 2008.14 215.059 Q2006.24 212.976 2003.1 212.976 Q1999.53 212.976 1997.38 214.99 Q1995.25 217.004 1994.92 220.661 L2010.11 220.638 Z" fill="#000000" fill-rule="nonzero" fill-opacity="1" /><path clip-path="url(#clip090)" d="M2042.91 220.268 L2042.91 235.916 L2038.65 235.916 L2038.65 220.407 Q2038.65 216.726 2037.22 214.897 Q2035.78 213.069 2032.91 213.069 Q2029.46 213.069 2027.47 215.268 Q2025.48 217.467 2025.48 221.263 L2025.48 235.916 L2021.2 235.916 L2021.2 209.99 L2025.48 209.99 L2025.48 214.018 Q2027.01 211.68 2029.07 210.522 Q2031.15 209.365 2033.86 209.365 Q2038.33 209.365 2040.62 212.143 Q2042.91 214.897 2042.91 220.268 Z" fill="#000000" fill-rule="nonzero" fill-opacity="1" /><polyline clip-path="url(#clip090)" style="stroke:#000000; stroke-linecap:round; stroke-linejoin:round; stroke-width:4; stroke-opacity:1; fill:none" points="2127.7,1423.18 2127.7,123.472 "/>
<polyline clip-path="url(#clip090)" style="stroke:#000000; stroke-linecap:round; stroke-linejoin:round; stroke-width:4; stroke-opacity:1; fill:none" points="2127.7,1286.37 2108.81,1286.37 "/>
<polyline clip-path="url(#clip090)" style="stroke:#000000; stroke-linecap:round; stroke-linejoin:round; stroke-width:4; stroke-opacity:1; fill:none" points="2127.7,1115.35 2108.81,1115.35 "/>
<polyline clip-path="url(#clip090)" style="stroke:#000000; stroke-linecap:round; stroke-linejoin:round; stroke-width:4; stroke-opacity:1; fill:none" points="2127.7,944.34 2108.81,944.34 "/>
<polyline clip-path="url(#clip090)" style="stroke:#000000; stroke-linecap:round; stroke-linejoin:round; stroke-width:4; stroke-opacity:1; fill:none" points="2127.7,773.326 2108.81,773.326 "/>
<polyline clip-path="url(#clip090)" style="stroke:#000000; stroke-linecap:round; stroke-linejoin:round; stroke-width:4; stroke-opacity:1; fill:none" points="2127.7,602.312 2108.81,602.312 "/>
<polyline clip-path="url(#clip090)" style="stroke:#000000; stroke-linecap:round; stroke-linejoin:round; stroke-width:4; stroke-opacity:1; fill:none" points="2127.7,431.298 2108.81,431.298 "/>
<polyline clip-path="url(#clip090)" style="stroke:#000000; stroke-linecap:round; stroke-linejoin:round; stroke-width:4; stroke-opacity:1; fill:none" points="2127.7,260.283 2108.81,260.283 "/>
<path clip-path="url(#clip090)" d="M2163.7 1286.82 L2193.38 1286.82 L2193.38 1290.76 L2163.7 1290.76 L2163.7 1286.82 Z" fill="#000000" fill-rule="nonzero" fill-opacity="1" /><path clip-path="url(#clip090)" d="M2204.28 1299.71 L2211.92 1299.71 L2211.92 1273.35 L2203.61 1275.01 L2203.61 1270.76 L2211.87 1269.09 L2216.55 1269.09 L2216.55 1299.71 L2224.19 1299.71 L2224.19 1303.65 L2204.28 1303.65 L2204.28 1299.71 Z" fill="#000000" fill-rule="nonzero" fill-opacity="1" /><path clip-path="url(#clip090)" d="M2233.68 1269.09 L2252.04 1269.09 L2252.04 1273.02 L2237.96 1273.02 L2237.96 1281.5 Q2238.98 1281.15 2240 1280.99 Q2241.02 1280.8 2242.04 1280.8 Q2247.82 1280.8 2251.2 1283.97 Q2254.58 1287.14 2254.58 1292.56 Q2254.58 1298.14 2251.11 1301.24 Q2247.64 1304.32 2241.32 1304.32 Q2239.14 1304.32 2236.87 1303.95 Q2234.63 1303.58 2232.22 1302.84 L2232.22 1298.14 Q2234.3 1299.27 2236.53 1299.83 Q2238.75 1300.38 2241.23 1300.38 Q2245.23 1300.38 2247.57 1298.28 Q2249.91 1296.17 2249.91 1292.56 Q2249.91 1288.95 2247.57 1286.84 Q2245.23 1284.74 2241.23 1284.74 Q2239.35 1284.74 2237.48 1285.15 Q2235.62 1285.57 2233.68 1286.45 L2233.68 1269.09 Z" fill="#000000" fill-rule="nonzero" fill-opacity="1" /><path clip-path="url(#clip090)" d="M2273.8 1272.17 Q2270.18 1272.17 2268.36 1275.73 Q2266.55 1279.27 2266.55 1286.4 Q2266.55 1293.51 2268.36 1297.07 Q2270.18 1300.62 2273.8 1300.62 Q2277.43 1300.62 2279.24 1297.07 Q2281.06 1293.51 2281.06 1286.4 Q2281.06 1279.27 2279.24 1275.73 Q2277.43 1272.17 2273.8 1272.17 M2273.8 1268.46 Q2279.61 1268.46 2282.66 1273.07 Q2285.74 1277.65 2285.74 1286.4 Q2285.74 1295.13 2282.66 1299.74 Q2279.61 1304.32 2273.8 1304.32 Q2267.99 1304.32 2264.91 1299.74 Q2261.85 1295.13 2261.85 1286.4 Q2261.85 1277.65 2264.91 1273.07 Q2267.99 1268.46 2273.8 1268.46 Z" fill="#000000" fill-rule="nonzero" fill-opacity="1" /><path clip-path="url(#clip090)" d="M2163.7 1115.81 L2193.38 1115.81 L2193.38 1119.74 L2163.7 1119.74 L2163.7 1115.81 Z" fill="#000000" fill-rule="nonzero" fill-opacity="1" /><path clip-path="url(#clip090)" d="M2204.28 1128.7 L2211.92 1128.7 L2211.92 1102.33 L2203.61 1104 L2203.61 1099.74 L2211.87 1098.07 L2216.55 1098.07 L2216.55 1128.7 L2224.19 1128.7 L2224.19 1132.63 L2204.28 1132.63 L2204.28 1128.7 Z" fill="#000000" fill-rule="nonzero" fill-opacity="1" /><path clip-path="url(#clip090)" d="M2243.63 1101.15 Q2240.02 1101.15 2238.19 1104.72 Q2236.39 1108.26 2236.39 1115.39 Q2236.39 1122.5 2238.19 1126.06 Q2240.02 1129.6 2243.63 1129.6 Q2247.27 1129.6 2249.07 1126.06 Q2250.9 1122.5 2250.9 1115.39 Q2250.9 1108.26 2249.07 1104.72 Q2247.27 1101.15 2243.63 1101.15 M2243.63 1097.45 Q2249.44 1097.45 2252.5 1102.06 Q2255.58 1106.64 2255.58 1115.39 Q2255.58 1124.12 2252.5 1128.72 Q2249.44 1133.31 2243.63 1133.31 Q2237.82 1133.31 2234.74 1128.72 Q2231.69 1124.12 2231.69 1115.39 Q2231.69 1106.64 2234.74 1102.06 Q2237.82 1097.45 2243.63 1097.45 Z" fill="#000000" fill-rule="nonzero" fill-opacity="1" /><path clip-path="url(#clip090)" d="M2273.8 1101.15 Q2270.18 1101.15 2268.36 1104.72 Q2266.55 1108.26 2266.55 1115.39 Q2266.55 1122.5 2268.36 1126.06 Q2270.18 1129.6 2273.8 1129.6 Q2277.43 1129.6 2279.24 1126.06 Q2281.06 1122.5 2281.06 1115.39 Q2281.06 1108.26 2279.24 1104.72 Q2277.43 1101.15 2273.8 1101.15 M2273.8 1097.45 Q2279.61 1097.45 2282.66 1102.06 Q2285.74 1106.64 2285.74 1115.39 Q2285.74 1124.12 2282.66 1128.72 Q2279.61 1133.31 2273.8 1133.31 Q2267.99 1133.31 2264.91 1128.72 Q2261.85 1124.12 2261.85 1115.39 Q2261.85 1106.64 2264.91 1102.06 Q2267.99 1097.45 2273.8 1097.45 Z" fill="#000000" fill-rule="nonzero" fill-opacity="1" /><path clip-path="url(#clip090)" d="M2163.7 944.792 L2193.38 944.792 L2193.38 948.727 L2163.7 948.727 L2163.7 944.792 Z" fill="#000000" fill-rule="nonzero" fill-opacity="1" /><path clip-path="url(#clip090)" d="M2203.52 927.06 L2221.87 927.06 L2221.87 930.995 L2207.8 930.995 L2207.8 939.467 Q2208.82 939.12 2209.84 938.958 Q2210.86 938.773 2211.87 938.773 Q2217.66 938.773 2221.04 941.944 Q2224.42 945.116 2224.42 950.532 Q2224.42 956.111 2220.95 959.213 Q2217.48 962.291 2211.16 962.291 Q2208.98 962.291 2206.71 961.921 Q2204.47 961.551 2202.06 960.81 L2202.06 956.111 Q2204.14 957.245 2206.37 957.801 Q2208.59 958.356 2211.06 958.356 Q2215.07 958.356 2217.41 956.25 Q2219.74 954.143 2219.74 950.532 Q2219.74 946.921 2217.41 944.815 Q2215.07 942.708 2211.06 942.708 Q2209.19 942.708 2207.31 943.125 Q2205.46 943.542 2203.52 944.421 L2203.52 927.06 Z" fill="#000000" fill-rule="nonzero" fill-opacity="1" /><path clip-path="url(#clip090)" d="M2243.63 930.139 Q2240.02 930.139 2238.19 933.704 Q2236.39 937.245 2236.39 944.375 Q2236.39 951.481 2238.19 955.046 Q2240.02 958.588 2243.63 958.588 Q2247.27 958.588 2249.07 955.046 Q2250.9 951.481 2250.9 944.375 Q2250.9 937.245 2249.07 933.704 Q2247.27 930.139 2243.63 930.139 M2243.63 926.435 Q2249.44 926.435 2252.5 931.042 Q2255.58 935.625 2255.58 944.375 Q2255.58 953.102 2252.5 957.708 Q2249.44 962.291 2243.63 962.291 Q2237.82 962.291 2234.74 957.708 Q2231.69 953.102 2231.69 944.375 Q2231.69 935.625 2234.74 931.042 Q2237.82 926.435 2243.63 926.435 Z" fill="#000000" fill-rule="nonzero" fill-opacity="1" /><path clip-path="url(#clip090)" d="M2175.65 759.125 Q2172.04 759.125 2170.21 762.689 Q2168.4 766.231 2168.4 773.361 Q2168.4 780.467 2170.21 784.032 Q2172.04 787.574 2175.65 787.574 Q2179.28 787.574 2181.09 784.032 Q2182.92 780.467 2182.92 773.361 Q2182.92 766.231 2181.09 762.689 Q2179.28 759.125 2175.65 759.125 M2175.65 755.421 Q2181.46 755.421 2184.51 760.027 Q2187.59 764.611 2187.59 773.361 Q2187.59 782.088 2184.51 786.694 Q2181.46 791.277 2175.65 791.277 Q2169.84 791.277 2166.76 786.694 Q2163.7 782.088 2163.7 773.361 Q2163.7 764.611 2166.76 760.027 Q2169.84 755.421 2175.65 755.421 Z" fill="#000000" fill-rule="nonzero" fill-opacity="1" /><path clip-path="url(#clip090)" d="M2165.16 585.032 L2183.52 585.032 L2183.52 588.967 L2169.44 588.967 L2169.44 597.439 Q2170.46 597.092 2171.48 596.93 Q2172.5 596.745 2173.52 596.745 Q2179.31 596.745 2182.68 599.916 Q2186.06 603.087 2186.06 608.504 Q2186.06 614.083 2182.59 617.184 Q2179.12 620.263 2172.8 620.263 Q2170.62 620.263 2168.36 619.893 Q2166.11 619.522 2163.7 618.782 L2163.7 614.083 Q2165.79 615.217 2168.01 615.772 Q2170.23 616.328 2172.71 616.328 Q2176.71 616.328 2179.05 614.221 Q2181.39 612.115 2181.39 608.504 Q2181.39 604.893 2179.05 602.786 Q2176.71 600.68 2172.71 600.68 Q2170.83 600.68 2168.96 601.097 Q2167.11 601.513 2165.16 602.393 L2165.16 585.032 Z" fill="#000000" fill-rule="nonzero" fill-opacity="1" /><path clip-path="url(#clip090)" d="M2205.28 588.11 Q2201.67 588.11 2199.84 591.675 Q2198.03 595.217 2198.03 602.347 Q2198.03 609.453 2199.84 613.018 Q2201.67 616.559 2205.28 616.559 Q2208.91 616.559 2210.72 613.018 Q2212.55 609.453 2212.55 602.347 Q2212.55 595.217 2210.72 591.675 Q2208.91 588.11 2205.28 588.11 M2205.28 584.407 Q2211.09 584.407 2214.14 589.013 Q2217.22 593.597 2217.22 602.347 Q2217.22 611.073 2214.14 615.68 Q2211.09 620.263 2205.28 620.263 Q2199.47 620.263 2196.39 615.68 Q2193.33 611.073 2193.33 602.347 Q2193.33 593.597 2196.39 589.013 Q2199.47 584.407 2205.28 584.407 Z" fill="#000000" fill-rule="nonzero" fill-opacity="1" /><path clip-path="url(#clip090)" d="M2164.37 444.642 L2172.01 444.642 L2172.01 418.277 L2163.7 419.944 L2163.7 415.684 L2171.97 414.018 L2176.64 414.018 L2176.64 444.642 L2184.28 444.642 L2184.28 448.578 L2164.37 448.578 L2164.37 444.642 Z" fill="#000000" fill-rule="nonzero" fill-opacity="1" /><path clip-path="url(#clip090)" d="M2203.73 417.096 Q2200.12 417.096 2198.29 420.661 Q2196.48 424.203 2196.48 431.332 Q2196.48 438.439 2198.29 442.004 Q2200.12 445.545 2203.73 445.545 Q2207.36 445.545 2209.17 442.004 Q2210.99 438.439 2210.99 431.332 Q2210.99 424.203 2209.17 420.661 Q2207.36 417.096 2203.73 417.096 M2203.73 413.393 Q2209.54 413.393 2212.59 417.999 Q2215.67 422.582 2215.67 431.332 Q2215.67 440.059 2212.59 444.666 Q2209.54 449.249 2203.73 449.249 Q2197.92 449.249 2194.84 444.666 Q2191.78 440.059 2191.78 431.332 Q2191.78 422.582 2194.84 417.999 Q2197.92 413.393 2203.73 413.393 Z" fill="#000000" fill-rule="nonzero" fill-opacity="1" /><path clip-path="url(#clip090)" d="M2233.89 417.096 Q2230.28 417.096 2228.45 420.661 Q2226.64 424.203 2226.64 431.332 Q2226.64 438.439 2228.45 442.004 Q2230.28 445.545 2233.89 445.545 Q2237.52 445.545 2239.33 442.004 Q2241.16 438.439 2241.16 431.332 Q2241.16 424.203 2239.33 420.661 Q2237.52 417.096 2233.89 417.096 M2233.89 413.393 Q2239.7 413.393 2242.75 417.999 Q2245.83 422.582 2245.83 431.332 Q2245.83 440.059 2242.75 444.666 Q2239.7 449.249 2233.89 449.249 Q2228.08 449.249 2225 444.666 Q2221.94 440.059 2221.94 431.332 Q2221.94 422.582 2225 417.999 Q2228.08 413.393 2233.89 413.393 Z" fill="#000000" fill-rule="nonzero" fill-opacity="1" /><path clip-path="url(#clip090)" d="M2164.37 273.628 L2172.01 273.628 L2172.01 247.263 L2163.7 248.929 L2163.7 244.67 L2171.97 243.003 L2176.64 243.003 L2176.64 273.628 L2184.28 273.628 L2184.28 277.563 L2164.37 277.563 L2164.37 273.628 Z" fill="#000000" fill-rule="nonzero" fill-opacity="1" /><path clip-path="url(#clip090)" d="M2193.77 243.003 L2212.13 243.003 L2212.13 246.939 L2198.06 246.939 L2198.06 255.411 Q2199.07 255.064 2200.09 254.902 Q2201.11 254.716 2202.13 254.716 Q2207.92 254.716 2211.3 257.888 Q2214.68 261.059 2214.68 266.476 Q2214.68 272.054 2211.2 275.156 Q2207.73 278.235 2201.41 278.235 Q2199.24 278.235 2196.97 277.864 Q2194.72 277.494 2192.31 276.753 L2192.31 272.054 Q2194.4 273.188 2196.62 273.744 Q2198.84 274.3 2201.32 274.3 Q2205.32 274.3 2207.66 272.193 Q2210 270.087 2210 266.476 Q2210 262.864 2207.66 260.758 Q2205.32 258.652 2201.32 258.652 Q2199.44 258.652 2197.57 259.068 Q2195.72 259.485 2193.77 260.364 L2193.77 243.003 Z" fill="#000000" fill-rule="nonzero" fill-opacity="1" /><path clip-path="url(#clip090)" d="M2233.89 246.082 Q2230.28 246.082 2228.45 249.647 Q2226.64 253.189 2226.64 260.318 Q2226.64 267.425 2228.45 270.989 Q2230.28 274.531 2233.89 274.531 Q2237.52 274.531 2239.33 270.989 Q2241.16 267.425 2241.16 260.318 Q2241.16 253.189 2239.33 249.647 Q2237.52 246.082 2233.89 246.082 M2233.89 242.378 Q2239.7 242.378 2242.75 246.985 Q2245.83 251.568 2245.83 260.318 Q2245.83 269.045 2242.75 273.651 Q2239.7 278.235 2233.89 278.235 Q2228.08 278.235 2225 273.651 Q2221.94 269.045 2221.94 260.318 Q2221.94 251.568 2225 246.985 Q2228.08 242.378 2233.89 242.378 Z" fill="#000000" fill-rule="nonzero" fill-opacity="1" /><path clip-path="url(#clip090)" d="M2336.53 1054.29 L2354.38 1054.29 L2354.38 1046.21 Q2354.38 1041.72 2352.06 1039.27 Q2349.74 1036.82 2345.44 1036.82 Q2341.17 1036.82 2338.85 1039.27 Q2336.53 1041.72 2336.53 1046.21 L2336.53 1054.29 M2331.24 1060.72 L2331.24 1046.21 Q2331.24 1038.22 2334.87 1034.14 Q2338.47 1030.04 2345.44 1030.04 Q2352.47 1030.04 2356.07 1034.14 Q2359.67 1038.22 2359.67 1046.21 L2359.67 1054.29 L2378.76 1054.29 L2378.76 1060.72 L2331.24 1060.72 Z" fill="#000000" fill-rule="nonzero" fill-opacity="1" /><path clip-path="url(#clip090)" d="M2357.25 992.036 L2378.76 992.036 L2378.76 997.892 L2357.44 997.892 Q2352.38 997.892 2349.86 999.866 Q2347.35 1001.84 2347.35 1005.79 Q2347.35 1010.53 2350.37 1013.27 Q2353.4 1016 2358.62 1016 L2378.76 1016 L2378.76 1021.89 L2329.24 1021.89 L2329.24 1016 L2348.65 1016 Q2345.44 1013.9 2343.85 1011.07 Q2342.26 1008.2 2342.26 1004.48 Q2342.26 998.338 2346.08 995.187 Q2349.86 992.036 2357.25 992.036 Z" fill="#000000" fill-rule="nonzero" fill-opacity="1" /><path clip-path="url(#clip090)" d="M2360.84 964.154 Q2360.84 971.252 2362.47 973.989 Q2364.09 976.726 2368.01 976.726 Q2371.12 976.726 2372.97 974.689 Q2374.79 972.62 2374.79 969.087 Q2374.79 964.218 2371.35 961.289 Q2367.88 958.329 2362.15 958.329 L2360.84 958.329 L2360.84 964.154 M2358.43 952.473 L2378.76 952.473 L2378.76 958.329 L2373.35 958.329 Q2376.6 960.335 2378.16 963.326 Q2379.69 966.318 2379.69 970.647 Q2379.69 976.121 2376.63 979.368 Q2373.54 982.583 2368.39 982.583 Q2362.37 982.583 2359.32 978.572 Q2356.26 974.53 2356.26 966.541 L2356.26 958.329 L2355.69 958.329 Q2351.65 958.329 2349.45 961.003 Q2347.22 963.645 2347.22 968.451 Q2347.22 971.506 2347.95 974.403 Q2348.69 977.299 2350.15 979.973 L2344.74 979.973 Q2343.5 976.758 2342.89 973.734 Q2342.26 970.711 2342.26 967.846 Q2342.26 960.112 2346.27 956.292 Q2350.28 952.473 2358.43 952.473 Z" fill="#000000" fill-rule="nonzero" fill-opacity="1" /><path clip-path="url(#clip090)" d="M2344.17 917.684 L2349.7 917.684 Q2348.43 920.167 2347.79 922.841 Q2347.16 925.514 2347.16 928.379 Q2347.16 932.739 2348.49 934.935 Q2349.83 937.1 2352.51 937.1 Q2354.54 937.1 2355.72 935.54 Q2356.87 933.981 2357.92 929.27 L2358.36 927.265 Q2359.7 921.026 2362.15 918.416 Q2364.57 915.775 2368.93 915.775 Q2373.89 915.775 2376.79 919.721 Q2379.69 923.636 2379.69 930.511 Q2379.69 933.376 2379.11 936.495 Q2378.57 939.582 2377.46 943.02 L2371.41 943.02 Q2373.1 939.773 2373.96 936.622 Q2374.79 933.471 2374.79 930.384 Q2374.79 926.246 2373.38 924.018 Q2371.95 921.79 2369.37 921.79 Q2366.99 921.79 2365.71 923.413 Q2364.44 925.005 2363.26 930.448 L2362.79 932.485 Q2361.64 937.927 2359.28 940.346 Q2356.9 942.765 2352.76 942.765 Q2347.73 942.765 2344.99 939.2 Q2342.26 935.636 2342.26 929.079 Q2342.26 925.832 2342.73 922.968 Q2343.21 920.103 2344.17 917.684 Z" fill="#000000" fill-rule="nonzero" fill-opacity="1" /><path clip-path="url(#clip090)" d="M2359.48 875.957 L2362.34 875.957 L2362.34 902.884 Q2368.39 902.502 2371.57 899.256 Q2374.72 895.977 2374.72 890.153 Q2374.72 886.779 2373.89 883.628 Q2373.07 880.445 2371.41 877.326 L2376.95 877.326 Q2378.29 880.477 2378.99 883.787 Q2379.69 887.097 2379.69 890.503 Q2379.69 899.033 2374.72 904.03 Q2369.76 908.995 2361.29 908.995 Q2352.54 908.995 2347.41 904.284 Q2342.26 899.542 2342.26 891.521 Q2342.26 884.328 2346.9 880.158 Q2351.52 875.957 2359.48 875.957 M2357.76 881.814 Q2352.95 881.877 2350.09 884.519 Q2347.22 887.129 2347.22 891.458 Q2347.22 896.359 2349.99 899.319 Q2352.76 902.247 2357.79 902.693 L2357.76 881.814 Z" fill="#000000" fill-rule="nonzero" fill-opacity="1" /><path clip-path="url(#clip090)" d="M2337.58 829.487 L2361.23 838.208 L2361.23 820.735 L2337.58 829.487 M2331.24 833.116 L2331.24 825.827 L2378.76 807.717 L2378.76 814.401 L2366.57 818.729 L2366.57 840.15 L2378.76 844.479 L2378.76 851.258 L2331.24 833.116 Z" fill="#000000" fill-rule="nonzero" fill-opacity="1" /><path clip-path="url(#clip090)" d="M2357.25 771.4 L2378.76 771.4 L2378.76 777.257 L2357.44 777.257 Q2352.38 777.257 2349.86 779.23 Q2347.35 781.204 2347.35 785.15 Q2347.35 789.893 2350.37 792.63 Q2353.4 795.367 2358.62 795.367 L2378.76 795.367 L2378.76 801.256 L2343.12 801.256 L2343.12 795.367 L2348.65 795.367 Q2345.44 793.267 2343.85 790.434 Q2342.26 787.569 2342.26 783.845 Q2342.26 777.702 2346.08 774.551 Q2349.86 771.4 2357.25 771.4 Z" fill="#000000" fill-rule="nonzero" fill-opacity="1" /><path clip-path="url(#clip090)" d="M2360.53 736.262 Q2354.16 736.262 2350.66 738.903 Q2347.16 741.513 2347.16 746.256 Q2347.16 750.966 2350.66 753.608 Q2354.16 756.218 2360.53 756.218 Q2366.86 756.218 2370.36 753.608 Q2373.86 750.966 2373.86 746.256 Q2373.86 741.513 2370.36 738.903 Q2366.86 736.262 2360.53 736.262 M2374.34 730.405 Q2383.44 730.405 2387.87 734.447 Q2392.32 738.49 2392.32 746.829 Q2392.32 749.916 2391.85 752.653 Q2391.4 755.391 2390.44 757.969 L2384.75 757.969 Q2386.15 755.391 2386.82 752.876 Q2387.48 750.362 2387.48 747.752 Q2387.48 741.991 2384.46 739.126 Q2381.47 736.262 2375.39 736.262 L2372.49 736.262 Q2375.64 738.076 2377.2 740.909 Q2378.76 743.741 2378.76 747.688 Q2378.76 754.245 2373.77 758.255 Q2368.77 762.266 2360.53 762.266 Q2352.25 762.266 2347.25 758.255 Q2342.26 754.245 2342.26 747.688 Q2342.26 743.741 2343.82 740.909 Q2345.38 738.076 2348.53 736.262 L2343.12 736.262 L2343.12 730.405 L2374.34 730.405 Z" fill="#000000" fill-rule="nonzero" fill-opacity="1" /><path clip-path="url(#clip090)" d="M2329.24 718.342 L2329.24 712.486 L2378.76 712.486 L2378.76 718.342 L2329.24 718.342 Z" fill="#000000" fill-rule="nonzero" fill-opacity="1" /><path clip-path="url(#clip090)" d="M2359.48 669.74 L2362.34 669.74 L2362.34 696.667 Q2368.39 696.285 2371.57 693.039 Q2374.72 689.76 2374.72 683.936 Q2374.72 680.562 2373.89 677.411 Q2373.07 674.228 2371.41 671.109 L2376.95 671.109 Q2378.29 674.26 2378.99 677.57 Q2379.69 680.88 2379.69 684.286 Q2379.69 692.816 2374.72 697.813 Q2369.76 702.778 2361.29 702.778 Q2352.54 702.778 2347.41 698.067 Q2342.26 693.325 2342.26 685.304 Q2342.26 678.111 2346.9 673.941 Q2351.52 669.74 2359.48 669.74 M2357.76 675.596 Q2352.95 675.66 2350.09 678.302 Q2347.22 680.912 2347.22 685.241 Q2347.22 690.142 2349.99 693.102 Q2352.76 696.03 2357.79 696.476 L2357.76 675.596 Z" fill="#000000" fill-rule="nonzero" fill-opacity="1" /><path clip-path="url(#clip090)" d="M2331.24 629 L2331.24 623.589 L2384.81 640.139 L2384.81 645.55 L2331.24 629 Z" fill="#000000" fill-rule="nonzero" fill-opacity="1" /><path clip-path="url(#clip090)" d="M2348.53 573.268 L2329.24 573.268 L2329.24 567.411 L2378.76 567.411 L2378.76 573.268 L2373.42 573.268 Q2376.6 575.114 2378.16 577.947 Q2379.69 580.747 2379.69 584.694 Q2379.69 591.155 2374.53 595.229 Q2369.37 599.272 2360.97 599.272 Q2352.57 599.272 2347.41 595.229 Q2342.26 591.155 2342.26 584.694 Q2342.26 580.747 2343.82 577.947 Q2345.34 575.114 2348.53 573.268 M2360.97 593.224 Q2367.43 593.224 2371.12 590.582 Q2374.79 587.909 2374.79 583.262 Q2374.79 578.615 2371.12 575.941 Q2367.43 573.268 2360.97 573.268 Q2354.51 573.268 2350.85 575.941 Q2347.16 578.615 2347.16 583.262 Q2347.16 587.909 2350.85 590.582 Q2354.51 593.224 2360.97 593.224 Z" fill="#000000" fill-rule="nonzero" fill-opacity="1" /><path clip-path="url(#clip090)" d="M2359.48 524.857 L2362.34 524.857 L2362.34 551.783 Q2368.39 551.402 2371.57 548.155 Q2374.72 544.877 2374.72 539.052 Q2374.72 535.678 2373.89 532.527 Q2373.07 529.344 2371.41 526.225 L2376.95 526.225 Q2378.29 529.376 2378.99 532.686 Q2379.69 535.997 2379.69 539.402 Q2379.69 547.932 2374.72 552.929 Q2369.76 557.895 2361.29 557.895 Q2352.54 557.895 2347.41 553.184 Q2342.26 548.441 2342.26 540.421 Q2342.26 533.227 2346.9 529.058 Q2351.52 524.857 2359.48 524.857 M2357.76 530.713 Q2352.95 530.777 2350.09 533.418 Q2347.22 536.028 2347.22 540.357 Q2347.22 545.259 2349.99 548.219 Q2352.76 551.147 2357.79 551.593 L2357.76 530.713 Z" fill="#000000" fill-rule="nonzero" fill-opacity="1" /><path clip-path="url(#clip090)" d="M2360.53 491.787 Q2354.16 491.787 2350.66 494.428 Q2347.16 497.038 2347.16 501.781 Q2347.16 506.491 2350.66 509.133 Q2354.16 511.743 2360.53 511.743 Q2366.86 511.743 2370.36 509.133 Q2373.86 506.491 2373.86 501.781 Q2373.86 497.038 2370.36 494.428 Q2366.86 491.787 2360.53 491.787 M2374.34 485.93 Q2383.44 485.93 2387.87 489.972 Q2392.32 494.015 2392.32 502.354 Q2392.32 505.441 2391.85 508.178 Q2391.4 510.916 2390.44 513.494 L2384.75 513.494 Q2386.15 510.916 2386.82 508.401 Q2387.48 505.887 2387.48 503.277 Q2387.48 497.516 2384.46 494.651 Q2381.47 491.787 2375.39 491.787 L2372.49 491.787 Q2375.64 493.601 2377.2 496.434 Q2378.76 499.266 2378.76 503.213 Q2378.76 509.77 2373.77 513.78 Q2368.77 517.791 2360.53 517.791 Q2352.25 517.791 2347.25 513.78 Q2342.26 509.77 2342.26 503.213 Q2342.26 499.266 2343.82 496.434 Q2345.38 493.601 2348.53 491.787 L2343.12 491.787 L2343.12 485.93 L2374.34 485.93 Z" fill="#000000" fill-rule="nonzero" fill-opacity="1" /><polyline clip-path="url(#clip092)" style="stroke:#ff0000; stroke-linecap:round; stroke-linejoin:round; stroke-width:4; stroke-opacity:1; fill:none" points="273.862,157.675 276.728,168.242 279.594,178.717 282.46,189.013 285.326,199.05 288.192,208.759 291.058,218.082 293.924,226.978 296.79,235.414 299.656,243.373 302.522,250.846 305.388,257.836 308.254,264.349 311.12,270.402 313.986,276.01 316.852,281.196 319.718,285.98 322.584,290.387 325.45,294.44 328.316,298.16 331.182,301.572 334.048,304.694 336.914,307.549 339.78,310.153 342.646,312.526 345.512,314.684 348.378,316.642 351.244,318.414 354.11,320.013 356.976,321.452 359.842,322.742 362.708,323.893 365.574,324.915 368.44,325.817 371.306,326.606 374.172,327.29 377.038,327.877 379.904,328.372 382.77,328.782 385.636,329.112 388.502,329.368 391.368,329.553 394.234,329.673 397.1,329.731 399.966,329.732 402.832,329.679 405.698,329.575 408.564,329.423 411.43,329.227 414.296,328.988 417.162,328.71 420.028,328.395 422.894,328.045 425.76,327.663 428.626,327.25 431.492,326.808 434.358,326.339 437.224,325.845 440.09,325.327 442.956,324.787 445.822,324.227 448.688,323.647 451.554,323.05 454.419,322.436 457.285,321.806 460.151,321.163 463.017,320.506 465.883,319.837 468.749,319.158 471.615,318.469 474.481,317.771 477.347,317.065 480.213,316.352 483.079,315.634 485.945,314.91 488.811,314.183 491.677,313.452 494.543,312.719 497.409,311.984 500.275,311.25 503.141,310.515 506.007,309.782 508.873,309.051 511.739,308.323 514.605,307.599 517.471,306.88 520.337,306.167 523.203,305.461 526.069,304.762 528.935,304.072 531.801,303.392 534.667,302.722 537.533,302.065 540.399,301.42 543.265,300.789 546.131,300.174 548.997,299.575 551.863,298.994 554.729,298.432 557.595,297.89 560.461,297.371 563.327,296.875 566.193,296.404 569.059,295.96 571.925,295.544 574.791,295.159 577.657,294.807 580.523,294.489 583.389,294.208 586.255,293.966 589.121,293.766 591.987,293.611 594.853,293.503 597.719,293.446 600.585,293.442 603.451,293.496 606.317,293.61 609.183,293.79 612.049,294.04 614.915,294.364 617.781,294.768 620.647,295.256 623.513,295.835 626.379,296.512 629.245,297.292 632.111,298.184 634.977,299.196 637.843,300.337 640.709,301.615 643.575,303.042 646.441,304.628 649.307,306.386 652.173,308.328 655.039,310.469 657.905,312.825 660.771,315.411 663.637,318.244 666.503,321.345 669.369,324.732 672.235,328.428 675.101,332.453 677.967,336.831 680.833,341.585 683.699,346.737 686.565,352.311 689.431,358.327 692.297,364.804 695.163,371.755 698.029,379.19 700.895,387.11 703.761,395.509 706.627,404.368 709.493,413.659 712.359,423.34 715.225,433.353 718.091,443.631 720.957,454.095 723.823,464.658 726.689,475.228 729.555,485.714 732.421,496.027 735.287,506.087 738.153,515.825 741.019,525.181 743.885,534.111 746.751,542.585 749.617,550.582 752.483,558.094 755.349,565.122 758.215,571.673 761.081,577.762 763.947,583.405 766.813,588.623 769.679,593.439 772.545,597.875 775.411,601.955 778.277,605.701 781.143,609.136 784.009,612.281 786.875,615.156 789.741,617.78 792.607,620.171 795.473,622.345 798.339,624.319 801.205,626.105 804.071,627.718 806.937,629.169 809.803,630.47 812.669,631.632 815.535,632.664 818.401,633.574 821.267,634.372 824.133,635.065 826.999,635.659 829.865,636.161 832.731,636.578 835.597,636.914 838.463,637.176 841.329,637.366 844.195,637.491 847.061,637.554 849.927,637.56 852.793,637.511 855.659,637.41 858.525,637.262 861.391,637.069 864.257,636.834 867.123,636.559 869.989,636.247 872.855,635.9 875.721,635.52 878.587,635.109 881.453,634.67 884.319,634.203 887.185,633.711 890.051,633.195 892.917,632.657 895.783,632.098 898.649,631.52 901.515,630.924 904.381,630.311 907.247,629.683 910.113,629.04 912.979,628.384 915.845,627.717 918.711,627.038 921.577,626.35 924.443,625.652 927.309,624.947 930.175,624.235 933.041,623.517 935.907,622.793 938.773,622.066 941.639,621.336 944.505,620.603 947.371,619.868 950.237,619.134 953.103,618.399 955.969,617.666 958.835,616.935 961.701,616.206 964.567,615.482 967.433,614.763 970.299,614.049 973.165,613.342 976.031,612.643 978.897,611.952 981.763,611.271 984.629,610.601 987.495,609.942 990.361,609.296 993.227,608.664 996.093,608.048 998.959,607.448 1001.83,606.865 1004.69,606.301 1007.56,605.758 1010.42,605.237 1013.29,604.739 1016.16,604.266 1019.02,603.82 1021.89,603.402 1024.75,603.014 1027.62,602.659 1030.48,602.339 1033.35,602.055 1036.22,601.81 1039.08,601.606 1041.95,601.447 1044.81,601.335 1047.68,601.274 1050.55,601.266 1053.41,601.315 1056.28,601.424 1059.14,601.599 1062.01,601.843 1064.88,602.161 1067.74,602.558 1070.61,603.039 1073.47,603.611 1076.34,604.279 1079.21,605.051 1082.07,605.934 1084.94,606.936 1087.8,608.066 1090.67,609.333 1093.54,610.748 1096.4,612.321 1099.27,614.065 1102.13,615.992 1105,618.117 1107.87,620.455 1110.73,623.021 1113.6,625.835 1116.46,628.913 1119.33,632.277 1122.2,635.947 1125.06,639.945 1127.93,644.294 1130.79,649.017 1133.66,654.137 1136.53,659.677 1139.39,665.657 1142.26,672.096 1145.12,679.009 1147.99,686.405 1150.86,694.287 1153.72,702.648 1156.59,711.472 1159.45,720.73 1162.32,730.381 1165.19,740.37 1168.05,750.63 1170.92,761.082 1173.78,771.641 1176.65,782.214 1179.52,792.709 1182.38,803.04 1185.25,813.123 1188.11,822.888 1190.98,832.276 1193.85,841.242 1196.71,849.753 1199.58,857.789 1202.44,865.339 1205.31,872.406 1208.18,878.994 1211.04,885.119 1213.91,890.797 1216.77,896.048 1219.64,900.895 1222.51,905.361 1225.37,909.468 1228.24,913.24 1231.1,916.699 1233.97,919.866 1236.84,922.762 1239.7,925.406 1242.57,927.814 1245.43,930.005 1248.3,931.994 1251.17,933.795 1254.03,935.421 1256.9,936.885 1259.76,938.197 1262.63,939.37 1265.5,940.412 1268.36,941.332 1271.23,942.138 1274.09,942.839 1276.96,943.441 1279.83,943.95 1282.69,944.373 1285.56,944.716 1288.42,944.983 1291.29,945.179 1294.16,945.309 1297.02,945.377 1299.89,945.387 1302.75,945.342 1305.62,945.246 1308.49,945.101 1311.35,944.912 1314.22,944.68 1317.08,944.408 1319.95,944.099 1322.82,943.754 1325.68,943.377 1328.55,942.969 1331.41,942.531 1334.28,942.067 1337.15,941.576 1340.01,941.062 1342.88,940.526 1345.74,939.969 1348.61,939.392 1351.48,938.797 1354.34,938.186 1357.21,937.559 1360.07,936.917 1362.94,936.262 1365.81,935.596 1368.67,934.918 1371.54,934.23 1374.4,933.533 1377.27,932.829 1380.14,932.117 1383,931.399 1385.87,930.677 1388.73,929.95 1391.6,929.219 1394.47,928.487 1397.33,927.752 1400.2,927.018 1403.06,926.283 1405.93,925.55 1408.8,924.818 1411.66,924.09 1414.53,923.365 1417.39,922.645 1420.26,921.931 1423.13,921.224 1425.99,920.524 1428.86,919.832 1431.72,919.15 1434.59,918.479 1437.46,917.819 1440.32,917.173 1443.19,916.54 1446.05,915.922 1448.92,915.32 1451.79,914.736 1454.65,914.171 1457.52,913.626 1460.38,913.103 1463.25,912.603 1466.12,912.128 1468.98,911.68 1471.85,911.26 1474.71,910.87 1477.58,910.512 1480.45,910.188 1483.31,909.901 1486.18,909.653 1489.04,909.446 1491.91,909.284 1494.78,909.168 1497.64,909.102 1500.51,909.09 1503.37,909.134 1506.24,909.239 1509.11,909.408 1511.97,909.647 1514.84,909.958 1517.7,910.349 1520.57,910.823 1523.44,911.388 1526.3,912.048 1529.17,912.811 1532.03,913.685 1534.9,914.678 1537.77,915.797 1540.63,917.053 1543.5,918.455 1546.36,920.015 1549.23,921.745 1552.1,923.657 1554.96,925.766 1557.83,928.086 1560.69,930.634 1563.56,933.427 1566.43,936.483 1569.29,939.824 1572.16,943.469 1575.02,947.44 1577.89,951.76 1580.76,956.452 1583.62,961.54 1586.49,967.045 1589.35,972.99 1592.22,979.392 1595.09,986.267 1597.95,993.624 1600.82,1001.47 1603.68,1009.79 1606.55,1018.58 1609.42,1027.8 1612.28,1037.42 1615.15,1047.39 1618.01,1057.63 1620.88,1068.07 1623.75,1078.62 1626.61,1089.2 1629.48,1099.7 1632.34,1110.05 1635.21,1120.16 1638.08,1129.95 1640.94,1139.37 1643.81,1148.37 1646.67,1156.92 1649.54,1164.99 1652.41,1172.58 1655.27,1179.69 1658.14,1186.31 1661,1192.47 1663.87,1198.19 1666.74,1203.47 1669.6,1208.35 1672.47,1212.84 1675.33,1216.98 1678.2,1220.78 1681.07,1224.26 1683.93,1227.45 1686.8,1230.37 1689.66,1233.03 1692.53,1235.46 1695.4,1237.66 1698.26,1239.67 1701.13,1241.48 1703.99,1243.12 1706.86,1244.6 1709.73,1245.92 1712.59,1247.11 1715.46,1248.16 1718.32,1249.09 1721.19,1249.9 1724.06,1250.61 1726.92,1251.22 1729.79,1251.74 1732.65,1252.17 1735.52,1252.52 1738.39,1252.79 1741.25,1252.99 1744.12,1253.13 1746.98,1253.2 1749.85,1253.21 1752.72,1253.17 1755.58,1253.08 1758.45,1252.94 1761.31,1252.75 1764.18,1252.53 1767.05,1252.26 1769.91,1251.95 1772.78,1251.61 1775.64,1251.23 1778.51,1250.83 1781.38,1250.39 1784.24,1249.93 1787.11,1249.44 1789.97,1248.93 1792.84,1248.39 1795.71,1247.84 1798.57,1247.26 1801.44,1246.67 1804.3,1246.06 1807.17,1245.43 1810.04,1244.79 1812.9,1244.14 1815.77,1243.47 1818.63,1242.8 1821.5,1242.11 1824.37,1241.41 1827.23,1240.71 1830.1,1240 1832.96,1239.28 1835.83,1238.56 1838.7,1237.83 1841.56,1237.1 1844.43,1236.37 1847.29,1235.64 1850.16,1234.9 1853.03,1234.17 1855.89,1233.43 1858.76,1232.7 1861.62,1231.97 1864.49,1231.25 1867.36,1230.53 1870.22,1229.81 1873.09,1229.11 1875.95,1228.4 1878.82,1227.71 1881.69,1227.03 1884.55,1226.36 1887.42,1225.7 1890.28,1225.05 1893.15,1224.42 1896.02,1223.8 1898.88,1223.19 1901.75,1222.61 1904.61,1222.04 1907.48,1221.49 1910.35,1220.97 1913.21,1220.47 1916.08,1219.99 1918.94,1219.54 1921.81,1219.12 1924.68,1218.72 1927.54,1218.36 1930.41,1218.04 1933.27,1217.75 1936.14,1217.5 1939.01,1217.29 1941.87,1217.12 1944.74,1217 1947.6,1216.93 1950.47,1216.91 1953.34,1216.95 1956.2,1217.05 1959.07,1217.22 1961.93,1217.45 1964.8,1217.76 1967.67,1218.14 1970.53,1218.61 1973.4,1219.16 1976.26,1219.82 1979.13,1220.57 1982,1221.44 1984.86,1222.42 1987.73,1223.53 1990.59,1224.77 1993.46,1226.16 1996.33,1227.71 1999.19,1229.43 2002.06,1231.32 2004.92,1233.42 2007.79,1235.72 2010.66,1238.25 2013.52,1241.02 2016.39,1244.06 2019.25,1247.37 2022.12,1250.99 2024.99,1254.94 2027.85,1259.23 2030.72,1263.89 2033.58,1268.95 2036.45,1274.42 2039.32,1280.33 2042.18,1286.69 2045.05,1293.53 2047.91,1300.85 2050.78,1308.65 2053.65,1316.94 2056.51,1325.69 2059.38,1334.88 2062.24,1344.47 2065.11,1354.41 2067.98,1364.63 2070.84,1375.06 2073.71,1385.61 "/>
</svg>
