<?xml version="1.0" encoding="utf-8"?>
<svg xmlns="http://www.w3.org/2000/svg" xmlns:xlink="http://www.w3.org/1999/xlink" width="600" height="400" viewBox="0 0 2400 1600">
<defs>
  <clipPath id="clip040">
    <rect x="0" y="0" width="2400" height="1600"/>
  </clipPath>
</defs>
<path clip-path="url(#clip040)" d="M0 1600 L2400 1600 L2400 0 L0 0  Z" fill="#ffffff" fill-rule="evenodd" fill-opacity="1"/>
<defs>
  <clipPath id="clip041">
    <rect x="480" y="0" width="1681" height="1600"/>
  </clipPath>
</defs>
<path clip-path="url(#clip040)" d="M219.866 1423.18 L2352.76 1423.18 L2352.76 123.472 L219.866 123.472  Z" fill="#ffffff" fill-rule="evenodd" fill-opacity="1"/>
<defs>
  <clipPath id="clip042">
    <rect x="219" y="123" width="2134" height="1301"/>
  </clipPath>
</defs>
<polyline clip-path="url(#clip042)" style="stroke:#000000; stroke-linecap:round; stroke-linejoin:round; stroke-width:2; stroke-opacity:0.1; fill:none" points="447.996,1423.18 447.996,123.472 "/>
<polyline clip-path="url(#clip042)" style="stroke:#000000; stroke-linecap:round; stroke-linejoin:round; stroke-width:2; stroke-opacity:0.1; fill:none" points="727.605,1423.18 727.605,123.472 "/>
<polyline clip-path="url(#clip042)" style="stroke:#000000; stroke-linecap:round; stroke-linejoin:round; stroke-width:2; stroke-opacity:0.1; fill:none" points="1007.21,1423.18 1007.21,123.472 "/>
<polyline clip-path="url(#clip042)" style="stroke:#000000; stroke-linecap:round; stroke-linejoin:round; stroke-width:2; stroke-opacity:0.1; fill:none" points="1286.82,1423.18 1286.82,123.472 "/>
<polyline clip-path="url(#clip042)" style="stroke:#000000; stroke-linecap:round; stroke-linejoin:round; stroke-width:2; stroke-opacity:0.1; fill:none" points="1566.43,1423.18 1566.43,123.472 "/>
<polyline clip-path="url(#clip042)" style="stroke:#000000; stroke-linecap:round; stroke-linejoin:round; stroke-width:2; stroke-opacity:0.1; fill:none" points="1846.04,1423.18 1846.04,123.472 "/>
<polyline clip-path="url(#clip042)" style="stroke:#000000; stroke-linecap:round; stroke-linejoin:round; stroke-width:2; stroke-opacity:0.1; fill:none" points="2125.65,1423.18 2125.65,123.472 "/>
<polyline clip-path="url(#clip042)" style="stroke:#000000; stroke-linecap:round; stroke-linejoin:round; stroke-width:2; stroke-opacity:0.1; fill:none" points="219.866,1423.18 2352.76,1423.18 "/>
<polyline clip-path="url(#clip042)" style="stroke:#000000; stroke-linecap:round; stroke-linejoin:round; stroke-width:2; stroke-opacity:0.1; fill:none" points="219.866,1098.25 2352.76,1098.25 "/>
<polyline clip-path="url(#clip042)" style="stroke:#000000; stroke-linecap:round; stroke-linejoin:round; stroke-width:2; stroke-opacity:0.1; fill:none" points="219.866,773.326 2352.76,773.326 "/>
<polyline clip-path="url(#clip042)" style="stroke:#000000; stroke-linecap:round; stroke-linejoin:round; stroke-width:2; stroke-opacity:0.1; fill:none" points="219.866,448.399 2352.76,448.399 "/>
<polyline clip-path="url(#clip042)" style="stroke:#000000; stroke-linecap:round; stroke-linejoin:round; stroke-width:2; stroke-opacity:0.1; fill:none" points="219.866,123.472 2352.76,123.472 "/>
<polyline clip-path="url(#clip040)" style="stroke:#000000; stroke-linecap:round; stroke-linejoin:round; stroke-width:4; stroke-opacity:1; fill:none" points="219.866,1423.18 2352.76,1423.18 "/>
<polyline clip-path="url(#clip040)" style="stroke:#000000; stroke-linecap:round; stroke-linejoin:round; stroke-width:4; stroke-opacity:1; fill:none" points="447.996,1423.18 447.996,1404.28 "/>
<polyline clip-path="url(#clip040)" style="stroke:#000000; stroke-linecap:round; stroke-linejoin:round; stroke-width:4; stroke-opacity:1; fill:none" points="727.605,1423.18 727.605,1404.28 "/>
<polyline clip-path="url(#clip040)" style="stroke:#000000; stroke-linecap:round; stroke-linejoin:round; stroke-width:4; stroke-opacity:1; fill:none" points="1007.21,1423.18 1007.21,1404.28 "/>
<polyline clip-path="url(#clip040)" style="stroke:#000000; stroke-linecap:round; stroke-linejoin:round; stroke-width:4; stroke-opacity:1; fill:none" points="1286.82,1423.18 1286.82,1404.28 "/>
<polyline clip-path="url(#clip040)" style="stroke:#000000; stroke-linecap:round; stroke-linejoin:round; stroke-width:4; stroke-opacity:1; fill:none" points="1566.43,1423.18 1566.43,1404.28 "/>
<polyline clip-path="url(#clip040)" style="stroke:#000000; stroke-linecap:round; stroke-linejoin:round; stroke-width:4; stroke-opacity:1; fill:none" points="1846.04,1423.18 1846.04,1404.28 "/>
<polyline clip-path="url(#clip040)" style="stroke:#000000; stroke-linecap:round; stroke-linejoin:round; stroke-width:4; stroke-opacity:1; fill:none" points="2125.65,1423.18 2125.65,1404.28 "/>
<path clip-path="url(#clip040)" d="M386.978 1468.75 L416.654 1468.75 L416.654 1472.69 L386.978 1472.69 L386.978 1468.75 Z" fill="#000000" fill-rule="nonzero" fill-opacity="1" /><path clip-path="url(#clip040)" d="M427.556 1481.64 L435.195 1481.64 L435.195 1455.28 L426.885 1456.95 L426.885 1452.69 L435.149 1451.02 L439.825 1451.02 L439.825 1481.64 L447.464 1481.64 L447.464 1485.58 L427.556 1485.58 L427.556 1481.64 Z" fill="#000000" fill-rule="nonzero" fill-opacity="1" /><path clip-path="url(#clip040)" d="M456.954 1451.02 L475.311 1451.02 L475.311 1454.96 L461.237 1454.96 L461.237 1463.43 Q462.255 1463.08 463.274 1462.92 Q464.292 1462.73 465.311 1462.73 Q471.098 1462.73 474.477 1465.9 Q477.857 1469.08 477.857 1474.49 Q477.857 1480.07 474.385 1483.17 Q470.913 1486.25 464.593 1486.25 Q462.417 1486.25 460.149 1485.88 Q457.903 1485.51 455.496 1484.77 L455.496 1480.07 Q457.579 1481.2 459.802 1481.76 Q462.024 1482.32 464.501 1482.32 Q468.505 1482.32 470.843 1480.21 Q473.181 1478.1 473.181 1474.49 Q473.181 1470.88 470.843 1468.77 Q468.505 1466.67 464.501 1466.67 Q462.626 1466.67 460.751 1467.08 Q458.899 1467.5 456.954 1468.38 L456.954 1451.02 Z" fill="#000000" fill-rule="nonzero" fill-opacity="1" /><path clip-path="url(#clip040)" d="M497.07 1454.1 Q493.459 1454.1 491.63 1457.66 Q489.825 1461.2 489.825 1468.33 Q489.825 1475.44 491.63 1479.01 Q493.459 1482.55 497.07 1482.55 Q500.704 1482.55 502.51 1479.01 Q504.338 1475.44 504.338 1468.33 Q504.338 1461.2 502.51 1457.66 Q500.704 1454.1 497.07 1454.1 M497.07 1450.39 Q502.88 1450.39 505.936 1455 Q509.014 1459.58 509.014 1468.33 Q509.014 1477.06 505.936 1481.67 Q502.88 1486.25 497.07 1486.25 Q491.26 1486.25 488.181 1481.67 Q485.126 1477.06 485.126 1468.33 Q485.126 1459.58 488.181 1455 Q491.26 1450.39 497.07 1450.39 Z" fill="#000000" fill-rule="nonzero" fill-opacity="1" /><path clip-path="url(#clip040)" d="M666.586 1468.75 L696.262 1468.75 L696.262 1472.69 L666.586 1472.69 L666.586 1468.75 Z" fill="#000000" fill-rule="nonzero" fill-opacity="1" /><path clip-path="url(#clip040)" d="M707.165 1481.64 L714.804 1481.64 L714.804 1455.28 L706.494 1456.95 L706.494 1452.69 L714.757 1451.02 L719.433 1451.02 L719.433 1481.64 L727.072 1481.64 L727.072 1485.58 L707.165 1485.58 L707.165 1481.64 Z" fill="#000000" fill-rule="nonzero" fill-opacity="1" /><path clip-path="url(#clip040)" d="M746.516 1454.1 Q742.905 1454.1 741.077 1457.66 Q739.271 1461.2 739.271 1468.33 Q739.271 1475.44 741.077 1479.01 Q742.905 1482.55 746.516 1482.55 Q750.151 1482.55 751.956 1479.01 Q753.785 1475.44 753.785 1468.33 Q753.785 1461.2 751.956 1457.66 Q750.151 1454.1 746.516 1454.1 M746.516 1450.39 Q752.327 1450.39 755.382 1455 Q758.461 1459.58 758.461 1468.33 Q758.461 1477.06 755.382 1481.67 Q752.327 1486.25 746.516 1486.25 Q740.706 1486.25 737.628 1481.67 Q734.572 1477.06 734.572 1468.33 Q734.572 1459.58 737.628 1455 Q740.706 1450.39 746.516 1450.39 Z" fill="#000000" fill-rule="nonzero" fill-opacity="1" /><path clip-path="url(#clip040)" d="M776.678 1454.1 Q773.067 1454.1 771.239 1457.66 Q769.433 1461.2 769.433 1468.33 Q769.433 1475.44 771.239 1479.01 Q773.067 1482.55 776.678 1482.55 Q780.313 1482.55 782.118 1479.01 Q783.947 1475.44 783.947 1468.33 Q783.947 1461.2 782.118 1457.66 Q780.313 1454.1 776.678 1454.1 M776.678 1450.39 Q782.489 1450.39 785.544 1455 Q788.623 1459.58 788.623 1468.33 Q788.623 1477.06 785.544 1481.67 Q782.489 1486.25 776.678 1486.25 Q770.868 1486.25 767.79 1481.67 Q764.734 1477.06 764.734 1468.33 Q764.734 1459.58 767.79 1455 Q770.868 1450.39 776.678 1450.39 Z" fill="#000000" fill-rule="nonzero" fill-opacity="1" /><path clip-path="url(#clip040)" d="M961.276 1468.75 L990.951 1468.75 L990.951 1472.69 L961.276 1472.69 L961.276 1468.75 Z" fill="#000000" fill-rule="nonzero" fill-opacity="1" /><path clip-path="url(#clip040)" d="M1001.09 1451.02 L1019.45 1451.02 L1019.45 1454.96 L1005.37 1454.96 L1005.37 1463.43 Q1006.39 1463.08 1007.41 1462.92 Q1008.43 1462.73 1009.45 1462.73 Q1015.23 1462.73 1018.61 1465.9 Q1021.99 1469.08 1021.99 1474.49 Q1021.99 1480.07 1018.52 1483.17 Q1015.05 1486.25 1008.73 1486.25 Q1006.55 1486.25 1004.28 1485.88 Q1002.04 1485.51 999.632 1484.77 L999.632 1480.07 Q1001.72 1481.2 1003.94 1481.76 Q1006.16 1482.32 1008.64 1482.32 Q1012.64 1482.32 1014.98 1480.21 Q1017.32 1478.1 1017.32 1474.49 Q1017.32 1470.88 1014.98 1468.77 Q1012.64 1466.67 1008.64 1466.67 Q1006.76 1466.67 1004.89 1467.08 Q1003.03 1467.5 1001.09 1468.38 L1001.09 1451.02 Z" fill="#000000" fill-rule="nonzero" fill-opacity="1" /><path clip-path="url(#clip040)" d="M1041.21 1454.1 Q1037.59 1454.1 1035.77 1457.66 Q1033.96 1461.2 1033.96 1468.33 Q1033.96 1475.44 1035.77 1479.01 Q1037.59 1482.55 1041.21 1482.55 Q1044.84 1482.55 1046.65 1479.01 Q1048.47 1475.44 1048.47 1468.33 Q1048.47 1461.2 1046.65 1457.66 Q1044.84 1454.1 1041.21 1454.1 M1041.21 1450.39 Q1047.02 1450.39 1050.07 1455 Q1053.15 1459.58 1053.15 1468.33 Q1053.15 1477.06 1050.07 1481.67 Q1047.02 1486.25 1041.21 1486.25 Q1035.4 1486.25 1032.32 1481.67 Q1029.26 1477.06 1029.26 1468.33 Q1029.26 1459.58 1032.32 1455 Q1035.4 1450.39 1041.21 1450.39 Z" fill="#000000" fill-rule="nonzero" fill-opacity="1" /><path clip-path="url(#clip040)" d="M1286.82 1454.1 Q1283.21 1454.1 1281.38 1457.66 Q1279.58 1461.2 1279.58 1468.33 Q1279.58 1475.44 1281.38 1479.01 Q1283.21 1482.55 1286.82 1482.55 Q1290.46 1482.55 1292.26 1479.01 Q1294.09 1475.44 1294.09 1468.33 Q1294.09 1461.2 1292.26 1457.66 Q1290.46 1454.1 1286.82 1454.1 M1286.82 1450.39 Q1292.63 1450.39 1295.69 1455 Q1298.77 1459.58 1298.77 1468.33 Q1298.77 1477.06 1295.69 1481.67 Q1292.63 1486.25 1286.82 1486.25 Q1281.01 1486.25 1277.93 1481.67 Q1274.88 1477.06 1274.88 1468.33 Q1274.88 1459.58 1277.93 1455 Q1281.01 1450.39 1286.82 1450.39 Z" fill="#000000" fill-rule="nonzero" fill-opacity="1" /><path clip-path="url(#clip040)" d="M1541.13 1451.02 L1559.49 1451.02 L1559.49 1454.96 L1545.41 1454.96 L1545.41 1463.43 Q1546.43 1463.08 1547.45 1462.92 Q1548.47 1462.73 1549.49 1462.73 Q1555.27 1462.73 1558.65 1465.9 Q1562.03 1469.08 1562.03 1474.49 Q1562.03 1480.07 1558.56 1483.17 Q1555.09 1486.25 1548.77 1486.25 Q1546.59 1486.25 1544.32 1485.88 Q1542.08 1485.51 1539.67 1484.77 L1539.67 1480.07 Q1541.75 1481.2 1543.98 1481.76 Q1546.2 1482.32 1548.68 1482.32 Q1552.68 1482.32 1555.02 1480.21 Q1557.36 1478.1 1557.36 1474.49 Q1557.36 1470.88 1555.02 1468.77 Q1552.68 1466.67 1548.68 1466.67 Q1546.8 1466.67 1544.93 1467.08 Q1543.07 1467.5 1541.13 1468.38 L1541.13 1451.02 Z" fill="#000000" fill-rule="nonzero" fill-opacity="1" /><path clip-path="url(#clip040)" d="M1581.24 1454.1 Q1577.63 1454.1 1575.8 1457.66 Q1574 1461.2 1574 1468.33 Q1574 1475.44 1575.8 1479.01 Q1577.63 1482.55 1581.24 1482.55 Q1584.88 1482.55 1586.68 1479.01 Q1588.51 1475.44 1588.51 1468.33 Q1588.51 1461.2 1586.68 1457.66 Q1584.88 1454.1 1581.24 1454.1 M1581.24 1450.39 Q1587.05 1450.39 1590.11 1455 Q1593.19 1459.58 1593.19 1468.33 Q1593.19 1477.06 1590.11 1481.67 Q1587.05 1486.25 1581.24 1486.25 Q1575.43 1486.25 1572.36 1481.67 Q1569.3 1477.06 1569.3 1468.33 Q1569.3 1459.58 1572.36 1455 Q1575.43 1450.39 1581.24 1450.39 Z" fill="#000000" fill-rule="nonzero" fill-opacity="1" /><path clip-path="url(#clip040)" d="M1805.64 1481.64 L1813.28 1481.64 L1813.28 1455.28 L1804.97 1456.95 L1804.97 1452.69 L1813.24 1451.02 L1817.91 1451.02 L1817.91 1481.64 L1825.55 1481.64 L1825.55 1485.58 L1805.64 1485.58 L1805.64 1481.64 Z" fill="#000000" fill-rule="nonzero" fill-opacity="1" /><path clip-path="url(#clip040)" d="M1845 1454.1 Q1841.39 1454.1 1839.56 1457.66 Q1837.75 1461.2 1837.75 1468.33 Q1837.75 1475.44 1839.56 1479.01 Q1841.39 1482.55 1845 1482.55 Q1848.63 1482.55 1850.44 1479.01 Q1852.27 1475.44 1852.27 1468.33 Q1852.27 1461.2 1850.44 1457.66 Q1848.63 1454.1 1845 1454.1 M1845 1450.39 Q1850.81 1450.39 1853.86 1455 Q1856.94 1459.58 1856.94 1468.33 Q1856.94 1477.06 1853.86 1481.67 Q1850.81 1486.25 1845 1486.25 Q1839.19 1486.25 1836.11 1481.67 Q1833.05 1477.06 1833.05 1468.33 Q1833.05 1459.58 1836.11 1455 Q1839.19 1450.39 1845 1450.39 Z" fill="#000000" fill-rule="nonzero" fill-opacity="1" /><path clip-path="url(#clip040)" d="M1875.16 1454.1 Q1871.55 1454.1 1869.72 1457.66 Q1867.91 1461.2 1867.91 1468.33 Q1867.91 1475.44 1869.72 1479.01 Q1871.55 1482.55 1875.16 1482.55 Q1878.79 1482.55 1880.6 1479.01 Q1882.43 1475.44 1882.43 1468.33 Q1882.43 1461.2 1880.6 1457.66 Q1878.79 1454.1 1875.16 1454.1 M1875.16 1450.39 Q1880.97 1450.39 1884.02 1455 Q1887.1 1459.58 1887.1 1468.33 Q1887.1 1477.06 1884.02 1481.67 Q1880.97 1486.25 1875.16 1486.25 Q1869.35 1486.25 1866.27 1481.67 Q1863.21 1477.06 1863.21 1468.33 Q1863.21 1459.58 1866.27 1455 Q1869.35 1450.39 1875.16 1450.39 Z" fill="#000000" fill-rule="nonzero" fill-opacity="1" /><path clip-path="url(#clip040)" d="M2085.25 1481.64 L2092.89 1481.64 L2092.89 1455.28 L2084.58 1456.95 L2084.58 1452.69 L2092.85 1451.02 L2097.52 1451.02 L2097.52 1481.64 L2105.16 1481.64 L2105.16 1485.58 L2085.25 1485.58 L2085.25 1481.64 Z" fill="#000000" fill-rule="nonzero" fill-opacity="1" /><path clip-path="url(#clip040)" d="M2114.65 1451.02 L2133.01 1451.02 L2133.01 1454.96 L2118.93 1454.96 L2118.93 1463.43 Q2119.95 1463.08 2120.97 1462.92 Q2121.99 1462.73 2123.01 1462.73 Q2128.79 1462.73 2132.17 1465.9 Q2135.55 1469.08 2135.55 1474.49 Q2135.55 1480.07 2132.08 1483.17 Q2128.61 1486.25 2122.29 1486.25 Q2120.11 1486.25 2117.85 1485.88 Q2115.6 1485.51 2113.19 1484.77 L2113.19 1480.07 Q2115.28 1481.2 2117.5 1481.76 Q2119.72 1482.32 2122.2 1482.32 Q2126.2 1482.32 2128.54 1480.21 Q2130.88 1478.1 2130.88 1474.49 Q2130.88 1470.88 2128.54 1468.77 Q2126.2 1466.67 2122.2 1466.67 Q2120.32 1466.67 2118.45 1467.08 Q2116.6 1467.5 2114.65 1468.38 L2114.65 1451.02 Z" fill="#000000" fill-rule="nonzero" fill-opacity="1" /><path clip-path="url(#clip040)" d="M2154.77 1454.1 Q2151.16 1454.1 2149.33 1457.66 Q2147.52 1461.2 2147.52 1468.33 Q2147.52 1475.44 2149.33 1479.01 Q2151.16 1482.55 2154.77 1482.55 Q2158.4 1482.55 2160.21 1479.01 Q2162.04 1475.44 2162.04 1468.33 Q2162.04 1461.2 2160.21 1457.66 Q2158.4 1454.1 2154.77 1454.1 M2154.77 1450.39 Q2160.58 1450.39 2163.63 1455 Q2166.71 1459.58 2166.71 1468.33 Q2166.71 1477.06 2163.63 1481.67 Q2160.58 1486.25 2154.77 1486.25 Q2148.96 1486.25 2145.88 1481.67 Q2142.82 1477.06 2142.82 1468.33 Q2142.82 1459.58 2145.88 1455 Q2148.96 1450.39 2154.77 1450.39 Z" fill="#000000" fill-rule="nonzero" fill-opacity="1" /><path clip-path="url(#clip040)" d="M1125.42 1526.86 L1116.7 1550.51 L1134.17 1550.51 L1125.42 1526.86 M1121.79 1520.52 L1129.08 1520.52 L1147.19 1568.04 L1140.5 1568.04 L1136.18 1555.85 L1114.76 1555.85 L1110.43 1568.04 L1103.65 1568.04 L1121.79 1520.52 Z" fill="#000000" fill-rule="nonzero" fill-opacity="1" /><path clip-path="url(#clip040)" d="M1183.5 1546.53 L1183.5 1568.04 L1177.65 1568.04 L1177.65 1546.72 Q1177.65 1541.66 1175.68 1539.14 Q1173.7 1536.63 1169.75 1536.63 Q1165.01 1536.63 1162.28 1539.65 Q1159.54 1542.68 1159.54 1547.9 L1159.54 1568.04 L1153.65 1568.04 L1153.65 1532.4 L1159.54 1532.4 L1159.54 1537.93 Q1161.64 1534.72 1164.47 1533.13 Q1167.34 1531.54 1171.06 1531.54 Q1177.2 1531.54 1180.35 1535.36 Q1183.5 1539.14 1183.5 1546.53 Z" fill="#000000" fill-rule="nonzero" fill-opacity="1" /><path clip-path="url(#clip040)" d="M1218.64 1549.81 Q1218.64 1543.44 1216 1539.94 Q1213.39 1536.44 1208.65 1536.44 Q1203.94 1536.44 1201.3 1539.94 Q1198.69 1543.44 1198.69 1549.81 Q1198.69 1556.14 1201.3 1559.64 Q1203.94 1563.14 1208.65 1563.14 Q1213.39 1563.14 1216 1559.64 Q1218.64 1556.14 1218.64 1549.81 M1224.5 1563.62 Q1224.5 1572.72 1220.46 1577.15 Q1216.42 1581.6 1208.08 1581.6 Q1204.99 1581.6 1202.25 1581.13 Q1199.51 1580.68 1196.94 1579.72 L1196.94 1574.03 Q1199.51 1575.43 1202.03 1576.1 Q1204.54 1576.76 1207.15 1576.76 Q1212.91 1576.76 1215.78 1573.74 Q1218.64 1570.75 1218.64 1564.67 L1218.64 1561.77 Q1216.83 1564.92 1214 1566.48 Q1211.16 1568.04 1207.22 1568.04 Q1200.66 1568.04 1196.65 1563.05 Q1192.64 1558.05 1192.64 1549.81 Q1192.64 1541.53 1196.65 1536.53 Q1200.66 1531.54 1207.22 1531.54 Q1211.16 1531.54 1214 1533.1 Q1216.83 1534.66 1218.64 1537.81 L1218.64 1532.4 L1224.5 1532.4 L1224.5 1563.62 Z" fill="#000000" fill-rule="nonzero" fill-opacity="1" /><path clip-path="url(#clip040)" d="M1236.56 1518.52 L1242.42 1518.52 L1242.42 1568.04 L1236.56 1568.04 L1236.56 1518.52 Z" fill="#000000" fill-rule="nonzero" fill-opacity="1" /><path clip-path="url(#clip040)" d="M1285.17 1548.76 L1285.17 1551.62 L1258.24 1551.62 Q1258.62 1557.67 1261.87 1560.85 Q1265.15 1564 1270.97 1564 Q1274.34 1564 1277.49 1563.17 Q1280.68 1562.35 1283.8 1560.69 L1283.8 1566.23 Q1280.65 1567.57 1277.34 1568.27 Q1274.03 1568.97 1270.62 1568.97 Q1262.09 1568.97 1257.09 1564 Q1252.13 1559.04 1252.13 1550.57 Q1252.13 1541.82 1256.84 1536.69 Q1261.58 1531.54 1269.6 1531.54 Q1276.79 1531.54 1280.96 1536.18 Q1285.17 1540.8 1285.17 1548.76 M1279.31 1547.04 Q1279.25 1542.23 1276.6 1539.37 Q1273.99 1536.5 1269.66 1536.5 Q1264.76 1536.5 1261.8 1539.27 Q1258.87 1542.04 1258.43 1547.07 L1279.31 1547.04 Z" fill="#000000" fill-rule="nonzero" fill-opacity="1" /><path clip-path="url(#clip040)" d="M1325.91 1520.52 L1331.32 1520.52 L1314.77 1574.09 L1309.35 1574.09 L1325.91 1520.52 Z" fill="#000000" fill-rule="nonzero" fill-opacity="1" /><path clip-path="url(#clip040)" d="M1381.64 1537.81 L1381.64 1518.52 L1387.49 1518.52 L1387.49 1568.04 L1381.64 1568.04 L1381.64 1562.7 Q1379.79 1565.88 1376.96 1567.44 Q1374.16 1568.97 1370.21 1568.97 Q1363.75 1568.97 1359.68 1563.81 Q1355.63 1558.65 1355.63 1550.25 Q1355.63 1541.85 1359.68 1536.69 Q1363.75 1531.54 1370.21 1531.54 Q1374.16 1531.54 1376.96 1533.1 Q1379.79 1534.62 1381.64 1537.81 M1361.68 1550.25 Q1361.68 1556.71 1364.32 1560.4 Q1367 1564.07 1371.64 1564.07 Q1376.29 1564.07 1378.96 1560.4 Q1381.64 1556.71 1381.64 1550.25 Q1381.64 1543.79 1378.96 1540.13 Q1376.29 1536.44 1371.64 1536.44 Q1367 1536.44 1364.32 1540.13 Q1361.68 1543.79 1361.68 1550.25 Z" fill="#000000" fill-rule="nonzero" fill-opacity="1" /><path clip-path="url(#clip040)" d="M1430.05 1548.76 L1430.05 1551.62 L1403.12 1551.62 Q1403.5 1557.67 1406.75 1560.85 Q1410.03 1564 1415.85 1564 Q1419.23 1564 1422.38 1563.17 Q1425.56 1562.35 1428.68 1560.69 L1428.68 1566.23 Q1425.53 1567.57 1422.22 1568.27 Q1418.91 1568.97 1415.5 1568.97 Q1406.97 1568.97 1401.98 1564 Q1397.01 1559.04 1397.01 1550.57 Q1397.01 1541.82 1401.72 1536.69 Q1406.46 1531.54 1414.48 1531.54 Q1421.68 1531.54 1425.85 1536.18 Q1430.05 1540.8 1430.05 1548.76 M1424.19 1547.04 Q1424.13 1542.23 1421.49 1539.37 Q1418.88 1536.5 1414.55 1536.5 Q1409.65 1536.5 1406.69 1539.27 Q1403.76 1542.04 1403.31 1547.07 L1424.19 1547.04 Z" fill="#000000" fill-rule="nonzero" fill-opacity="1" /><path clip-path="url(#clip040)" d="M1463.12 1549.81 Q1463.12 1543.44 1460.48 1539.94 Q1457.87 1536.44 1453.12 1536.44 Q1448.41 1536.44 1445.77 1539.94 Q1443.16 1543.44 1443.16 1549.81 Q1443.16 1556.14 1445.77 1559.64 Q1448.41 1563.14 1453.12 1563.14 Q1457.87 1563.14 1460.48 1559.64 Q1463.12 1556.14 1463.12 1549.81 M1468.98 1563.62 Q1468.98 1572.72 1464.93 1577.15 Q1460.89 1581.6 1452.55 1581.6 Q1449.46 1581.6 1446.73 1581.13 Q1443.99 1580.68 1441.41 1579.72 L1441.41 1574.03 Q1443.99 1575.43 1446.5 1576.1 Q1449.02 1576.76 1451.63 1576.76 Q1457.39 1576.76 1460.25 1573.74 Q1463.12 1570.75 1463.12 1564.67 L1463.12 1561.77 Q1461.3 1564.92 1458.47 1566.48 Q1455.64 1568.04 1451.69 1568.04 Q1445.14 1568.04 1441.13 1563.05 Q1437.11 1558.05 1437.11 1549.81 Q1437.11 1541.53 1441.13 1536.53 Q1445.14 1531.54 1451.69 1531.54 Q1455.64 1531.54 1458.47 1533.1 Q1461.3 1534.66 1463.12 1537.81 L1463.12 1532.4 L1468.98 1532.4 L1468.98 1563.62 Z" fill="#000000" fill-rule="nonzero" fill-opacity="1" /><polyline clip-path="url(#clip040)" style="stroke:#000000; stroke-linecap:round; stroke-linejoin:round; stroke-width:4; stroke-opacity:1; fill:none" points="219.866,1423.18 219.866,123.472 "/>
<polyline clip-path="url(#clip040)" style="stroke:#000000; stroke-linecap:round; stroke-linejoin:round; stroke-width:4; stroke-opacity:1; fill:none" points="219.866,1423.18 238.764,1423.18 "/>
<polyline clip-path="url(#clip040)" style="stroke:#000000; stroke-linecap:round; stroke-linejoin:round; stroke-width:4; stroke-opacity:1; fill:none" points="219.866,1098.25 238.764,1098.25 "/>
<polyline clip-path="url(#clip040)" style="stroke:#000000; stroke-linecap:round; stroke-linejoin:round; stroke-width:4; stroke-opacity:1; fill:none" points="219.866,773.326 238.764,773.326 "/>
<polyline clip-path="url(#clip040)" style="stroke:#000000; stroke-linecap:round; stroke-linejoin:round; stroke-width:4; stroke-opacity:1; fill:none" points="219.866,448.399 238.764,448.399 "/>
<polyline clip-path="url(#clip040)" style="stroke:#000000; stroke-linecap:round; stroke-linejoin:round; stroke-width:4; stroke-opacity:1; fill:none" points="219.866,123.472 238.764,123.472 "/>
<path clip-path="url(#clip040)" d="M126.691 1408.98 Q123.08 1408.98 121.251 1412.54 Q119.445 1416.08 119.445 1423.21 Q119.445 1430.32 121.251 1433.89 Q123.08 1437.43 126.691 1437.43 Q130.325 1437.43 132.13 1433.89 Q133.959 1430.32 133.959 1423.21 Q133.959 1416.08 132.13 1412.54 Q130.325 1408.98 126.691 1408.98 M126.691 1405.27 Q132.501 1405.27 135.556 1409.88 Q138.635 1414.46 138.635 1423.21 Q138.635 1431.94 135.556 1436.55 Q132.501 1441.13 126.691 1441.13 Q120.88 1441.13 117.802 1436.55 Q114.746 1431.94 114.746 1423.21 Q114.746 1414.46 117.802 1409.88 Q120.88 1405.27 126.691 1405.27 Z" fill="#000000" fill-rule="nonzero" fill-opacity="1" /><path clip-path="url(#clip040)" d="M146.853 1434.58 L151.737 1434.58 L151.737 1440.46 L146.853 1440.46 L146.853 1434.58 Z" fill="#000000" fill-rule="nonzero" fill-opacity="1" /><path clip-path="url(#clip040)" d="M171.922 1408.98 Q168.311 1408.98 166.482 1412.54 Q164.677 1416.08 164.677 1423.21 Q164.677 1430.32 166.482 1433.89 Q168.311 1437.43 171.922 1437.43 Q175.556 1437.43 177.362 1433.89 Q179.19 1430.32 179.19 1423.21 Q179.19 1416.08 177.362 1412.54 Q175.556 1408.98 171.922 1408.98 M171.922 1405.27 Q177.732 1405.27 180.788 1409.88 Q183.866 1414.46 183.866 1423.21 Q183.866 1431.94 180.788 1436.55 Q177.732 1441.13 171.922 1441.13 Q166.112 1441.13 163.033 1436.55 Q159.978 1431.94 159.978 1423.21 Q159.978 1414.46 163.033 1409.88 Q166.112 1405.27 171.922 1405.27 Z" fill="#000000" fill-rule="nonzero" fill-opacity="1" /><path clip-path="url(#clip040)" d="M127.917 1084.05 Q124.306 1084.05 122.478 1087.62 Q120.672 1091.16 120.672 1098.29 Q120.672 1105.39 122.478 1108.96 Q124.306 1112.5 127.917 1112.5 Q131.552 1112.5 133.357 1108.96 Q135.186 1105.39 135.186 1098.29 Q135.186 1091.16 133.357 1087.62 Q131.552 1084.05 127.917 1084.05 M127.917 1080.35 Q133.728 1080.35 136.783 1084.95 Q139.862 1089.54 139.862 1098.29 Q139.862 1107.01 136.783 1111.62 Q133.728 1116.2 127.917 1116.2 Q122.107 1116.2 119.029 1111.62 Q115.973 1107.01 115.973 1098.29 Q115.973 1089.54 119.029 1084.95 Q122.107 1080.35 127.917 1080.35 Z" fill="#000000" fill-rule="nonzero" fill-opacity="1" /><path clip-path="url(#clip040)" d="M148.079 1109.65 L152.964 1109.65 L152.964 1115.53 L148.079 1115.53 L148.079 1109.65 Z" fill="#000000" fill-rule="nonzero" fill-opacity="1" /><path clip-path="url(#clip040)" d="M163.959 1111.6 L171.598 1111.6 L171.598 1085.23 L163.288 1086.9 L163.288 1082.64 L171.552 1080.97 L176.227 1080.97 L176.227 1111.6 L183.866 1111.6 L183.866 1115.53 L163.959 1115.53 L163.959 1111.6 Z" fill="#000000" fill-rule="nonzero" fill-opacity="1" /><path clip-path="url(#clip040)" d="M128.288 759.125 Q124.677 759.125 122.848 762.689 Q121.043 766.231 121.043 773.361 Q121.043 780.467 122.848 784.032 Q124.677 787.574 128.288 787.574 Q131.922 787.574 133.728 784.032 Q135.556 780.467 135.556 773.361 Q135.556 766.231 133.728 762.689 Q131.922 759.125 128.288 759.125 M128.288 755.421 Q134.098 755.421 137.154 760.027 Q140.232 764.611 140.232 773.361 Q140.232 782.088 137.154 786.694 Q134.098 791.277 128.288 791.277 Q122.478 791.277 119.399 786.694 Q116.343 782.088 116.343 773.361 Q116.343 764.611 119.399 760.027 Q122.478 755.421 128.288 755.421 Z" fill="#000000" fill-rule="nonzero" fill-opacity="1" /><path clip-path="url(#clip040)" d="M148.45 784.726 L153.334 784.726 L153.334 790.606 L148.45 790.606 L148.45 784.726 Z" fill="#000000" fill-rule="nonzero" fill-opacity="1" /><path clip-path="url(#clip040)" d="M167.547 786.671 L183.866 786.671 L183.866 790.606 L161.922 790.606 L161.922 786.671 Q164.584 783.916 169.167 779.287 Q173.774 774.634 174.954 773.291 Q177.2 770.768 178.079 769.032 Q178.982 767.273 178.982 765.583 Q178.982 762.828 177.038 761.092 Q175.116 759.356 172.014 759.356 Q169.815 759.356 167.362 760.12 Q164.931 760.884 162.153 762.435 L162.153 757.713 Q164.977 756.578 167.431 756 Q169.885 755.421 171.922 755.421 Q177.292 755.421 180.487 758.106 Q183.681 760.791 183.681 765.282 Q183.681 767.412 182.871 769.333 Q182.084 771.231 179.977 773.824 Q179.399 774.495 176.297 777.713 Q173.195 780.907 167.547 786.671 Z" fill="#000000" fill-rule="nonzero" fill-opacity="1" /><path clip-path="url(#clip040)" d="M127.339 434.198 Q123.728 434.198 121.899 437.763 Q120.093 441.304 120.093 448.434 Q120.093 455.54 121.899 459.105 Q123.728 462.647 127.339 462.647 Q130.973 462.647 132.779 459.105 Q134.607 455.54 134.607 448.434 Q134.607 441.304 132.779 437.763 Q130.973 434.198 127.339 434.198 M127.339 430.494 Q133.149 430.494 136.204 435.101 Q139.283 439.684 139.283 448.434 Q139.283 457.161 136.204 461.767 Q133.149 466.35 127.339 466.35 Q121.529 466.35 118.45 461.767 Q115.394 457.161 115.394 448.434 Q115.394 439.684 118.45 435.101 Q121.529 430.494 127.339 430.494 Z" fill="#000000" fill-rule="nonzero" fill-opacity="1" /><path clip-path="url(#clip040)" d="M147.501 459.799 L152.385 459.799 L152.385 465.679 L147.501 465.679 L147.501 459.799 Z" fill="#000000" fill-rule="nonzero" fill-opacity="1" /><path clip-path="url(#clip040)" d="M176.737 447.045 Q180.093 447.762 181.968 450.031 Q183.866 452.299 183.866 455.633 Q183.866 460.749 180.348 463.549 Q176.829 466.35 170.348 466.35 Q168.172 466.35 165.857 465.911 Q163.565 465.494 161.112 464.637 L161.112 460.124 Q163.056 461.258 165.371 461.836 Q167.686 462.415 170.209 462.415 Q174.607 462.415 176.899 460.679 Q179.214 458.943 179.214 455.633 Q179.214 452.577 177.061 450.864 Q174.931 449.128 171.112 449.128 L167.084 449.128 L167.084 445.286 L171.297 445.286 Q174.746 445.286 176.575 443.92 Q178.403 442.531 178.403 439.938 Q178.403 437.276 176.505 435.864 Q174.63 434.429 171.112 434.429 Q169.19 434.429 166.991 434.846 Q164.792 435.263 162.153 436.142 L162.153 431.976 Q164.815 431.235 167.13 430.864 Q169.468 430.494 171.528 430.494 Q176.852 430.494 179.954 432.925 Q183.056 435.332 183.056 439.452 Q183.056 442.323 181.413 444.313 Q179.769 446.281 176.737 447.045 Z" fill="#000000" fill-rule="nonzero" fill-opacity="1" /><path clip-path="url(#clip040)" d="M126.205 109.271 Q122.593 109.271 120.765 112.836 Q118.959 116.377 118.959 123.507 Q118.959 130.613 120.765 134.178 Q122.593 137.72 126.205 137.72 Q129.839 137.72 131.644 134.178 Q133.473 130.613 133.473 123.507 Q133.473 116.377 131.644 112.836 Q129.839 109.271 126.205 109.271 M126.205 105.567 Q132.015 105.567 135.07 110.174 Q138.149 114.757 138.149 123.507 Q138.149 132.234 135.07 136.84 Q132.015 141.423 126.205 141.423 Q120.394 141.423 117.316 136.84 Q114.26 132.234 114.26 123.507 Q114.26 114.757 117.316 110.174 Q120.394 105.567 126.205 105.567 Z" fill="#000000" fill-rule="nonzero" fill-opacity="1" /><path clip-path="url(#clip040)" d="M146.366 134.873 L151.251 134.873 L151.251 140.752 L146.366 140.752 L146.366 134.873 Z" fill="#000000" fill-rule="nonzero" fill-opacity="1" /><path clip-path="url(#clip040)" d="M174.283 110.266 L162.477 128.715 L174.283 128.715 L174.283 110.266 M173.056 106.192 L178.936 106.192 L178.936 128.715 L183.866 128.715 L183.866 132.604 L178.936 132.604 L178.936 140.752 L174.283 140.752 L174.283 132.604 L158.681 132.604 L158.681 128.09 L173.056 106.192 Z" fill="#000000" fill-rule="nonzero" fill-opacity="1" /><path clip-path="url(#clip040)" d="M16.4842 911.016 L16.4842 904.587 L64.0042 904.587 L64.0042 911.016 L16.4842 911.016 Z" fill="#000000" fill-rule="nonzero" fill-opacity="1" /><path clip-path="url(#clip040)" d="M42.4881 862.414 L64.0042 862.414 L64.0042 868.27 L42.679 868.27 Q37.6183 868.27 35.1038 870.244 Q32.5894 872.217 32.5894 876.164 Q32.5894 880.906 35.6131 883.644 Q38.6368 886.381 43.8567 886.381 L64.0042 886.381 L64.0042 892.269 L28.3562 892.269 L28.3562 886.381 L33.8944 886.381 Q30.6797 884.28 29.0883 881.448 Q27.4968 878.583 27.4968 874.859 Q27.4968 868.716 31.3163 865.565 Q35.1038 862.414 42.4881 862.414 Z" fill="#000000" fill-rule="nonzero" fill-opacity="1" /><path clip-path="url(#clip040)" d="M18.2347 844.94 L28.3562 844.94 L28.3562 832.877 L32.9077 832.877 L32.9077 844.94 L52.2594 844.94 Q56.6199 844.94 57.8613 843.763 Q59.1026 842.553 59.1026 838.893 L59.1026 832.877 L64.0042 832.877 L64.0042 838.893 Q64.0042 845.672 61.4897 848.25 Q58.9434 850.828 52.2594 850.828 L32.9077 850.828 L32.9077 855.125 L28.3562 855.125 L28.3562 850.828 L18.2347 850.828 L18.2347 844.94 Z" fill="#000000" fill-rule="nonzero" fill-opacity="1" /><path clip-path="url(#clip040)" d="M44.7161 794.683 L47.5806 794.683 L47.5806 821.61 Q53.6281 821.228 56.8109 817.981 Q59.9619 814.703 59.9619 808.878 Q59.9619 805.505 59.1344 802.354 Q58.3069 799.171 56.6518 796.052 L62.1899 796.052 Q63.5267 799.203 64.227 802.513 Q64.9272 805.823 64.9272 809.229 Q64.9272 817.759 59.9619 822.756 Q54.9967 827.721 46.5303 827.721 Q37.7774 827.721 32.6531 823.01 Q27.4968 818.268 27.4968 810.247 Q27.4968 803.054 32.1438 798.884 Q36.7589 794.683 44.7161 794.683 M42.9973 800.539 Q38.1912 800.603 35.3266 803.245 Q32.4621 805.855 32.4621 810.183 Q32.4621 815.085 35.2312 818.045 Q38.0002 820.973 43.0292 821.419 L42.9973 800.539 Z" fill="#000000" fill-rule="nonzero" fill-opacity="1" /><path clip-path="url(#clip040)" d="M42.4881 755.438 L64.0042 755.438 L64.0042 761.295 L42.679 761.295 Q37.6183 761.295 35.1038 763.268 Q32.5894 765.242 32.5894 769.188 Q32.5894 773.931 35.6131 776.668 Q38.6368 779.405 43.8567 779.405 L64.0042 779.405 L64.0042 785.294 L28.3562 785.294 L28.3562 779.405 L33.8944 779.405 Q30.6797 777.305 29.0883 774.472 Q27.4968 771.607 27.4968 767.883 Q27.4968 761.74 31.3163 758.589 Q35.1038 755.438 42.4881 755.438 Z" fill="#000000" fill-rule="nonzero" fill-opacity="1" /><path clip-path="url(#clip040)" d="M29.4065 721.032 L34.9447 721.032 Q33.6716 723.514 33.035 726.188 Q32.3984 728.862 32.3984 731.726 Q32.3984 736.087 33.7352 738.283 Q35.072 740.447 37.7456 740.447 Q39.7826 740.447 40.9603 738.888 Q42.1061 737.328 43.1565 732.617 L43.6021 730.612 Q44.9389 724.374 47.3897 721.764 Q49.8086 719.122 54.1691 719.122 Q59.1344 719.122 62.0308 723.069 Q64.9272 726.984 64.9272 733.859 Q64.9272 736.723 64.3543 739.842 Q63.8132 742.93 62.6992 746.367 L56.6518 746.367 Q58.3387 743.121 59.198 739.97 Q60.0256 736.819 60.0256 733.731 Q60.0256 729.594 58.6251 727.366 Q57.1929 725.138 54.6147 725.138 Q52.2276 725.138 50.9545 726.761 Q49.6813 728.352 48.5037 733.795 L48.0262 735.832 Q46.8804 741.275 44.5251 743.694 Q42.138 746.113 38.0002 746.113 Q32.9713 746.113 30.2341 742.548 Q27.4968 738.983 27.4968 732.426 Q27.4968 729.18 27.9743 726.315 Q28.4517 723.451 29.4065 721.032 Z" fill="#000000" fill-rule="nonzero" fill-opacity="1" /><path clip-path="url(#clip040)" d="M28.3562 709.796 L28.3562 703.94 L64.0042 703.94 L64.0042 709.796 L28.3562 709.796 M14.479 709.796 L14.479 703.94 L21.895 703.94 L21.895 709.796 L14.479 709.796 Z" fill="#000000" fill-rule="nonzero" fill-opacity="1" /><path clip-path="url(#clip040)" d="M18.2347 685.893 L28.3562 685.893 L28.3562 673.83 L32.9077 673.83 L32.9077 685.893 L52.2594 685.893 Q56.6199 685.893 57.8613 684.715 Q59.1026 683.506 59.1026 679.846 L59.1026 673.83 L64.0042 673.83 L64.0042 679.846 Q64.0042 686.625 61.4897 689.203 Q58.9434 691.781 52.2594 691.781 L32.9077 691.781 L32.9077 696.078 L28.3562 696.078 L28.3562 691.781 L18.2347 691.781 L18.2347 685.893 Z" fill="#000000" fill-rule="nonzero" fill-opacity="1" /><path clip-path="url(#clip040)" d="M67.3143 651.295 Q73.68 653.778 75.6216 656.133 Q77.5631 658.489 77.5631 662.435 L77.5631 667.114 L72.6615 667.114 L72.6615 663.677 Q72.6615 661.258 71.5157 659.921 Q70.3699 658.584 66.1048 656.961 L63.4312 655.911 L28.3562 670.329 L28.3562 664.122 L56.238 652.982 L28.3562 641.842 L28.3562 635.636 L67.3143 651.295 Z" fill="#000000" fill-rule="nonzero" fill-opacity="1" /><path clip-path="url(#clip040)" d="M793.215 12.096 L831.455 12.096 L831.455 18.9825 L801.398 18.9825 L801.398 36.8875 L830.2 36.8875 L830.2 43.7741 L801.398 43.7741 L801.398 65.6895 L832.184 65.6895 L832.184 72.576 L793.215 72.576 L793.215 12.096 Z" fill="#000000" fill-rule="nonzero" fill-opacity="1" /><path clip-path="url(#clip040)" d="M883.023 27.2059 L866.617 49.2833 L883.874 72.576 L875.084 72.576 L861.878 54.752 L848.672 72.576 L839.881 72.576 L857.503 48.8377 L841.38 27.2059 L850.17 27.2059 L862.202 43.369 L874.233 27.2059 L883.023 27.2059 Z" fill="#000000" fill-rule="nonzero" fill-opacity="1" /><path clip-path="url(#clip040)" d="M925.598 28.9478 L925.598 35.9153 Q922.439 34.1734 919.238 33.3227 Q916.079 32.4315 912.838 32.4315 Q905.587 32.4315 901.576 37.0496 Q897.566 41.6271 897.566 49.9314 Q897.566 58.2358 901.576 62.8538 Q905.587 67.4314 912.838 67.4314 Q916.079 67.4314 919.238 66.5807 Q922.439 65.6895 925.598 63.9476 L925.598 70.8341 Q922.479 72.2924 919.117 73.0216 Q915.795 73.7508 912.028 73.7508 Q901.779 73.7508 895.743 67.3098 Q889.707 60.8689 889.707 49.9314 Q889.707 38.832 895.784 32.472 Q901.901 26.1121 912.514 26.1121 Q915.957 26.1121 919.238 26.8413 Q922.52 27.5299 925.598 28.9478 Z" fill="#000000" fill-rule="nonzero" fill-opacity="1" /><path clip-path="url(#clip040)" d="M938.561 27.2059 L946.015 27.2059 L946.015 72.576 L938.561 72.576 L938.561 27.2059 M938.561 9.54393 L946.015 9.54393 L946.015 18.9825 L938.561 18.9825 L938.561 9.54393 Z" fill="#000000" fill-rule="nonzero" fill-opacity="1" /><path clip-path="url(#clip040)" d="M968.984 14.324 L968.984 27.2059 L984.336 27.2059 L984.336 32.9987 L968.984 32.9987 L968.984 57.6282 Q968.984 63.1779 970.482 64.7578 Q972.022 66.3376 976.68 66.3376 L984.336 66.3376 L984.336 72.576 L976.68 72.576 Q968.052 72.576 964.771 69.3758 Q961.489 66.1351 961.489 57.6282 L961.489 32.9987 L956.021 32.9987 L956.021 27.2059 L961.489 27.2059 L961.489 14.324 L968.984 14.324 Z" fill="#000000" fill-rule="nonzero" fill-opacity="1" /><path clip-path="url(#clip040)" d="M1014.76 49.7694 Q1005.73 49.7694 1002.24 51.8354 Q998.758 53.9013 998.758 58.8839 Q998.758 62.8538 1001.35 65.2034 Q1003.98 67.5124 1008.48 67.5124 Q1014.68 67.5124 1018.4 63.1374 Q1022.17 58.7219 1022.17 51.4303 L1022.17 49.7694 L1014.76 49.7694 M1029.63 46.6907 L1029.63 72.576 L1022.17 72.576 L1022.17 65.6895 Q1019.62 69.8214 1015.81 71.8063 Q1012 73.7508 1006.49 73.7508 Q999.527 73.7508 995.395 69.8619 Q991.304 65.9325 991.304 59.3701 Q991.304 51.7138 996.408 47.825 Q1001.55 43.9361 1011.72 43.9361 L1022.17 43.9361 L1022.17 43.2069 Q1022.17 38.0623 1018.77 35.2672 Q1015.41 32.4315 1009.29 32.4315 Q1005.4 32.4315 1001.71 33.3632 Q998.028 34.295 994.626 36.1584 L994.626 29.2718 Q998.717 27.692 1002.57 26.9223 Q1006.41 26.1121 1010.06 26.1121 Q1019.9 26.1121 1024.76 31.2163 Q1029.63 36.3204 1029.63 46.6907 Z" fill="#000000" fill-rule="nonzero" fill-opacity="1" /><path clip-path="url(#clip040)" d="M1052.35 14.324 L1052.35 27.2059 L1067.7 27.2059 L1067.7 32.9987 L1052.35 32.9987 L1052.35 57.6282 Q1052.35 63.1779 1053.85 64.7578 Q1055.39 66.3376 1060.05 66.3376 L1067.7 66.3376 L1067.7 72.576 L1060.05 72.576 Q1051.42 72.576 1048.14 69.3758 Q1044.86 66.1351 1044.86 57.6282 L1044.86 32.9987 L1039.39 32.9987 L1039.39 27.2059 L1044.86 27.2059 L1044.86 14.324 L1052.35 14.324 Z" fill="#000000" fill-rule="nonzero" fill-opacity="1" /><path clip-path="url(#clip040)" d="M1077.51 27.2059 L1084.96 27.2059 L1084.96 72.576 L1077.51 72.576 L1077.51 27.2059 M1077.51 9.54393 L1084.96 9.54393 L1084.96 18.9825 L1077.51 18.9825 L1077.51 9.54393 Z" fill="#000000" fill-rule="nonzero" fill-opacity="1" /><path clip-path="url(#clip040)" d="M1118.14 32.4315 Q1112.14 32.4315 1108.66 37.1306 Q1105.17 41.7891 1105.17 49.9314 Q1105.17 58.0738 1108.62 62.7728 Q1112.1 67.4314 1118.14 67.4314 Q1124.09 67.4314 1127.58 62.7323 Q1131.06 58.0333 1131.06 49.9314 Q1131.06 41.8701 1127.58 37.1711 Q1124.09 32.4315 1118.14 32.4315 M1118.14 26.1121 Q1127.86 26.1121 1133.41 32.4315 Q1138.96 38.7509 1138.96 49.9314 Q1138.96 61.0714 1133.41 67.4314 Q1127.86 73.7508 1118.14 73.7508 Q1108.38 73.7508 1102.83 67.4314 Q1097.32 61.0714 1097.32 49.9314 Q1097.32 38.7509 1102.83 32.4315 Q1108.38 26.1121 1118.14 26.1121 Z" fill="#000000" fill-rule="nonzero" fill-opacity="1" /><path clip-path="url(#clip040)" d="M1189.03 45.1919 L1189.03 72.576 L1181.57 72.576 L1181.57 45.4349 Q1181.57 38.994 1179.06 35.7938 Q1176.55 32.5936 1171.53 32.5936 Q1165.49 32.5936 1162.01 36.4419 Q1158.53 40.2903 1158.53 46.9338 L1158.53 72.576 L1151.03 72.576 L1151.03 27.2059 L1158.53 27.2059 L1158.53 34.2544 Q1161.2 30.163 1164.8 28.1376 Q1168.45 26.1121 1173.19 26.1121 Q1181.01 26.1121 1185.02 30.9732 Q1189.03 35.7938 1189.03 45.1919 Z" fill="#000000" fill-rule="nonzero" fill-opacity="1" /><path clip-path="url(#clip040)" d="M1238.77 18.8205 L1238.77 41.5461 L1249.06 41.5461 Q1254.77 41.5461 1257.89 38.5889 Q1261.01 35.6318 1261.01 30.163 Q1261.01 24.7348 1257.89 21.7777 Q1254.77 18.8205 1249.06 18.8205 L1238.77 18.8205 M1230.59 12.096 L1249.06 12.096 Q1259.23 12.096 1264.42 16.714 Q1269.64 21.2916 1269.64 30.163 Q1269.64 39.1155 1264.42 43.6931 Q1259.23 48.2706 1249.06 48.2706 L1238.77 48.2706 L1238.77 72.576 L1230.59 72.576 L1230.59 12.096 Z" fill="#000000" fill-rule="nonzero" fill-opacity="1" /><path clip-path="url(#clip040)" d="M1294.92 32.4315 Q1288.92 32.4315 1285.44 37.1306 Q1281.96 41.7891 1281.96 49.9314 Q1281.96 58.0738 1285.4 62.7728 Q1288.88 67.4314 1294.92 67.4314 Q1300.87 67.4314 1304.36 62.7323 Q1307.84 58.0333 1307.84 49.9314 Q1307.84 41.8701 1304.36 37.1711 Q1300.87 32.4315 1294.92 32.4315 M1294.92 26.1121 Q1304.64 26.1121 1310.19 32.4315 Q1315.74 38.7509 1315.74 49.9314 Q1315.74 61.0714 1310.19 67.4314 Q1304.64 73.7508 1294.92 73.7508 Q1285.16 73.7508 1279.61 67.4314 Q1274.1 61.0714 1274.1 49.9314 Q1274.1 38.7509 1279.61 32.4315 Q1285.16 26.1121 1294.92 26.1121 Z" fill="#000000" fill-rule="nonzero" fill-opacity="1" /><path clip-path="url(#clip040)" d="M1328.1 9.54393 L1335.55 9.54393 L1335.55 72.576 L1328.1 72.576 L1328.1 9.54393 Z" fill="#000000" fill-rule="nonzero" fill-opacity="1" /><path clip-path="url(#clip040)" d="M1371.76 49.7694 Q1362.73 49.7694 1359.25 51.8354 Q1355.76 53.9013 1355.76 58.8839 Q1355.76 62.8538 1358.36 65.2034 Q1360.99 67.5124 1365.49 67.5124 Q1371.68 67.5124 1375.41 63.1374 Q1379.18 58.7219 1379.18 51.4303 L1379.18 49.7694 L1371.76 49.7694 M1386.63 46.6907 L1386.63 72.576 L1379.18 72.576 L1379.18 65.6895 Q1376.63 69.8214 1372.82 71.8063 Q1369.01 73.7508 1363.5 73.7508 Q1356.53 73.7508 1352.4 69.8619 Q1348.31 65.9325 1348.31 59.3701 Q1348.31 51.7138 1353.41 47.825 Q1358.56 43.9361 1368.73 43.9361 L1379.18 43.9361 L1379.18 43.2069 Q1379.18 38.0623 1375.78 35.2672 Q1372.41 32.4315 1366.3 32.4315 Q1362.41 32.4315 1358.72 33.3632 Q1355.03 34.295 1351.63 36.1584 L1351.63 29.2718 Q1355.72 27.692 1359.57 26.9223 Q1363.42 26.1121 1367.07 26.1121 Q1376.91 26.1121 1381.77 31.2163 Q1386.63 36.3204 1386.63 46.6907 Z" fill="#000000" fill-rule="nonzero" fill-opacity="1" /><path clip-path="url(#clip040)" d="M1428.28 34.1734 Q1427.02 33.4443 1425.52 33.1202 Q1424.06 32.7556 1422.28 32.7556 Q1415.96 32.7556 1412.56 36.8875 Q1409.2 40.9789 1409.2 48.6757 L1409.2 72.576 L1401.7 72.576 L1401.7 27.2059 L1409.2 27.2059 L1409.2 34.2544 Q1411.54 30.1225 1415.31 28.1376 Q1419.08 26.1121 1424.47 26.1121 Q1425.24 26.1121 1426.17 26.2337 Q1427.1 26.3147 1428.23 26.5172 L1428.28 34.1734 Z" fill="#000000" fill-rule="nonzero" fill-opacity="1" /><path clip-path="url(#clip040)" d="M1436.09 27.2059 L1443.55 27.2059 L1443.55 72.576 L1436.09 72.576 L1436.09 27.2059 M1436.09 9.54393 L1443.55 9.54393 L1443.55 18.9825 L1436.09 18.9825 L1436.09 9.54393 Z" fill="#000000" fill-rule="nonzero" fill-opacity="1" /><path clip-path="url(#clip040)" d="M1455.9 27.2059 L1491.31 27.2059 L1491.31 34.0114 L1463.27 66.6212 L1491.31 66.6212 L1491.31 72.576 L1454.89 72.576 L1454.89 65.7705 L1482.92 33.1607 L1455.9 33.1607 L1455.9 27.2059 Z" fill="#000000" fill-rule="nonzero" fill-opacity="1" /><path clip-path="url(#clip040)" d="M1541.5 48.0275 L1541.5 51.6733 L1507.23 51.6733 Q1507.71 59.3701 1511.85 63.421 Q1516.02 67.4314 1523.43 67.4314 Q1527.72 67.4314 1531.74 66.3781 Q1535.79 65.3249 1539.76 63.2184 L1539.76 70.267 Q1535.75 71.9684 1531.53 72.8596 Q1527.32 73.7508 1522.99 73.7508 Q1512.13 73.7508 1505.77 67.4314 Q1499.45 61.1119 1499.45 50.3365 Q1499.45 39.1965 1505.44 32.6746 Q1511.48 26.1121 1521.69 26.1121 Q1530.84 26.1121 1536.15 32.0264 Q1541.5 37.9003 1541.5 48.0275 M1534.04 45.84 Q1533.96 39.7232 1530.6 36.0774 Q1527.28 32.4315 1521.77 32.4315 Q1515.53 32.4315 1511.76 35.9558 Q1508.04 39.4801 1507.47 45.8805 L1534.04 45.84 Z" fill="#000000" fill-rule="nonzero" fill-opacity="1" /><path clip-path="url(#clip040)" d="M1580.02 34.1734 Q1578.77 33.4443 1577.27 33.1202 Q1575.81 32.7556 1574.03 32.7556 Q1567.71 32.7556 1564.3 36.8875 Q1560.94 40.9789 1560.94 48.6757 L1560.94 72.576 L1553.45 72.576 L1553.45 27.2059 L1560.94 27.2059 L1560.94 34.2544 Q1563.29 30.1225 1567.06 28.1376 Q1570.83 26.1121 1576.21 26.1121 Q1576.98 26.1121 1577.92 26.2337 Q1578.85 26.3147 1579.98 26.5172 L1580.02 34.1734 Z" fill="#000000" fill-rule="nonzero" fill-opacity="1" /><path clip-path="url(#clip040)" d="M1631.79 32.4315 Q1625.8 32.4315 1622.31 37.1306 Q1618.83 41.7891 1618.83 49.9314 Q1618.83 58.0738 1622.27 62.7728 Q1625.76 67.4314 1631.79 67.4314 Q1637.75 67.4314 1641.23 62.7323 Q1644.71 58.0333 1644.71 49.9314 Q1644.71 41.8701 1641.23 37.1711 Q1637.75 32.4315 1631.79 32.4315 M1631.79 26.1121 Q1641.51 26.1121 1647.06 32.4315 Q1652.61 38.7509 1652.61 49.9314 Q1652.61 61.0714 1647.06 67.4314 Q1641.51 73.7508 1631.79 73.7508 Q1622.03 73.7508 1616.48 67.4314 Q1610.97 61.0714 1610.97 49.9314 Q1610.97 38.7509 1616.48 32.4315 Q1622.03 26.1121 1631.79 26.1121 Z" fill="#000000" fill-rule="nonzero" fill-opacity="1" /><path clip-path="url(#clip040)" d="M1702.68 45.1919 L1702.68 72.576 L1695.23 72.576 L1695.23 45.4349 Q1695.23 38.994 1692.72 35.7938 Q1690.21 32.5936 1685.18 32.5936 Q1679.15 32.5936 1675.66 36.4419 Q1672.18 40.2903 1672.18 46.9338 L1672.18 72.576 L1664.69 72.576 L1664.69 27.2059 L1672.18 27.2059 L1672.18 34.2544 Q1674.85 30.163 1678.46 28.1376 Q1682.1 26.1121 1686.84 26.1121 Q1694.66 26.1121 1698.67 30.9732 Q1702.68 35.7938 1702.68 45.1919 Z" fill="#000000" fill-rule="nonzero" fill-opacity="1" /><path clip-path="url(#clip040)" d="M1717.55 9.54393 L1725 9.54393 L1725 72.576 L1717.55 72.576 L1717.55 9.54393 Z" fill="#000000" fill-rule="nonzero" fill-opacity="1" /><path clip-path="url(#clip040)" d="M1759.48 76.7889 Q1756.32 84.8907 1753.32 87.3618 Q1750.32 89.8329 1745.3 89.8329 L1739.34 89.8329 L1739.34 83.5945 L1743.72 83.5945 Q1746.8 83.5945 1748.5 82.1361 Q1750.2 80.6778 1752.27 75.2496 L1753.6 71.8468 L1735.25 27.2059 L1743.15 27.2059 L1757.33 62.6918 L1771.51 27.2059 L1779.41 27.2059 L1759.48 76.7889 Z" fill="#000000" fill-rule="nonzero" fill-opacity="1" /><polyline clip-path="url(#clip042)" style="stroke:#009af9; stroke-linecap:round; stroke-linejoin:round; stroke-width:4; stroke-opacity:1; fill:none" points="280.231,319.381 283.435,319.283 286.639,318.988 289.843,318.496 293.047,317.81 296.251,316.931 299.456,315.86 302.66,314.601 305.864,313.156 309.068,311.53 312.272,309.725 315.476,307.747 318.68,305.6 321.884,303.289 325.088,300.82 328.292,298.199 331.496,295.432 334.7,292.527 337.904,289.491 341.109,286.33 344.313,283.054 347.517,279.669 350.721,276.186 353.925,272.612 357.129,268.957 360.333,265.23 363.537,261.441 366.741,257.599 369.945,253.716 373.149,249.801 376.353,245.864 379.557,241.917 382.762,237.971 385.966,234.035 389.17,230.122 392.374,226.242 395.578,222.407 398.782,218.628 401.986,214.916 405.19,211.282 408.394,207.739 411.598,204.296 414.802,200.966 418.006,197.759 421.21,194.687 424.415,191.76 427.619,188.99 430.823,186.386 434.027,183.96 437.231,181.721 440.435,179.681 443.639,177.848 446.843,176.232 450.047,174.842 453.251,173.689 456.455,172.779 459.659,172.123 462.863,171.727 466.068,171.6 469.272,171.749 472.476,172.182 475.68,172.904 478.884,173.922 482.088,175.241 485.292,176.868 488.496,178.807 491.7,181.062 494.904,183.638 498.108,186.538 501.312,189.765 504.516,193.322 507.72,197.21 510.925,201.432 514.129,205.988 517.333,210.879 520.537,216.104 523.741,221.664 526.945,227.558 530.149,233.783 533.353,240.338 536.557,247.22 539.761,254.426 542.965,261.952 546.169,269.794 549.373,277.948 552.578,286.408 555.782,295.169 558.986,304.224 562.19,313.566 565.394,323.189 568.598,333.085 571.802,343.245 575.006,353.662 578.21,364.325 581.414,375.226 584.618,386.354 587.822,397.7 591.026,409.252 594.231,420.999 597.435,432.931 600.639,445.035 603.843,457.298 607.047,469.71 610.251,482.255 613.455,494.923 616.659,507.698 619.863,520.569 623.067,533.52 626.271,546.538 629.475,559.609 632.679,572.717 635.884,585.85 639.088,598.991 642.292,612.126 645.496,625.241 648.7,638.32 651.904,651.348 655.108,664.311 658.312,677.192 661.516,689.979 664.72,702.654 667.924,715.204 671.128,727.613 674.332,739.867 677.537,751.952 680.741,763.852 683.945,775.555 687.149,787.044 690.353,798.308 693.557,809.331 696.761,820.101 699.965,830.605 703.169,840.829 706.373,850.762 709.577,860.391 712.781,869.704 715.985,878.69 719.19,887.338 722.394,895.637 725.598,903.577 728.802,911.147 732.006,918.339 735.21,925.144 738.414,931.553 741.618,937.558 744.822,943.152 748.026,948.328 751.23,953.079 754.434,957.399 757.638,961.283 760.843,964.725 764.047,967.723 767.251,970.272 770.455,972.368 773.659,974.009 776.863,975.193 780.067,975.919 783.271,976.186 786.475,975.992 789.679,975.34 792.883,974.228 796.087,972.66 799.291,970.636 802.496,968.159 805.7,965.233 808.904,961.861 812.108,958.047 815.312,953.796 818.516,949.113 821.72,944.005 824.924,938.477 828.128,932.537 831.332,926.192 834.536,919.449 837.74,912.318 840.944,904.807 844.149,896.926 847.353,888.683 850.557,880.09 853.761,871.158 856.965,861.896 860.169,852.316 863.373,842.431 866.577,832.252 869.781,821.792 872.985,811.064 876.189,800.08 879.393,788.854 882.597,777.399 885.802,765.73 889.006,753.86 892.21,741.804 895.414,729.576 898.618,717.19 901.822,704.661 905.026,692.005 908.23,679.236 911.434,666.368 914.638,653.417 917.842,640.399 921.046,627.327 924.25,614.217 927.455,601.084 930.659,587.942 933.863,574.808 937.067,561.694 940.271,548.617 943.475,535.589 946.679,522.626 949.883,509.742 953.087,496.951 956.291,484.265 959.495,471.699 962.699,459.265 965.903,446.978 969.108,434.848 972.312,422.888 975.516,411.11 978.72,399.526 981.924,388.147 985.128,376.983 988.332,366.045 991.536,355.344 994.74,344.887 997.944,334.686 1001.15,324.747 1004.35,315.08 1007.56,305.693 1010.76,296.591 1013.96,287.784 1017.17,279.275 1020.37,271.072 1023.58,263.18 1026.78,255.603 1029.98,248.346 1033.19,241.412 1036.39,234.805 1039.6,228.527 1042.8,222.581 1046.01,216.968 1049.21,211.689 1052.41,206.744 1055.62,202.135 1058.82,197.86 1062.03,193.919 1065.23,190.31 1068.43,187.03 1071.64,184.078 1074.84,181.451 1078.05,179.145 1081.25,177.156 1084.45,175.48 1087.66,174.112 1090.86,173.046 1094.07,172.277 1097.27,171.799 1100.47,171.605 1103.68,171.689 1106.88,172.042 1110.09,172.658 1113.29,173.527 1116.5,174.643 1119.7,175.995 1122.9,177.575 1126.11,179.375 1129.31,181.383 1132.52,183.591 1135.72,185.988 1138.92,188.564 1142.13,191.308 1145.33,194.211 1148.54,197.261 1151.74,200.447 1154.94,203.758 1158.15,207.183 1161.35,210.712 1164.56,214.332 1167.76,218.032 1170.96,221.801 1174.17,225.628 1177.37,229.502 1180.58,233.41 1183.78,237.343 1186.98,241.289 1190.19,245.236 1193.39,249.175 1196.6,253.094 1199.8,256.984 1203.01,260.832 1206.21,264.63 1209.41,268.368 1212.62,272.035 1215.82,275.622 1219.03,279.121 1222.23,282.522 1225.43,285.816 1228.64,288.995 1231.84,292.052 1235.05,294.979 1238.25,297.768 1241.45,300.412 1244.66,302.906 1247.86,305.242 1251.07,307.416 1254.27,309.422 1257.47,311.254 1260.68,312.909 1263.88,314.383 1267.09,315.672 1270.29,316.773 1273.49,317.683 1276.7,318.4 1279.9,318.922 1283.11,319.249 1286.31,319.379 1289.52,319.312 1292.72,319.048 1295.92,318.588 1299.13,317.932 1302.33,317.084 1305.54,316.043 1308.74,314.814 1311.94,313.399 1315.15,311.801 1318.35,310.024 1321.56,308.073 1324.76,305.953 1327.96,303.667 1331.17,301.223 1334.37,298.626 1337.58,295.882 1340.78,292.999 1343.98,289.983 1347.19,286.842 1350.39,283.583 1353.6,280.215 1356.8,276.747 1360,273.187 1363.21,269.544 1366.41,265.828 1369.62,262.048 1372.82,258.214 1376.03,254.337 1379.23,250.426 1382.43,246.492 1385.64,242.546 1388.84,238.599 1392.05,234.661 1395.25,230.743 1398.45,226.857 1401.66,223.014 1404.86,219.225 1408.07,215.502 1411.27,211.855 1414.47,208.297 1417.68,204.837 1420.88,201.488 1424.09,198.261 1427.29,195.167 1430.49,192.216 1433.7,189.42 1436.9,186.789 1440.11,184.334 1443.31,182.065 1446.51,179.992 1449.72,178.125 1452.92,176.474 1456.13,175.048 1459.33,173.856 1462.54,172.907 1465.74,172.21 1468.94,171.772 1472.15,171.602 1475.35,171.707 1478.56,172.094 1481.76,172.769 1484.96,173.74 1488.17,175.011 1491.37,176.588 1494.58,178.477 1497.78,180.682 1500.98,183.206 1504.19,186.055 1507.39,189.229 1510.6,192.733 1513.8,196.569 1517,200.737 1520.21,205.24 1523.41,210.077 1526.62,215.25 1529.82,220.757 1533.02,226.597 1536.23,232.769 1539.43,239.272 1542.64,246.102 1545.84,253.257 1549.05,260.732 1552.25,268.524 1555.45,276.629 1558.66,285.041 1561.86,293.754 1565.07,302.762 1568.27,312.059 1571.47,321.638 1574.68,331.491 1577.88,341.61 1581.09,351.986 1584.29,362.611 1587.49,373.474 1590.7,384.567 1593.9,395.879 1597.11,407.399 1600.31,419.116 1603.51,431.019 1606.72,443.096 1609.92,455.335 1613.13,467.723 1616.33,480.249 1619.54,492.898 1622.74,505.657 1625.94,518.513 1629.15,531.452 1632.35,544.461 1635.56,557.524 1638.76,570.628 1641.96,583.757 1645.17,596.898 1648.37,610.035 1651.58,623.154 1654.78,636.24 1657.98,649.277 1661.19,662.251 1664.39,675.147 1667.6,687.949 1670.8,700.643 1674,713.214 1677.21,725.647 1680.41,737.927 1683.62,750.039 1686.82,761.97 1690.02,773.705 1693.23,785.229 1696.43,796.529 1699.64,807.592 1702.84,818.403 1706.05,828.95 1709.25,839.22 1712.45,849.2 1715.66,858.878 1718.86,868.242 1722.07,877.281 1725.27,885.984 1728.47,894.339 1731.68,902.337 1734.88,909.967 1738.09,917.22 1741.29,924.087 1744.49,930.559 1747.7,936.629 1750.9,942.289 1754.11,947.532 1757.31,952.351 1760.51,956.74 1763.72,960.693 1766.92,964.207 1770.13,967.276 1773.33,969.896 1776.53,972.064 1779.74,973.778 1782.94,975.035 1786.15,975.834 1789.35,976.174 1792.56,976.054 1795.76,975.474 1798.96,974.436 1802.17,972.94 1805.37,970.988 1808.58,968.584 1811.78,965.729 1814.98,962.427 1818.19,958.683 1821.39,954.502 1824.6,949.888 1827.8,944.847 1831,939.385 1834.21,933.51 1837.41,927.229 1840.62,920.549 1843.82,913.48 1847.02,906.029 1850.23,898.205 1853.43,890.02 1856.64,881.482 1859.84,872.603 1863.04,863.392 1866.25,853.863 1869.45,844.025 1872.66,833.892 1875.86,823.476 1879.07,812.79 1882.27,801.845 1885.47,790.657 1888.68,779.238 1891.88,767.602 1895.09,755.763 1898.29,743.736 1901.49,731.534 1904.7,719.172 1907.9,706.666 1911.11,694.029 1914.31,681.276 1917.51,668.423 1920.72,655.485 1923.92,642.476 1927.13,629.412 1930.33,616.307 1933.53,603.176 1936.74,590.035 1939.94,576.898 1943.15,563.781 1946.35,550.696 1949.55,537.66 1952.76,524.686 1955.96,511.788 1959.17,498.981 1962.37,486.278 1965.58,473.692 1968.78,461.236 1971.98,448.924 1975.19,436.768 1978.39,424.781 1981.6,412.973 1984.8,401.358 1988,389.945 1991.21,378.746 1994.41,367.772 1997.62,357.032 2000.82,346.536 2004.02,336.293 2007.23,326.312 2010.43,316.601 2013.64,307.169 2016.84,298.022 2020.04,289.166 2023.25,280.61 2026.45,272.358 2029.66,264.416 2032.86,256.789 2036.06,249.48 2039.27,242.495 2042.47,235.835 2045.68,229.505 2048.88,223.506 2052.09,217.839 2055.29,212.507 2058.49,207.509 2061.7,202.847 2064.9,198.519 2068.11,194.524 2071.31,190.862 2074.51,187.531 2077.72,184.527 2080.92,181.848 2084.13,179.491 2087.33,177.452 2090.53,175.726 2093.74,174.309 2096.94,173.196 2100.15,172.38 2103.35,171.856 2106.55,171.617 2109.76,171.657 2112.96,171.968 2116.17,172.542 2119.37,173.372 2122.58,174.449 2125.78,175.764 2128.98,177.309 2132.19,179.074 2135.39,181.05 2138.6,183.226 2141.8,185.594 2145,188.142 2148.21,190.86 2151.41,193.739 2154.62,196.766 2157.82,199.931 2161.02,203.223 2164.23,206.631 2167.43,210.143 2170.64,213.749 2173.84,217.438 2177.04,221.197 2180.25,225.015 2183.45,228.882 2186.66,232.786 2189.86,236.715 2193.06,240.66 2196.27,244.608 2199.47,248.549 2202.68,252.472 2205.88,256.367 2209.09,260.222 2212.29,264.029 2215.49,267.777 2218.7,271.456 2221.9,275.057 2225.11,278.57 2228.31,281.987 2231.51,285.299 2234.72,288.497 2237.92,291.574 2241.13,294.522 2244.33,297.333 2247.53,300.001 2250.74,302.519 2253.94,304.881 2257.15,307.081 2260.35,309.114 2263.55,310.974 2266.76,312.658 2269.96,314.161 2273.17,315.479 2276.37,316.61 2279.57,317.551 2282.78,318.299 2285.98,318.852 2289.19,319.21 2292.39,319.371 "/>
<path clip-path="url(#clip040)" d="M1868.26 1379.86 L2281.66 1379.86 L2281.66 1276.18 L1868.26 1276.18  Z" fill="#ffffff" fill-rule="evenodd" fill-opacity="1"/>
<polyline clip-path="url(#clip040)" style="stroke:#000000; stroke-linecap:round; stroke-linejoin:round; stroke-width:4; stroke-opacity:1; fill:none" points="1868.26,1379.86 2281.66,1379.86 2281.66,1276.18 1868.26,1276.18 1868.26,1379.86 "/>
<polyline clip-path="url(#clip040)" style="stroke:#009af9; stroke-linecap:round; stroke-linejoin:round; stroke-width:4; stroke-opacity:1; fill:none" points="1891.95,1328.02 2034.15,1328.02 "/>
<path clip-path="url(#clip040)" d="M2085.72 1313.4 L2085.72 1318.33 Q2083.36 1316.13 2080.67 1315.04 Q2078.01 1313.95 2075 1313.95 Q2069.07 1313.95 2065.92 1317.59 Q2062.78 1321.2 2062.78 1328.05 Q2062.78 1334.88 2065.92 1338.51 Q2069.07 1342.12 2075 1342.12 Q2078.01 1342.12 2080.67 1341.04 Q2083.36 1339.95 2085.72 1337.75 L2085.72 1342.63 Q2083.26 1344.3 2080.51 1345.13 Q2077.78 1345.97 2074.72 1345.97 Q2066.87 1345.97 2062.36 1341.18 Q2057.85 1336.36 2057.85 1328.05 Q2057.85 1319.72 2062.36 1314.93 Q2066.87 1310.11 2074.72 1310.11 Q2077.82 1310.11 2080.55 1310.94 Q2083.31 1311.75 2085.72 1313.4 Z" fill="#000000" fill-rule="nonzero" fill-opacity="1" /><path clip-path="url(#clip040)" d="M2102.8 1322.36 Q2099.37 1322.36 2097.38 1325.04 Q2095.39 1327.7 2095.39 1332.36 Q2095.39 1337.01 2097.36 1339.69 Q2099.35 1342.36 2102.8 1342.36 Q2106.2 1342.36 2108.19 1339.67 Q2110.18 1336.99 2110.18 1332.36 Q2110.18 1327.75 2108.19 1325.06 Q2106.2 1322.36 2102.8 1322.36 M2102.8 1318.75 Q2108.36 1318.75 2111.53 1322.36 Q2114.7 1325.97 2114.7 1332.36 Q2114.7 1338.72 2111.53 1342.36 Q2108.36 1345.97 2102.8 1345.97 Q2097.22 1345.97 2094.05 1342.36 Q2090.9 1338.72 2090.9 1332.36 Q2090.9 1325.97 2094.05 1322.36 Q2097.22 1318.75 2102.8 1318.75 Z" fill="#000000" fill-rule="nonzero" fill-opacity="1" /><path clip-path="url(#clip040)" d="M2121.76 1309.28 L2126.02 1309.28 L2126.02 1345.3 L2121.76 1345.3 L2121.76 1309.28 Z" fill="#000000" fill-rule="nonzero" fill-opacity="1" /><path clip-path="url(#clip040)" d="M2134.93 1309.28 L2139.19 1309.28 L2139.19 1345.3 L2134.93 1345.3 L2134.93 1309.28 Z" fill="#000000" fill-rule="nonzero" fill-opacity="1" /><path clip-path="url(#clip040)" d="M2159.88 1332.26 Q2154.72 1332.26 2152.73 1333.44 Q2150.74 1334.63 2150.74 1337.47 Q2150.74 1339.74 2152.22 1341.08 Q2153.73 1342.4 2156.29 1342.4 Q2159.84 1342.4 2161.97 1339.9 Q2164.12 1337.38 2164.12 1333.21 L2164.12 1332.26 L2159.88 1332.26 M2168.38 1330.5 L2168.38 1345.3 L2164.12 1345.3 L2164.12 1341.36 Q2162.66 1343.72 2160.48 1344.86 Q2158.31 1345.97 2155.16 1345.97 Q2151.18 1345.97 2148.82 1343.75 Q2146.48 1341.5 2146.48 1337.75 Q2146.48 1333.38 2149.4 1331.15 Q2152.34 1328.93 2158.15 1328.93 L2164.12 1328.93 L2164.12 1328.51 Q2164.12 1325.57 2162.17 1323.98 Q2160.25 1322.36 2156.76 1322.36 Q2154.54 1322.36 2152.43 1322.89 Q2150.32 1323.42 2148.38 1324.49 L2148.38 1320.55 Q2150.72 1319.65 2152.92 1319.21 Q2155.11 1318.75 2157.2 1318.75 Q2162.82 1318.75 2165.6 1321.66 Q2168.38 1324.58 2168.38 1330.5 Z" fill="#000000" fill-rule="nonzero" fill-opacity="1" /><path clip-path="url(#clip040)" d="M2194.21 1332.03 Q2194.21 1327.4 2192.29 1324.86 Q2190.39 1322.31 2186.94 1322.31 Q2183.52 1322.31 2181.6 1324.86 Q2179.7 1327.4 2179.7 1332.03 Q2179.7 1336.64 2181.6 1339.19 Q2183.52 1341.73 2186.94 1341.73 Q2190.39 1341.73 2192.29 1339.19 Q2194.21 1336.64 2194.21 1332.03 M2198.47 1342.08 Q2198.47 1348.7 2195.53 1351.92 Q2192.59 1355.16 2186.53 1355.16 Q2184.28 1355.16 2182.29 1354.81 Q2180.3 1354.49 2178.42 1353.79 L2178.42 1349.65 Q2180.3 1350.67 2182.13 1351.15 Q2183.96 1351.64 2185.85 1351.64 Q2190.04 1351.64 2192.13 1349.44 Q2194.21 1347.26 2194.21 1342.84 L2194.21 1340.74 Q2192.89 1343.03 2190.83 1344.16 Q2188.77 1345.3 2185.9 1345.3 Q2181.13 1345.3 2178.22 1341.66 Q2175.3 1338.03 2175.3 1332.03 Q2175.3 1326.01 2178.22 1322.38 Q2181.13 1318.75 2185.9 1318.75 Q2188.77 1318.75 2190.83 1319.88 Q2192.89 1321.01 2194.21 1323.31 L2194.21 1319.37 L2198.47 1319.37 L2198.47 1342.08 Z" fill="#000000" fill-rule="nonzero" fill-opacity="1" /><path clip-path="url(#clip040)" d="M2229.42 1331.27 L2229.42 1333.35 L2209.84 1333.35 Q2210.11 1337.75 2212.47 1340.06 Q2214.86 1342.36 2219.1 1342.36 Q2221.55 1342.36 2223.84 1341.75 Q2226.16 1341.15 2228.42 1339.95 L2228.42 1343.98 Q2226.13 1344.95 2223.72 1345.46 Q2221.32 1345.97 2218.84 1345.97 Q2212.64 1345.97 2209 1342.36 Q2205.39 1338.75 2205.39 1332.59 Q2205.39 1326.22 2208.82 1322.5 Q2212.27 1318.75 2218.1 1318.75 Q2223.33 1318.75 2226.36 1322.13 Q2229.42 1325.48 2229.42 1331.27 M2225.16 1330.02 Q2225.11 1326.52 2223.19 1324.44 Q2221.29 1322.36 2218.15 1322.36 Q2214.58 1322.36 2212.43 1324.37 Q2210.3 1326.38 2209.97 1330.04 L2225.16 1330.02 Z" fill="#000000" fill-rule="nonzero" fill-opacity="1" /><path clip-path="url(#clip040)" d="M2257.96 1329.65 L2257.96 1345.3 L2253.7 1345.3 L2253.7 1329.79 Q2253.7 1326.11 2252.27 1324.28 Q2250.83 1322.45 2247.96 1322.45 Q2244.51 1322.45 2242.52 1324.65 Q2240.53 1326.85 2240.53 1330.64 L2240.53 1345.3 L2236.25 1345.3 L2236.25 1319.37 L2240.53 1319.37 L2240.53 1323.4 Q2242.06 1321.06 2244.12 1319.9 Q2246.2 1318.75 2248.91 1318.75 Q2253.38 1318.75 2255.67 1321.52 Q2257.96 1324.28 2257.96 1329.65 Z" fill="#000000" fill-rule="nonzero" fill-opacity="1" /></svg>
