<?xml version="1.0" encoding="utf-8"?>
<svg xmlns="http://www.w3.org/2000/svg" xmlns:xlink="http://www.w3.org/1999/xlink" width="600" height="400" viewBox="0 0 2400 1600">
<defs>
  <clipPath id="clip990">
    <rect x="0" y="0" width="2400" height="1600"/>
  </clipPath>
</defs>
<path clip-path="url(#clip990)" d="M0 1600 L2400 1600 L2400 0 L0 0  Z" fill="#ffffff" fill-rule="evenodd" fill-opacity="1"/>
<defs>
  <clipPath id="clip991">
    <rect x="480" y="0" width="1681" height="1600"/>
  </clipPath>
</defs>
<path clip-path="url(#clip990)" d="M219.866 1423.18 L2167.61 1423.18 L2167.61 123.472 L219.866 123.472  Z" fill="#ffffff" fill-rule="evenodd" fill-opacity="1"/>
<defs>
  <clipPath id="clip992">
    <rect x="219" y="123" width="1949" height="1301"/>
  </clipPath>
</defs>
<polyline clip-path="url(#clip992)" style="stroke:#000000; stroke-linecap:round; stroke-linejoin:round; stroke-width:2; stroke-opacity:0.1; fill:none" points="428.193,1423.18 428.193,123.472 "/>
<polyline clip-path="url(#clip992)" style="stroke:#000000; stroke-linecap:round; stroke-linejoin:round; stroke-width:2; stroke-opacity:0.1; fill:none" points="683.53,1423.18 683.53,123.472 "/>
<polyline clip-path="url(#clip992)" style="stroke:#000000; stroke-linecap:round; stroke-linejoin:round; stroke-width:2; stroke-opacity:0.1; fill:none" points="938.867,1423.18 938.867,123.472 "/>
<polyline clip-path="url(#clip992)" style="stroke:#000000; stroke-linecap:round; stroke-linejoin:round; stroke-width:2; stroke-opacity:0.1; fill:none" points="1194.2,1423.18 1194.2,123.472 "/>
<polyline clip-path="url(#clip992)" style="stroke:#000000; stroke-linecap:round; stroke-linejoin:round; stroke-width:2; stroke-opacity:0.1; fill:none" points="1449.54,1423.18 1449.54,123.472 "/>
<polyline clip-path="url(#clip992)" style="stroke:#000000; stroke-linecap:round; stroke-linejoin:round; stroke-width:2; stroke-opacity:0.1; fill:none" points="1704.88,1423.18 1704.88,123.472 "/>
<polyline clip-path="url(#clip992)" style="stroke:#000000; stroke-linecap:round; stroke-linejoin:round; stroke-width:2; stroke-opacity:0.1; fill:none" points="1960.22,1423.18 1960.22,123.472 "/>
<polyline clip-path="url(#clip990)" style="stroke:#000000; stroke-linecap:round; stroke-linejoin:round; stroke-width:4; stroke-opacity:1; fill:none" points="219.866,1423.18 2167.61,1423.18 "/>
<polyline clip-path="url(#clip990)" style="stroke:#000000; stroke-linecap:round; stroke-linejoin:round; stroke-width:4; stroke-opacity:1; fill:none" points="428.193,1423.18 428.193,1404.28 "/>
<polyline clip-path="url(#clip990)" style="stroke:#000000; stroke-linecap:round; stroke-linejoin:round; stroke-width:4; stroke-opacity:1; fill:none" points="683.53,1423.18 683.53,1404.28 "/>
<polyline clip-path="url(#clip990)" style="stroke:#000000; stroke-linecap:round; stroke-linejoin:round; stroke-width:4; stroke-opacity:1; fill:none" points="938.867,1423.18 938.867,1404.28 "/>
<polyline clip-path="url(#clip990)" style="stroke:#000000; stroke-linecap:round; stroke-linejoin:round; stroke-width:4; stroke-opacity:1; fill:none" points="1194.2,1423.18 1194.2,1404.28 "/>
<polyline clip-path="url(#clip990)" style="stroke:#000000; stroke-linecap:round; stroke-linejoin:round; stroke-width:4; stroke-opacity:1; fill:none" points="1449.54,1423.18 1449.54,1404.28 "/>
<polyline clip-path="url(#clip990)" style="stroke:#000000; stroke-linecap:round; stroke-linejoin:round; stroke-width:4; stroke-opacity:1; fill:none" points="1704.88,1423.18 1704.88,1404.28 "/>
<polyline clip-path="url(#clip990)" style="stroke:#000000; stroke-linecap:round; stroke-linejoin:round; stroke-width:4; stroke-opacity:1; fill:none" points="1960.22,1423.18 1960.22,1404.28 "/>
<path clip-path="url(#clip990)" d="M367.175 1468.75 L396.851 1468.75 L396.851 1472.69 L367.175 1472.69 L367.175 1468.75 Z" fill="#000000" fill-rule="nonzero" fill-opacity="1" /><path clip-path="url(#clip990)" d="M407.754 1481.64 L415.392 1481.64 L415.392 1455.28 L407.082 1456.95 L407.082 1452.69 L415.346 1451.02 L420.022 1451.02 L420.022 1481.64 L427.661 1481.64 L427.661 1485.58 L407.754 1485.58 L407.754 1481.64 Z" fill="#000000" fill-rule="nonzero" fill-opacity="1" /><path clip-path="url(#clip990)" d="M437.152 1451.02 L455.508 1451.02 L455.508 1454.96 L441.434 1454.96 L441.434 1463.43 Q442.453 1463.08 443.471 1462.92 Q444.49 1462.73 445.508 1462.73 Q451.295 1462.73 454.675 1465.9 Q458.054 1469.08 458.054 1474.49 Q458.054 1480.07 454.582 1483.17 Q451.11 1486.25 444.79 1486.25 Q442.615 1486.25 440.346 1485.88 Q438.101 1485.51 435.693 1484.77 L435.693 1480.07 Q437.777 1481.2 439.999 1481.76 Q442.221 1482.32 444.698 1482.32 Q448.702 1482.32 451.04 1480.21 Q453.378 1478.1 453.378 1474.49 Q453.378 1470.88 451.04 1468.77 Q448.702 1466.67 444.698 1466.67 Q442.823 1466.67 440.948 1467.08 Q439.096 1467.5 437.152 1468.38 L437.152 1451.02 Z" fill="#000000" fill-rule="nonzero" fill-opacity="1" /><path clip-path="url(#clip990)" d="M477.267 1454.1 Q473.656 1454.1 471.827 1457.66 Q470.022 1461.2 470.022 1468.33 Q470.022 1475.44 471.827 1479.01 Q473.656 1482.55 477.267 1482.55 Q480.901 1482.55 482.707 1479.01 Q484.536 1475.44 484.536 1468.33 Q484.536 1461.2 482.707 1457.66 Q480.901 1454.1 477.267 1454.1 M477.267 1450.39 Q483.077 1450.39 486.133 1455 Q489.212 1459.58 489.212 1468.33 Q489.212 1477.06 486.133 1481.67 Q483.077 1486.25 477.267 1486.25 Q471.457 1486.25 468.378 1481.67 Q465.323 1477.06 465.323 1468.33 Q465.323 1459.58 468.378 1455 Q471.457 1450.39 477.267 1450.39 Z" fill="#000000" fill-rule="nonzero" fill-opacity="1" /><path clip-path="url(#clip990)" d="M622.512 1468.75 L652.188 1468.75 L652.188 1472.69 L622.512 1472.69 L622.512 1468.75 Z" fill="#000000" fill-rule="nonzero" fill-opacity="1" /><path clip-path="url(#clip990)" d="M663.091 1481.64 L670.73 1481.64 L670.73 1455.28 L662.419 1456.95 L662.419 1452.69 L670.683 1451.02 L675.359 1451.02 L675.359 1481.64 L682.998 1481.64 L682.998 1485.58 L663.091 1485.58 L663.091 1481.64 Z" fill="#000000" fill-rule="nonzero" fill-opacity="1" /><path clip-path="url(#clip990)" d="M702.442 1454.1 Q698.831 1454.1 697.003 1457.66 Q695.197 1461.2 695.197 1468.33 Q695.197 1475.44 697.003 1479.01 Q698.831 1482.55 702.442 1482.55 Q706.077 1482.55 707.882 1479.01 Q709.711 1475.44 709.711 1468.33 Q709.711 1461.2 707.882 1457.66 Q706.077 1454.1 702.442 1454.1 M702.442 1450.39 Q708.252 1450.39 711.308 1455 Q714.387 1459.58 714.387 1468.33 Q714.387 1477.06 711.308 1481.67 Q708.252 1486.25 702.442 1486.25 Q696.632 1486.25 693.553 1481.67 Q690.498 1477.06 690.498 1468.33 Q690.498 1459.58 693.553 1455 Q696.632 1450.39 702.442 1450.39 Z" fill="#000000" fill-rule="nonzero" fill-opacity="1" /><path clip-path="url(#clip990)" d="M732.604 1454.1 Q728.993 1454.1 727.164 1457.66 Q725.359 1461.2 725.359 1468.33 Q725.359 1475.44 727.164 1479.01 Q728.993 1482.55 732.604 1482.55 Q736.238 1482.55 738.044 1479.01 Q739.873 1475.44 739.873 1468.33 Q739.873 1461.2 738.044 1457.66 Q736.238 1454.1 732.604 1454.1 M732.604 1450.39 Q738.414 1450.39 741.47 1455 Q744.549 1459.58 744.549 1468.33 Q744.549 1477.06 741.47 1481.67 Q738.414 1486.25 732.604 1486.25 Q726.794 1486.25 723.715 1481.67 Q720.66 1477.06 720.66 1468.33 Q720.66 1459.58 723.715 1455 Q726.794 1450.39 732.604 1450.39 Z" fill="#000000" fill-rule="nonzero" fill-opacity="1" /><path clip-path="url(#clip990)" d="M892.93 1468.75 L922.606 1468.75 L922.606 1472.69 L892.93 1472.69 L892.93 1468.75 Z" fill="#000000" fill-rule="nonzero" fill-opacity="1" /><path clip-path="url(#clip990)" d="M932.745 1451.02 L951.101 1451.02 L951.101 1454.96 L937.027 1454.96 L937.027 1463.43 Q938.046 1463.08 939.064 1462.92 Q940.083 1462.73 941.101 1462.73 Q946.888 1462.73 950.268 1465.9 Q953.647 1469.08 953.647 1474.49 Q953.647 1480.07 950.175 1483.17 Q946.703 1486.25 940.384 1486.25 Q938.208 1486.25 935.939 1485.88 Q933.694 1485.51 931.286 1484.77 L931.286 1480.07 Q933.37 1481.2 935.592 1481.76 Q937.814 1482.32 940.291 1482.32 Q944.296 1482.32 946.634 1480.21 Q948.972 1478.1 948.972 1474.49 Q948.972 1470.88 946.634 1468.77 Q944.296 1466.67 940.291 1466.67 Q938.416 1466.67 936.541 1467.08 Q934.689 1467.5 932.745 1468.38 L932.745 1451.02 Z" fill="#000000" fill-rule="nonzero" fill-opacity="1" /><path clip-path="url(#clip990)" d="M972.86 1454.1 Q969.249 1454.1 967.421 1457.66 Q965.615 1461.2 965.615 1468.33 Q965.615 1475.44 967.421 1479.01 Q969.249 1482.55 972.86 1482.55 Q976.495 1482.55 978.3 1479.01 Q980.129 1475.44 980.129 1468.33 Q980.129 1461.2 978.3 1457.66 Q976.495 1454.1 972.86 1454.1 M972.86 1450.39 Q978.67 1450.39 981.726 1455 Q984.805 1459.58 984.805 1468.33 Q984.805 1477.06 981.726 1481.67 Q978.67 1486.25 972.86 1486.25 Q967.05 1486.25 963.971 1481.67 Q960.916 1477.06 960.916 1468.33 Q960.916 1459.58 963.971 1455 Q967.05 1450.39 972.86 1450.39 Z" fill="#000000" fill-rule="nonzero" fill-opacity="1" /><path clip-path="url(#clip990)" d="M1194.2 1454.1 Q1190.59 1454.1 1188.76 1457.66 Q1186.96 1461.2 1186.96 1468.33 Q1186.96 1475.44 1188.76 1479.01 Q1190.59 1482.55 1194.2 1482.55 Q1197.84 1482.55 1199.64 1479.01 Q1201.47 1475.44 1201.47 1468.33 Q1201.47 1461.2 1199.64 1457.66 Q1197.84 1454.1 1194.2 1454.1 M1194.2 1450.39 Q1200.01 1450.39 1203.07 1455 Q1206.15 1459.58 1206.15 1468.33 Q1206.15 1477.06 1203.07 1481.67 Q1200.01 1486.25 1194.2 1486.25 Q1188.39 1486.25 1185.32 1481.67 Q1182.26 1477.06 1182.26 1468.33 Q1182.26 1459.58 1185.32 1455 Q1188.39 1450.39 1194.2 1450.39 Z" fill="#000000" fill-rule="nonzero" fill-opacity="1" /><path clip-path="url(#clip990)" d="M1424.24 1451.02 L1442.6 1451.02 L1442.6 1454.96 L1428.52 1454.96 L1428.52 1463.43 Q1429.54 1463.08 1430.56 1462.92 Q1431.58 1462.73 1432.6 1462.73 Q1438.38 1462.73 1441.76 1465.9 Q1445.14 1469.08 1445.14 1474.49 Q1445.14 1480.07 1441.67 1483.17 Q1438.2 1486.25 1431.88 1486.25 Q1429.7 1486.25 1427.44 1485.88 Q1425.19 1485.51 1422.78 1484.77 L1422.78 1480.07 Q1424.87 1481.2 1427.09 1481.76 Q1429.31 1482.32 1431.79 1482.32 Q1435.79 1482.32 1438.13 1480.21 Q1440.47 1478.1 1440.47 1474.49 Q1440.47 1470.88 1438.13 1468.77 Q1435.79 1466.67 1431.79 1466.67 Q1429.91 1466.67 1428.04 1467.08 Q1426.19 1467.5 1424.24 1468.38 L1424.24 1451.02 Z" fill="#000000" fill-rule="nonzero" fill-opacity="1" /><path clip-path="url(#clip990)" d="M1464.36 1454.1 Q1460.75 1454.1 1458.92 1457.66 Q1457.11 1461.2 1457.11 1468.33 Q1457.11 1475.44 1458.92 1479.01 Q1460.75 1482.55 1464.36 1482.55 Q1467.99 1482.55 1469.8 1479.01 Q1471.62 1475.44 1471.62 1468.33 Q1471.62 1461.2 1469.8 1457.66 Q1467.99 1454.1 1464.36 1454.1 M1464.36 1450.39 Q1470.17 1450.39 1473.22 1455 Q1476.3 1459.58 1476.3 1468.33 Q1476.3 1477.06 1473.22 1481.67 Q1470.17 1486.25 1464.36 1486.25 Q1458.55 1486.25 1455.47 1481.67 Q1452.41 1477.06 1452.41 1468.33 Q1452.41 1459.58 1455.47 1455 Q1458.55 1450.39 1464.36 1450.39 Z" fill="#000000" fill-rule="nonzero" fill-opacity="1" /><path clip-path="url(#clip990)" d="M1664.49 1481.64 L1672.12 1481.64 L1672.12 1455.28 L1663.81 1456.95 L1663.81 1452.69 L1672.08 1451.02 L1676.75 1451.02 L1676.75 1481.64 L1684.39 1481.64 L1684.39 1485.58 L1664.49 1485.58 L1664.49 1481.64 Z" fill="#000000" fill-rule="nonzero" fill-opacity="1" /><path clip-path="url(#clip990)" d="M1703.84 1454.1 Q1700.23 1454.1 1698.4 1457.66 Q1696.59 1461.2 1696.59 1468.33 Q1696.59 1475.44 1698.4 1479.01 Q1700.23 1482.55 1703.84 1482.55 Q1707.47 1482.55 1709.28 1479.01 Q1711.11 1475.44 1711.11 1468.33 Q1711.11 1461.2 1709.28 1457.66 Q1707.47 1454.1 1703.84 1454.1 M1703.84 1450.39 Q1709.65 1450.39 1712.7 1455 Q1715.78 1459.58 1715.78 1468.33 Q1715.78 1477.06 1712.7 1481.67 Q1709.65 1486.25 1703.84 1486.25 Q1698.03 1486.25 1694.95 1481.67 Q1691.89 1477.06 1691.89 1468.33 Q1691.89 1459.58 1694.95 1455 Q1698.03 1450.39 1703.84 1450.39 Z" fill="#000000" fill-rule="nonzero" fill-opacity="1" /><path clip-path="url(#clip990)" d="M1734 1454.1 Q1730.39 1454.1 1728.56 1457.66 Q1726.75 1461.2 1726.75 1468.33 Q1726.75 1475.44 1728.56 1479.01 Q1730.39 1482.55 1734 1482.55 Q1737.63 1482.55 1739.44 1479.01 Q1741.27 1475.44 1741.27 1468.33 Q1741.27 1461.2 1739.44 1457.66 Q1737.63 1454.1 1734 1454.1 M1734 1450.39 Q1739.81 1450.39 1742.86 1455 Q1745.94 1459.58 1745.94 1468.33 Q1745.94 1477.06 1742.86 1481.67 Q1739.81 1486.25 1734 1486.25 Q1728.19 1486.25 1725.11 1481.67 Q1722.05 1477.06 1722.05 1468.33 Q1722.05 1459.58 1725.11 1455 Q1728.19 1450.39 1734 1450.39 Z" fill="#000000" fill-rule="nonzero" fill-opacity="1" /><path clip-path="url(#clip990)" d="M1919.82 1481.64 L1927.46 1481.64 L1927.46 1455.28 L1919.15 1456.95 L1919.15 1452.69 L1927.41 1451.02 L1932.09 1451.02 L1932.09 1481.64 L1939.73 1481.64 L1939.73 1485.58 L1919.82 1485.58 L1919.82 1481.64 Z" fill="#000000" fill-rule="nonzero" fill-opacity="1" /><path clip-path="url(#clip990)" d="M1949.22 1451.02 L1967.58 1451.02 L1967.58 1454.96 L1953.5 1454.96 L1953.5 1463.43 Q1954.52 1463.08 1955.54 1462.92 Q1956.56 1462.73 1957.58 1462.73 Q1963.36 1462.73 1966.74 1465.9 Q1970.12 1469.08 1970.12 1474.49 Q1970.12 1480.07 1966.65 1483.17 Q1963.18 1486.25 1956.86 1486.25 Q1954.68 1486.25 1952.41 1485.88 Q1950.17 1485.51 1947.76 1484.77 L1947.76 1480.07 Q1949.85 1481.2 1952.07 1481.76 Q1954.29 1482.32 1956.77 1482.32 Q1960.77 1482.32 1963.11 1480.21 Q1965.45 1478.1 1965.45 1474.49 Q1965.45 1470.88 1963.11 1468.77 Q1960.77 1466.67 1956.77 1466.67 Q1954.89 1466.67 1953.02 1467.08 Q1951.16 1467.5 1949.22 1468.38 L1949.22 1451.02 Z" fill="#000000" fill-rule="nonzero" fill-opacity="1" /><path clip-path="url(#clip990)" d="M1989.34 1454.1 Q1985.72 1454.1 1983.9 1457.66 Q1982.09 1461.2 1982.09 1468.33 Q1982.09 1475.44 1983.9 1479.01 Q1985.72 1482.55 1989.34 1482.55 Q1992.97 1482.55 1994.78 1479.01 Q1996.6 1475.44 1996.6 1468.33 Q1996.6 1461.2 1994.78 1457.66 Q1992.97 1454.1 1989.34 1454.1 M1989.34 1450.39 Q1995.15 1450.39 1998.2 1455 Q2001.28 1459.58 2001.28 1468.33 Q2001.28 1477.06 1998.2 1481.67 Q1995.15 1486.25 1989.34 1486.25 Q1983.53 1486.25 1980.45 1481.67 Q1977.39 1477.06 1977.39 1468.33 Q1977.39 1459.58 1980.45 1455 Q1983.53 1450.39 1989.34 1450.39 Z" fill="#000000" fill-rule="nonzero" fill-opacity="1" /><path clip-path="url(#clip990)" d="M1032.85 1526.86 L1024.12 1550.51 L1041.6 1550.51 L1032.85 1526.86 M1029.22 1520.52 L1036.51 1520.52 L1054.62 1568.04 L1047.93 1568.04 L1043.6 1555.85 L1022.18 1555.85 L1017.85 1568.04 L1011.07 1568.04 L1029.22 1520.52 Z" fill="#000000" fill-rule="nonzero" fill-opacity="1" /><path clip-path="url(#clip990)" d="M1090.93 1546.53 L1090.93 1568.04 L1085.08 1568.04 L1085.08 1546.72 Q1085.08 1541.66 1083.1 1539.14 Q1081.13 1536.63 1077.18 1536.63 Q1072.44 1536.63 1069.7 1539.65 Q1066.97 1542.68 1066.97 1547.9 L1066.97 1568.04 L1061.08 1568.04 L1061.08 1532.4 L1066.97 1532.4 L1066.97 1537.93 Q1069.07 1534.72 1071.9 1533.13 Q1074.76 1531.54 1078.49 1531.54 Q1084.63 1531.54 1087.78 1535.36 Q1090.93 1539.14 1090.93 1546.53 Z" fill="#000000" fill-rule="nonzero" fill-opacity="1" /><path clip-path="url(#clip990)" d="M1126.07 1549.81 Q1126.07 1543.44 1123.43 1539.94 Q1120.82 1536.44 1116.08 1536.44 Q1111.37 1536.44 1108.72 1539.94 Q1106.11 1543.44 1106.11 1549.81 Q1106.11 1556.14 1108.72 1559.64 Q1111.37 1563.14 1116.08 1563.14 Q1120.82 1563.14 1123.43 1559.64 Q1126.07 1556.14 1126.07 1549.81 M1131.93 1563.62 Q1131.93 1572.72 1127.89 1577.15 Q1123.84 1581.6 1115.5 1581.6 Q1112.42 1581.6 1109.68 1581.13 Q1106.94 1580.68 1104.36 1579.72 L1104.36 1574.03 Q1106.94 1575.43 1109.46 1576.1 Q1111.97 1576.76 1114.58 1576.76 Q1120.34 1576.76 1123.21 1573.74 Q1126.07 1570.75 1126.07 1564.67 L1126.07 1561.77 Q1124.26 1564.92 1121.42 1566.48 Q1118.59 1568.04 1114.64 1568.04 Q1108.09 1568.04 1104.08 1563.05 Q1100.07 1558.05 1100.07 1549.81 Q1100.07 1541.53 1104.08 1536.53 Q1108.09 1531.54 1114.64 1531.54 Q1118.59 1531.54 1121.42 1533.1 Q1124.26 1534.66 1126.07 1537.81 L1126.07 1532.4 L1131.93 1532.4 L1131.93 1563.62 Z" fill="#000000" fill-rule="nonzero" fill-opacity="1" /><path clip-path="url(#clip990)" d="M1143.99 1518.52 L1149.85 1518.52 L1149.85 1568.04 L1143.99 1568.04 L1143.99 1518.52 Z" fill="#000000" fill-rule="nonzero" fill-opacity="1" /><path clip-path="url(#clip990)" d="M1192.59 1548.76 L1192.59 1551.62 L1165.67 1551.62 Q1166.05 1557.67 1169.29 1560.85 Q1172.57 1564 1178.4 1564 Q1181.77 1564 1184.92 1563.17 Q1188.1 1562.35 1191.22 1560.69 L1191.22 1566.23 Q1188.07 1567.57 1184.76 1568.27 Q1181.45 1568.97 1178.05 1568.97 Q1169.52 1568.97 1164.52 1564 Q1159.55 1559.04 1159.55 1550.57 Q1159.55 1541.82 1164.27 1536.69 Q1169.01 1531.54 1177.03 1531.54 Q1184.22 1531.54 1188.39 1536.18 Q1192.59 1540.8 1192.59 1548.76 M1186.74 1547.04 Q1186.67 1542.23 1184.03 1539.37 Q1181.42 1536.5 1177.09 1536.5 Q1172.19 1536.5 1169.23 1539.27 Q1166.3 1542.04 1165.86 1547.07 L1186.74 1547.04 Z" fill="#000000" fill-rule="nonzero" fill-opacity="1" /><path clip-path="url(#clip990)" d="M1233.33 1520.52 L1238.74 1520.52 L1222.19 1574.09 L1216.78 1574.09 L1233.33 1520.52 Z" fill="#000000" fill-rule="nonzero" fill-opacity="1" /><path clip-path="url(#clip990)" d="M1289.06 1537.81 L1289.06 1518.52 L1294.92 1518.52 L1294.92 1568.04 L1289.06 1568.04 L1289.06 1562.7 Q1287.22 1565.88 1284.39 1567.44 Q1281.59 1568.97 1277.64 1568.97 Q1271.18 1568.97 1267.1 1563.81 Q1263.06 1558.65 1263.06 1550.25 Q1263.06 1541.85 1267.1 1536.69 Q1271.18 1531.54 1277.64 1531.54 Q1281.59 1531.54 1284.39 1533.1 Q1287.22 1534.62 1289.06 1537.81 M1269.11 1550.25 Q1269.11 1556.71 1271.75 1560.4 Q1274.42 1564.07 1279.07 1564.07 Q1283.72 1564.07 1286.39 1560.4 Q1289.06 1556.71 1289.06 1550.25 Q1289.06 1543.79 1286.39 1540.13 Q1283.72 1536.44 1279.07 1536.44 Q1274.42 1536.44 1271.75 1540.13 Q1269.11 1543.79 1269.11 1550.25 Z" fill="#000000" fill-rule="nonzero" fill-opacity="1" /><path clip-path="url(#clip990)" d="M1337.48 1548.76 L1337.48 1551.62 L1310.55 1551.62 Q1310.93 1557.67 1314.18 1560.85 Q1317.46 1564 1323.28 1564 Q1326.65 1564 1329.81 1563.17 Q1332.99 1562.35 1336.11 1560.69 L1336.11 1566.23 Q1332.96 1567.57 1329.65 1568.27 Q1326.34 1568.97 1322.93 1568.97 Q1314.4 1568.97 1309.4 1564 Q1304.44 1559.04 1304.44 1550.57 Q1304.44 1541.82 1309.15 1536.69 Q1313.89 1531.54 1321.91 1531.54 Q1329.11 1531.54 1333.27 1536.18 Q1337.48 1540.8 1337.48 1548.76 M1331.62 1547.04 Q1331.56 1542.23 1328.91 1539.37 Q1326.3 1536.5 1321.98 1536.5 Q1317.07 1536.5 1314.11 1539.27 Q1311.19 1542.04 1310.74 1547.07 L1331.62 1547.04 Z" fill="#000000" fill-rule="nonzero" fill-opacity="1" /><path clip-path="url(#clip990)" d="M1370.55 1549.81 Q1370.55 1543.44 1367.9 1539.94 Q1365.29 1536.44 1360.55 1536.44 Q1355.84 1536.44 1353.2 1539.94 Q1350.59 1543.44 1350.59 1549.81 Q1350.59 1556.14 1353.2 1559.64 Q1355.84 1563.14 1360.55 1563.14 Q1365.29 1563.14 1367.9 1559.64 Q1370.55 1556.14 1370.55 1549.81 M1376.4 1563.62 Q1376.4 1572.72 1372.36 1577.15 Q1368.32 1581.6 1359.98 1581.6 Q1356.89 1581.6 1354.15 1581.13 Q1351.42 1580.68 1348.84 1579.72 L1348.84 1574.03 Q1351.42 1575.43 1353.93 1576.1 Q1356.45 1576.76 1359.06 1576.76 Q1364.82 1576.76 1367.68 1573.74 Q1370.55 1570.75 1370.55 1564.67 L1370.55 1561.77 Q1368.73 1564.92 1365.9 1566.48 Q1363.07 1568.04 1359.12 1568.04 Q1352.56 1568.04 1348.55 1563.05 Q1344.54 1558.05 1344.54 1549.81 Q1344.54 1541.53 1348.55 1536.53 Q1352.56 1531.54 1359.12 1531.54 Q1363.07 1531.54 1365.9 1533.1 Q1368.73 1534.66 1370.55 1537.81 L1370.55 1532.4 L1376.4 1532.4 L1376.4 1563.62 Z" fill="#000000" fill-rule="nonzero" fill-opacity="1" /><polyline clip-path="url(#clip990)" style="stroke:#000000; stroke-linecap:round; stroke-linejoin:round; stroke-width:4; stroke-opacity:1; fill:none" points="219.866,1423.18 219.866,123.472 "/>
<polyline clip-path="url(#clip990)" style="stroke:#000000; stroke-linecap:round; stroke-linejoin:round; stroke-width:4; stroke-opacity:1; fill:none" points="219.866,1423.18 238.764,1423.18 "/>
<polyline clip-path="url(#clip990)" style="stroke:#000000; stroke-linecap:round; stroke-linejoin:round; stroke-width:4; stroke-opacity:1; fill:none" points="219.866,1098.25 238.764,1098.25 "/>
<polyline clip-path="url(#clip990)" style="stroke:#000000; stroke-linecap:round; stroke-linejoin:round; stroke-width:4; stroke-opacity:1; fill:none" points="219.866,773.326 238.764,773.326 "/>
<polyline clip-path="url(#clip990)" style="stroke:#000000; stroke-linecap:round; stroke-linejoin:round; stroke-width:4; stroke-opacity:1; fill:none" points="219.866,448.399 238.764,448.399 "/>
<polyline clip-path="url(#clip990)" style="stroke:#000000; stroke-linecap:round; stroke-linejoin:round; stroke-width:4; stroke-opacity:1; fill:none" points="219.866,123.472 238.764,123.472 "/>
<path clip-path="url(#clip990)" d="M126.691 1408.98 Q123.08 1408.98 121.251 1412.54 Q119.445 1416.08 119.445 1423.21 Q119.445 1430.32 121.251 1433.89 Q123.08 1437.43 126.691 1437.43 Q130.325 1437.43 132.13 1433.89 Q133.959 1430.32 133.959 1423.21 Q133.959 1416.08 132.13 1412.54 Q130.325 1408.98 126.691 1408.98 M126.691 1405.27 Q132.501 1405.27 135.556 1409.88 Q138.635 1414.46 138.635 1423.21 Q138.635 1431.94 135.556 1436.55 Q132.501 1441.13 126.691 1441.13 Q120.88 1441.13 117.802 1436.55 Q114.746 1431.94 114.746 1423.21 Q114.746 1414.46 117.802 1409.88 Q120.88 1405.27 126.691 1405.27 Z" fill="#000000" fill-rule="nonzero" fill-opacity="1" /><path clip-path="url(#clip990)" d="M146.853 1434.58 L151.737 1434.58 L151.737 1440.46 L146.853 1440.46 L146.853 1434.58 Z" fill="#000000" fill-rule="nonzero" fill-opacity="1" /><path clip-path="url(#clip990)" d="M171.922 1408.98 Q168.311 1408.98 166.482 1412.54 Q164.677 1416.08 164.677 1423.21 Q164.677 1430.32 166.482 1433.89 Q168.311 1437.43 171.922 1437.43 Q175.556 1437.43 177.362 1433.89 Q179.19 1430.32 179.19 1423.21 Q179.19 1416.08 177.362 1412.54 Q175.556 1408.98 171.922 1408.98 M171.922 1405.27 Q177.732 1405.27 180.788 1409.88 Q183.866 1414.46 183.866 1423.21 Q183.866 1431.94 180.788 1436.55 Q177.732 1441.13 171.922 1441.13 Q166.112 1441.13 163.033 1436.55 Q159.978 1431.94 159.978 1423.21 Q159.978 1414.46 163.033 1409.88 Q166.112 1405.27 171.922 1405.27 Z" fill="#000000" fill-rule="nonzero" fill-opacity="1" /><path clip-path="url(#clip990)" d="M127.917 1084.05 Q124.306 1084.05 122.478 1087.62 Q120.672 1091.16 120.672 1098.29 Q120.672 1105.39 122.478 1108.96 Q124.306 1112.5 127.917 1112.5 Q131.552 1112.5 133.357 1108.96 Q135.186 1105.39 135.186 1098.29 Q135.186 1091.16 133.357 1087.62 Q131.552 1084.05 127.917 1084.05 M127.917 1080.35 Q133.728 1080.35 136.783 1084.95 Q139.862 1089.54 139.862 1098.29 Q139.862 1107.01 136.783 1111.62 Q133.728 1116.2 127.917 1116.2 Q122.107 1116.2 119.029 1111.62 Q115.973 1107.01 115.973 1098.29 Q115.973 1089.54 119.029 1084.95 Q122.107 1080.35 127.917 1080.35 Z" fill="#000000" fill-rule="nonzero" fill-opacity="1" /><path clip-path="url(#clip990)" d="M148.079 1109.65 L152.964 1109.65 L152.964 1115.53 L148.079 1115.53 L148.079 1109.65 Z" fill="#000000" fill-rule="nonzero" fill-opacity="1" /><path clip-path="url(#clip990)" d="M163.959 1111.6 L171.598 1111.6 L171.598 1085.23 L163.288 1086.9 L163.288 1082.64 L171.552 1080.97 L176.227 1080.97 L176.227 1111.6 L183.866 1111.6 L183.866 1115.53 L163.959 1115.53 L163.959 1111.6 Z" fill="#000000" fill-rule="nonzero" fill-opacity="1" /><path clip-path="url(#clip990)" d="M128.288 759.125 Q124.677 759.125 122.848 762.689 Q121.043 766.231 121.043 773.361 Q121.043 780.467 122.848 784.032 Q124.677 787.574 128.288 787.574 Q131.922 787.574 133.728 784.032 Q135.556 780.467 135.556 773.361 Q135.556 766.231 133.728 762.689 Q131.922 759.125 128.288 759.125 M128.288 755.421 Q134.098 755.421 137.154 760.027 Q140.232 764.611 140.232 773.361 Q140.232 782.088 137.154 786.694 Q134.098 791.277 128.288 791.277 Q122.478 791.277 119.399 786.694 Q116.343 782.088 116.343 773.361 Q116.343 764.611 119.399 760.027 Q122.478 755.421 128.288 755.421 Z" fill="#000000" fill-rule="nonzero" fill-opacity="1" /><path clip-path="url(#clip990)" d="M148.45 784.726 L153.334 784.726 L153.334 790.606 L148.45 790.606 L148.45 784.726 Z" fill="#000000" fill-rule="nonzero" fill-opacity="1" /><path clip-path="url(#clip990)" d="M167.547 786.671 L183.866 786.671 L183.866 790.606 L161.922 790.606 L161.922 786.671 Q164.584 783.916 169.167 779.287 Q173.774 774.634 174.954 773.291 Q177.2 770.768 178.079 769.032 Q178.982 767.273 178.982 765.583 Q178.982 762.828 177.038 761.092 Q175.116 759.356 172.014 759.356 Q169.815 759.356 167.362 760.12 Q164.931 760.884 162.153 762.435 L162.153 757.713 Q164.977 756.578 167.431 756 Q169.885 755.421 171.922 755.421 Q177.292 755.421 180.487 758.106 Q183.681 760.791 183.681 765.282 Q183.681 767.412 182.871 769.333 Q182.084 771.231 179.977 773.824 Q179.399 774.495 176.297 777.713 Q173.195 780.907 167.547 786.671 Z" fill="#000000" fill-rule="nonzero" fill-opacity="1" /><path clip-path="url(#clip990)" d="M127.339 434.198 Q123.728 434.198 121.899 437.763 Q120.093 441.304 120.093 448.434 Q120.093 455.54 121.899 459.105 Q123.728 462.647 127.339 462.647 Q130.973 462.647 132.779 459.105 Q134.607 455.54 134.607 448.434 Q134.607 441.304 132.779 437.763 Q130.973 434.198 127.339 434.198 M127.339 430.494 Q133.149 430.494 136.204 435.101 Q139.283 439.684 139.283 448.434 Q139.283 457.161 136.204 461.767 Q133.149 466.35 127.339 466.35 Q121.529 466.35 118.45 461.767 Q115.394 457.161 115.394 448.434 Q115.394 439.684 118.45 435.101 Q121.529 430.494 127.339 430.494 Z" fill="#000000" fill-rule="nonzero" fill-opacity="1" /><path clip-path="url(#clip990)" d="M147.501 459.799 L152.385 459.799 L152.385 465.679 L147.501 465.679 L147.501 459.799 Z" fill="#000000" fill-rule="nonzero" fill-opacity="1" /><path clip-path="url(#clip990)" d="M176.737 447.045 Q180.093 447.762 181.968 450.031 Q183.866 452.299 183.866 455.633 Q183.866 460.749 180.348 463.549 Q176.829 466.35 170.348 466.35 Q168.172 466.35 165.857 465.911 Q163.565 465.494 161.112 464.637 L161.112 460.124 Q163.056 461.258 165.371 461.836 Q167.686 462.415 170.209 462.415 Q174.607 462.415 176.899 460.679 Q179.214 458.943 179.214 455.633 Q179.214 452.577 177.061 450.864 Q174.931 449.128 171.112 449.128 L167.084 449.128 L167.084 445.286 L171.297 445.286 Q174.746 445.286 176.575 443.92 Q178.403 442.531 178.403 439.938 Q178.403 437.276 176.505 435.864 Q174.63 434.429 171.112 434.429 Q169.19 434.429 166.991 434.846 Q164.792 435.263 162.153 436.142 L162.153 431.976 Q164.815 431.235 167.13 430.864 Q169.468 430.494 171.528 430.494 Q176.852 430.494 179.954 432.925 Q183.056 435.332 183.056 439.452 Q183.056 442.323 181.413 444.313 Q179.769 446.281 176.737 447.045 Z" fill="#000000" fill-rule="nonzero" fill-opacity="1" /><path clip-path="url(#clip990)" d="M126.205 109.271 Q122.593 109.271 120.765 112.836 Q118.959 116.377 118.959 123.507 Q118.959 130.613 120.765 134.178 Q122.593 137.72 126.205 137.72 Q129.839 137.72 131.644 134.178 Q133.473 130.613 133.473 123.507 Q133.473 116.377 131.644 112.836 Q129.839 109.271 126.205 109.271 M126.205 105.567 Q132.015 105.567 135.07 110.174 Q138.149 114.757 138.149 123.507 Q138.149 132.234 135.07 136.84 Q132.015 141.423 126.205 141.423 Q120.394 141.423 117.316 136.84 Q114.26 132.234 114.26 123.507 Q114.26 114.757 117.316 110.174 Q120.394 105.567 126.205 105.567 Z" fill="#000000" fill-rule="nonzero" fill-opacity="1" /><path clip-path="url(#clip990)" d="M146.366 134.873 L151.251 134.873 L151.251 140.752 L146.366 140.752 L146.366 134.873 Z" fill="#000000" fill-rule="nonzero" fill-opacity="1" /><path clip-path="url(#clip990)" d="M174.283 110.266 L162.477 128.715 L174.283 128.715 L174.283 110.266 M173.056 106.192 L178.936 106.192 L178.936 128.715 L183.866 128.715 L183.866 132.604 L178.936 132.604 L178.936 140.752 L174.283 140.752 L174.283 132.604 L158.681 132.604 L158.681 128.09 L173.056 106.192 Z" fill="#000000" fill-rule="nonzero" fill-opacity="1" /><path clip-path="url(#clip990)" d="M16.4842 911.016 L16.4842 904.587 L64.0042 904.587 L64.0042 911.016 L16.4842 911.016 Z" fill="#000000" fill-rule="nonzero" fill-opacity="1" /><path clip-path="url(#clip990)" d="M42.4881 862.414 L64.0042 862.414 L64.0042 868.27 L42.679 868.27 Q37.6183 868.27 35.1038 870.244 Q32.5894 872.217 32.5894 876.164 Q32.5894 880.906 35.6131 883.644 Q38.6368 886.381 43.8567 886.381 L64.0042 886.381 L64.0042 892.269 L28.3562 892.269 L28.3562 886.381 L33.8944 886.381 Q30.6797 884.28 29.0883 881.448 Q27.4968 878.583 27.4968 874.859 Q27.4968 868.716 31.3163 865.565 Q35.1038 862.414 42.4881 862.414 Z" fill="#000000" fill-rule="nonzero" fill-opacity="1" /><path clip-path="url(#clip990)" d="M18.2347 844.94 L28.3562 844.94 L28.3562 832.877 L32.9077 832.877 L32.9077 844.94 L52.2594 844.94 Q56.6199 844.94 57.8613 843.763 Q59.1026 842.553 59.1026 838.893 L59.1026 832.877 L64.0042 832.877 L64.0042 838.893 Q64.0042 845.672 61.4897 848.25 Q58.9434 850.828 52.2594 850.828 L32.9077 850.828 L32.9077 855.125 L28.3562 855.125 L28.3562 850.828 L18.2347 850.828 L18.2347 844.94 Z" fill="#000000" fill-rule="nonzero" fill-opacity="1" /><path clip-path="url(#clip990)" d="M44.7161 794.683 L47.5806 794.683 L47.5806 821.61 Q53.6281 821.228 56.8109 817.981 Q59.9619 814.703 59.9619 808.878 Q59.9619 805.505 59.1344 802.354 Q58.3069 799.171 56.6518 796.052 L62.1899 796.052 Q63.5267 799.203 64.227 802.513 Q64.9272 805.823 64.9272 809.229 Q64.9272 817.759 59.9619 822.756 Q54.9967 827.721 46.5303 827.721 Q37.7774 827.721 32.6531 823.01 Q27.4968 818.268 27.4968 810.247 Q27.4968 803.054 32.1438 798.884 Q36.7589 794.683 44.7161 794.683 M42.9973 800.539 Q38.1912 800.603 35.3266 803.245 Q32.4621 805.855 32.4621 810.183 Q32.4621 815.085 35.2312 818.045 Q38.0002 820.973 43.0292 821.419 L42.9973 800.539 Z" fill="#000000" fill-rule="nonzero" fill-opacity="1" /><path clip-path="url(#clip990)" d="M42.4881 755.438 L64.0042 755.438 L64.0042 761.295 L42.679 761.295 Q37.6183 761.295 35.1038 763.268 Q32.5894 765.242 32.5894 769.188 Q32.5894 773.931 35.6131 776.668 Q38.6368 779.405 43.8567 779.405 L64.0042 779.405 L64.0042 785.294 L28.3562 785.294 L28.3562 779.405 L33.8944 779.405 Q30.6797 777.305 29.0883 774.472 Q27.4968 771.607 27.4968 767.883 Q27.4968 761.74 31.3163 758.589 Q35.1038 755.438 42.4881 755.438 Z" fill="#000000" fill-rule="nonzero" fill-opacity="1" /><path clip-path="url(#clip990)" d="M29.4065 721.032 L34.9447 721.032 Q33.6716 723.514 33.035 726.188 Q32.3984 728.862 32.3984 731.726 Q32.3984 736.087 33.7352 738.283 Q35.072 740.447 37.7456 740.447 Q39.7826 740.447 40.9603 738.888 Q42.1061 737.328 43.1565 732.617 L43.6021 730.612 Q44.9389 724.374 47.3897 721.764 Q49.8086 719.122 54.1691 719.122 Q59.1344 719.122 62.0308 723.069 Q64.9272 726.984 64.9272 733.859 Q64.9272 736.723 64.3543 739.842 Q63.8132 742.93 62.6992 746.367 L56.6518 746.367 Q58.3387 743.121 59.198 739.97 Q60.0256 736.819 60.0256 733.731 Q60.0256 729.594 58.6251 727.366 Q57.1929 725.138 54.6147 725.138 Q52.2276 725.138 50.9545 726.761 Q49.6813 728.352 48.5037 733.795 L48.0262 735.832 Q46.8804 741.275 44.5251 743.694 Q42.138 746.113 38.0002 746.113 Q32.9713 746.113 30.2341 742.548 Q27.4968 738.983 27.4968 732.426 Q27.4968 729.18 27.9743 726.315 Q28.4517 723.451 29.4065 721.032 Z" fill="#000000" fill-rule="nonzero" fill-opacity="1" /><path clip-path="url(#clip990)" d="M28.3562 709.796 L28.3562 703.94 L64.0042 703.94 L64.0042 709.796 L28.3562 709.796 M14.479 709.796 L14.479 703.94 L21.895 703.94 L21.895 709.796 L14.479 709.796 Z" fill="#000000" fill-rule="nonzero" fill-opacity="1" /><path clip-path="url(#clip990)" d="M18.2347 685.893 L28.3562 685.893 L28.3562 673.83 L32.9077 673.83 L32.9077 685.893 L52.2594 685.893 Q56.6199 685.893 57.8613 684.715 Q59.1026 683.506 59.1026 679.846 L59.1026 673.83 L64.0042 673.83 L64.0042 679.846 Q64.0042 686.625 61.4897 689.203 Q58.9434 691.781 52.2594 691.781 L32.9077 691.781 L32.9077 696.078 L28.3562 696.078 L28.3562 691.781 L18.2347 691.781 L18.2347 685.893 Z" fill="#000000" fill-rule="nonzero" fill-opacity="1" /><path clip-path="url(#clip990)" d="M67.3143 651.295 Q73.68 653.778 75.6216 656.133 Q77.5631 658.489 77.5631 662.435 L77.5631 667.114 L72.6615 667.114 L72.6615 663.677 Q72.6615 661.258 71.5157 659.921 Q70.3699 658.584 66.1048 656.961 L63.4312 655.911 L28.3562 670.329 L28.3562 664.122 L56.238 652.982 L28.3562 641.842 L28.3562 635.636 L67.3143 651.295 Z" fill="#000000" fill-rule="nonzero" fill-opacity="1" /><path clip-path="url(#clip990)" d="M686.869 16.7545 L686.869 25.383 Q682.737 21.5346 678.038 19.6307 Q673.38 17.7268 668.113 17.7268 Q657.743 17.7268 652.234 24.0867 Q646.725 30.4061 646.725 42.3968 Q646.725 54.3469 652.234 60.7069 Q657.743 67.0263 668.113 67.0263 Q673.38 67.0263 678.038 65.1223 Q682.737 63.2184 686.869 59.3701 L686.869 67.9175 Q682.575 70.8341 677.755 72.2924 Q672.974 73.7508 667.627 73.7508 Q653.895 73.7508 645.995 65.3654 Q638.096 56.9395 638.096 42.3968 Q638.096 27.8135 645.995 19.4281 Q653.895 11.0023 667.627 11.0023 Q673.055 11.0023 677.836 12.4606 Q682.656 13.8784 686.869 16.7545 Z" fill="#000000" fill-rule="nonzero" fill-opacity="1" /><path clip-path="url(#clip990)" d="M716.765 32.4315 Q710.769 32.4315 707.286 37.1306 Q703.802 41.7891 703.802 49.9314 Q703.802 58.0738 707.245 62.7728 Q710.729 67.4314 716.765 67.4314 Q722.72 67.4314 726.203 62.7323 Q729.687 58.0333 729.687 49.9314 Q729.687 41.8701 726.203 37.1711 Q722.72 32.4315 716.765 32.4315 M716.765 26.1121 Q726.487 26.1121 732.037 32.4315 Q737.586 38.7509 737.586 49.9314 Q737.586 61.0714 732.037 67.4314 Q726.487 73.7508 716.765 73.7508 Q707.002 73.7508 701.452 67.4314 Q695.943 61.0714 695.943 49.9314 Q695.943 38.7509 701.452 32.4315 Q707.002 26.1121 716.765 26.1121 Z" fill="#000000" fill-rule="nonzero" fill-opacity="1" /><path clip-path="url(#clip990)" d="M749.942 9.54393 L757.395 9.54393 L757.395 72.576 L749.942 72.576 L749.942 9.54393 Z" fill="#000000" fill-rule="nonzero" fill-opacity="1" /><path clip-path="url(#clip990)" d="M772.991 27.2059 L780.445 27.2059 L780.445 72.576 L772.991 72.576 L772.991 27.2059 M772.991 9.54393 L780.445 9.54393 L780.445 18.9825 L772.991 18.9825 L772.991 9.54393 Z" fill="#000000" fill-rule="nonzero" fill-opacity="1" /><path clip-path="url(#clip990)" d="M833.755 45.1919 L833.755 72.576 L826.301 72.576 L826.301 45.4349 Q826.301 38.994 823.79 35.7938 Q821.278 32.5936 816.255 32.5936 Q810.219 32.5936 806.735 36.4419 Q803.252 40.2903 803.252 46.9338 L803.252 72.576 L795.757 72.576 L795.757 27.2059 L803.252 27.2059 L803.252 34.2544 Q805.925 30.163 809.53 28.1376 Q813.176 26.1121 817.916 26.1121 Q825.734 26.1121 829.744 30.9732 Q833.755 35.7938 833.755 45.1919 Z" fill="#000000" fill-rule="nonzero" fill-opacity="1" /><path clip-path="url(#clip990)" d="M887.429 48.0275 L887.429 51.6733 L853.159 51.6733 Q853.645 59.3701 857.777 63.421 Q861.949 67.4314 869.362 67.4314 Q873.656 67.4314 877.667 66.3781 Q881.718 65.3249 885.687 63.2184 L885.687 70.267 Q881.677 71.9684 877.464 72.8596 Q873.251 73.7508 868.917 73.7508 Q858.06 73.7508 851.7 67.4314 Q845.381 61.1119 845.381 50.3365 Q845.381 39.1965 851.376 32.6746 Q857.412 26.1121 867.62 26.1121 Q876.775 26.1121 882.082 32.0264 Q887.429 37.9003 887.429 48.0275 M879.976 45.84 Q879.895 39.7232 876.532 36.0774 Q873.211 32.4315 867.701 32.4315 Q861.463 32.4315 857.696 35.9558 Q853.969 39.4801 853.402 45.8805 L879.976 45.84 Z" fill="#000000" fill-rule="nonzero" fill-opacity="1" /><path clip-path="url(#clip990)" d="M920.282 49.7694 Q911.249 49.7694 907.765 51.8354 Q904.281 53.9013 904.281 58.8839 Q904.281 62.8538 906.874 65.2034 Q909.507 67.5124 914.003 67.5124 Q920.201 67.5124 923.928 63.1374 Q927.695 58.7219 927.695 51.4303 L927.695 49.7694 L920.282 49.7694 M935.149 46.6907 L935.149 72.576 L927.695 72.576 L927.695 65.6895 Q925.143 69.8214 921.335 71.8063 Q917.528 73.7508 912.018 73.7508 Q905.051 73.7508 900.919 69.8619 Q896.827 65.9325 896.827 59.3701 Q896.827 51.7138 901.932 47.825 Q907.076 43.9361 917.244 43.9361 L927.695 43.9361 L927.695 43.2069 Q927.695 38.0623 924.293 35.2672 Q920.93 32.4315 914.813 32.4315 Q910.925 32.4315 907.238 33.3632 Q903.552 34.295 900.149 36.1584 L900.149 29.2718 Q904.241 27.692 908.089 26.9223 Q911.937 26.1121 915.583 26.1121 Q925.427 26.1121 930.288 31.2163 Q935.149 36.3204 935.149 46.6907 Z" fill="#000000" fill-rule="nonzero" fill-opacity="1" /><path clip-path="url(#clip990)" d="M976.792 34.1734 Q975.537 33.4443 974.038 33.1202 Q972.579 32.7556 970.797 32.7556 Q964.478 32.7556 961.075 36.8875 Q957.713 40.9789 957.713 48.6757 L957.713 72.576 L950.218 72.576 L950.218 27.2059 L957.713 27.2059 L957.713 34.2544 Q960.062 30.1225 963.829 28.1376 Q967.597 26.1121 972.984 26.1121 Q973.754 26.1121 974.686 26.2337 Q975.618 26.3147 976.752 26.5172 L976.792 34.1734 Z" fill="#000000" fill-rule="nonzero" fill-opacity="1" /><path clip-path="url(#clip990)" d="M1019.49 18.8205 L1019.49 41.5461 L1029.78 41.5461 Q1035.49 41.5461 1038.61 38.5889 Q1041.73 35.6318 1041.73 30.163 Q1041.73 24.7348 1038.61 21.7777 Q1035.49 18.8205 1029.78 18.8205 L1019.49 18.8205 M1011.31 12.096 L1029.78 12.096 Q1039.95 12.096 1045.13 16.714 Q1050.36 21.2916 1050.36 30.163 Q1050.36 39.1155 1045.13 43.6931 Q1039.95 48.2706 1029.78 48.2706 L1019.49 48.2706 L1019.49 72.576 L1011.31 72.576 L1011.31 12.096 Z" fill="#000000" fill-rule="nonzero" fill-opacity="1" /><path clip-path="url(#clip990)" d="M1075.63 32.4315 Q1069.64 32.4315 1066.16 37.1306 Q1062.67 41.7891 1062.67 49.9314 Q1062.67 58.0738 1066.11 62.7728 Q1069.6 67.4314 1075.63 67.4314 Q1081.59 67.4314 1085.07 62.7323 Q1088.56 58.0333 1088.56 49.9314 Q1088.56 41.8701 1085.07 37.1711 Q1081.59 32.4315 1075.63 32.4315 M1075.63 26.1121 Q1085.36 26.1121 1090.91 32.4315 Q1096.46 38.7509 1096.46 49.9314 Q1096.46 61.0714 1090.91 67.4314 Q1085.36 73.7508 1075.63 73.7508 Q1065.87 73.7508 1060.32 67.4314 Q1054.81 61.0714 1054.81 49.9314 Q1054.81 38.7509 1060.32 32.4315 Q1065.87 26.1121 1075.63 26.1121 Z" fill="#000000" fill-rule="nonzero" fill-opacity="1" /><path clip-path="url(#clip990)" d="M1108.81 9.54393 L1116.26 9.54393 L1116.26 72.576 L1108.81 72.576 L1108.81 9.54393 Z" fill="#000000" fill-rule="nonzero" fill-opacity="1" /><path clip-path="url(#clip990)" d="M1152.48 49.7694 Q1143.45 49.7694 1139.96 51.8354 Q1136.48 53.9013 1136.48 58.8839 Q1136.48 62.8538 1139.07 65.2034 Q1141.7 67.5124 1146.2 67.5124 Q1152.4 67.5124 1156.13 63.1374 Q1159.89 58.7219 1159.89 51.4303 L1159.89 49.7694 L1152.48 49.7694 M1167.35 46.6907 L1167.35 72.576 L1159.89 72.576 L1159.89 65.6895 Q1157.34 69.8214 1153.53 71.8063 Q1149.73 73.7508 1144.22 73.7508 Q1137.25 73.7508 1133.12 69.8619 Q1129.03 65.9325 1129.03 59.3701 Q1129.03 51.7138 1134.13 47.825 Q1139.27 43.9361 1149.44 43.9361 L1159.89 43.9361 L1159.89 43.2069 Q1159.89 38.0623 1156.49 35.2672 Q1153.13 32.4315 1147.01 32.4315 Q1143.12 32.4315 1139.44 33.3632 Q1135.75 34.295 1132.35 36.1584 L1132.35 29.2718 Q1136.44 27.692 1140.29 26.9223 Q1144.14 26.1121 1147.78 26.1121 Q1157.62 26.1121 1162.49 31.2163 Q1167.35 36.3204 1167.35 46.6907 Z" fill="#000000" fill-rule="nonzero" fill-opacity="1" /><path clip-path="url(#clip990)" d="M1208.99 34.1734 Q1207.73 33.4443 1206.24 33.1202 Q1204.78 32.7556 1202.99 32.7556 Q1196.68 32.7556 1193.27 36.8875 Q1189.91 40.9789 1189.91 48.6757 L1189.91 72.576 L1182.42 72.576 L1182.42 27.2059 L1189.91 27.2059 L1189.91 34.2544 Q1192.26 30.1225 1196.03 28.1376 Q1199.79 26.1121 1205.18 26.1121 Q1205.95 26.1121 1206.88 26.2337 Q1207.82 26.3147 1208.95 26.5172 L1208.99 34.1734 Z" fill="#000000" fill-rule="nonzero" fill-opacity="1" /><path clip-path="url(#clip990)" d="M1216.81 27.2059 L1224.26 27.2059 L1224.26 72.576 L1216.81 72.576 L1216.81 27.2059 M1216.81 9.54393 L1224.26 9.54393 L1224.26 18.9825 L1216.81 18.9825 L1216.81 9.54393 Z" fill="#000000" fill-rule="nonzero" fill-opacity="1" /><path clip-path="url(#clip990)" d="M1236.62 27.2059 L1272.02 27.2059 L1272.02 34.0114 L1243.99 66.6212 L1272.02 66.6212 L1272.02 72.576 L1235.6 72.576 L1235.6 65.7705 L1263.64 33.1607 L1236.62 33.1607 L1236.62 27.2059 Z" fill="#000000" fill-rule="nonzero" fill-opacity="1" /><path clip-path="url(#clip990)" d="M1322.21 48.0275 L1322.21 51.6733 L1287.94 51.6733 Q1288.43 59.3701 1292.56 63.421 Q1296.73 67.4314 1304.15 67.4314 Q1308.44 67.4314 1312.45 66.3781 Q1316.5 65.3249 1320.47 63.2184 L1320.47 70.267 Q1316.46 71.9684 1312.25 72.8596 Q1308.03 73.7508 1303.7 73.7508 Q1292.84 73.7508 1286.48 67.4314 Q1280.16 61.1119 1280.16 50.3365 Q1280.16 39.1965 1286.16 32.6746 Q1292.2 26.1121 1302.4 26.1121 Q1311.56 26.1121 1316.87 32.0264 Q1322.21 37.9003 1322.21 48.0275 M1314.76 45.84 Q1314.68 39.7232 1311.32 36.0774 Q1307.99 32.4315 1302.48 32.4315 Q1296.25 32.4315 1292.48 35.9558 Q1288.75 39.4801 1288.19 45.8805 L1314.76 45.84 Z" fill="#000000" fill-rule="nonzero" fill-opacity="1" /><path clip-path="url(#clip990)" d="M1360.74 34.1734 Q1359.48 33.4443 1357.98 33.1202 Q1356.52 32.7556 1354.74 32.7556 Q1348.42 32.7556 1345.02 36.8875 Q1341.66 40.9789 1341.66 48.6757 L1341.66 72.576 L1334.16 72.576 L1334.16 27.2059 L1341.66 27.2059 L1341.66 34.2544 Q1344.01 30.1225 1347.77 28.1376 Q1351.54 26.1121 1356.93 26.1121 Q1357.7 26.1121 1358.63 26.2337 Q1359.56 26.3147 1360.7 26.5172 L1360.74 34.1734 Z" fill="#000000" fill-rule="nonzero" fill-opacity="1" /><path clip-path="url(#clip990)" d="M1381.8 12.096 L1388.69 12.096 L1367.62 80.2727 L1360.74 80.2727 L1381.8 12.096 Z" fill="#000000" fill-rule="nonzero" fill-opacity="1" /><path clip-path="url(#clip990)" d="M1417.04 20.1573 L1405.95 50.2555 L1428.18 50.2555 L1417.04 20.1573 M1412.43 12.096 L1421.7 12.096 L1444.75 72.576 L1436.25 72.576 L1430.74 57.061 L1403.47 57.061 L1397.96 72.576 L1389.34 72.576 L1412.43 12.096 Z" fill="#000000" fill-rule="nonzero" fill-opacity="1" /><path clip-path="url(#clip990)" d="M1490.97 45.1919 L1490.97 72.576 L1483.52 72.576 L1483.52 45.4349 Q1483.52 38.994 1481.01 35.7938 Q1478.5 32.5936 1473.47 32.5936 Q1467.44 32.5936 1463.95 36.4419 Q1460.47 40.2903 1460.47 46.9338 L1460.47 72.576 L1452.98 72.576 L1452.98 27.2059 L1460.47 27.2059 L1460.47 34.2544 Q1463.14 30.163 1466.75 28.1376 Q1470.39 26.1121 1475.13 26.1121 Q1482.95 26.1121 1486.96 30.9732 Q1490.97 35.7938 1490.97 45.1919 Z" fill="#000000" fill-rule="nonzero" fill-opacity="1" /><path clip-path="url(#clip990)" d="M1526.46 49.7694 Q1517.43 49.7694 1513.94 51.8354 Q1510.46 53.9013 1510.46 58.8839 Q1510.46 62.8538 1513.05 65.2034 Q1515.68 67.5124 1520.18 67.5124 Q1526.38 67.5124 1530.11 63.1374 Q1533.87 58.7219 1533.87 51.4303 L1533.87 49.7694 L1526.46 49.7694 M1541.33 46.6907 L1541.33 72.576 L1533.87 72.576 L1533.87 65.6895 Q1531.32 69.8214 1527.51 71.8063 Q1523.7 73.7508 1518.2 73.7508 Q1511.23 73.7508 1507.1 69.8619 Q1503 65.9325 1503 59.3701 Q1503 51.7138 1508.11 47.825 Q1513.25 43.9361 1523.42 43.9361 L1533.87 43.9361 L1533.87 43.2069 Q1533.87 38.0623 1530.47 35.2672 Q1527.11 32.4315 1520.99 32.4315 Q1517.1 32.4315 1513.42 33.3632 Q1509.73 34.295 1506.33 36.1584 L1506.33 29.2718 Q1510.42 27.692 1514.27 26.9223 Q1518.11 26.1121 1521.76 26.1121 Q1531.6 26.1121 1536.47 31.2163 Q1541.33 36.3204 1541.33 46.6907 Z" fill="#000000" fill-rule="nonzero" fill-opacity="1" /><path clip-path="url(#clip990)" d="M1556.68 9.54393 L1564.13 9.54393 L1564.13 72.576 L1556.68 72.576 L1556.68 9.54393 Z" fill="#000000" fill-rule="nonzero" fill-opacity="1" /><path clip-path="url(#clip990)" d="M1598.61 76.7889 Q1595.45 84.8907 1592.45 87.3618 Q1589.45 89.8329 1584.43 89.8329 L1578.47 89.8329 L1578.47 83.5945 L1582.85 83.5945 Q1585.93 83.5945 1587.63 82.1361 Q1589.33 80.6778 1591.4 75.2496 L1592.73 71.8468 L1574.38 27.2059 L1582.28 27.2059 L1596.46 62.6918 L1610.64 27.2059 L1618.54 27.2059 L1598.61 76.7889 Z" fill="#000000" fill-rule="nonzero" fill-opacity="1" /><path clip-path="url(#clip990)" d="M1657.75 28.5427 L1657.75 35.5912 Q1654.59 33.9709 1651.19 33.1607 Q1647.78 32.3505 1644.14 32.3505 Q1638.59 32.3505 1635.79 34.0519 Q1633.04 35.7533 1633.04 39.156 Q1633.04 41.7486 1635.02 43.2475 Q1637.01 44.7058 1643 46.0426 L1645.56 46.6097 Q1653.5 48.3111 1656.82 51.4303 Q1660.18 54.509 1660.18 60.0587 Q1660.18 66.3781 1655.16 70.0644 Q1650.17 73.7508 1641.42 73.7508 Q1637.78 73.7508 1633.81 73.0216 Q1629.88 72.3329 1625.5 70.9151 L1625.5 63.2184 Q1629.64 65.3654 1633.65 66.4591 Q1637.66 67.5124 1641.59 67.5124 Q1646.85 67.5124 1649.69 65.73 Q1652.52 63.9071 1652.52 60.6258 Q1652.52 57.5877 1650.46 55.9673 Q1648.43 54.3469 1641.51 52.8481 L1638.91 52.2405 Q1631.99 50.7821 1628.91 47.7845 Q1625.83 44.7463 1625.83 39.4801 Q1625.83 33.0797 1630.37 29.5959 Q1634.9 26.1121 1643.25 26.1121 Q1647.38 26.1121 1651.02 26.7198 Q1654.67 27.3274 1657.75 28.5427 Z" fill="#000000" fill-rule="nonzero" fill-opacity="1" /><path clip-path="url(#clip990)" d="M1710.86 48.0275 L1710.86 51.6733 L1676.59 51.6733 Q1677.07 59.3701 1681.2 63.421 Q1685.38 67.4314 1692.79 67.4314 Q1697.08 67.4314 1701.09 66.3781 Q1705.14 65.3249 1709.11 63.2184 L1709.11 70.267 Q1705.1 71.9684 1700.89 72.8596 Q1696.68 73.7508 1692.34 73.7508 Q1681.49 73.7508 1675.13 67.4314 Q1668.81 61.1119 1668.81 50.3365 Q1668.81 39.1965 1674.8 32.6746 Q1680.84 26.1121 1691.05 26.1121 Q1700.2 26.1121 1705.51 32.0264 Q1710.86 37.9003 1710.86 48.0275 M1703.4 45.84 Q1703.32 39.7232 1699.96 36.0774 Q1696.64 32.4315 1691.13 32.4315 Q1684.89 32.4315 1681.12 35.9558 Q1677.4 39.4801 1676.83 45.8805 L1703.4 45.84 Z" fill="#000000" fill-rule="nonzero" fill-opacity="1" /><path clip-path="url(#clip990)" d="M1749.38 34.1734 Q1748.12 33.4443 1746.63 33.1202 Q1745.17 32.7556 1743.39 32.7556 Q1737.07 32.7556 1733.66 36.8875 Q1730.3 40.9789 1730.3 48.6757 L1730.3 72.576 L1722.81 72.576 L1722.81 27.2059 L1730.3 27.2059 L1730.3 34.2544 Q1732.65 30.1225 1736.42 28.1376 Q1740.19 26.1121 1745.57 26.1121 Q1746.34 26.1121 1747.27 26.2337 Q1748.21 26.3147 1749.34 26.5172 L1749.38 34.1734 Z" fill="#000000" fill-rule="nonzero" fill-opacity="1" /><polyline clip-path="url(#clip992)" style="stroke:#009af9; stroke-linecap:round; stroke-linejoin:round; stroke-width:4; stroke-opacity:1; fill:none" points="274.991,319.381 277.917,319.291 280.843,319.02 283.769,318.57 286.695,317.94 289.621,317.132 292.547,316.148 295.473,314.99 298.399,313.659 301.325,312.158 304.251,310.49 307.177,308.658 310.102,306.666 313.028,304.518 315.954,302.218 318.88,299.769 321.806,297.179 324.732,294.45 327.658,291.59 330.584,288.604 333.51,285.498 336.436,282.278 339.362,278.953 342.288,275.529 345.214,272.013 348.14,268.414 351.066,264.739 353.992,260.999 356.918,257.2 359.844,253.353 362.77,249.468 365.695,245.553 368.621,241.619 371.547,237.677 374.473,233.738 377.399,229.811 380.325,225.91 383.251,222.044 386.177,218.227 389.103,214.469 392.029,210.783 394.955,207.182 397.881,203.679 400.807,200.285 403.733,197.014 406.659,193.879 409.585,190.894 412.511,188.071 415.437,185.424 418.363,182.967 421.288,180.713 424.214,178.675 427.14,176.867 430.066,175.303 432.992,173.995 435.918,172.958 438.844,172.205 441.77,171.748 444.696,171.6 447.622,171.775 450.548,172.285 453.474,173.141 456.4,174.357 459.326,175.944 462.252,177.912 465.178,180.274 468.104,183.039 471.03,186.217 473.956,189.82 476.881,193.854 479.807,198.33 482.733,203.256 485.659,208.638 488.585,214.484 491.511,220.8 494.437,227.592 497.363,234.865 500.289,242.623 503.215,250.87 506.141,259.607 509.067,268.839 511.993,278.565 514.919,288.785 517.845,299.501 520.771,310.709 523.697,322.408 526.623,334.596 529.548,347.267 532.474,360.418 535.4,374.042 538.326,388.133 541.252,402.684 544.178,417.685 547.104,433.127 550.03,449 552.956,465.294 555.882,481.994 558.808,499.089 561.734,516.565 564.66,534.406 567.586,552.597 570.512,571.121 573.438,589.962 576.364,609.1 579.29,628.516 582.216,648.192 585.141,668.106 588.067,688.237 590.993,708.563 593.919,729.062 596.845,749.71 599.771,770.484 602.697,791.36 605.623,812.312 608.549,833.315 611.475,854.343 614.401,875.371 617.327,896.372 620.253,917.32 623.179,938.187 626.105,958.946 629.031,979.569 631.957,1000.03 634.883,1020.3 637.809,1040.36 640.734,1060.17 643.66,1079.7 646.586,1098.94 649.512,1117.86 652.438,1136.42 655.364,1154.6 658.29,1172.38 661.216,1189.72 664.142,1206.62 667.068,1223.03 669.994,1238.94 672.92,1254.32 675.846,1269.15 678.772,1283.41 681.698,1297.08 684.624,1310.14 687.55,1322.56 690.476,1334.33 693.402,1345.44 696.327,1355.85 699.253,1365.57 702.179,1374.57 705.105,1382.84 708.031,1390.36 710.957,1397.14 713.883,1403.15 716.809,1408.38 719.735,1412.83 722.661,1416.5 725.587,1419.37 728.513,1421.44 731.439,1422.71 734.365,1423.18 737.291,1422.84 740.217,1421.7 743.143,1419.75 746.069,1417.01 748.995,1413.47 751.92,1409.14 754.846,1404.03 757.772,1398.15 760.698,1391.49 763.624,1384.09 766.55,1375.93 769.476,1367.05 772.402,1357.45 775.328,1347.14 778.254,1336.15 781.18,1324.48 784.106,1312.16 787.032,1299.2 789.958,1285.63 792.884,1271.46 795.81,1256.72 798.736,1241.42 801.662,1225.6 804.588,1209.26 807.513,1192.45 810.439,1175.17 813.365,1157.46 816.291,1139.34 819.217,1120.84 822.143,1101.98 825.069,1082.79 827.995,1063.3 830.921,1043.53 833.847,1023.51 836.773,1003.27 839.699,982.84 842.625,962.24 845.551,941.501 848.477,920.649 851.403,899.713 854.329,878.719 857.255,857.693 860.181,836.663 863.106,815.654 866.032,794.692 868.958,773.803 871.884,753.011 874.81,732.341 877.736,711.817 880.662,691.462 883.588,671.298 886.514,651.348 889.44,631.633 892.366,612.174 895.292,592.99 898.218,574.101 901.144,555.525 904.07,537.28 906.996,519.382 909.922,501.847 912.848,484.691 915.773,467.926 918.699,451.568 921.625,435.627 924.551,420.115 927.477,405.043 930.403,390.42 933.329,376.256 936.255,362.557 939.181,349.33 942.107,336.582 945.033,324.317 947.959,312.539 950.885,301.253 953.811,290.459 956.737,280.159 959.663,270.355 962.589,261.045 965.515,252.228 968.441,243.904 971.366,236.068 974.292,228.718 977.218,221.85 980.144,215.458 983.07,209.538 985.996,204.082 988.922,199.084 991.848,194.537 994.774,190.433 997.7,186.762 1000.63,183.517 1003.55,180.687 1006.48,178.262 1009.4,176.231 1012.33,174.585 1015.26,173.311 1018.18,172.398 1021.11,171.834 1024.03,171.606 1026.96,171.703 1029.89,172.112 1032.81,172.819 1035.74,173.812 1038.66,175.077 1041.59,176.601 1044.52,178.371 1047.44,180.373 1050.37,182.594 1053.29,185.02 1056.22,187.637 1059.14,190.433 1062.07,193.394 1065,196.505 1067.92,199.755 1070.85,203.13 1073.77,206.617 1076.7,210.204 1079.63,213.877 1082.55,217.624 1085.48,221.433 1088.4,225.291 1091.33,229.188 1094.26,233.111 1097.18,237.049 1100.11,240.992 1103.03,244.927 1105.96,248.846 1108.89,252.737 1111.81,256.59 1114.74,260.397 1117.66,264.148 1120.59,267.833 1123.52,271.445 1126.44,274.975 1129.37,278.414 1132.29,281.756 1135.22,284.992 1138.15,288.117 1141.07,291.123 1144,294.003 1146.92,296.753 1149.85,299.366 1152.78,301.837 1155.7,304.162 1158.63,306.335 1161.55,308.352 1164.48,310.209 1167.4,311.903 1170.33,313.431 1173.26,314.789 1176.18,315.975 1179.11,316.987 1182.03,317.823 1184.96,318.481 1187.89,318.961 1190.81,319.26 1193.74,319.379 1196.66,319.318 1199.59,319.076 1202.52,318.653 1205.44,318.052 1208.37,317.273 1211.29,316.317 1214.22,315.186 1217.15,313.882 1220.07,312.408 1223,310.767 1225.92,308.961 1228.85,306.994 1231.78,304.871 1234.7,302.594 1237.63,300.169 1240.55,297.601 1243.48,294.894 1246.41,292.054 1249.33,289.087 1252.26,286 1255.18,282.798 1258.11,279.489 1261.04,276.08 1263.96,272.579 1266.89,268.992 1269.81,265.329 1272.74,261.598 1275.66,257.809 1278.59,253.969 1281.52,250.089 1284.44,246.178 1287.37,242.247 1290.29,238.305 1293.22,234.365 1296.15,230.435 1299.07,226.529 1302,222.657 1304.92,218.831 1307.85,215.063 1310.78,211.365 1313.7,207.75 1316.63,204.23 1319.55,200.817 1322.48,197.526 1325.41,194.369 1328.33,191.359 1331.26,188.509 1334.18,185.833 1337.11,183.345 1340.04,181.057 1342.96,178.984 1345.89,177.139 1348.81,175.535 1351.74,174.186 1354.67,173.105 1357.59,172.305 1360.52,171.8 1363.44,171.603 1366.37,171.725 1369.3,172.181 1372.22,172.981 1375.15,174.139 1378.07,175.666 1381,177.573 1383.93,179.871 1386.85,182.571 1389.78,185.683 1392.7,189.217 1395.63,193.182 1398.55,197.587 1401.48,202.441 1404.41,207.75 1407.33,213.521 1410.26,219.762 1413.18,226.478 1416.11,233.674 1419.04,241.355 1421.96,249.523 1424.89,258.183 1427.81,267.335 1430.74,276.982 1433.67,287.124 1436.59,297.761 1439.52,308.891 1442.44,320.512 1445.37,332.622 1448.3,345.217 1451.22,358.292 1454.15,371.841 1457.07,385.858 1460,400.336 1462.93,415.266 1465.85,430.639 1468.78,446.444 1471.7,462.671 1474.63,479.307 1477.56,496.341 1480.48,513.757 1483.41,531.54 1486.33,549.677 1489.26,568.149 1492.19,586.941 1495.11,606.032 1498.04,625.406 1500.96,645.042 1503.89,664.919 1506.81,685.017 1509.74,705.314 1512.67,725.787 1515.59,746.413 1518.52,767.168 1521.44,788.029 1524.37,808.971 1527.3,829.967 1530.22,850.993 1533.15,872.023 1536.07,893.031 1539,913.988 1541.93,934.87 1544.85,955.648 1547.78,976.295 1550.7,996.784 1553.63,1017.09 1556.56,1037.18 1559.48,1057.03 1562.41,1076.61 1565.33,1095.9 1568.26,1114.87 1571.19,1133.49 1574.11,1151.73 1577.04,1169.57 1579.96,1186.99 1582.89,1203.96 1585.82,1220.45 1588.74,1236.44 1591.67,1251.91 1594.59,1266.83 1597.52,1281.18 1600.45,1294.95 1603.37,1308.1 1606.3,1320.63 1609.22,1332.5 1612.15,1343.71 1615.07,1354.24 1618,1364.07 1620.93,1373.18 1623.85,1381.57 1626.78,1389.22 1629.7,1396.11 1632.63,1402.24 1635.56,1407.6 1638.48,1412.18 1641.41,1415.97 1644.33,1418.97 1647.26,1421.16 1650.19,1422.56 1653.11,1423.16 1656.04,1422.95 1658.96,1421.93 1661.89,1420.12 1664.82,1417.5 1667.74,1414.09 1670.67,1409.88 1673.59,1404.9 1676.52,1399.13 1679.45,1392.6 1682.37,1385.32 1685.3,1377.28 1688.22,1368.51 1691.15,1359.02 1694.08,1348.83 1697,1337.94 1699.93,1326.38 1702.85,1314.16 1705.78,1301.31 1708.71,1287.83 1711.63,1273.76 1714.56,1259.11 1717.48,1243.9 1720.41,1228.15 1723.33,1211.9 1726.26,1195.16 1729.19,1177.95 1732.11,1160.31 1735.04,1142.25 1737.96,1123.81 1740.89,1105 1743.82,1085.87 1746.74,1066.42 1749.67,1046.69 1752.59,1026.72 1755.52,1006.51 1758.45,986.106 1761.37,965.531 1764.3,944.812 1767.22,923.977 1770.15,903.052 1773.08,882.065 1776,861.043 1778.93,840.011 1781.85,818.997 1784.78,798.026 1787.71,777.124 1790.63,756.315 1793.56,735.624 1796.48,715.075 1799.41,694.691 1802.34,674.496 1805.26,654.51 1808.19,634.756 1811.11,615.255 1814.04,596.026 1816.97,577.089 1819.89,558.462 1822.82,540.163 1825.74,522.209 1828.67,504.615 1831.59,487.397 1834.52,470.57 1837.45,454.145 1840.37,438.137 1843.3,422.556 1846.22,407.414 1849.15,392.719 1852.08,378.481 1855,364.707 1857.93,351.405 1860.85,338.58 1863.78,326.238 1866.71,314.382 1869.63,303.017 1872.56,292.145 1875.48,281.766 1878.41,271.883 1881.34,262.494 1884.26,253.599 1887.19,245.197 1890.11,237.283 1893.04,229.856 1895.97,222.912 1898.89,216.445 1901.82,210.449 1904.74,204.92 1907.67,199.85 1910.6,195.232 1913.52,191.057 1916.45,187.318 1919.37,184.006 1922.3,181.11 1925.23,178.621 1928.15,176.529 1931.08,174.822 1934,173.489 1936.93,172.519 1939.85,171.901 1942.78,171.62 1945.71,171.667 1948.63,172.026 1951.56,172.687 1954.48,173.635 1957.41,174.858 1960.34,176.342 1963.26,178.073 1966.19,180.039 1969.11,182.226 1972.04,184.62 1974.97,187.208 1977.89,189.976 1980.82,192.912 1983.74,196 1986.67,199.229 1989.6,202.585 1992.52,206.055 1995.45,209.627 1998.37,213.287 2001.3,217.023 2004.23,220.822 2007.15,224.674 2010.08,228.565 2013,232.485 2015.93,236.422 2018.86,240.364 2021.78,244.301 2024.71,248.223 2027.63,252.119 2030.56,255.98 2033.49,259.795 2036.41,263.555 2039.34,267.251 2042.26,270.875 2045.19,274.418 2048.11,277.873 2051.04,281.23 2053.97,284.484 2056.89,287.627 2059.82,290.652 2062.74,293.553 2065.67,296.324 2068.6,298.959 2071.52,301.454 2074.45,303.802 2077.37,305.999 2080.3,308.041 2083.23,309.924 2086.15,311.645 2089.08,313.199 2092,314.584 2094.93,315.798 2097.86,316.838 2100.78,317.702 2103.71,318.389 2106.63,318.896 2109.56,319.224 2112.49,319.372 "/>
<path clip-path="url(#clip990)" d="M284.791 1379.86 L679.68 1379.86 L679.68 1276.18 L284.791 1276.18  Z" fill="#ffffff" fill-rule="evenodd" fill-opacity="1"/>
<polyline clip-path="url(#clip990)" style="stroke:#000000; stroke-linecap:round; stroke-linejoin:round; stroke-width:4; stroke-opacity:1; fill:none" points="284.791,1379.86 679.68,1379.86 679.68,1276.18 284.791,1276.18 284.791,1379.86 "/>
<polyline clip-path="url(#clip990)" style="stroke:#009af9; stroke-linecap:round; stroke-linejoin:round; stroke-width:4; stroke-opacity:1; fill:none" points="306.433,1328.02 436.282,1328.02 "/>
<path clip-path="url(#clip990)" d="M485.794 1313.4 L485.794 1318.33 Q483.433 1316.13 480.748 1315.04 Q478.086 1313.95 475.077 1313.95 Q469.151 1313.95 466.003 1317.59 Q462.854 1321.2 462.854 1328.05 Q462.854 1334.88 466.003 1338.51 Q469.151 1342.12 475.077 1342.12 Q478.086 1342.12 480.748 1341.04 Q483.433 1339.95 485.794 1337.75 L485.794 1342.63 Q483.34 1344.3 480.586 1345.13 Q477.854 1345.97 474.799 1345.97 Q466.952 1345.97 462.438 1341.18 Q457.924 1336.36 457.924 1328.05 Q457.924 1319.72 462.438 1314.93 Q466.952 1310.11 474.799 1310.11 Q477.901 1310.11 480.632 1310.94 Q483.387 1311.75 485.794 1313.4 Z" fill="#000000" fill-rule="nonzero" fill-opacity="1" /><path clip-path="url(#clip990)" d="M502.877 1322.36 Q499.451 1322.36 497.461 1325.04 Q495.47 1327.7 495.47 1332.36 Q495.47 1337.01 497.438 1339.69 Q499.428 1342.36 502.877 1342.36 Q506.28 1342.36 508.271 1339.67 Q510.262 1336.99 510.262 1332.36 Q510.262 1327.75 508.271 1325.06 Q506.28 1322.36 502.877 1322.36 M502.877 1318.75 Q508.433 1318.75 511.604 1322.36 Q514.775 1325.97 514.775 1332.36 Q514.775 1338.72 511.604 1342.36 Q508.433 1345.97 502.877 1345.97 Q497.299 1345.97 494.127 1342.36 Q490.979 1338.72 490.979 1332.36 Q490.979 1325.97 494.127 1322.36 Q497.299 1318.75 502.877 1318.75 Z" fill="#000000" fill-rule="nonzero" fill-opacity="1" /><path clip-path="url(#clip990)" d="M521.836 1309.28 L526.095 1309.28 L526.095 1345.3 L521.836 1345.3 L521.836 1309.28 Z" fill="#000000" fill-rule="nonzero" fill-opacity="1" /><path clip-path="url(#clip990)" d="M535.007 1309.28 L539.266 1309.28 L539.266 1345.3 L535.007 1345.3 L535.007 1309.28 Z" fill="#000000" fill-rule="nonzero" fill-opacity="1" /><path clip-path="url(#clip990)" d="M559.96 1332.26 Q554.798 1332.26 552.808 1333.44 Q550.817 1334.63 550.817 1337.47 Q550.817 1339.74 552.298 1341.08 Q553.803 1342.4 556.372 1342.4 Q559.914 1342.4 562.044 1339.9 Q564.196 1337.38 564.196 1333.21 L564.196 1332.26 L559.96 1332.26 M568.456 1330.5 L568.456 1345.3 L564.196 1345.3 L564.196 1341.36 Q562.738 1343.72 560.562 1344.86 Q558.386 1345.97 555.238 1345.97 Q551.257 1345.97 548.896 1343.75 Q546.558 1341.5 546.558 1337.75 Q546.558 1333.38 549.474 1331.15 Q552.414 1328.93 558.224 1328.93 L564.196 1328.93 L564.196 1328.51 Q564.196 1325.57 562.252 1323.98 Q560.331 1322.36 556.835 1322.36 Q554.613 1322.36 552.507 1322.89 Q550.4 1323.42 548.456 1324.49 L548.456 1320.55 Q550.794 1319.65 552.993 1319.21 Q555.192 1318.75 557.275 1318.75 Q562.9 1318.75 565.678 1321.66 Q568.456 1324.58 568.456 1330.5 Z" fill="#000000" fill-rule="nonzero" fill-opacity="1" /><path clip-path="url(#clip990)" d="M594.289 1332.03 Q594.289 1327.4 592.368 1324.86 Q590.469 1322.31 587.02 1322.31 Q583.595 1322.31 581.673 1324.86 Q579.775 1327.4 579.775 1332.03 Q579.775 1336.64 581.673 1339.19 Q583.595 1341.73 587.02 1341.73 Q590.469 1341.73 592.368 1339.19 Q594.289 1336.64 594.289 1332.03 M598.548 1342.08 Q598.548 1348.7 595.608 1351.92 Q592.669 1355.16 586.604 1355.16 Q584.358 1355.16 582.368 1354.81 Q580.377 1354.49 578.502 1353.79 L578.502 1349.65 Q580.377 1350.67 582.206 1351.15 Q584.034 1351.64 585.932 1351.64 Q590.122 1351.64 592.206 1349.44 Q594.289 1347.26 594.289 1342.84 L594.289 1340.74 Q592.969 1343.03 590.909 1344.16 Q588.849 1345.3 585.979 1345.3 Q581.21 1345.3 578.294 1341.66 Q575.377 1338.03 575.377 1332.03 Q575.377 1326.01 578.294 1322.38 Q581.21 1318.75 585.979 1318.75 Q588.849 1318.75 590.909 1319.88 Q592.969 1321.01 594.289 1323.31 L594.289 1319.37 L598.548 1319.37 L598.548 1342.08 Z" fill="#000000" fill-rule="nonzero" fill-opacity="1" /><path clip-path="url(#clip990)" d="M629.497 1331.27 L629.497 1333.35 L609.914 1333.35 Q610.192 1337.75 612.553 1340.06 Q614.937 1342.36 619.173 1342.36 Q621.627 1342.36 623.918 1341.75 Q626.233 1341.15 628.502 1339.95 L628.502 1343.98 Q626.21 1344.95 623.803 1345.46 Q621.395 1345.97 618.918 1345.97 Q612.715 1345.97 609.081 1342.36 Q605.469 1338.75 605.469 1332.59 Q605.469 1326.22 608.895 1322.5 Q612.344 1318.75 618.178 1318.75 Q623.409 1318.75 626.442 1322.13 Q629.497 1325.48 629.497 1331.27 M625.238 1330.02 Q625.192 1326.52 623.27 1324.44 Q621.372 1322.36 618.224 1322.36 Q614.659 1322.36 612.506 1324.37 Q610.377 1326.38 610.053 1330.04 L625.238 1330.02 Z" fill="#000000" fill-rule="nonzero" fill-opacity="1" /><path clip-path="url(#clip990)" d="M658.039 1329.65 L658.039 1345.3 L653.779 1345.3 L653.779 1329.79 Q653.779 1326.11 652.344 1324.28 Q650.909 1322.45 648.039 1322.45 Q644.59 1322.45 642.599 1324.65 Q640.608 1326.85 640.608 1330.64 L640.608 1345.3 L636.326 1345.3 L636.326 1319.37 L640.608 1319.37 L640.608 1323.4 Q642.136 1321.06 644.196 1319.9 Q646.279 1318.75 648.988 1318.75 Q653.455 1318.75 655.747 1321.52 Q658.039 1324.28 658.039 1329.65 Z" fill="#000000" fill-rule="nonzero" fill-opacity="1" /><polyline clip-path="url(#clip990)" style="stroke:#000000; stroke-linecap:round; stroke-linejoin:round; stroke-width:4; stroke-opacity:1; fill:none" points="2167.61,1423.18 2167.61,123.472 "/>
<polyline clip-path="url(#clip990)" style="stroke:#000000; stroke-linecap:round; stroke-linejoin:round; stroke-width:4; stroke-opacity:1; fill:none" points="2167.61,1423.18 2148.71,1423.18 "/>
<polyline clip-path="url(#clip990)" style="stroke:#000000; stroke-linecap:round; stroke-linejoin:round; stroke-width:4; stroke-opacity:1; fill:none" points="2167.61,1206.56 2148.71,1206.56 "/>
<polyline clip-path="url(#clip990)" style="stroke:#000000; stroke-linecap:round; stroke-linejoin:round; stroke-width:4; stroke-opacity:1; fill:none" points="2167.61,989.944 2148.71,989.944 "/>
<polyline clip-path="url(#clip990)" style="stroke:#000000; stroke-linecap:round; stroke-linejoin:round; stroke-width:4; stroke-opacity:1; fill:none" points="2167.61,773.326 2148.71,773.326 "/>
<polyline clip-path="url(#clip990)" style="stroke:#000000; stroke-linecap:round; stroke-linejoin:round; stroke-width:4; stroke-opacity:1; fill:none" points="2167.61,556.708 2148.71,556.708 "/>
<polyline clip-path="url(#clip990)" style="stroke:#000000; stroke-linecap:round; stroke-linejoin:round; stroke-width:4; stroke-opacity:1; fill:none" points="2167.61,340.09 2148.71,340.09 "/>
<polyline clip-path="url(#clip990)" style="stroke:#000000; stroke-linecap:round; stroke-linejoin:round; stroke-width:4; stroke-opacity:1; fill:none" points="2167.61,123.472 2148.71,123.472 "/>
<path clip-path="url(#clip990)" d="M2215.56 1408.98 Q2211.94 1408.98 2210.12 1412.54 Q2208.31 1416.08 2208.31 1423.21 Q2208.31 1430.32 2210.12 1433.89 Q2211.94 1437.43 2215.56 1437.43 Q2219.19 1437.43 2220.99 1433.89 Q2222.82 1430.32 2222.82 1423.21 Q2222.82 1416.08 2220.99 1412.54 Q2219.19 1408.98 2215.56 1408.98 M2215.56 1405.27 Q2221.37 1405.27 2224.42 1409.88 Q2227.5 1414.46 2227.5 1423.21 Q2227.5 1431.94 2224.42 1436.55 Q2221.37 1441.13 2215.56 1441.13 Q2209.74 1441.13 2206.67 1436.55 Q2203.61 1431.94 2203.61 1423.21 Q2203.61 1414.46 2206.67 1409.88 Q2209.74 1405.27 2215.56 1405.27 Z" fill="#000000" fill-rule="nonzero" fill-opacity="1" /><path clip-path="url(#clip990)" d="M2219.24 1205.21 Q2222.59 1205.93 2224.47 1208.19 Q2226.37 1210.46 2226.37 1213.8 Q2226.37 1218.91 2222.85 1221.71 Q2219.33 1224.51 2212.85 1224.51 Q2210.67 1224.51 2208.36 1224.07 Q2206.06 1223.66 2203.61 1222.8 L2203.61 1218.29 Q2205.56 1219.42 2207.87 1220 Q2210.18 1220.58 2212.71 1220.58 Q2217.11 1220.58 2219.4 1218.84 Q2221.71 1217.11 2221.71 1213.8 Q2221.71 1210.74 2219.56 1209.03 Q2217.43 1207.29 2213.61 1207.29 L2209.58 1207.29 L2209.58 1203.45 L2213.8 1203.45 Q2217.24 1203.45 2219.07 1202.08 Q2220.9 1200.69 2220.9 1198.1 Q2220.9 1195.44 2219 1194.03 Q2217.13 1192.59 2213.61 1192.59 Q2211.69 1192.59 2209.49 1193.01 Q2207.29 1193.43 2204.65 1194.31 L2204.65 1190.14 Q2207.31 1189.4 2209.63 1189.03 Q2211.97 1188.66 2214.03 1188.66 Q2219.35 1188.66 2222.45 1191.09 Q2225.55 1193.49 2225.55 1197.62 Q2225.55 1200.49 2223.91 1202.48 Q2222.27 1204.44 2219.24 1205.21 Z" fill="#000000" fill-rule="nonzero" fill-opacity="1" /><path clip-path="url(#clip990)" d="M2245.23 1192.36 Q2241.62 1192.36 2239.79 1195.93 Q2237.99 1199.47 2237.99 1206.6 Q2237.99 1213.7 2239.79 1217.27 Q2241.62 1220.81 2245.23 1220.81 Q2248.87 1220.81 2250.67 1217.27 Q2252.5 1213.7 2252.5 1206.6 Q2252.5 1199.47 2250.67 1195.93 Q2248.87 1192.36 2245.23 1192.36 M2245.23 1188.66 Q2251.04 1188.66 2254.1 1193.26 Q2257.18 1197.85 2257.18 1206.6 Q2257.18 1215.32 2254.1 1219.93 Q2251.04 1224.51 2245.23 1224.51 Q2239.42 1224.51 2236.34 1219.93 Q2233.29 1215.32 2233.29 1206.6 Q2233.29 1197.85 2236.34 1193.26 Q2239.42 1188.66 2245.23 1188.66 Z" fill="#000000" fill-rule="nonzero" fill-opacity="1" /><path clip-path="url(#clip990)" d="M2215.95 988.081 Q2212.8 988.081 2210.95 990.233 Q2209.12 992.386 2209.12 996.136 Q2209.12 999.863 2210.95 1002.04 Q2212.8 1004.19 2215.95 1004.19 Q2219.1 1004.19 2220.93 1002.04 Q2222.78 999.863 2222.78 996.136 Q2222.78 992.386 2220.93 990.233 Q2219.1 988.081 2215.95 988.081 M2225.23 973.428 L2225.23 977.687 Q2223.47 976.854 2221.67 976.414 Q2219.88 975.974 2218.12 975.974 Q2213.49 975.974 2211.04 979.099 Q2208.61 982.224 2208.26 988.543 Q2209.63 986.53 2211.69 985.465 Q2213.75 984.377 2216.23 984.377 Q2221.43 984.377 2224.44 987.548 Q2227.48 990.696 2227.48 996.136 Q2227.48 1001.46 2224.33 1004.68 Q2221.18 1007.9 2215.95 1007.9 Q2209.95 1007.9 2206.78 1003.31 Q2203.61 998.705 2203.61 989.979 Q2203.61 981.784 2207.5 976.923 Q2211.39 972.039 2217.94 972.039 Q2219.7 972.039 2221.48 972.386 Q2223.29 972.733 2225.23 973.428 Z" fill="#000000" fill-rule="nonzero" fill-opacity="1" /><path clip-path="url(#clip990)" d="M2245.53 975.743 Q2241.92 975.743 2240.09 979.307 Q2238.29 982.849 2238.29 989.979 Q2238.29 997.085 2240.09 1000.65 Q2241.92 1004.19 2245.53 1004.19 Q2249.17 1004.19 2250.97 1000.65 Q2252.8 997.085 2252.8 989.979 Q2252.8 982.849 2250.97 979.307 Q2249.17 975.743 2245.53 975.743 M2245.53 972.039 Q2251.34 972.039 2254.4 976.645 Q2257.48 981.229 2257.48 989.979 Q2257.48 998.705 2254.4 1003.31 Q2251.34 1007.9 2245.53 1007.9 Q2239.72 1007.9 2236.64 1003.31 Q2233.59 998.705 2233.59 989.979 Q2233.59 981.229 2236.64 976.645 Q2239.72 972.039 2245.53 972.039 Z" fill="#000000" fill-rule="nonzero" fill-opacity="1" /><path clip-path="url(#clip990)" d="M2205.83 789.888 L2205.83 785.629 Q2207.59 786.462 2209.4 786.902 Q2211.2 787.342 2212.94 787.342 Q2217.57 787.342 2220 784.24 Q2222.45 781.115 2222.8 774.773 Q2221.46 776.763 2219.4 777.828 Q2217.34 778.893 2214.84 778.893 Q2209.65 778.893 2206.62 775.768 Q2203.61 772.62 2203.61 767.18 Q2203.61 761.856 2206.76 758.639 Q2209.91 755.421 2215.14 755.421 Q2221.13 755.421 2224.28 760.027 Q2227.45 764.611 2227.45 773.361 Q2227.45 781.532 2223.56 786.416 Q2219.7 791.277 2213.15 791.277 Q2211.39 791.277 2209.58 790.93 Q2207.78 790.583 2205.83 789.888 M2215.14 775.236 Q2218.29 775.236 2220.12 773.083 Q2221.97 770.93 2221.97 767.18 Q2221.97 763.453 2220.12 761.301 Q2218.29 759.125 2215.14 759.125 Q2211.99 759.125 2210.14 761.301 Q2208.31 763.453 2208.31 767.18 Q2208.31 770.93 2210.14 773.083 Q2211.99 775.236 2215.14 775.236 Z" fill="#000000" fill-rule="nonzero" fill-opacity="1" /><path clip-path="url(#clip990)" d="M2245.86 759.125 Q2242.24 759.125 2240.42 762.689 Q2238.61 766.231 2238.61 773.361 Q2238.61 780.467 2240.42 784.032 Q2242.24 787.574 2245.86 787.574 Q2249.49 787.574 2251.3 784.032 Q2253.12 780.467 2253.12 773.361 Q2253.12 766.231 2251.3 762.689 Q2249.49 759.125 2245.86 759.125 M2245.86 755.421 Q2251.67 755.421 2254.72 760.027 Q2257.8 764.611 2257.8 773.361 Q2257.8 782.088 2254.72 786.694 Q2251.67 791.277 2245.86 791.277 Q2240.05 791.277 2236.97 786.694 Q2233.91 782.088 2233.91 773.361 Q2233.91 764.611 2236.97 760.027 Q2240.05 755.421 2245.86 755.421 Z" fill="#000000" fill-rule="nonzero" fill-opacity="1" /><path clip-path="url(#clip990)" d="M2204.28 570.053 L2211.92 570.053 L2211.92 543.687 L2203.61 545.354 L2203.61 541.095 L2211.87 539.428 L2216.55 539.428 L2216.55 570.053 L2224.19 570.053 L2224.19 573.988 L2204.28 573.988 L2204.28 570.053 Z" fill="#000000" fill-rule="nonzero" fill-opacity="1" /><path clip-path="url(#clip990)" d="M2237.66 570.053 L2253.98 570.053 L2253.98 573.988 L2232.04 573.988 L2232.04 570.053 Q2234.7 567.298 2239.28 562.669 Q2243.89 558.016 2245.07 556.673 Q2247.31 554.15 2248.19 552.414 Q2249.1 550.655 2249.1 548.965 Q2249.1 546.21 2247.15 544.474 Q2245.23 542.738 2242.13 542.738 Q2239.93 542.738 2237.48 543.502 Q2235.05 544.266 2232.27 545.817 L2232.27 541.095 Q2235.09 539.96 2237.55 539.382 Q2240 538.803 2242.04 538.803 Q2247.41 538.803 2250.6 541.488 Q2253.8 544.173 2253.8 548.664 Q2253.8 550.794 2252.99 552.715 Q2252.2 554.613 2250.09 557.206 Q2249.51 557.877 2246.41 561.095 Q2243.31 564.289 2237.66 570.053 Z" fill="#000000" fill-rule="nonzero" fill-opacity="1" /><path clip-path="url(#clip990)" d="M2273.8 542.507 Q2270.18 542.507 2268.36 546.072 Q2266.55 549.613 2266.55 556.743 Q2266.55 563.849 2268.36 567.414 Q2270.18 570.956 2273.8 570.956 Q2277.43 570.956 2279.24 567.414 Q2281.06 563.849 2281.06 556.743 Q2281.06 549.613 2279.24 546.072 Q2277.43 542.507 2273.8 542.507 M2273.8 538.803 Q2279.61 538.803 2282.66 543.409 Q2285.74 547.993 2285.74 556.743 Q2285.74 565.47 2282.66 570.076 Q2279.61 574.659 2273.8 574.659 Q2267.99 574.659 2264.91 570.076 Q2261.85 565.47 2261.85 556.743 Q2261.85 547.993 2264.91 543.409 Q2267.99 538.803 2273.8 538.803 Z" fill="#000000" fill-rule="nonzero" fill-opacity="1" /><path clip-path="url(#clip990)" d="M2204.28 353.435 L2211.92 353.435 L2211.92 327.069 L2203.61 328.736 L2203.61 324.477 L2211.87 322.81 L2216.55 322.81 L2216.55 353.435 L2224.19 353.435 L2224.19 357.37 L2204.28 357.37 L2204.28 353.435 Z" fill="#000000" fill-rule="nonzero" fill-opacity="1" /><path clip-path="url(#clip990)" d="M2233.68 322.81 L2252.04 322.81 L2252.04 326.745 L2237.96 326.745 L2237.96 335.217 Q2238.98 334.87 2240 334.708 Q2241.02 334.523 2242.04 334.523 Q2247.82 334.523 2251.2 337.694 Q2254.58 340.866 2254.58 346.282 Q2254.58 351.861 2251.11 354.963 Q2247.64 358.041 2241.32 358.041 Q2239.14 358.041 2236.87 357.671 Q2234.63 357.301 2232.22 356.56 L2232.22 351.861 Q2234.3 352.995 2236.53 353.551 Q2238.75 354.106 2241.23 354.106 Q2245.23 354.106 2247.57 352 Q2249.91 349.893 2249.91 346.282 Q2249.91 342.671 2247.57 340.565 Q2245.23 338.458 2241.23 338.458 Q2239.35 338.458 2237.48 338.875 Q2235.62 339.291 2233.68 340.171 L2233.68 322.81 Z" fill="#000000" fill-rule="nonzero" fill-opacity="1" /><path clip-path="url(#clip990)" d="M2273.8 325.889 Q2270.18 325.889 2268.36 329.454 Q2266.55 332.995 2266.55 340.125 Q2266.55 347.231 2268.36 350.796 Q2270.18 354.338 2273.8 354.338 Q2277.43 354.338 2279.24 350.796 Q2281.06 347.231 2281.06 340.125 Q2281.06 332.995 2279.24 329.454 Q2277.43 325.889 2273.8 325.889 M2273.8 322.185 Q2279.61 322.185 2282.66 326.792 Q2285.74 331.375 2285.74 340.125 Q2285.74 348.852 2282.66 353.458 Q2279.61 358.041 2273.8 358.041 Q2267.99 358.041 2264.91 353.458 Q2261.85 348.852 2261.85 340.125 Q2261.85 331.375 2264.91 326.792 Q2267.99 322.185 2273.8 322.185 Z" fill="#000000" fill-rule="nonzero" fill-opacity="1" /><path clip-path="url(#clip990)" d="M2204.28 136.817 L2211.92 136.817 L2211.92 110.451 L2203.61 112.118 L2203.61 107.859 L2211.87 106.192 L2216.55 106.192 L2216.55 136.817 L2224.19 136.817 L2224.19 140.752 L2204.28 140.752 L2204.28 136.817 Z" fill="#000000" fill-rule="nonzero" fill-opacity="1" /><path clip-path="url(#clip990)" d="M2243.63 124.34 Q2240.3 124.34 2238.38 126.123 Q2236.48 127.905 2236.48 131.03 Q2236.48 134.155 2238.38 135.937 Q2240.3 137.72 2243.63 137.72 Q2246.97 137.72 2248.89 135.937 Q2250.81 134.132 2250.81 131.03 Q2250.81 127.905 2248.89 126.123 Q2246.99 124.34 2243.63 124.34 M2238.96 122.349 Q2235.95 121.609 2234.26 119.549 Q2232.59 117.488 2232.59 114.525 Q2232.59 110.382 2235.53 107.975 Q2238.49 105.567 2243.63 105.567 Q2248.8 105.567 2251.74 107.975 Q2254.68 110.382 2254.68 114.525 Q2254.68 117.488 2252.99 119.549 Q2251.32 121.609 2248.33 122.349 Q2251.71 123.136 2253.59 125.428 Q2255.49 127.72 2255.49 131.03 Q2255.49 136.053 2252.41 138.738 Q2249.35 141.423 2243.63 141.423 Q2237.92 141.423 2234.84 138.738 Q2231.78 136.053 2231.78 131.03 Q2231.78 127.72 2233.68 125.428 Q2235.58 123.136 2238.96 122.349 M2237.24 114.965 Q2237.24 117.65 2238.91 119.155 Q2240.6 120.66 2243.63 120.66 Q2246.64 120.66 2248.33 119.155 Q2250.05 117.65 2250.05 114.965 Q2250.05 112.28 2248.33 110.775 Q2246.64 109.271 2243.63 109.271 Q2240.6 109.271 2238.91 110.775 Q2237.24 112.28 2237.24 114.965 Z" fill="#000000" fill-rule="nonzero" fill-opacity="1" /><path clip-path="url(#clip990)" d="M2273.8 109.271 Q2270.18 109.271 2268.36 112.836 Q2266.55 116.377 2266.55 123.507 Q2266.55 130.613 2268.36 134.178 Q2270.18 137.72 2273.8 137.72 Q2277.43 137.72 2279.24 134.178 Q2281.06 130.613 2281.06 123.507 Q2281.06 116.377 2279.24 112.836 Q2277.43 109.271 2273.8 109.271 M2273.8 105.567 Q2279.61 105.567 2282.66 110.174 Q2285.74 114.757 2285.74 123.507 Q2285.74 132.234 2282.66 136.84 Q2279.61 141.423 2273.8 141.423 Q2267.99 141.423 2264.91 136.84 Q2261.85 132.234 2261.85 123.507 Q2261.85 114.757 2264.91 110.174 Q2267.99 105.567 2273.8 105.567 Z" fill="#000000" fill-rule="nonzero" fill-opacity="1" /><path clip-path="url(#clip990)" d="M2336.53 1054.29 L2354.38 1054.29 L2354.38 1046.21 Q2354.38 1041.72 2352.06 1039.27 Q2349.74 1036.82 2345.44 1036.82 Q2341.17 1036.82 2338.85 1039.27 Q2336.53 1041.72 2336.53 1046.21 L2336.53 1054.29 M2331.24 1060.72 L2331.24 1046.21 Q2331.24 1038.22 2334.87 1034.14 Q2338.47 1030.04 2345.44 1030.04 Q2352.47 1030.04 2356.07 1034.14 Q2359.67 1038.22 2359.67 1046.21 L2359.67 1054.29 L2378.76 1054.29 L2378.76 1060.72 L2331.24 1060.72 Z" fill="#000000" fill-rule="nonzero" fill-opacity="1" /><path clip-path="url(#clip990)" d="M2357.25 992.036 L2378.76 992.036 L2378.76 997.892 L2357.44 997.892 Q2352.38 997.892 2349.86 999.866 Q2347.35 1001.84 2347.35 1005.79 Q2347.35 1010.53 2350.37 1013.27 Q2353.4 1016 2358.62 1016 L2378.76 1016 L2378.76 1021.89 L2329.24 1021.89 L2329.24 1016 L2348.65 1016 Q2345.44 1013.9 2343.85 1011.07 Q2342.26 1008.2 2342.26 1004.48 Q2342.26 998.338 2346.08 995.187 Q2349.86 992.036 2357.25 992.036 Z" fill="#000000" fill-rule="nonzero" fill-opacity="1" /><path clip-path="url(#clip990)" d="M2360.84 964.154 Q2360.84 971.252 2362.47 973.989 Q2364.09 976.726 2368.01 976.726 Q2371.12 976.726 2372.97 974.689 Q2374.79 972.62 2374.79 969.087 Q2374.79 964.218 2371.35 961.289 Q2367.88 958.329 2362.15 958.329 L2360.84 958.329 L2360.84 964.154 M2358.43 952.473 L2378.76 952.473 L2378.76 958.329 L2373.35 958.329 Q2376.6 960.335 2378.16 963.326 Q2379.69 966.318 2379.69 970.647 Q2379.69 976.121 2376.63 979.368 Q2373.54 982.583 2368.39 982.583 Q2362.37 982.583 2359.32 978.572 Q2356.26 974.53 2356.26 966.541 L2356.26 958.329 L2355.69 958.329 Q2351.65 958.329 2349.45 961.003 Q2347.22 963.645 2347.22 968.451 Q2347.22 971.506 2347.95 974.403 Q2348.69 977.299 2350.15 979.973 L2344.74 979.973 Q2343.5 976.758 2342.89 973.734 Q2342.26 970.711 2342.26 967.846 Q2342.26 960.112 2346.27 956.292 Q2350.28 952.473 2358.43 952.473 Z" fill="#000000" fill-rule="nonzero" fill-opacity="1" /><path clip-path="url(#clip990)" d="M2344.17 917.684 L2349.7 917.684 Q2348.43 920.167 2347.79 922.841 Q2347.16 925.514 2347.16 928.379 Q2347.16 932.739 2348.49 934.935 Q2349.83 937.1 2352.51 937.1 Q2354.54 937.1 2355.72 935.54 Q2356.87 933.981 2357.92 929.27 L2358.36 927.265 Q2359.7 921.026 2362.15 918.416 Q2364.57 915.775 2368.93 915.775 Q2373.89 915.775 2376.79 919.721 Q2379.69 923.636 2379.69 930.511 Q2379.69 933.376 2379.11 936.495 Q2378.57 939.582 2377.46 943.02 L2371.41 943.02 Q2373.1 939.773 2373.96 936.622 Q2374.79 933.471 2374.79 930.384 Q2374.79 926.246 2373.38 924.018 Q2371.95 921.79 2369.37 921.79 Q2366.99 921.79 2365.71 923.413 Q2364.44 925.005 2363.26 930.448 L2362.79 932.485 Q2361.64 937.927 2359.28 940.346 Q2356.9 942.765 2352.76 942.765 Q2347.73 942.765 2344.99 939.2 Q2342.26 935.636 2342.26 929.079 Q2342.26 925.832 2342.73 922.968 Q2343.21 920.103 2344.17 917.684 Z" fill="#000000" fill-rule="nonzero" fill-opacity="1" /><path clip-path="url(#clip990)" d="M2359.48 875.957 L2362.34 875.957 L2362.34 902.884 Q2368.39 902.502 2371.57 899.256 Q2374.72 895.977 2374.72 890.153 Q2374.72 886.779 2373.89 883.628 Q2373.07 880.445 2371.41 877.326 L2376.95 877.326 Q2378.29 880.477 2378.99 883.787 Q2379.69 887.097 2379.69 890.503 Q2379.69 899.033 2374.72 904.03 Q2369.76 908.995 2361.29 908.995 Q2352.54 908.995 2347.41 904.284 Q2342.26 899.542 2342.26 891.521 Q2342.26 884.328 2346.9 880.158 Q2351.52 875.957 2359.48 875.957 M2357.76 881.814 Q2352.95 881.877 2350.09 884.519 Q2347.22 887.129 2347.22 891.458 Q2347.22 896.359 2349.99 899.319 Q2352.76 902.247 2357.79 902.693 L2357.76 881.814 Z" fill="#000000" fill-rule="nonzero" fill-opacity="1" /><path clip-path="url(#clip990)" d="M2337.58 829.487 L2361.23 838.208 L2361.23 820.735 L2337.58 829.487 M2331.24 833.116 L2331.24 825.827 L2378.76 807.717 L2378.76 814.401 L2366.57 818.729 L2366.57 840.15 L2378.76 844.479 L2378.76 851.258 L2331.24 833.116 Z" fill="#000000" fill-rule="nonzero" fill-opacity="1" /><path clip-path="url(#clip990)" d="M2357.25 771.4 L2378.76 771.4 L2378.76 777.257 L2357.44 777.257 Q2352.38 777.257 2349.86 779.23 Q2347.35 781.204 2347.35 785.15 Q2347.35 789.893 2350.37 792.63 Q2353.4 795.367 2358.62 795.367 L2378.76 795.367 L2378.76 801.256 L2343.12 801.256 L2343.12 795.367 L2348.65 795.367 Q2345.44 793.267 2343.85 790.434 Q2342.26 787.569 2342.26 783.845 Q2342.26 777.702 2346.08 774.551 Q2349.86 771.4 2357.25 771.4 Z" fill="#000000" fill-rule="nonzero" fill-opacity="1" /><path clip-path="url(#clip990)" d="M2360.53 736.262 Q2354.16 736.262 2350.66 738.903 Q2347.16 741.513 2347.16 746.256 Q2347.16 750.966 2350.66 753.608 Q2354.16 756.218 2360.53 756.218 Q2366.86 756.218 2370.36 753.608 Q2373.86 750.966 2373.86 746.256 Q2373.86 741.513 2370.36 738.903 Q2366.86 736.262 2360.53 736.262 M2374.34 730.405 Q2383.44 730.405 2387.87 734.447 Q2392.32 738.49 2392.32 746.829 Q2392.32 749.916 2391.85 752.653 Q2391.4 755.391 2390.44 757.969 L2384.75 757.969 Q2386.15 755.391 2386.82 752.876 Q2387.48 750.362 2387.48 747.752 Q2387.48 741.991 2384.46 739.126 Q2381.47 736.262 2375.39 736.262 L2372.49 736.262 Q2375.64 738.076 2377.2 740.909 Q2378.76 743.741 2378.76 747.688 Q2378.76 754.245 2373.77 758.255 Q2368.77 762.266 2360.53 762.266 Q2352.25 762.266 2347.25 758.255 Q2342.26 754.245 2342.26 747.688 Q2342.26 743.741 2343.82 740.909 Q2345.38 738.076 2348.53 736.262 L2343.12 736.262 L2343.12 730.405 L2374.34 730.405 Z" fill="#000000" fill-rule="nonzero" fill-opacity="1" /><path clip-path="url(#clip990)" d="M2329.24 718.342 L2329.24 712.486 L2378.76 712.486 L2378.76 718.342 L2329.24 718.342 Z" fill="#000000" fill-rule="nonzero" fill-opacity="1" /><path clip-path="url(#clip990)" d="M2359.48 669.74 L2362.34 669.74 L2362.34 696.667 Q2368.39 696.285 2371.57 693.039 Q2374.72 689.76 2374.72 683.936 Q2374.72 680.562 2373.89 677.411 Q2373.07 674.228 2371.41 671.109 L2376.95 671.109 Q2378.29 674.26 2378.99 677.57 Q2379.69 680.88 2379.69 684.286 Q2379.69 692.816 2374.72 697.813 Q2369.76 702.778 2361.29 702.778 Q2352.54 702.778 2347.41 698.067 Q2342.26 693.325 2342.26 685.304 Q2342.26 678.111 2346.9 673.941 Q2351.52 669.74 2359.48 669.74 M2357.76 675.596 Q2352.95 675.66 2350.09 678.302 Q2347.22 680.912 2347.22 685.241 Q2347.22 690.142 2349.99 693.102 Q2352.76 696.03 2357.79 696.476 L2357.76 675.596 Z" fill="#000000" fill-rule="nonzero" fill-opacity="1" /><path clip-path="url(#clip990)" d="M2331.24 629 L2331.24 623.589 L2384.81 640.139 L2384.81 645.55 L2331.24 629 Z" fill="#000000" fill-rule="nonzero" fill-opacity="1" /><path clip-path="url(#clip990)" d="M2348.53 573.268 L2329.24 573.268 L2329.24 567.411 L2378.76 567.411 L2378.76 573.268 L2373.42 573.268 Q2376.6 575.114 2378.16 577.947 Q2379.69 580.747 2379.69 584.694 Q2379.69 591.155 2374.53 595.229 Q2369.37 599.272 2360.97 599.272 Q2352.57 599.272 2347.41 595.229 Q2342.26 591.155 2342.26 584.694 Q2342.26 580.747 2343.82 577.947 Q2345.34 575.114 2348.53 573.268 M2360.97 593.224 Q2367.43 593.224 2371.12 590.582 Q2374.79 587.909 2374.79 583.262 Q2374.79 578.615 2371.12 575.941 Q2367.43 573.268 2360.97 573.268 Q2354.51 573.268 2350.85 575.941 Q2347.16 578.615 2347.16 583.262 Q2347.16 587.909 2350.85 590.582 Q2354.51 593.224 2360.97 593.224 Z" fill="#000000" fill-rule="nonzero" fill-opacity="1" /><path clip-path="url(#clip990)" d="M2359.48 524.857 L2362.34 524.857 L2362.34 551.783 Q2368.39 551.402 2371.57 548.155 Q2374.72 544.877 2374.72 539.052 Q2374.72 535.678 2373.89 532.527 Q2373.07 529.344 2371.41 526.225 L2376.95 526.225 Q2378.29 529.376 2378.99 532.686 Q2379.69 535.997 2379.69 539.402 Q2379.69 547.932 2374.72 552.929 Q2369.76 557.895 2361.29 557.895 Q2352.54 557.895 2347.41 553.184 Q2342.26 548.441 2342.26 540.421 Q2342.26 533.227 2346.9 529.058 Q2351.52 524.857 2359.48 524.857 M2357.76 530.713 Q2352.95 530.777 2350.09 533.418 Q2347.22 536.028 2347.22 540.357 Q2347.22 545.259 2349.99 548.219 Q2352.76 551.147 2357.79 551.593 L2357.76 530.713 Z" fill="#000000" fill-rule="nonzero" fill-opacity="1" /><path clip-path="url(#clip990)" d="M2360.53 491.787 Q2354.16 491.787 2350.66 494.428 Q2347.16 497.038 2347.16 501.781 Q2347.16 506.491 2350.66 509.133 Q2354.16 511.743 2360.53 511.743 Q2366.86 511.743 2370.36 509.133 Q2373.86 506.491 2373.86 501.781 Q2373.86 497.038 2370.36 494.428 Q2366.86 491.787 2360.53 491.787 M2374.34 485.93 Q2383.44 485.93 2387.87 489.972 Q2392.32 494.015 2392.32 502.354 Q2392.32 505.441 2391.85 508.178 Q2391.4 510.916 2390.44 513.494 L2384.75 513.494 Q2386.15 510.916 2386.82 508.401 Q2387.48 505.887 2387.48 503.277 Q2387.48 497.516 2384.46 494.651 Q2381.47 491.787 2375.39 491.787 L2372.49 491.787 Q2375.64 493.601 2377.2 496.434 Q2378.76 499.266 2378.76 503.213 Q2378.76 509.77 2373.77 513.78 Q2368.77 517.791 2360.53 517.791 Q2352.25 517.791 2347.25 513.78 Q2342.26 509.77 2342.26 503.213 Q2342.26 499.266 2343.82 496.434 Q2345.38 493.601 2348.53 491.787 L2343.12 491.787 L2343.12 485.93 L2374.34 485.93 Z" fill="#000000" fill-rule="nonzero" fill-opacity="1" /><polyline clip-path="url(#clip992)" style="stroke:#ff0000; stroke-linecap:round; stroke-linejoin:round; stroke-width:4; stroke-opacity:1; fill:none" points="274.991,1423.18 277.917,1423.18 280.843,1423.18 283.769,1423.18 286.695,1423.18 289.621,1423.18 292.547,1423.18 295.473,1423.18 298.399,1423.18 301.325,1423.18 304.251,1423.18 307.177,1423.18 310.102,1423.18 313.028,1423.18 315.954,1423.18 318.88,1423.18 321.806,1423.18 324.732,1423.18 327.658,1423.18 330.584,1423.18 333.51,1423.18 336.436,1423.18 339.362,1423.18 342.288,1423.18 345.214,1423.18 348.14,1423.18 351.066,1423.18 353.992,1423.18 356.918,1423.18 359.844,1423.18 362.77,1423.18 365.695,1423.18 368.621,1423.18 371.547,1423.18 374.473,1423.18 377.399,1423.18 380.325,1423.18 383.251,1423.18 386.177,1423.18 389.103,1423.18 392.029,1423.18 394.955,1423.18 397.881,1423.18 400.807,1423.18 403.733,1423.18 406.659,1423.18 409.585,1423.18 412.511,1423.18 415.437,1423.18 418.363,1423.18 421.288,1423.18 424.214,1423.18 427.14,1423.18 430.066,1423.18 432.992,1423.18 435.918,1423.18 438.844,1423.18 441.77,1423.18 444.696,1423.18 447.622,1423.18 450.548,1423.18 453.474,1423.18 456.4,1423.18 459.326,1423.18 462.252,1423.18 465.178,1423.18 468.104,1423.18 471.03,1423.18 473.956,1423.18 476.881,1423.18 479.807,1423.18 482.733,1423.18 485.659,1423.18 488.585,1423.18 491.511,1423.18 494.437,1423.18 497.363,1423.18 500.289,1423.18 503.215,1423.18 506.141,1423.18 509.067,1423.18 511.993,1423.18 514.919,1423.18 517.845,1423.18 520.771,1423.18 523.697,1423.18 526.623,1423.18 529.548,1423.18 532.474,1423.18 535.4,1423.18 538.326,1423.18 541.252,1423.18 544.178,1423.18 547.104,1423.18 550.03,1423.18 552.956,1423.18 555.882,1423.18 558.808,1423.18 561.734,1423.18 564.66,1423.18 567.586,1423.18 570.512,1423.18 573.438,1423.18 576.364,1423.18 579.29,1423.18 582.216,1423.18 585.141,1423.18 588.067,1423.18 590.993,1423.18 593.919,1423.18 596.845,1423.18 599.771,1423.18 602.697,1423.18 605.623,1423.18 608.549,1423.18 611.475,1423.18 614.401,1423.18 617.327,1423.18 620.253,1423.18 623.179,1423.18 626.105,1423.18 629.031,1423.18 631.957,1423.18 634.883,1423.18 637.809,1423.18 640.734,1423.18 643.66,1423.18 646.586,1423.18 649.512,1423.18 652.438,1423.18 655.364,1423.18 658.29,1423.18 661.216,1423.18 664.142,1423.18 667.068,1423.18 669.994,1423.18 672.92,1423.18 675.846,1423.18 678.772,1423.18 681.698,1423.18 684.624,1423.18 687.55,1423.18 690.476,1423.18 693.402,1423.18 696.327,1423.18 699.253,1423.18 702.179,1423.18 705.105,1423.18 708.031,1423.18 710.957,1423.18 713.883,1423.18 716.809,1423.18 719.735,1423.18 722.661,1423.18 725.587,1423.18 728.513,1423.18 731.439,1423.18 734.365,1423.18 737.291,123.472 740.217,123.472 743.143,123.472 746.069,123.472 748.995,123.472 751.92,123.472 754.846,123.472 757.772,123.472 760.698,123.472 763.624,123.472 766.55,123.472 769.476,123.472 772.402,123.472 775.328,123.472 778.254,123.472 781.18,123.472 784.106,123.472 787.032,123.472 789.958,123.472 792.884,123.472 795.81,123.472 798.736,123.472 801.662,123.472 804.588,123.472 807.513,123.472 810.439,123.472 813.365,123.472 816.291,123.472 819.217,123.472 822.143,123.472 825.069,123.472 827.995,123.472 830.921,123.472 833.847,123.472 836.773,123.472 839.699,123.472 842.625,123.472 845.551,123.472 848.477,123.472 851.403,123.472 854.329,123.472 857.255,123.472 860.181,123.472 863.106,123.472 866.032,123.472 868.958,123.472 871.884,123.472 874.81,123.472 877.736,123.472 880.662,123.472 883.588,123.472 886.514,123.472 889.44,123.472 892.366,123.472 895.292,123.472 898.218,123.472 901.144,123.472 904.07,123.472 906.996,123.472 909.922,123.472 912.848,123.472 915.773,123.472 918.699,123.472 921.625,123.472 924.551,123.472 927.477,123.472 930.403,123.472 933.329,123.472 936.255,123.472 939.181,123.472 942.107,123.472 945.033,123.472 947.959,123.472 950.885,123.472 953.811,123.472 956.737,123.472 959.663,123.472 962.589,123.472 965.515,123.472 968.441,123.472 971.366,123.472 974.292,123.472 977.218,123.472 980.144,123.472 983.07,123.472 985.996,123.472 988.922,123.472 991.848,123.472 994.774,123.472 997.7,123.472 1000.63,123.472 1003.55,123.472 1006.48,123.472 1009.4,123.472 1012.33,123.472 1015.26,123.472 1018.18,123.472 1021.11,123.472 1024.03,123.472 1026.96,123.472 1029.89,123.472 1032.81,123.472 1035.74,123.472 1038.66,123.472 1041.59,123.472 1044.52,123.472 1047.44,123.472 1050.37,123.472 1053.29,123.472 1056.22,123.472 1059.14,123.472 1062.07,123.472 1065,123.472 1067.92,123.472 1070.85,123.472 1073.77,123.472 1076.7,123.472 1079.63,123.472 1082.55,123.472 1085.48,123.472 1088.4,123.472 1091.33,123.472 1094.26,123.472 1097.18,123.472 1100.11,123.472 1103.03,123.472 1105.96,123.472 1108.89,123.472 1111.81,123.472 1114.74,123.472 1117.66,123.472 1120.59,123.472 1123.52,123.472 1126.44,123.472 1129.37,123.472 1132.29,123.472 1135.22,123.472 1138.15,123.472 1141.07,123.472 1144,123.472 1146.92,123.472 1149.85,123.472 1152.78,123.472 1155.7,123.472 1158.63,123.472 1161.55,123.472 1164.48,123.472 1167.4,123.472 1170.33,123.472 1173.26,123.472 1176.18,123.472 1179.11,123.472 1182.03,123.472 1184.96,123.472 1187.89,123.472 1190.81,123.472 1193.74,123.472 1196.66,123.472 1199.59,123.472 1202.52,123.472 1205.44,123.472 1208.37,123.472 1211.29,123.472 1214.22,123.472 1217.15,123.472 1220.07,123.472 1223,123.472 1225.92,123.472 1228.85,123.472 1231.78,123.472 1234.7,123.472 1237.63,123.472 1240.55,123.472 1243.48,123.472 1246.41,123.472 1249.33,123.472 1252.26,123.472 1255.18,123.472 1258.11,123.472 1261.04,123.472 1263.96,123.472 1266.89,123.472 1269.81,123.472 1272.74,123.472 1275.66,123.472 1278.59,123.472 1281.52,123.472 1284.44,123.472 1287.37,123.472 1290.29,123.472 1293.22,123.472 1296.15,123.472 1299.07,123.472 1302,123.472 1304.92,123.472 1307.85,123.472 1310.78,123.472 1313.7,123.472 1316.63,123.472 1319.55,123.472 1322.48,123.472 1325.41,123.472 1328.33,123.472 1331.26,123.472 1334.18,123.472 1337.11,123.472 1340.04,123.472 1342.96,123.472 1345.89,123.472 1348.81,123.472 1351.74,123.472 1354.67,123.472 1357.59,123.472 1360.52,123.472 1363.44,123.472 1366.37,123.472 1369.3,123.472 1372.22,123.472 1375.15,123.472 1378.07,123.472 1381,123.472 1383.93,123.472 1386.85,123.472 1389.78,123.472 1392.7,123.472 1395.63,123.472 1398.55,123.472 1401.48,123.472 1404.41,123.472 1407.33,123.472 1410.26,123.472 1413.18,123.472 1416.11,123.472 1419.04,123.472 1421.96,123.472 1424.89,123.472 1427.81,123.472 1430.74,123.472 1433.67,123.472 1436.59,123.472 1439.52,123.472 1442.44,123.472 1445.37,123.472 1448.3,123.472 1451.22,123.472 1454.15,123.472 1457.07,123.472 1460,123.472 1462.93,123.472 1465.85,123.472 1468.78,123.472 1471.7,123.472 1474.63,123.472 1477.56,123.472 1480.48,123.472 1483.41,123.472 1486.33,123.472 1489.26,123.472 1492.19,123.472 1495.11,123.472 1498.04,123.472 1500.96,123.472 1503.89,123.472 1506.81,123.472 1509.74,123.472 1512.67,123.472 1515.59,123.472 1518.52,123.472 1521.44,123.472 1524.37,123.472 1527.3,123.472 1530.22,123.472 1533.15,123.472 1536.07,123.472 1539,123.472 1541.93,123.472 1544.85,123.472 1547.78,123.472 1550.7,123.472 1553.63,123.472 1556.56,123.472 1559.48,123.472 1562.41,123.472 1565.33,123.472 1568.26,123.472 1571.19,123.472 1574.11,123.472 1577.04,123.472 1579.96,123.472 1582.89,123.472 1585.82,123.472 1588.74,123.472 1591.67,123.472 1594.59,123.472 1597.52,123.472 1600.45,123.472 1603.37,123.472 1606.3,123.472 1609.22,123.472 1612.15,123.472 1615.07,123.472 1618,123.472 1620.93,123.472 1623.85,123.472 1626.78,123.472 1629.7,123.472 1632.63,123.472 1635.56,123.472 1638.48,123.472 1641.41,123.472 1644.33,123.472 1647.26,123.472 1650.19,123.472 1653.11,123.472 1656.04,1423.18 1658.96,1423.18 1661.89,1423.18 1664.82,1423.18 1667.74,1423.18 1670.67,1423.18 1673.59,1423.18 1676.52,1423.18 1679.45,1423.18 1682.37,1423.18 1685.3,1423.18 1688.22,1423.18 1691.15,1423.18 1694.08,1423.18 1697,1423.18 1699.93,1423.18 1702.85,1423.18 1705.78,1423.18 1708.71,1423.18 1711.63,1423.18 1714.56,1423.18 1717.48,1423.18 1720.41,1423.18 1723.33,1423.18 1726.26,1423.18 1729.19,1423.18 1732.11,1423.18 1735.04,1423.18 1737.96,1423.18 1740.89,1423.18 1743.82,1423.18 1746.74,1423.18 1749.67,1423.18 1752.59,1423.18 1755.52,1423.18 1758.45,1423.18 1761.37,1423.18 1764.3,1423.18 1767.22,1423.18 1770.15,1423.18 1773.08,1423.18 1776,1423.18 1778.93,1423.18 1781.85,1423.18 1784.78,1423.18 1787.71,1423.18 1790.63,1423.18 1793.56,1423.18 1796.48,1423.18 1799.41,1423.18 1802.34,1423.18 1805.26,1423.18 1808.19,1423.18 1811.11,1423.18 1814.04,1423.18 1816.97,1423.18 1819.89,1423.18 1822.82,1423.18 1825.74,1423.18 1828.67,1423.18 1831.59,1423.18 1834.52,1423.18 1837.45,1423.18 1840.37,1423.18 1843.3,1423.18 1846.22,1423.18 1849.15,1423.18 1852.08,1423.18 1855,1423.18 1857.93,1423.18 1860.85,1423.18 1863.78,1423.18 1866.71,1423.18 1869.63,1423.18 1872.56,1423.18 1875.48,1423.18 1878.41,1423.18 1881.34,1423.18 1884.26,1423.18 1887.19,1423.18 1890.11,1423.18 1893.04,1423.18 1895.97,1423.18 1898.89,1423.18 1901.82,1423.18 1904.74,1423.18 1907.67,1423.18 1910.6,1423.18 1913.52,1423.18 1916.45,1423.18 1919.37,1423.18 1922.3,1423.18 1925.23,1423.18 1928.15,1423.18 1931.08,1423.18 1934,1423.18 1936.93,1423.18 1939.85,1423.18 1942.78,1423.18 1945.71,1423.18 1948.63,1423.18 1951.56,1423.18 1954.48,1423.18 1957.41,1423.18 1960.34,1423.18 1963.26,1423.18 1966.19,1423.18 1969.11,1423.18 1972.04,1423.18 1974.97,1423.18 1977.89,1423.18 1980.82,1423.18 1983.74,1423.18 1986.67,1423.18 1989.6,1423.18 1992.52,1423.18 1995.45,1423.18 1998.37,1423.18 2001.3,1423.18 2004.23,1423.18 2007.15,1423.18 2010.08,1423.18 2013,1423.18 2015.93,1423.18 2018.86,1423.18 2021.78,1423.18 2024.71,1423.18 2027.63,1423.18 2030.56,1423.18 2033.49,1423.18 2036.41,1423.18 2039.34,1423.18 2042.26,1423.18 2045.19,1423.18 2048.11,1423.18 2051.04,1423.18 2053.97,1423.18 2056.89,1423.18 2059.82,1423.18 2062.74,1423.18 2065.67,1423.18 2068.6,1423.18 2071.52,1423.18 2074.45,1423.18 2077.37,1423.18 2080.3,1423.18 2083.23,1423.18 2086.15,1423.18 2089.08,1423.18 2092,1423.18 2094.93,1423.18 2097.86,1423.18 2100.78,1423.18 2103.71,1423.18 2106.63,1423.18 2109.56,1423.18 2112.49,1423.18 "/>
</svg>
